%TF.GenerationSoftware,KiCad,Pcbnew,6.99.0-unknown-c34fb494b1~148~ubuntu20.04.1*%
%TF.CreationDate,2022-06-23T00:09:44+02:00*%
%TF.ProjectId,optimizer,6f707469-6d69-47a6-9572-2e6b69636164,rev?*%
%TF.SameCoordinates,Original*%
%TF.FileFunction,Legend,Top*%
%TF.FilePolarity,Positive*%
%FSLAX46Y46*%
G04 Gerber Fmt 4.6, Leading zero omitted, Abs format (unit mm)*
G04 Created by KiCad (PCBNEW 6.99.0-unknown-c34fb494b1~148~ubuntu20.04.1) date 2022-06-23 00:09:44*
%MOMM*%
%LPD*%
G01*
G04 APERTURE LIST*
%ADD10C,0.150000*%
%ADD11C,0.400000*%
%ADD12C,0.120000*%
%ADD13C,1.524000*%
G04 APERTURE END LIST*
D10*
X161375000Y-127650000D02*
X162125000Y-127650000D01*
X171000000Y-136750000D02*
X177750000Y-136750000D01*
X158500000Y-111000000D02*
X159000000Y-111500000D01*
X177750000Y-136750000D02*
X178000000Y-137000000D01*
X159000000Y-127500000D02*
X159000000Y-111500000D01*
X158500000Y-128000000D02*
X159000000Y-127500000D01*
X174750000Y-136750000D02*
X175000000Y-137000000D01*
X140247619Y-106867380D02*
X140438095Y-106867380D01*
X140438095Y-106867380D02*
X140533333Y-106915000D01*
X140533333Y-106915000D02*
X140628571Y-107010238D01*
X140628571Y-107010238D02*
X140676190Y-107200714D01*
X140676190Y-107200714D02*
X140676190Y-107534047D01*
X140676190Y-107534047D02*
X140628571Y-107724523D01*
X140628571Y-107724523D02*
X140533333Y-107819761D01*
X140533333Y-107819761D02*
X140438095Y-107867380D01*
X140438095Y-107867380D02*
X140247619Y-107867380D01*
X140247619Y-107867380D02*
X140152381Y-107819761D01*
X140152381Y-107819761D02*
X140057143Y-107724523D01*
X140057143Y-107724523D02*
X140009524Y-107534047D01*
X140009524Y-107534047D02*
X140009524Y-107200714D01*
X140009524Y-107200714D02*
X140057143Y-107010238D01*
X140057143Y-107010238D02*
X140152381Y-106915000D01*
X140152381Y-106915000D02*
X140247619Y-106867380D01*
X141104762Y-107867380D02*
X141104762Y-106867380D01*
X141104762Y-106867380D02*
X141485714Y-106867380D01*
X141485714Y-106867380D02*
X141580952Y-106915000D01*
X141580952Y-106915000D02*
X141628571Y-106962619D01*
X141628571Y-106962619D02*
X141676190Y-107057857D01*
X141676190Y-107057857D02*
X141676190Y-107200714D01*
X141676190Y-107200714D02*
X141628571Y-107295952D01*
X141628571Y-107295952D02*
X141580952Y-107343571D01*
X141580952Y-107343571D02*
X141485714Y-107391190D01*
X141485714Y-107391190D02*
X141104762Y-107391190D01*
X141961905Y-106867380D02*
X142533333Y-106867380D01*
X142247619Y-107867380D02*
X142247619Y-106867380D01*
X142866667Y-107867380D02*
X142866667Y-106867380D01*
X143342857Y-107867380D02*
X143342857Y-106867380D01*
X143342857Y-106867380D02*
X143676190Y-107581666D01*
X143676190Y-107581666D02*
X144009523Y-106867380D01*
X144009523Y-106867380D02*
X144009523Y-107867380D01*
X144485714Y-107867380D02*
X144485714Y-106867380D01*
X144914285Y-107819761D02*
X145057142Y-107867380D01*
X145057142Y-107867380D02*
X145295237Y-107867380D01*
X145295237Y-107867380D02*
X145390475Y-107819761D01*
X145390475Y-107819761D02*
X145438094Y-107772142D01*
X145438094Y-107772142D02*
X145485713Y-107676904D01*
X145485713Y-107676904D02*
X145485713Y-107581666D01*
X145485713Y-107581666D02*
X145438094Y-107486428D01*
X145438094Y-107486428D02*
X145390475Y-107438809D01*
X145390475Y-107438809D02*
X145295237Y-107391190D01*
X145295237Y-107391190D02*
X145104761Y-107343571D01*
X145104761Y-107343571D02*
X145009523Y-107295952D01*
X145009523Y-107295952D02*
X144961904Y-107248333D01*
X144961904Y-107248333D02*
X144914285Y-107153095D01*
X144914285Y-107153095D02*
X144914285Y-107057857D01*
X144914285Y-107057857D02*
X144961904Y-106962619D01*
X144961904Y-106962619D02*
X145009523Y-106915000D01*
X145009523Y-106915000D02*
X145104761Y-106867380D01*
X145104761Y-106867380D02*
X145342856Y-106867380D01*
X145342856Y-106867380D02*
X145485713Y-106915000D01*
X145771428Y-106867380D02*
X146342856Y-106867380D01*
X146057142Y-107867380D02*
X146057142Y-106867380D01*
X147180952Y-107200714D02*
X147419047Y-107867380D01*
X147419047Y-107867380D02*
X147657142Y-107200714D01*
X148561904Y-107867380D02*
X147990476Y-107867380D01*
X148276190Y-107867380D02*
X148276190Y-106867380D01*
X148276190Y-106867380D02*
X148180952Y-107010238D01*
X148180952Y-107010238D02*
X148085714Y-107105476D01*
X148085714Y-107105476D02*
X147990476Y-107153095D01*
X148990476Y-107772142D02*
X149038095Y-107819761D01*
X149038095Y-107819761D02*
X148990476Y-107867380D01*
X148990476Y-107867380D02*
X148942857Y-107819761D01*
X148942857Y-107819761D02*
X148990476Y-107772142D01*
X148990476Y-107772142D02*
X148990476Y-107867380D01*
X149990475Y-107867380D02*
X149419047Y-107867380D01*
X149704761Y-107867380D02*
X149704761Y-106867380D01*
X149704761Y-106867380D02*
X149609523Y-107010238D01*
X149609523Y-107010238D02*
X149514285Y-107105476D01*
X149514285Y-107105476D02*
X149419047Y-107153095D01*
%TO.C,U4*%
X162238095Y-104967380D02*
X162238095Y-105776904D01*
X162238095Y-105776904D02*
X162285714Y-105872142D01*
X162285714Y-105872142D02*
X162333333Y-105919761D01*
X162333333Y-105919761D02*
X162428571Y-105967380D01*
X162428571Y-105967380D02*
X162619047Y-105967380D01*
X162619047Y-105967380D02*
X162714285Y-105919761D01*
X162714285Y-105919761D02*
X162761904Y-105872142D01*
X162761904Y-105872142D02*
X162809523Y-105776904D01*
X162809523Y-105776904D02*
X162809523Y-104967380D01*
X163714285Y-105300714D02*
X163714285Y-105967380D01*
X163476190Y-104919761D02*
X163238095Y-105634047D01*
X163238095Y-105634047D02*
X163857142Y-105634047D01*
%TO.C,C8*%
X160083333Y-128022142D02*
X160035714Y-128069761D01*
X160035714Y-128069761D02*
X159892857Y-128117380D01*
X159892857Y-128117380D02*
X159797619Y-128117380D01*
X159797619Y-128117380D02*
X159654762Y-128069761D01*
X159654762Y-128069761D02*
X159559524Y-127974523D01*
X159559524Y-127974523D02*
X159511905Y-127879285D01*
X159511905Y-127879285D02*
X159464286Y-127688809D01*
X159464286Y-127688809D02*
X159464286Y-127545952D01*
X159464286Y-127545952D02*
X159511905Y-127355476D01*
X159511905Y-127355476D02*
X159559524Y-127260238D01*
X159559524Y-127260238D02*
X159654762Y-127165000D01*
X159654762Y-127165000D02*
X159797619Y-127117380D01*
X159797619Y-127117380D02*
X159892857Y-127117380D01*
X159892857Y-127117380D02*
X160035714Y-127165000D01*
X160035714Y-127165000D02*
X160083333Y-127212619D01*
X160654762Y-127545952D02*
X160559524Y-127498333D01*
X160559524Y-127498333D02*
X160511905Y-127450714D01*
X160511905Y-127450714D02*
X160464286Y-127355476D01*
X160464286Y-127355476D02*
X160464286Y-127307857D01*
X160464286Y-127307857D02*
X160511905Y-127212619D01*
X160511905Y-127212619D02*
X160559524Y-127165000D01*
X160559524Y-127165000D02*
X160654762Y-127117380D01*
X160654762Y-127117380D02*
X160845238Y-127117380D01*
X160845238Y-127117380D02*
X160940476Y-127165000D01*
X160940476Y-127165000D02*
X160988095Y-127212619D01*
X160988095Y-127212619D02*
X161035714Y-127307857D01*
X161035714Y-127307857D02*
X161035714Y-127355476D01*
X161035714Y-127355476D02*
X160988095Y-127450714D01*
X160988095Y-127450714D02*
X160940476Y-127498333D01*
X160940476Y-127498333D02*
X160845238Y-127545952D01*
X160845238Y-127545952D02*
X160654762Y-127545952D01*
X160654762Y-127545952D02*
X160559524Y-127593571D01*
X160559524Y-127593571D02*
X160511905Y-127641190D01*
X160511905Y-127641190D02*
X160464286Y-127736428D01*
X160464286Y-127736428D02*
X160464286Y-127926904D01*
X160464286Y-127926904D02*
X160511905Y-128022142D01*
X160511905Y-128022142D02*
X160559524Y-128069761D01*
X160559524Y-128069761D02*
X160654762Y-128117380D01*
X160654762Y-128117380D02*
X160845238Y-128117380D01*
X160845238Y-128117380D02*
X160940476Y-128069761D01*
X160940476Y-128069761D02*
X160988095Y-128022142D01*
X160988095Y-128022142D02*
X161035714Y-127926904D01*
X161035714Y-127926904D02*
X161035714Y-127736428D01*
X161035714Y-127736428D02*
X160988095Y-127641190D01*
X160988095Y-127641190D02*
X160940476Y-127593571D01*
X160940476Y-127593571D02*
X160845238Y-127545952D01*
%TO.C,C1*%
X173772142Y-138166666D02*
X173819761Y-138214285D01*
X173819761Y-138214285D02*
X173867380Y-138357142D01*
X173867380Y-138357142D02*
X173867380Y-138452380D01*
X173867380Y-138452380D02*
X173819761Y-138595237D01*
X173819761Y-138595237D02*
X173724523Y-138690475D01*
X173724523Y-138690475D02*
X173629285Y-138738094D01*
X173629285Y-138738094D02*
X173438809Y-138785713D01*
X173438809Y-138785713D02*
X173295952Y-138785713D01*
X173295952Y-138785713D02*
X173105476Y-138738094D01*
X173105476Y-138738094D02*
X173010238Y-138690475D01*
X173010238Y-138690475D02*
X172915000Y-138595237D01*
X172915000Y-138595237D02*
X172867380Y-138452380D01*
X172867380Y-138452380D02*
X172867380Y-138357142D01*
X172867380Y-138357142D02*
X172915000Y-138214285D01*
X172915000Y-138214285D02*
X172962619Y-138166666D01*
X173867380Y-137214285D02*
X173867380Y-137785713D01*
X173867380Y-137499999D02*
X172867380Y-137499999D01*
X172867380Y-137499999D02*
X173010238Y-137595237D01*
X173010238Y-137595237D02*
X173105476Y-137690475D01*
X173105476Y-137690475D02*
X173153095Y-137785713D01*
%TO.C,R3*%
X145904880Y-129666666D02*
X145428690Y-129999999D01*
X145904880Y-130238094D02*
X144904880Y-130238094D01*
X144904880Y-130238094D02*
X144904880Y-129857142D01*
X144904880Y-129857142D02*
X144952500Y-129761904D01*
X144952500Y-129761904D02*
X145000119Y-129714285D01*
X145000119Y-129714285D02*
X145095357Y-129666666D01*
X145095357Y-129666666D02*
X145238214Y-129666666D01*
X145238214Y-129666666D02*
X145333452Y-129714285D01*
X145333452Y-129714285D02*
X145381071Y-129761904D01*
X145381071Y-129761904D02*
X145428690Y-129857142D01*
X145428690Y-129857142D02*
X145428690Y-130238094D01*
X144904880Y-129333332D02*
X144904880Y-128714285D01*
X144904880Y-128714285D02*
X145285833Y-129047618D01*
X145285833Y-129047618D02*
X145285833Y-128904761D01*
X145285833Y-128904761D02*
X145333452Y-128809523D01*
X145333452Y-128809523D02*
X145381071Y-128761904D01*
X145381071Y-128761904D02*
X145476309Y-128714285D01*
X145476309Y-128714285D02*
X145714404Y-128714285D01*
X145714404Y-128714285D02*
X145809642Y-128761904D01*
X145809642Y-128761904D02*
X145857261Y-128809523D01*
X145857261Y-128809523D02*
X145904880Y-128904761D01*
X145904880Y-128904761D02*
X145904880Y-129190475D01*
X145904880Y-129190475D02*
X145857261Y-129285713D01*
X145857261Y-129285713D02*
X145809642Y-129333332D01*
%TO.C,C3*%
X148809642Y-129166666D02*
X148857261Y-129214285D01*
X148857261Y-129214285D02*
X148904880Y-129357142D01*
X148904880Y-129357142D02*
X148904880Y-129452380D01*
X148904880Y-129452380D02*
X148857261Y-129595237D01*
X148857261Y-129595237D02*
X148762023Y-129690475D01*
X148762023Y-129690475D02*
X148666785Y-129738094D01*
X148666785Y-129738094D02*
X148476309Y-129785713D01*
X148476309Y-129785713D02*
X148333452Y-129785713D01*
X148333452Y-129785713D02*
X148142976Y-129738094D01*
X148142976Y-129738094D02*
X148047738Y-129690475D01*
X148047738Y-129690475D02*
X147952500Y-129595237D01*
X147952500Y-129595237D02*
X147904880Y-129452380D01*
X147904880Y-129452380D02*
X147904880Y-129357142D01*
X147904880Y-129357142D02*
X147952500Y-129214285D01*
X147952500Y-129214285D02*
X148000119Y-129166666D01*
X147904880Y-128833332D02*
X147904880Y-128214285D01*
X147904880Y-128214285D02*
X148285833Y-128547618D01*
X148285833Y-128547618D02*
X148285833Y-128404761D01*
X148285833Y-128404761D02*
X148333452Y-128309523D01*
X148333452Y-128309523D02*
X148381071Y-128261904D01*
X148381071Y-128261904D02*
X148476309Y-128214285D01*
X148476309Y-128214285D02*
X148714404Y-128214285D01*
X148714404Y-128214285D02*
X148809642Y-128261904D01*
X148809642Y-128261904D02*
X148857261Y-128309523D01*
X148857261Y-128309523D02*
X148904880Y-128404761D01*
X148904880Y-128404761D02*
X148904880Y-128690475D01*
X148904880Y-128690475D02*
X148857261Y-128785713D01*
X148857261Y-128785713D02*
X148809642Y-128833332D01*
%TO.C,C4*%
X172272142Y-138166666D02*
X172319761Y-138214285D01*
X172319761Y-138214285D02*
X172367380Y-138357142D01*
X172367380Y-138357142D02*
X172367380Y-138452380D01*
X172367380Y-138452380D02*
X172319761Y-138595237D01*
X172319761Y-138595237D02*
X172224523Y-138690475D01*
X172224523Y-138690475D02*
X172129285Y-138738094D01*
X172129285Y-138738094D02*
X171938809Y-138785713D01*
X171938809Y-138785713D02*
X171795952Y-138785713D01*
X171795952Y-138785713D02*
X171605476Y-138738094D01*
X171605476Y-138738094D02*
X171510238Y-138690475D01*
X171510238Y-138690475D02*
X171415000Y-138595237D01*
X171415000Y-138595237D02*
X171367380Y-138452380D01*
X171367380Y-138452380D02*
X171367380Y-138357142D01*
X171367380Y-138357142D02*
X171415000Y-138214285D01*
X171415000Y-138214285D02*
X171462619Y-138166666D01*
X171700714Y-137309523D02*
X172367380Y-137309523D01*
X171319761Y-137547618D02*
X172034047Y-137785713D01*
X172034047Y-137785713D02*
X172034047Y-137166666D01*
%TO.C,D2*%
X138761905Y-113867380D02*
X138761905Y-112867380D01*
X138761905Y-112867380D02*
X139000000Y-112867380D01*
X139000000Y-112867380D02*
X139142857Y-112915000D01*
X139142857Y-112915000D02*
X139238095Y-113010238D01*
X139238095Y-113010238D02*
X139285714Y-113105476D01*
X139285714Y-113105476D02*
X139333333Y-113295952D01*
X139333333Y-113295952D02*
X139333333Y-113438809D01*
X139333333Y-113438809D02*
X139285714Y-113629285D01*
X139285714Y-113629285D02*
X139238095Y-113724523D01*
X139238095Y-113724523D02*
X139142857Y-113819761D01*
X139142857Y-113819761D02*
X139000000Y-113867380D01*
X139000000Y-113867380D02*
X138761905Y-113867380D01*
X139714286Y-112962619D02*
X139761905Y-112915000D01*
X139761905Y-112915000D02*
X139857143Y-112867380D01*
X139857143Y-112867380D02*
X140095238Y-112867380D01*
X140095238Y-112867380D02*
X140190476Y-112915000D01*
X140190476Y-112915000D02*
X140238095Y-112962619D01*
X140238095Y-112962619D02*
X140285714Y-113057857D01*
X140285714Y-113057857D02*
X140285714Y-113153095D01*
X140285714Y-113153095D02*
X140238095Y-113295952D01*
X140238095Y-113295952D02*
X139666667Y-113867380D01*
X139666667Y-113867380D02*
X140285714Y-113867380D01*
%TO.C,R2*%
X146870833Y-138517380D02*
X146537500Y-138041190D01*
X146299405Y-138517380D02*
X146299405Y-137517380D01*
X146299405Y-137517380D02*
X146680357Y-137517380D01*
X146680357Y-137517380D02*
X146775595Y-137565000D01*
X146775595Y-137565000D02*
X146823214Y-137612619D01*
X146823214Y-137612619D02*
X146870833Y-137707857D01*
X146870833Y-137707857D02*
X146870833Y-137850714D01*
X146870833Y-137850714D02*
X146823214Y-137945952D01*
X146823214Y-137945952D02*
X146775595Y-137993571D01*
X146775595Y-137993571D02*
X146680357Y-138041190D01*
X146680357Y-138041190D02*
X146299405Y-138041190D01*
X147251786Y-137612619D02*
X147299405Y-137565000D01*
X147299405Y-137565000D02*
X147394643Y-137517380D01*
X147394643Y-137517380D02*
X147632738Y-137517380D01*
X147632738Y-137517380D02*
X147727976Y-137565000D01*
X147727976Y-137565000D02*
X147775595Y-137612619D01*
X147775595Y-137612619D02*
X147823214Y-137707857D01*
X147823214Y-137707857D02*
X147823214Y-137803095D01*
X147823214Y-137803095D02*
X147775595Y-137945952D01*
X147775595Y-137945952D02*
X147204167Y-138517380D01*
X147204167Y-138517380D02*
X147823214Y-138517380D01*
%TO.C,C7*%
X190333333Y-144522142D02*
X190285714Y-144569761D01*
X190285714Y-144569761D02*
X190142857Y-144617380D01*
X190142857Y-144617380D02*
X190047619Y-144617380D01*
X190047619Y-144617380D02*
X189904762Y-144569761D01*
X189904762Y-144569761D02*
X189809524Y-144474523D01*
X189809524Y-144474523D02*
X189761905Y-144379285D01*
X189761905Y-144379285D02*
X189714286Y-144188809D01*
X189714286Y-144188809D02*
X189714286Y-144045952D01*
X189714286Y-144045952D02*
X189761905Y-143855476D01*
X189761905Y-143855476D02*
X189809524Y-143760238D01*
X189809524Y-143760238D02*
X189904762Y-143665000D01*
X189904762Y-143665000D02*
X190047619Y-143617380D01*
X190047619Y-143617380D02*
X190142857Y-143617380D01*
X190142857Y-143617380D02*
X190285714Y-143665000D01*
X190285714Y-143665000D02*
X190333333Y-143712619D01*
X190666667Y-143617380D02*
X191333333Y-143617380D01*
X191333333Y-143617380D02*
X190904762Y-144617380D01*
%TO.C,R1*%
X177333333Y-144617380D02*
X177000000Y-144141190D01*
X176761905Y-144617380D02*
X176761905Y-143617380D01*
X176761905Y-143617380D02*
X177142857Y-143617380D01*
X177142857Y-143617380D02*
X177238095Y-143665000D01*
X177238095Y-143665000D02*
X177285714Y-143712619D01*
X177285714Y-143712619D02*
X177333333Y-143807857D01*
X177333333Y-143807857D02*
X177333333Y-143950714D01*
X177333333Y-143950714D02*
X177285714Y-144045952D01*
X177285714Y-144045952D02*
X177238095Y-144093571D01*
X177238095Y-144093571D02*
X177142857Y-144141190D01*
X177142857Y-144141190D02*
X176761905Y-144141190D01*
X178285714Y-144617380D02*
X177714286Y-144617380D01*
X178000000Y-144617380D02*
X178000000Y-143617380D01*
X178000000Y-143617380D02*
X177904762Y-143760238D01*
X177904762Y-143760238D02*
X177809524Y-143855476D01*
X177809524Y-143855476D02*
X177714286Y-143903095D01*
D11*
%TO.C,J2*%
X119360476Y-119380952D02*
X119265238Y-119666666D01*
X119265238Y-119666666D02*
X119265238Y-120142857D01*
X119265238Y-120142857D02*
X119360476Y-120333333D01*
X119360476Y-120333333D02*
X119455714Y-120428571D01*
X119455714Y-120428571D02*
X119646190Y-120523809D01*
X119646190Y-120523809D02*
X119836666Y-120523809D01*
X119836666Y-120523809D02*
X120027142Y-120428571D01*
X120027142Y-120428571D02*
X120122380Y-120333333D01*
X120122380Y-120333333D02*
X120217619Y-120142857D01*
X120217619Y-120142857D02*
X120312857Y-119761904D01*
X120312857Y-119761904D02*
X120408095Y-119571428D01*
X120408095Y-119571428D02*
X120503333Y-119476190D01*
X120503333Y-119476190D02*
X120693809Y-119380952D01*
X120693809Y-119380952D02*
X120884285Y-119380952D01*
X120884285Y-119380952D02*
X121074761Y-119476190D01*
X121074761Y-119476190D02*
X121170000Y-119571428D01*
X121170000Y-119571428D02*
X121265238Y-119761904D01*
X121265238Y-119761904D02*
X121265238Y-120238095D01*
X121265238Y-120238095D02*
X121170000Y-120523809D01*
X121265238Y-121095238D02*
X121265238Y-122238095D01*
X119265238Y-121666666D02*
X121265238Y-121666666D01*
X120027142Y-122904762D02*
X120027142Y-124428572D01*
X119265238Y-123666667D02*
X120789047Y-123666667D01*
D10*
%TO.C,C16*%
X170452142Y-142142857D02*
X170499761Y-142190476D01*
X170499761Y-142190476D02*
X170547380Y-142333333D01*
X170547380Y-142333333D02*
X170547380Y-142428571D01*
X170547380Y-142428571D02*
X170499761Y-142571428D01*
X170499761Y-142571428D02*
X170404523Y-142666666D01*
X170404523Y-142666666D02*
X170309285Y-142714285D01*
X170309285Y-142714285D02*
X170118809Y-142761904D01*
X170118809Y-142761904D02*
X169975952Y-142761904D01*
X169975952Y-142761904D02*
X169785476Y-142714285D01*
X169785476Y-142714285D02*
X169690238Y-142666666D01*
X169690238Y-142666666D02*
X169595000Y-142571428D01*
X169595000Y-142571428D02*
X169547380Y-142428571D01*
X169547380Y-142428571D02*
X169547380Y-142333333D01*
X169547380Y-142333333D02*
X169595000Y-142190476D01*
X169595000Y-142190476D02*
X169642619Y-142142857D01*
X170547380Y-141190476D02*
X170547380Y-141761904D01*
X170547380Y-141476190D02*
X169547380Y-141476190D01*
X169547380Y-141476190D02*
X169690238Y-141571428D01*
X169690238Y-141571428D02*
X169785476Y-141666666D01*
X169785476Y-141666666D02*
X169833095Y-141761904D01*
X169547380Y-140333333D02*
X169547380Y-140523809D01*
X169547380Y-140523809D02*
X169595000Y-140619047D01*
X169595000Y-140619047D02*
X169642619Y-140666666D01*
X169642619Y-140666666D02*
X169785476Y-140761904D01*
X169785476Y-140761904D02*
X169975952Y-140809523D01*
X169975952Y-140809523D02*
X170356904Y-140809523D01*
X170356904Y-140809523D02*
X170452142Y-140761904D01*
X170452142Y-140761904D02*
X170499761Y-140714285D01*
X170499761Y-140714285D02*
X170547380Y-140619047D01*
X170547380Y-140619047D02*
X170547380Y-140428571D01*
X170547380Y-140428571D02*
X170499761Y-140333333D01*
X170499761Y-140333333D02*
X170452142Y-140285714D01*
X170452142Y-140285714D02*
X170356904Y-140238095D01*
X170356904Y-140238095D02*
X170118809Y-140238095D01*
X170118809Y-140238095D02*
X170023571Y-140285714D01*
X170023571Y-140285714D02*
X169975952Y-140333333D01*
X169975952Y-140333333D02*
X169928333Y-140428571D01*
X169928333Y-140428571D02*
X169928333Y-140619047D01*
X169928333Y-140619047D02*
X169975952Y-140714285D01*
X169975952Y-140714285D02*
X170023571Y-140761904D01*
X170023571Y-140761904D02*
X170118809Y-140809523D01*
%TO.C,D1*%
X172261905Y-144617380D02*
X172261905Y-143617380D01*
X172261905Y-143617380D02*
X172500000Y-143617380D01*
X172500000Y-143617380D02*
X172642857Y-143665000D01*
X172642857Y-143665000D02*
X172738095Y-143760238D01*
X172738095Y-143760238D02*
X172785714Y-143855476D01*
X172785714Y-143855476D02*
X172833333Y-144045952D01*
X172833333Y-144045952D02*
X172833333Y-144188809D01*
X172833333Y-144188809D02*
X172785714Y-144379285D01*
X172785714Y-144379285D02*
X172738095Y-144474523D01*
X172738095Y-144474523D02*
X172642857Y-144569761D01*
X172642857Y-144569761D02*
X172500000Y-144617380D01*
X172500000Y-144617380D02*
X172261905Y-144617380D01*
X173785714Y-144617380D02*
X173214286Y-144617380D01*
X173500000Y-144617380D02*
X173500000Y-143617380D01*
X173500000Y-143617380D02*
X173404762Y-143760238D01*
X173404762Y-143760238D02*
X173309524Y-143855476D01*
X173309524Y-143855476D02*
X173214286Y-143903095D01*
%TO.C,X1*%
X177142857Y-133319761D02*
X177285714Y-133367380D01*
X177285714Y-133367380D02*
X177523809Y-133367380D01*
X177523809Y-133367380D02*
X177619047Y-133319761D01*
X177619047Y-133319761D02*
X177666666Y-133272142D01*
X177666666Y-133272142D02*
X177714285Y-133176904D01*
X177714285Y-133176904D02*
X177714285Y-133081666D01*
X177714285Y-133081666D02*
X177666666Y-132986428D01*
X177666666Y-132986428D02*
X177619047Y-132938809D01*
X177619047Y-132938809D02*
X177523809Y-132891190D01*
X177523809Y-132891190D02*
X177333333Y-132843571D01*
X177333333Y-132843571D02*
X177238095Y-132795952D01*
X177238095Y-132795952D02*
X177190476Y-132748333D01*
X177190476Y-132748333D02*
X177142857Y-132653095D01*
X177142857Y-132653095D02*
X177142857Y-132557857D01*
X177142857Y-132557857D02*
X177190476Y-132462619D01*
X177190476Y-132462619D02*
X177238095Y-132415000D01*
X177238095Y-132415000D02*
X177333333Y-132367380D01*
X177333333Y-132367380D02*
X177571428Y-132367380D01*
X177571428Y-132367380D02*
X177714285Y-132415000D01*
X178047619Y-132367380D02*
X178285714Y-133367380D01*
X178285714Y-133367380D02*
X178476190Y-132653095D01*
X178476190Y-132653095D02*
X178666666Y-133367380D01*
X178666666Y-133367380D02*
X178904762Y-132367380D01*
X179285714Y-133367380D02*
X179285714Y-132367380D01*
X179285714Y-132367380D02*
X179523809Y-132367380D01*
X179523809Y-132367380D02*
X179666666Y-132415000D01*
X179666666Y-132415000D02*
X179761904Y-132510238D01*
X179761904Y-132510238D02*
X179809523Y-132605476D01*
X179809523Y-132605476D02*
X179857142Y-132795952D01*
X179857142Y-132795952D02*
X179857142Y-132938809D01*
X179857142Y-132938809D02*
X179809523Y-133129285D01*
X179809523Y-133129285D02*
X179761904Y-133224523D01*
X179761904Y-133224523D02*
X179666666Y-133319761D01*
X179666666Y-133319761D02*
X179523809Y-133367380D01*
X179523809Y-133367380D02*
X179285714Y-133367380D01*
%TO.C,C6*%
X123620833Y-143022142D02*
X123573214Y-143069761D01*
X123573214Y-143069761D02*
X123430357Y-143117380D01*
X123430357Y-143117380D02*
X123335119Y-143117380D01*
X123335119Y-143117380D02*
X123192262Y-143069761D01*
X123192262Y-143069761D02*
X123097024Y-142974523D01*
X123097024Y-142974523D02*
X123049405Y-142879285D01*
X123049405Y-142879285D02*
X123001786Y-142688809D01*
X123001786Y-142688809D02*
X123001786Y-142545952D01*
X123001786Y-142545952D02*
X123049405Y-142355476D01*
X123049405Y-142355476D02*
X123097024Y-142260238D01*
X123097024Y-142260238D02*
X123192262Y-142165000D01*
X123192262Y-142165000D02*
X123335119Y-142117380D01*
X123335119Y-142117380D02*
X123430357Y-142117380D01*
X123430357Y-142117380D02*
X123573214Y-142165000D01*
X123573214Y-142165000D02*
X123620833Y-142212619D01*
X124477976Y-142117380D02*
X124287500Y-142117380D01*
X124287500Y-142117380D02*
X124192262Y-142165000D01*
X124192262Y-142165000D02*
X124144643Y-142212619D01*
X124144643Y-142212619D02*
X124049405Y-142355476D01*
X124049405Y-142355476D02*
X124001786Y-142545952D01*
X124001786Y-142545952D02*
X124001786Y-142926904D01*
X124001786Y-142926904D02*
X124049405Y-143022142D01*
X124049405Y-143022142D02*
X124097024Y-143069761D01*
X124097024Y-143069761D02*
X124192262Y-143117380D01*
X124192262Y-143117380D02*
X124382738Y-143117380D01*
X124382738Y-143117380D02*
X124477976Y-143069761D01*
X124477976Y-143069761D02*
X124525595Y-143022142D01*
X124525595Y-143022142D02*
X124573214Y-142926904D01*
X124573214Y-142926904D02*
X124573214Y-142688809D01*
X124573214Y-142688809D02*
X124525595Y-142593571D01*
X124525595Y-142593571D02*
X124477976Y-142545952D01*
X124477976Y-142545952D02*
X124382738Y-142498333D01*
X124382738Y-142498333D02*
X124192262Y-142498333D01*
X124192262Y-142498333D02*
X124097024Y-142545952D01*
X124097024Y-142545952D02*
X124049405Y-142593571D01*
X124049405Y-142593571D02*
X124001786Y-142688809D01*
%TO.C,U1*%
X134375595Y-139867380D02*
X134375595Y-140676904D01*
X134375595Y-140676904D02*
X134423214Y-140772142D01*
X134423214Y-140772142D02*
X134470833Y-140819761D01*
X134470833Y-140819761D02*
X134566071Y-140867380D01*
X134566071Y-140867380D02*
X134756547Y-140867380D01*
X134756547Y-140867380D02*
X134851785Y-140819761D01*
X134851785Y-140819761D02*
X134899404Y-140772142D01*
X134899404Y-140772142D02*
X134947023Y-140676904D01*
X134947023Y-140676904D02*
X134947023Y-139867380D01*
X135947023Y-140867380D02*
X135375595Y-140867380D01*
X135661309Y-140867380D02*
X135661309Y-139867380D01*
X135661309Y-139867380D02*
X135566071Y-140010238D01*
X135566071Y-140010238D02*
X135470833Y-140105476D01*
X135470833Y-140105476D02*
X135375595Y-140153095D01*
%TO.C,C2*%
X142809642Y-129666666D02*
X142857261Y-129714285D01*
X142857261Y-129714285D02*
X142904880Y-129857142D01*
X142904880Y-129857142D02*
X142904880Y-129952380D01*
X142904880Y-129952380D02*
X142857261Y-130095237D01*
X142857261Y-130095237D02*
X142762023Y-130190475D01*
X142762023Y-130190475D02*
X142666785Y-130238094D01*
X142666785Y-130238094D02*
X142476309Y-130285713D01*
X142476309Y-130285713D02*
X142333452Y-130285713D01*
X142333452Y-130285713D02*
X142142976Y-130238094D01*
X142142976Y-130238094D02*
X142047738Y-130190475D01*
X142047738Y-130190475D02*
X141952500Y-130095237D01*
X141952500Y-130095237D02*
X141904880Y-129952380D01*
X141904880Y-129952380D02*
X141904880Y-129857142D01*
X141904880Y-129857142D02*
X141952500Y-129714285D01*
X141952500Y-129714285D02*
X142000119Y-129666666D01*
X142000119Y-129285713D02*
X141952500Y-129238094D01*
X141952500Y-129238094D02*
X141904880Y-129142856D01*
X141904880Y-129142856D02*
X141904880Y-128904761D01*
X141904880Y-128904761D02*
X141952500Y-128809523D01*
X141952500Y-128809523D02*
X142000119Y-128761904D01*
X142000119Y-128761904D02*
X142095357Y-128714285D01*
X142095357Y-128714285D02*
X142190595Y-128714285D01*
X142190595Y-128714285D02*
X142333452Y-128761904D01*
X142333452Y-128761904D02*
X142904880Y-129333332D01*
X142904880Y-129333332D02*
X142904880Y-128714285D01*
D11*
%TO.C,J1*%
X148265238Y-119476190D02*
X150265238Y-119476190D01*
X150265238Y-119476190D02*
X150265238Y-120238095D01*
X150265238Y-120238095D02*
X150170000Y-120428571D01*
X150170000Y-120428571D02*
X150074761Y-120523809D01*
X150074761Y-120523809D02*
X149884285Y-120619047D01*
X149884285Y-120619047D02*
X149598571Y-120619047D01*
X149598571Y-120619047D02*
X149408095Y-120523809D01*
X149408095Y-120523809D02*
X149312857Y-120428571D01*
X149312857Y-120428571D02*
X149217619Y-120238095D01*
X149217619Y-120238095D02*
X149217619Y-119476190D01*
X150265238Y-121190476D02*
X148265238Y-121857142D01*
X148265238Y-121857142D02*
X150265238Y-122523809D01*
X149027142Y-123190476D02*
X149027142Y-124714286D01*
X148265238Y-123952381D02*
X149789047Y-123952381D01*
D10*
%TO.C,C15*%
X156272142Y-105142857D02*
X156319761Y-105190476D01*
X156319761Y-105190476D02*
X156367380Y-105333333D01*
X156367380Y-105333333D02*
X156367380Y-105428571D01*
X156367380Y-105428571D02*
X156319761Y-105571428D01*
X156319761Y-105571428D02*
X156224523Y-105666666D01*
X156224523Y-105666666D02*
X156129285Y-105714285D01*
X156129285Y-105714285D02*
X155938809Y-105761904D01*
X155938809Y-105761904D02*
X155795952Y-105761904D01*
X155795952Y-105761904D02*
X155605476Y-105714285D01*
X155605476Y-105714285D02*
X155510238Y-105666666D01*
X155510238Y-105666666D02*
X155415000Y-105571428D01*
X155415000Y-105571428D02*
X155367380Y-105428571D01*
X155367380Y-105428571D02*
X155367380Y-105333333D01*
X155367380Y-105333333D02*
X155415000Y-105190476D01*
X155415000Y-105190476D02*
X155462619Y-105142857D01*
X156367380Y-104190476D02*
X156367380Y-104761904D01*
X156367380Y-104476190D02*
X155367380Y-104476190D01*
X155367380Y-104476190D02*
X155510238Y-104571428D01*
X155510238Y-104571428D02*
X155605476Y-104666666D01*
X155605476Y-104666666D02*
X155653095Y-104761904D01*
X155367380Y-103285714D02*
X155367380Y-103761904D01*
X155367380Y-103761904D02*
X155843571Y-103809523D01*
X155843571Y-103809523D02*
X155795952Y-103761904D01*
X155795952Y-103761904D02*
X155748333Y-103666666D01*
X155748333Y-103666666D02*
X155748333Y-103428571D01*
X155748333Y-103428571D02*
X155795952Y-103333333D01*
X155795952Y-103333333D02*
X155843571Y-103285714D01*
X155843571Y-103285714D02*
X155938809Y-103238095D01*
X155938809Y-103238095D02*
X156176904Y-103238095D01*
X156176904Y-103238095D02*
X156272142Y-103285714D01*
X156272142Y-103285714D02*
X156319761Y-103333333D01*
X156319761Y-103333333D02*
X156367380Y-103428571D01*
X156367380Y-103428571D02*
X156367380Y-103666666D01*
X156367380Y-103666666D02*
X156319761Y-103761904D01*
X156319761Y-103761904D02*
X156272142Y-103809523D01*
%TO.C,TP2*%
X170125090Y-110047594D02*
X170024075Y-110081266D01*
X170024075Y-110081266D02*
X169923060Y-110182281D01*
X169923060Y-110182281D02*
X169855716Y-110316968D01*
X169855716Y-110316968D02*
X169855716Y-110451655D01*
X169855716Y-110451655D02*
X169889388Y-110552670D01*
X169889388Y-110552670D02*
X169990403Y-110721029D01*
X169990403Y-110721029D02*
X170091418Y-110822044D01*
X170091418Y-110822044D02*
X170259777Y-110923060D01*
X170259777Y-110923060D02*
X170360792Y-110956731D01*
X170360792Y-110956731D02*
X170495479Y-110956731D01*
X170495479Y-110956731D02*
X170630166Y-110889388D01*
X170630166Y-110889388D02*
X170697510Y-110822044D01*
X170697510Y-110822044D02*
X170764853Y-110687357D01*
X170764853Y-110687357D02*
X170764853Y-110620014D01*
X170764853Y-110620014D02*
X170529151Y-110384312D01*
X170529151Y-110384312D02*
X170394464Y-110518999D01*
X171438288Y-110081266D02*
X171067899Y-109710876D01*
X171067899Y-109710876D02*
X170966884Y-109677205D01*
X170966884Y-109677205D02*
X170865869Y-109710876D01*
X170865869Y-109710876D02*
X170731182Y-109845564D01*
X170731182Y-109845564D02*
X170697510Y-109946579D01*
X171404617Y-110047594D02*
X171370945Y-110148609D01*
X171370945Y-110148609D02*
X171202586Y-110316968D01*
X171202586Y-110316968D02*
X171101571Y-110350640D01*
X171101571Y-110350640D02*
X171000556Y-110316968D01*
X171000556Y-110316968D02*
X170933212Y-110249625D01*
X170933212Y-110249625D02*
X170899540Y-110148609D01*
X170899540Y-110148609D02*
X170933212Y-110047594D01*
X170933212Y-110047594D02*
X171101571Y-109879235D01*
X171101571Y-109879235D02*
X171135243Y-109778220D01*
X171202586Y-109374159D02*
X171471960Y-109104785D01*
X171067899Y-109037441D02*
X171673991Y-109643533D01*
X171673991Y-109643533D02*
X171775006Y-109677205D01*
X171775006Y-109677205D02*
X171876021Y-109643533D01*
X171876021Y-109643533D02*
X171943365Y-109576189D01*
X172414770Y-109037441D02*
X172381098Y-109138456D01*
X172381098Y-109138456D02*
X172246411Y-109273143D01*
X172246411Y-109273143D02*
X172145396Y-109306815D01*
X172145396Y-109306815D02*
X172044380Y-109273143D01*
X172044380Y-109273143D02*
X171775006Y-109003769D01*
X171775006Y-109003769D02*
X171741334Y-108902754D01*
X171741334Y-108902754D02*
X171775006Y-108801739D01*
X171775006Y-108801739D02*
X171909693Y-108667052D01*
X171909693Y-108667052D02*
X172010709Y-108633380D01*
X172010709Y-108633380D02*
X172111724Y-108667052D01*
X172111724Y-108667052D02*
X172179067Y-108734395D01*
X172179067Y-108734395D02*
X171909693Y-109138456D01*
X173209423Y-108310131D02*
X172502316Y-107603024D01*
X172502316Y-107603024D02*
X172771690Y-107333650D01*
X172771690Y-107333650D02*
X172872705Y-107299979D01*
X172872705Y-107299979D02*
X172940049Y-107299979D01*
X172940049Y-107299979D02*
X173041064Y-107333650D01*
X173041064Y-107333650D02*
X173142079Y-107434666D01*
X173142079Y-107434666D02*
X173175751Y-107535681D01*
X173175751Y-107535681D02*
X173175751Y-107603024D01*
X173175751Y-107603024D02*
X173142079Y-107704040D01*
X173142079Y-107704040D02*
X172872705Y-107973414D01*
X173377782Y-107198963D02*
X173983873Y-107535681D01*
X173983873Y-107535681D02*
X173781843Y-107064276D01*
X173781843Y-107064276D02*
X174253247Y-107266307D01*
X174253247Y-107266307D02*
X173916530Y-106660215D01*
X174657308Y-106862246D02*
X174185904Y-106390841D01*
X174320591Y-106525528D02*
X174286919Y-106424513D01*
X174286919Y-106424513D02*
X174286919Y-106357170D01*
X174286919Y-106357170D02*
X174320591Y-106256154D01*
X174320591Y-106256154D02*
X174387934Y-106188811D01*
%TO.C,C5*%
X128870833Y-142952142D02*
X128823214Y-142999761D01*
X128823214Y-142999761D02*
X128680357Y-143047380D01*
X128680357Y-143047380D02*
X128585119Y-143047380D01*
X128585119Y-143047380D02*
X128442262Y-142999761D01*
X128442262Y-142999761D02*
X128347024Y-142904523D01*
X128347024Y-142904523D02*
X128299405Y-142809285D01*
X128299405Y-142809285D02*
X128251786Y-142618809D01*
X128251786Y-142618809D02*
X128251786Y-142475952D01*
X128251786Y-142475952D02*
X128299405Y-142285476D01*
X128299405Y-142285476D02*
X128347024Y-142190238D01*
X128347024Y-142190238D02*
X128442262Y-142095000D01*
X128442262Y-142095000D02*
X128585119Y-142047380D01*
X128585119Y-142047380D02*
X128680357Y-142047380D01*
X128680357Y-142047380D02*
X128823214Y-142095000D01*
X128823214Y-142095000D02*
X128870833Y-142142619D01*
X129775595Y-142047380D02*
X129299405Y-142047380D01*
X129299405Y-142047380D02*
X129251786Y-142523571D01*
X129251786Y-142523571D02*
X129299405Y-142475952D01*
X129299405Y-142475952D02*
X129394643Y-142428333D01*
X129394643Y-142428333D02*
X129632738Y-142428333D01*
X129632738Y-142428333D02*
X129727976Y-142475952D01*
X129727976Y-142475952D02*
X129775595Y-142523571D01*
X129775595Y-142523571D02*
X129823214Y-142618809D01*
X129823214Y-142618809D02*
X129823214Y-142856904D01*
X129823214Y-142856904D02*
X129775595Y-142952142D01*
X129775595Y-142952142D02*
X129727976Y-142999761D01*
X129727976Y-142999761D02*
X129632738Y-143047380D01*
X129632738Y-143047380D02*
X129394643Y-143047380D01*
X129394643Y-143047380D02*
X129299405Y-142999761D01*
X129299405Y-142999761D02*
X129251786Y-142952142D01*
%TO.C,D3*%
X161261905Y-140117380D02*
X161261905Y-139117380D01*
X161261905Y-139117380D02*
X161500000Y-139117380D01*
X161500000Y-139117380D02*
X161642857Y-139165000D01*
X161642857Y-139165000D02*
X161738095Y-139260238D01*
X161738095Y-139260238D02*
X161785714Y-139355476D01*
X161785714Y-139355476D02*
X161833333Y-139545952D01*
X161833333Y-139545952D02*
X161833333Y-139688809D01*
X161833333Y-139688809D02*
X161785714Y-139879285D01*
X161785714Y-139879285D02*
X161738095Y-139974523D01*
X161738095Y-139974523D02*
X161642857Y-140069761D01*
X161642857Y-140069761D02*
X161500000Y-140117380D01*
X161500000Y-140117380D02*
X161261905Y-140117380D01*
X162166667Y-139117380D02*
X162785714Y-139117380D01*
X162785714Y-139117380D02*
X162452381Y-139498333D01*
X162452381Y-139498333D02*
X162595238Y-139498333D01*
X162595238Y-139498333D02*
X162690476Y-139545952D01*
X162690476Y-139545952D02*
X162738095Y-139593571D01*
X162738095Y-139593571D02*
X162785714Y-139688809D01*
X162785714Y-139688809D02*
X162785714Y-139926904D01*
X162785714Y-139926904D02*
X162738095Y-140022142D01*
X162738095Y-140022142D02*
X162690476Y-140069761D01*
X162690476Y-140069761D02*
X162595238Y-140117380D01*
X162595238Y-140117380D02*
X162309524Y-140117380D01*
X162309524Y-140117380D02*
X162214286Y-140069761D01*
X162214286Y-140069761D02*
X162166667Y-140022142D01*
%TO.C,C13*%
X163059523Y-128022142D02*
X163011904Y-128069761D01*
X163011904Y-128069761D02*
X162869047Y-128117380D01*
X162869047Y-128117380D02*
X162773809Y-128117380D01*
X162773809Y-128117380D02*
X162630952Y-128069761D01*
X162630952Y-128069761D02*
X162535714Y-127974523D01*
X162535714Y-127974523D02*
X162488095Y-127879285D01*
X162488095Y-127879285D02*
X162440476Y-127688809D01*
X162440476Y-127688809D02*
X162440476Y-127545952D01*
X162440476Y-127545952D02*
X162488095Y-127355476D01*
X162488095Y-127355476D02*
X162535714Y-127260238D01*
X162535714Y-127260238D02*
X162630952Y-127165000D01*
X162630952Y-127165000D02*
X162773809Y-127117380D01*
X162773809Y-127117380D02*
X162869047Y-127117380D01*
X162869047Y-127117380D02*
X163011904Y-127165000D01*
X163011904Y-127165000D02*
X163059523Y-127212619D01*
X164011904Y-128117380D02*
X163440476Y-128117380D01*
X163726190Y-128117380D02*
X163726190Y-127117380D01*
X163726190Y-127117380D02*
X163630952Y-127260238D01*
X163630952Y-127260238D02*
X163535714Y-127355476D01*
X163535714Y-127355476D02*
X163440476Y-127403095D01*
X164345238Y-127117380D02*
X164964285Y-127117380D01*
X164964285Y-127117380D02*
X164630952Y-127498333D01*
X164630952Y-127498333D02*
X164773809Y-127498333D01*
X164773809Y-127498333D02*
X164869047Y-127545952D01*
X164869047Y-127545952D02*
X164916666Y-127593571D01*
X164916666Y-127593571D02*
X164964285Y-127688809D01*
X164964285Y-127688809D02*
X164964285Y-127926904D01*
X164964285Y-127926904D02*
X164916666Y-128022142D01*
X164916666Y-128022142D02*
X164869047Y-128069761D01*
X164869047Y-128069761D02*
X164773809Y-128117380D01*
X164773809Y-128117380D02*
X164488095Y-128117380D01*
X164488095Y-128117380D02*
X164392857Y-128069761D01*
X164392857Y-128069761D02*
X164345238Y-128022142D01*
%TO.C,C14*%
X159272142Y-105142857D02*
X159319761Y-105190476D01*
X159319761Y-105190476D02*
X159367380Y-105333333D01*
X159367380Y-105333333D02*
X159367380Y-105428571D01*
X159367380Y-105428571D02*
X159319761Y-105571428D01*
X159319761Y-105571428D02*
X159224523Y-105666666D01*
X159224523Y-105666666D02*
X159129285Y-105714285D01*
X159129285Y-105714285D02*
X158938809Y-105761904D01*
X158938809Y-105761904D02*
X158795952Y-105761904D01*
X158795952Y-105761904D02*
X158605476Y-105714285D01*
X158605476Y-105714285D02*
X158510238Y-105666666D01*
X158510238Y-105666666D02*
X158415000Y-105571428D01*
X158415000Y-105571428D02*
X158367380Y-105428571D01*
X158367380Y-105428571D02*
X158367380Y-105333333D01*
X158367380Y-105333333D02*
X158415000Y-105190476D01*
X158415000Y-105190476D02*
X158462619Y-105142857D01*
X159367380Y-104190476D02*
X159367380Y-104761904D01*
X159367380Y-104476190D02*
X158367380Y-104476190D01*
X158367380Y-104476190D02*
X158510238Y-104571428D01*
X158510238Y-104571428D02*
X158605476Y-104666666D01*
X158605476Y-104666666D02*
X158653095Y-104761904D01*
X158700714Y-103333333D02*
X159367380Y-103333333D01*
X158319761Y-103571428D02*
X159034047Y-103809523D01*
X159034047Y-103809523D02*
X159034047Y-103190476D01*
%TO.C,TP3*%
X168120014Y-134485327D02*
X169062823Y-134956731D01*
X169062823Y-134956731D02*
X168591418Y-134013922D01*
X169534227Y-134485327D02*
X168827121Y-133778220D01*
X169870945Y-134148609D02*
X169163838Y-133441503D01*
X169163838Y-133441503D02*
X170275006Y-133744548D01*
X170275006Y-133744548D02*
X169567899Y-133037442D01*
X170968644Y-132983567D02*
X171103331Y-132916223D01*
X171103331Y-132916223D02*
X171271689Y-132747865D01*
X171271689Y-132747865D02*
X171305361Y-132646849D01*
X171305361Y-132646849D02*
X171305361Y-132579506D01*
X171305361Y-132579506D02*
X171271689Y-132478491D01*
X171271689Y-132478491D02*
X171204346Y-132411147D01*
X171204346Y-132411147D02*
X171103331Y-132377475D01*
X171103331Y-132377475D02*
X171035987Y-132377475D01*
X171035987Y-132377475D02*
X170934972Y-132411147D01*
X170934972Y-132411147D02*
X170766613Y-132512162D01*
X170766613Y-132512162D02*
X170665598Y-132545834D01*
X170665598Y-132545834D02*
X170598254Y-132545834D01*
X170598254Y-132545834D02*
X170497239Y-132512162D01*
X170497239Y-132512162D02*
X170429896Y-132444819D01*
X170429896Y-132444819D02*
X170396224Y-132343804D01*
X170396224Y-132343804D02*
X170396224Y-132276460D01*
X170396224Y-132276460D02*
X170429896Y-132175445D01*
X170429896Y-132175445D02*
X170598254Y-132007086D01*
X170598254Y-132007086D02*
X170732941Y-131939743D01*
X171978796Y-131973414D02*
X171945125Y-132074430D01*
X171945125Y-132074430D02*
X171810438Y-132209117D01*
X171810438Y-132209117D02*
X171709422Y-132242788D01*
X171709422Y-132242788D02*
X171642079Y-132242788D01*
X171642079Y-132242788D02*
X171541063Y-132209117D01*
X171541063Y-132209117D02*
X171339033Y-132007086D01*
X171339033Y-132007086D02*
X171305361Y-131906071D01*
X171305361Y-131906071D02*
X171305361Y-131838727D01*
X171305361Y-131838727D02*
X171339033Y-131737712D01*
X171339033Y-131737712D02*
X171473720Y-131603025D01*
X171473720Y-131603025D02*
X171574735Y-131569353D01*
X172618560Y-131400994D02*
X172248170Y-131030605D01*
X172248170Y-131030605D02*
X172147155Y-130996933D01*
X172147155Y-130996933D02*
X172046140Y-131030605D01*
X172046140Y-131030605D02*
X171911453Y-131165292D01*
X171911453Y-131165292D02*
X171877781Y-131266307D01*
X172584888Y-131367323D02*
X172551216Y-131468338D01*
X172551216Y-131468338D02*
X172382857Y-131636697D01*
X172382857Y-131636697D02*
X172281842Y-131670368D01*
X172281842Y-131670368D02*
X172180827Y-131636697D01*
X172180827Y-131636697D02*
X172113483Y-131569353D01*
X172113483Y-131569353D02*
X172079812Y-131468338D01*
X172079812Y-131468338D02*
X172113483Y-131367323D01*
X172113483Y-131367323D02*
X172281842Y-131198964D01*
X172281842Y-131198964D02*
X172315514Y-131097949D01*
X173056292Y-130963262D02*
X172955277Y-130996933D01*
X172955277Y-130996933D02*
X172854262Y-130963262D01*
X172854262Y-130963262D02*
X172248170Y-130357170D01*
X173561369Y-130390842D02*
X173527697Y-130491857D01*
X173527697Y-130491857D02*
X173393010Y-130626544D01*
X173393010Y-130626544D02*
X173291995Y-130660216D01*
X173291995Y-130660216D02*
X173190980Y-130626544D01*
X173190980Y-130626544D02*
X172921606Y-130357170D01*
X172921606Y-130357170D02*
X172887934Y-130256155D01*
X172887934Y-130256155D02*
X172921606Y-130155139D01*
X172921606Y-130155139D02*
X173056293Y-130020452D01*
X173056293Y-130020452D02*
X173157308Y-129986781D01*
X173157308Y-129986781D02*
X173258323Y-130020452D01*
X173258323Y-130020452D02*
X173325667Y-130087796D01*
X173325667Y-130087796D02*
X173056293Y-130491857D01*
X174234804Y-129784750D02*
X173527697Y-129077643D01*
X174201132Y-129751078D02*
X174167461Y-129852093D01*
X174167461Y-129852093D02*
X174032774Y-129986780D01*
X174032774Y-129986780D02*
X173931758Y-130020452D01*
X173931758Y-130020452D02*
X173864415Y-130020452D01*
X173864415Y-130020452D02*
X173763400Y-129986780D01*
X173763400Y-129986780D02*
X173561369Y-129784750D01*
X173561369Y-129784750D02*
X173527697Y-129683735D01*
X173527697Y-129683735D02*
X173527697Y-129616391D01*
X173527697Y-129616391D02*
X173561369Y-129515376D01*
X173561369Y-129515376D02*
X173696056Y-129380689D01*
X173696056Y-129380689D02*
X173797071Y-129347017D01*
%TO.C,U3*%
X186988095Y-143367380D02*
X186988095Y-144176904D01*
X186988095Y-144176904D02*
X187035714Y-144272142D01*
X187035714Y-144272142D02*
X187083333Y-144319761D01*
X187083333Y-144319761D02*
X187178571Y-144367380D01*
X187178571Y-144367380D02*
X187369047Y-144367380D01*
X187369047Y-144367380D02*
X187464285Y-144319761D01*
X187464285Y-144319761D02*
X187511904Y-144272142D01*
X187511904Y-144272142D02*
X187559523Y-144176904D01*
X187559523Y-144176904D02*
X187559523Y-143367380D01*
X187940476Y-143367380D02*
X188559523Y-143367380D01*
X188559523Y-143367380D02*
X188226190Y-143748333D01*
X188226190Y-143748333D02*
X188369047Y-143748333D01*
X188369047Y-143748333D02*
X188464285Y-143795952D01*
X188464285Y-143795952D02*
X188511904Y-143843571D01*
X188511904Y-143843571D02*
X188559523Y-143938809D01*
X188559523Y-143938809D02*
X188559523Y-144176904D01*
X188559523Y-144176904D02*
X188511904Y-144272142D01*
X188511904Y-144272142D02*
X188464285Y-144319761D01*
X188464285Y-144319761D02*
X188369047Y-144367380D01*
X188369047Y-144367380D02*
X188083333Y-144367380D01*
X188083333Y-144367380D02*
X187988095Y-144319761D01*
X187988095Y-144319761D02*
X187940476Y-144272142D01*
%TO.C,Q1*%
X172404761Y-113962619D02*
X172309523Y-113915000D01*
X172309523Y-113915000D02*
X172214285Y-113819761D01*
X172214285Y-113819761D02*
X172071428Y-113676904D01*
X172071428Y-113676904D02*
X171976190Y-113629285D01*
X171976190Y-113629285D02*
X171880952Y-113629285D01*
X171928571Y-113867380D02*
X171833333Y-113819761D01*
X171833333Y-113819761D02*
X171738095Y-113724523D01*
X171738095Y-113724523D02*
X171690476Y-113534047D01*
X171690476Y-113534047D02*
X171690476Y-113200714D01*
X171690476Y-113200714D02*
X171738095Y-113010238D01*
X171738095Y-113010238D02*
X171833333Y-112915000D01*
X171833333Y-112915000D02*
X171928571Y-112867380D01*
X171928571Y-112867380D02*
X172119047Y-112867380D01*
X172119047Y-112867380D02*
X172214285Y-112915000D01*
X172214285Y-112915000D02*
X172309523Y-113010238D01*
X172309523Y-113010238D02*
X172357142Y-113200714D01*
X172357142Y-113200714D02*
X172357142Y-113534047D01*
X172357142Y-113534047D02*
X172309523Y-113724523D01*
X172309523Y-113724523D02*
X172214285Y-113819761D01*
X172214285Y-113819761D02*
X172119047Y-113867380D01*
X172119047Y-113867380D02*
X171928571Y-113867380D01*
X173309523Y-113867380D02*
X172738095Y-113867380D01*
X173023809Y-113867380D02*
X173023809Y-112867380D01*
X173023809Y-112867380D02*
X172928571Y-113010238D01*
X172928571Y-113010238D02*
X172833333Y-113105476D01*
X172833333Y-113105476D02*
X172738095Y-113153095D01*
%TO.C,U2*%
X119275595Y-138867380D02*
X119275595Y-139676904D01*
X119275595Y-139676904D02*
X119323214Y-139772142D01*
X119323214Y-139772142D02*
X119370833Y-139819761D01*
X119370833Y-139819761D02*
X119466071Y-139867380D01*
X119466071Y-139867380D02*
X119656547Y-139867380D01*
X119656547Y-139867380D02*
X119751785Y-139819761D01*
X119751785Y-139819761D02*
X119799404Y-139772142D01*
X119799404Y-139772142D02*
X119847023Y-139676904D01*
X119847023Y-139676904D02*
X119847023Y-138867380D01*
X120275595Y-138962619D02*
X120323214Y-138915000D01*
X120323214Y-138915000D02*
X120418452Y-138867380D01*
X120418452Y-138867380D02*
X120656547Y-138867380D01*
X120656547Y-138867380D02*
X120751785Y-138915000D01*
X120751785Y-138915000D02*
X120799404Y-138962619D01*
X120799404Y-138962619D02*
X120847023Y-139057857D01*
X120847023Y-139057857D02*
X120847023Y-139153095D01*
X120847023Y-139153095D02*
X120799404Y-139295952D01*
X120799404Y-139295952D02*
X120227976Y-139867380D01*
X120227976Y-139867380D02*
X120847023Y-139867380D01*
%TO.C,R5*%
X164117380Y-141666666D02*
X163641190Y-141999999D01*
X164117380Y-142238094D02*
X163117380Y-142238094D01*
X163117380Y-142238094D02*
X163117380Y-141857142D01*
X163117380Y-141857142D02*
X163165000Y-141761904D01*
X163165000Y-141761904D02*
X163212619Y-141714285D01*
X163212619Y-141714285D02*
X163307857Y-141666666D01*
X163307857Y-141666666D02*
X163450714Y-141666666D01*
X163450714Y-141666666D02*
X163545952Y-141714285D01*
X163545952Y-141714285D02*
X163593571Y-141761904D01*
X163593571Y-141761904D02*
X163641190Y-141857142D01*
X163641190Y-141857142D02*
X163641190Y-142238094D01*
X163117380Y-140761904D02*
X163117380Y-141238094D01*
X163117380Y-141238094D02*
X163593571Y-141285713D01*
X163593571Y-141285713D02*
X163545952Y-141238094D01*
X163545952Y-141238094D02*
X163498333Y-141142856D01*
X163498333Y-141142856D02*
X163498333Y-140904761D01*
X163498333Y-140904761D02*
X163545952Y-140809523D01*
X163545952Y-140809523D02*
X163593571Y-140761904D01*
X163593571Y-140761904D02*
X163688809Y-140714285D01*
X163688809Y-140714285D02*
X163926904Y-140714285D01*
X163926904Y-140714285D02*
X164022142Y-140761904D01*
X164022142Y-140761904D02*
X164069761Y-140809523D01*
X164069761Y-140809523D02*
X164117380Y-140904761D01*
X164117380Y-140904761D02*
X164117380Y-141142856D01*
X164117380Y-141142856D02*
X164069761Y-141238094D01*
X164069761Y-141238094D02*
X164022142Y-141285713D01*
D11*
%TO.C,J4*%
X191360476Y-119380952D02*
X191265238Y-119666666D01*
X191265238Y-119666666D02*
X191265238Y-120142857D01*
X191265238Y-120142857D02*
X191360476Y-120333333D01*
X191360476Y-120333333D02*
X191455714Y-120428571D01*
X191455714Y-120428571D02*
X191646190Y-120523809D01*
X191646190Y-120523809D02*
X191836666Y-120523809D01*
X191836666Y-120523809D02*
X192027142Y-120428571D01*
X192027142Y-120428571D02*
X192122380Y-120333333D01*
X192122380Y-120333333D02*
X192217619Y-120142857D01*
X192217619Y-120142857D02*
X192312857Y-119761904D01*
X192312857Y-119761904D02*
X192408095Y-119571428D01*
X192408095Y-119571428D02*
X192503333Y-119476190D01*
X192503333Y-119476190D02*
X192693809Y-119380952D01*
X192693809Y-119380952D02*
X192884285Y-119380952D01*
X192884285Y-119380952D02*
X193074761Y-119476190D01*
X193074761Y-119476190D02*
X193170000Y-119571428D01*
X193170000Y-119571428D02*
X193265238Y-119761904D01*
X193265238Y-119761904D02*
X193265238Y-120238095D01*
X193265238Y-120238095D02*
X193170000Y-120523809D01*
X193265238Y-121095238D02*
X193265238Y-122238095D01*
X191265238Y-121666666D02*
X193265238Y-121666666D01*
X192027142Y-122904762D02*
X192027142Y-124428572D01*
D10*
%TO.C,R4*%
X165867380Y-133166666D02*
X165391190Y-133499999D01*
X165867380Y-133738094D02*
X164867380Y-133738094D01*
X164867380Y-133738094D02*
X164867380Y-133357142D01*
X164867380Y-133357142D02*
X164915000Y-133261904D01*
X164915000Y-133261904D02*
X164962619Y-133214285D01*
X164962619Y-133214285D02*
X165057857Y-133166666D01*
X165057857Y-133166666D02*
X165200714Y-133166666D01*
X165200714Y-133166666D02*
X165295952Y-133214285D01*
X165295952Y-133214285D02*
X165343571Y-133261904D01*
X165343571Y-133261904D02*
X165391190Y-133357142D01*
X165391190Y-133357142D02*
X165391190Y-133738094D01*
X165200714Y-132309523D02*
X165867380Y-132309523D01*
X164819761Y-132547618D02*
X165534047Y-132785713D01*
X165534047Y-132785713D02*
X165534047Y-132166666D01*
%TO.C,J5*%
X191367380Y-139476190D02*
X191367380Y-138904762D01*
X192367380Y-139190476D02*
X191367380Y-139190476D01*
X192319761Y-138190476D02*
X192367380Y-138285714D01*
X192367380Y-138285714D02*
X192367380Y-138476190D01*
X192367380Y-138476190D02*
X192319761Y-138571428D01*
X192319761Y-138571428D02*
X192224523Y-138619047D01*
X192224523Y-138619047D02*
X191843571Y-138619047D01*
X191843571Y-138619047D02*
X191748333Y-138571428D01*
X191748333Y-138571428D02*
X191700714Y-138476190D01*
X191700714Y-138476190D02*
X191700714Y-138285714D01*
X191700714Y-138285714D02*
X191748333Y-138190476D01*
X191748333Y-138190476D02*
X191843571Y-138142857D01*
X191843571Y-138142857D02*
X191938809Y-138142857D01*
X191938809Y-138142857D02*
X192034047Y-138619047D01*
X192367380Y-137571428D02*
X192319761Y-137666666D01*
X192319761Y-137666666D02*
X192224523Y-137714285D01*
X192224523Y-137714285D02*
X191367380Y-137714285D01*
X192319761Y-136809523D02*
X192367380Y-136904761D01*
X192367380Y-136904761D02*
X192367380Y-137095237D01*
X192367380Y-137095237D02*
X192319761Y-137190475D01*
X192319761Y-137190475D02*
X192224523Y-137238094D01*
X192224523Y-137238094D02*
X191843571Y-137238094D01*
X191843571Y-137238094D02*
X191748333Y-137190475D01*
X191748333Y-137190475D02*
X191700714Y-137095237D01*
X191700714Y-137095237D02*
X191700714Y-136904761D01*
X191700714Y-136904761D02*
X191748333Y-136809523D01*
X191748333Y-136809523D02*
X191843571Y-136761904D01*
X191843571Y-136761904D02*
X191938809Y-136761904D01*
X191938809Y-136761904D02*
X192034047Y-137238094D01*
X192367380Y-136333332D02*
X191700714Y-136333332D01*
X191795952Y-136333332D02*
X191748333Y-136285713D01*
X191748333Y-136285713D02*
X191700714Y-136190475D01*
X191700714Y-136190475D02*
X191700714Y-136047618D01*
X191700714Y-136047618D02*
X191748333Y-135952380D01*
X191748333Y-135952380D02*
X191843571Y-135904761D01*
X191843571Y-135904761D02*
X192367380Y-135904761D01*
X191843571Y-135904761D02*
X191748333Y-135857142D01*
X191748333Y-135857142D02*
X191700714Y-135761904D01*
X191700714Y-135761904D02*
X191700714Y-135619047D01*
X191700714Y-135619047D02*
X191748333Y-135523808D01*
X191748333Y-135523808D02*
X191843571Y-135476189D01*
X191843571Y-135476189D02*
X192367380Y-135476189D01*
X192319761Y-134619047D02*
X192367380Y-134714285D01*
X192367380Y-134714285D02*
X192367380Y-134904761D01*
X192367380Y-134904761D02*
X192319761Y-134999999D01*
X192319761Y-134999999D02*
X192224523Y-135047618D01*
X192224523Y-135047618D02*
X191843571Y-135047618D01*
X191843571Y-135047618D02*
X191748333Y-134999999D01*
X191748333Y-134999999D02*
X191700714Y-134904761D01*
X191700714Y-134904761D02*
X191700714Y-134714285D01*
X191700714Y-134714285D02*
X191748333Y-134619047D01*
X191748333Y-134619047D02*
X191843571Y-134571428D01*
X191843571Y-134571428D02*
X191938809Y-134571428D01*
X191938809Y-134571428D02*
X192034047Y-135047618D01*
X191700714Y-134285713D02*
X191700714Y-133904761D01*
X191367380Y-134142856D02*
X192224523Y-134142856D01*
X192224523Y-134142856D02*
X192319761Y-134095237D01*
X192319761Y-134095237D02*
X192367380Y-133999999D01*
X192367380Y-133999999D02*
X192367380Y-133904761D01*
X192367380Y-133571427D02*
X191700714Y-133571427D01*
X191891190Y-133571427D02*
X191795952Y-133523808D01*
X191795952Y-133523808D02*
X191748333Y-133476189D01*
X191748333Y-133476189D02*
X191700714Y-133380951D01*
X191700714Y-133380951D02*
X191700714Y-133285713D01*
X191700714Y-133047617D02*
X192367380Y-132809522D01*
X191700714Y-132571427D02*
X192367380Y-132809522D01*
X192367380Y-132809522D02*
X192605476Y-132904760D01*
X192605476Y-132904760D02*
X192653095Y-132952379D01*
X192653095Y-132952379D02*
X192700714Y-133047617D01*
%TO.C,TP1*%
X165125090Y-110047594D02*
X165024075Y-110081266D01*
X165024075Y-110081266D02*
X164923060Y-110182281D01*
X164923060Y-110182281D02*
X164855716Y-110316968D01*
X164855716Y-110316968D02*
X164855716Y-110451655D01*
X164855716Y-110451655D02*
X164889388Y-110552670D01*
X164889388Y-110552670D02*
X164990403Y-110721029D01*
X164990403Y-110721029D02*
X165091418Y-110822044D01*
X165091418Y-110822044D02*
X165259777Y-110923060D01*
X165259777Y-110923060D02*
X165360792Y-110956731D01*
X165360792Y-110956731D02*
X165495479Y-110956731D01*
X165495479Y-110956731D02*
X165630166Y-110889388D01*
X165630166Y-110889388D02*
X165697510Y-110822044D01*
X165697510Y-110822044D02*
X165764853Y-110687357D01*
X165764853Y-110687357D02*
X165764853Y-110620014D01*
X165764853Y-110620014D02*
X165529151Y-110384312D01*
X165529151Y-110384312D02*
X165394464Y-110518999D01*
X166438288Y-110081266D02*
X166067899Y-109710876D01*
X166067899Y-109710876D02*
X165966884Y-109677205D01*
X165966884Y-109677205D02*
X165865869Y-109710876D01*
X165865869Y-109710876D02*
X165731182Y-109845564D01*
X165731182Y-109845564D02*
X165697510Y-109946579D01*
X166404617Y-110047594D02*
X166370945Y-110148609D01*
X166370945Y-110148609D02*
X166202586Y-110316968D01*
X166202586Y-110316968D02*
X166101571Y-110350640D01*
X166101571Y-110350640D02*
X166000556Y-110316968D01*
X166000556Y-110316968D02*
X165933212Y-110249625D01*
X165933212Y-110249625D02*
X165899540Y-110148609D01*
X165899540Y-110148609D02*
X165933212Y-110047594D01*
X165933212Y-110047594D02*
X166101571Y-109879235D01*
X166101571Y-109879235D02*
X166135243Y-109778220D01*
X166202586Y-109374159D02*
X166471960Y-109104785D01*
X166067899Y-109037441D02*
X166673991Y-109643533D01*
X166673991Y-109643533D02*
X166775006Y-109677205D01*
X166775006Y-109677205D02*
X166876021Y-109643533D01*
X166876021Y-109643533D02*
X166943365Y-109576189D01*
X167414770Y-109037441D02*
X167381098Y-109138456D01*
X167381098Y-109138456D02*
X167246411Y-109273143D01*
X167246411Y-109273143D02*
X167145396Y-109306815D01*
X167145396Y-109306815D02*
X167044380Y-109273143D01*
X167044380Y-109273143D02*
X166775006Y-109003769D01*
X166775006Y-109003769D02*
X166741334Y-108902754D01*
X166741334Y-108902754D02*
X166775006Y-108801739D01*
X166775006Y-108801739D02*
X166909693Y-108667052D01*
X166909693Y-108667052D02*
X167010709Y-108633380D01*
X167010709Y-108633380D02*
X167111724Y-108667052D01*
X167111724Y-108667052D02*
X167179067Y-108734395D01*
X167179067Y-108734395D02*
X166909693Y-109138456D01*
X168546140Y-107973414D02*
X168209423Y-108310131D01*
X168209423Y-108310131D02*
X167502316Y-107603024D01*
X168882858Y-107636696D02*
X168781843Y-107670368D01*
X168781843Y-107670368D02*
X168714499Y-107670368D01*
X168714499Y-107670368D02*
X168613484Y-107636696D01*
X168613484Y-107636696D02*
X168411454Y-107434665D01*
X168411454Y-107434665D02*
X168377782Y-107333650D01*
X168377782Y-107333650D02*
X168377782Y-107266307D01*
X168377782Y-107266307D02*
X168411454Y-107165291D01*
X168411454Y-107165291D02*
X168512469Y-107064276D01*
X168512469Y-107064276D02*
X168613484Y-107030604D01*
X168613484Y-107030604D02*
X168680828Y-107030604D01*
X168680828Y-107030604D02*
X168781843Y-107064276D01*
X168781843Y-107064276D02*
X168983873Y-107266307D01*
X168983873Y-107266307D02*
X169017545Y-107367322D01*
X169017545Y-107367322D02*
X169017545Y-107434665D01*
X169017545Y-107434665D02*
X168983873Y-107535681D01*
X168983873Y-107535681D02*
X168882858Y-107636696D01*
X169253247Y-106323498D02*
X169825667Y-106895917D01*
X169825667Y-106895917D02*
X169859339Y-106996933D01*
X169859339Y-106996933D02*
X169859339Y-107064276D01*
X169859339Y-107064276D02*
X169825667Y-107165291D01*
X169825667Y-107165291D02*
X169724652Y-107266307D01*
X169724652Y-107266307D02*
X169623637Y-107299978D01*
X169690980Y-106761230D02*
X169657308Y-106862246D01*
X169657308Y-106862246D02*
X169522621Y-106996933D01*
X169522621Y-106996933D02*
X169421606Y-107030604D01*
X169421606Y-107030604D02*
X169354263Y-107030604D01*
X169354263Y-107030604D02*
X169253247Y-106996933D01*
X169253247Y-106996933D02*
X169051217Y-106794902D01*
X169051217Y-106794902D02*
X169017545Y-106693887D01*
X169017545Y-106693887D02*
X169017545Y-106626543D01*
X169017545Y-106626543D02*
X169051217Y-106525528D01*
X169051217Y-106525528D02*
X169185904Y-106390841D01*
X169185904Y-106390841D02*
X169286919Y-106357169D01*
D11*
%TO.C,J3*%
X162265238Y-119476190D02*
X164265238Y-119476190D01*
X164265238Y-119476190D02*
X164265238Y-120238095D01*
X164265238Y-120238095D02*
X164170000Y-120428571D01*
X164170000Y-120428571D02*
X164074761Y-120523809D01*
X164074761Y-120523809D02*
X163884285Y-120619047D01*
X163884285Y-120619047D02*
X163598571Y-120619047D01*
X163598571Y-120619047D02*
X163408095Y-120523809D01*
X163408095Y-120523809D02*
X163312857Y-120428571D01*
X163312857Y-120428571D02*
X163217619Y-120238095D01*
X163217619Y-120238095D02*
X163217619Y-119476190D01*
X164265238Y-121190476D02*
X162265238Y-121857142D01*
X162265238Y-121857142D02*
X164265238Y-122523809D01*
X163027142Y-123190476D02*
X163027142Y-124714286D01*
D12*
%TO.C,U4*%
X164000000Y-109560000D02*
X163200000Y-109560000D01*
X164000000Y-106440000D02*
X164800000Y-106440000D01*
X164000000Y-109560000D02*
X164800000Y-109560000D01*
X164000000Y-106440000D02*
X162200000Y-106440000D01*
%TO.C,C8*%
X156711252Y-111090000D02*
X155288748Y-111090000D01*
X156711252Y-112910000D02*
X155288748Y-112910000D01*
%TO.C,C1*%
X178265000Y-139261252D02*
X178265000Y-138738748D01*
X179735000Y-139261252D02*
X179735000Y-138738748D01*
%TO.C,C10*%
X156711252Y-118910000D02*
X155288748Y-118910000D01*
X156711252Y-117090000D02*
X155288748Y-117090000D01*
%TO.C,R3*%
X144802500Y-132727064D02*
X144802500Y-132272936D01*
X146272500Y-132727064D02*
X146272500Y-132272936D01*
%TO.C,C3*%
X147802500Y-132761252D02*
X147802500Y-132238748D01*
X149272500Y-132761252D02*
X149272500Y-132238748D01*
%TO.C,C4*%
X175265000Y-139261252D02*
X175265000Y-138738748D01*
X176735000Y-139261252D02*
X176735000Y-138738748D01*
%TO.C,D2*%
X136825000Y-112800000D02*
X138325000Y-112800000D01*
X136825000Y-123200000D02*
X138325000Y-123200000D01*
X138325000Y-112800000D02*
X138325000Y-114610000D01*
X138325000Y-114610000D02*
X139425000Y-114610000D01*
X138325000Y-121390000D02*
X143450000Y-121390000D01*
X138325000Y-123200000D02*
X138325000Y-121390000D01*
%TO.C,C12*%
X156711252Y-124910000D02*
X155288748Y-124910000D01*
X156711252Y-123090000D02*
X155288748Y-123090000D01*
%TO.C,R2*%
X147264564Y-137235000D02*
X146810436Y-137235000D01*
X147264564Y-135765000D02*
X146810436Y-135765000D01*
%TO.C,C7*%
X189765000Y-141761252D02*
X189765000Y-141238748D01*
X191235000Y-141761252D02*
X191235000Y-141238748D01*
%TO.C,R1*%
X177727064Y-143235000D02*
X177272936Y-143235000D01*
X177727064Y-141765000D02*
X177272936Y-141765000D01*
%TO.C,J2*%
X123175000Y-115000000D02*
G75*
G03*
X123175000Y-115000000I-3175000J0D01*
G01*
%TO.C,C16*%
X169235000Y-141238748D02*
X169235000Y-141761252D01*
X167765000Y-141238748D02*
X167765000Y-141761252D01*
%TO.C,D1*%
X171140000Y-141540000D02*
X171140000Y-143460000D01*
X171140000Y-143460000D02*
X174000000Y-143460000D01*
X174000000Y-141540000D02*
X171140000Y-141540000D01*
D10*
%TO.C,X1*%
X179810000Y-136270000D02*
X172190000Y-136270000D01*
X179810000Y-133730000D02*
X179810000Y-136270000D01*
X177270000Y-136270000D02*
X177270000Y-133730000D01*
X172190000Y-136270000D02*
X172190000Y-133730000D01*
X172190000Y-133730000D02*
X179810000Y-133730000D01*
D12*
%TO.C,C6*%
X123776248Y-140265000D02*
X124298752Y-140265000D01*
X123776248Y-141735000D02*
X124298752Y-141735000D01*
%TO.C,U1*%
X137607500Y-139450000D02*
X137607500Y-139180000D01*
X137607500Y-139180000D02*
X140437500Y-139180000D01*
X137607500Y-132820000D02*
X138707500Y-132820000D01*
X137607500Y-132550000D02*
X137607500Y-132820000D01*
X136107500Y-139450000D02*
X137607500Y-139450000D01*
X136107500Y-132550000D02*
X137607500Y-132550000D01*
%TO.C,C2*%
X141902500Y-132761252D02*
X141902500Y-132238748D01*
X143372500Y-132761252D02*
X143372500Y-132238748D01*
%TO.C,J1*%
X152175000Y-115000000D02*
G75*
G03*
X152175000Y-115000000I-3175000J0D01*
G01*
%TO.C,C15*%
X156735000Y-107738748D02*
X156735000Y-108261252D01*
X155265000Y-107738748D02*
X155265000Y-108261252D01*
%TO.C,TP2*%
X174200000Y-110500000D02*
G75*
G03*
X174200000Y-110500000I-1200000J0D01*
G01*
%TO.C,C9*%
X156711252Y-115910000D02*
X155288748Y-115910000D01*
X156711252Y-114090000D02*
X155288748Y-114090000D01*
%TO.C,C5*%
X129298752Y-141735000D02*
X128776248Y-141735000D01*
X129298752Y-140265000D02*
X128776248Y-140265000D01*
%TO.C,D3*%
X162000000Y-135440000D02*
X160325000Y-135440000D01*
X162000000Y-135440000D02*
X162650000Y-135440000D01*
X162000000Y-138560000D02*
X161350000Y-138560000D01*
X162000000Y-138560000D02*
X162650000Y-138560000D01*
%TO.C,C13*%
X156711252Y-127910000D02*
X155288748Y-127910000D01*
X156711252Y-126090000D02*
X155288748Y-126090000D01*
%TO.C,C14*%
X159735000Y-107738748D02*
X159735000Y-108261252D01*
X158265000Y-107738748D02*
X158265000Y-108261252D01*
%TO.C,TP3*%
X169700000Y-137000000D02*
G75*
G03*
X169700000Y-137000000I-1200000J0D01*
G01*
%TO.C,U3*%
X185000000Y-142935000D02*
X188450000Y-142935000D01*
X185000000Y-142935000D02*
X183050000Y-142935000D01*
X185000000Y-134065000D02*
X186950000Y-134065000D01*
X185000000Y-134065000D02*
X183050000Y-134065000D01*
%TO.C,Q1*%
X173675000Y-112800000D02*
X173675000Y-114610000D01*
X173675000Y-114610000D02*
X168550000Y-114610000D01*
X173675000Y-121390000D02*
X172575000Y-121390000D01*
X173675000Y-123200000D02*
X173675000Y-121390000D01*
X175175000Y-112800000D02*
X173675000Y-112800000D01*
X175175000Y-123200000D02*
X173675000Y-123200000D01*
%TO.C,C11*%
X156711252Y-121910000D02*
X155288748Y-121910000D01*
X156711252Y-120090000D02*
X155288748Y-120090000D01*
%TO.C,U2*%
X127637500Y-139410000D02*
X121627500Y-139410000D01*
X125387500Y-132590000D02*
X121627500Y-132590000D01*
X121627500Y-139410000D02*
X121627500Y-138150000D01*
X121627500Y-132590000D02*
X121627500Y-133850000D01*
%TO.C,R5*%
X166235000Y-141272936D02*
X166235000Y-141727064D01*
X164765000Y-141272936D02*
X164765000Y-141727064D01*
%TO.C,J4*%
X195175000Y-115000000D02*
G75*
G03*
X195175000Y-115000000I-3175000J0D01*
G01*
%TO.C,R4*%
X166235000Y-136772936D02*
X166235000Y-137227064D01*
X164765000Y-136772936D02*
X164765000Y-137227064D01*
%TO.C,J5*%
X195330000Y-143630000D02*
X194000000Y-143630000D01*
X195330000Y-142300000D02*
X195330000Y-143630000D01*
X195330000Y-141030000D02*
X195330000Y-133350000D01*
X195330000Y-141030000D02*
X192670000Y-141030000D01*
X195330000Y-133350000D02*
X192670000Y-133350000D01*
X192670000Y-141030000D02*
X192670000Y-133350000D01*
%TO.C,TP1*%
X169200000Y-110500000D02*
G75*
G03*
X169200000Y-110500000I-1200000J0D01*
G01*
%TO.C,J3*%
X166175000Y-115000000D02*
G75*
G03*
X166175000Y-115000000I-3175000J0D01*
G01*
%TD*%
D13*
%TO.C,X1*%
X178540000Y-135000000D03*
X176000000Y-135000000D03*
X173460000Y-135000000D03*
%TD*%
M02*
