M48
; DRILL file {KiCad 6.99.0-unknown-c34fb494b1~148~ubuntu20.04.1} date Thu 23 Jun 2022 12:09:39 AM CEST
; FORMAT={-:-/ absolute / inch / decimal}
; #@! TF.CreationDate,2022-06-23T00:09:39+02:00
; #@! TF.GenerationSoftware,Kicad,Pcbnew,6.99.0-unknown-c34fb494b1~148~ubuntu20.04.1
; #@! TF.FileFunction,Plated,1,2,PTH
FMAT,2
INCH
; #@! TA.AperFunction,Plated,PTH,ViaDrill
T1C0.0157
; #@! TA.AperFunction,Plated,PTH,ViaDrill
T2C0.0315
; #@! TA.AperFunction,Plated,PTH,ViaDrill
T3C0.0394
; #@! TA.AperFunction,Plated,PTH,ComponentDrill
T4C0.0394
; #@! TA.AperFunction,Plated,PTH,ComponentDrill
T5C0.0400
; #@! TA.AperFunction,Plated,PTH,ComponentDrill
T6C0.0984
%
G90
G05
T1
X4.9818Y-5.5512
X4.9818Y-5.5906
X4.9818Y-5.6299
X5.5512Y-5.1969
X6.2598Y-5.2977
X6.2992Y-5.2977
X6.3386Y-4.2717
X6.3386Y-5.2977
X6.5157Y-5.2953
X6.5733Y-5.6117
X6.5945Y-4.4291
X6.6339Y-5.4724
X6.7913Y-5.5413
X6.9882Y-5.4724
X7.0866Y-5.5709
X7.3031Y-5.6004
X7.3055Y-5.3028
X7.5Y-5.3543
X7.5Y-5.4724
T2
X6.0236Y-5.2756
X6.0433Y-4.311
T3
X4.626Y-4.1339
X4.626Y-4.2323
X4.626Y-4.3307
X4.626Y-4.7244
X4.626Y-4.8228
X4.626Y-4.9213
X4.626Y-5.0197
X4.626Y-5.1181
X4.7244Y-4.2323
X4.7244Y-4.3307
X4.7244Y-5.0197
X4.7244Y-5.1181
X4.8228Y-4.2323
X4.8228Y-4.3307
X4.8228Y-4.7244
X4.8228Y-4.8228
X4.8228Y-4.9213
X4.8228Y-5.0197
X4.8228Y-5.1181
X4.9213Y-4.1339
X4.9213Y-4.2323
X4.9213Y-4.3307
X4.9213Y-4.4291
X4.9213Y-4.5276
X4.9213Y-4.626
X4.9213Y-4.7244
X4.9213Y-4.8228
X4.9213Y-4.9213
X4.9213Y-5.0197
X4.9213Y-5.1181
X5.0197Y-3.8386
X5.0197Y-3.937
X5.0197Y-4.0354
X5.0197Y-4.1339
X5.0197Y-4.2323
X5.0197Y-4.3307
X5.0197Y-4.9213
X5.0197Y-5.0197
X5.0197Y-5.1181
X5.1181Y-3.8386
X5.1181Y-3.937
X5.1181Y-4.0354
X5.1181Y-4.1339
X5.1181Y-4.2323
X5.1181Y-4.3307
X5.1181Y-4.9213
X5.1181Y-5.0197
X5.1181Y-5.1181
X5.2165Y-3.8386
X5.2165Y-3.937
X5.2165Y-4.0354
X5.2165Y-4.1339
X5.2165Y-4.2323
X5.2165Y-4.3307
X5.2165Y-4.9213
X5.2165Y-5.0197
X5.2165Y-5.1181
X5.315Y-3.8386
X5.315Y-3.937
X5.315Y-4.0354
X5.315Y-4.1339
X5.315Y-4.2323
X5.315Y-4.3307
X5.315Y-4.9213
X5.315Y-5.0197
X5.315Y-5.1181
X5.5118Y-3.8386
X5.5118Y-3.937
X5.5118Y-4.0354
X5.6102Y-3.8386
X5.6102Y-3.937
X5.6102Y-4.0354
X5.7087Y-3.8386
X5.7087Y-3.937
X5.7087Y-4.0354
X5.8071Y-3.8386
X5.8071Y-3.937
X5.8071Y-4.0354
X5.9055Y-3.8386
X5.9055Y-3.937
X5.9055Y-4.0354
X6.0039Y-3.8386
X6.0039Y-3.937
X6.0039Y-4.0354
X6.1024Y-3.8386
X6.1024Y-3.937
X6.1024Y-4.0354
X6.2008Y-3.8386
X6.2008Y-3.937
X6.2008Y-4.0354
X6.2992Y-3.8386
X6.2992Y-3.937
X6.2992Y-4.0354
X6.3976Y-3.8386
X6.3976Y-3.937
X6.3976Y-4.0354
X6.4961Y-3.8386
X6.4961Y-3.937
X6.4961Y-4.0354
X6.5945Y-3.8386
X6.5945Y-3.937
X6.5945Y-4.0354
X6.6929Y-3.8386
X6.6929Y-3.937
X6.6929Y-4.0354
X6.7913Y-3.8386
X6.7913Y-3.937
X6.7913Y-4.0354
X6.8898Y-3.8386
X6.8898Y-3.937
X6.8898Y-4.0354
X6.9882Y-3.8386
X6.9882Y-3.937
X6.9882Y-4.0354
X6.9882Y-4.1339
X6.9882Y-4.2323
X6.9882Y-4.3307
X6.9882Y-4.9213
X6.9882Y-5.0197
X6.9882Y-5.1181
X7.0866Y-3.8386
X7.0866Y-3.937
X7.0866Y-4.0354
X7.0866Y-4.1339
X7.0866Y-4.2323
X7.0866Y-4.3307
X7.0866Y-4.9213
X7.0866Y-5.0197
X7.0866Y-5.1181
X7.185Y-3.8386
X7.185Y-3.937
X7.185Y-4.0354
X7.185Y-4.1339
X7.185Y-4.2323
X7.185Y-4.3307
X7.185Y-4.9213
X7.185Y-5.0197
X7.185Y-5.1181
X7.2835Y-3.8386
X7.2835Y-3.937
X7.2835Y-4.0354
X7.2835Y-4.1339
X7.2835Y-4.2323
X7.2835Y-4.3307
X7.2835Y-4.9213
X7.2835Y-5.0197
X7.2835Y-5.1181
X7.3819Y-4.1339
X7.3819Y-4.2323
X7.3819Y-4.3307
X7.3819Y-4.4291
X7.3819Y-4.5276
X7.3819Y-4.626
X7.3819Y-4.7244
X7.3819Y-4.8228
X7.3819Y-4.9213
X7.3819Y-5.0197
X7.3819Y-5.1181
X7.4803Y-4.2323
X7.4803Y-4.3307
X7.4803Y-4.7244
X7.4803Y-4.8228
X7.4803Y-4.9213
X7.4803Y-5.0197
X7.4803Y-5.1181
X7.5787Y-4.2323
X7.5787Y-4.3307
X7.5787Y-5.0197
X7.5787Y-5.1181
X7.6772Y-4.1339
X7.6772Y-4.2323
X7.6772Y-4.3307
X7.6772Y-4.7244
X7.6772Y-4.8228
X7.6772Y-4.9213
X7.6772Y-5.0197
X7.6772Y-5.1181
T4
X7.6378Y-5.3024
X7.6378Y-5.4024
X7.6378Y-5.5024
X7.6378Y-5.6024
T5
X6.8291Y-5.315
X6.9291Y-5.315
X7.0291Y-5.315
T6
X4.7244Y-4.5276
X5.8661Y-4.5276
X6.4173Y-4.5276
X7.5591Y-4.5276
T0
M30
