%TF.GenerationSoftware,KiCad,Pcbnew,6.99.0-unknown-c34fb494b1~148~ubuntu20.04.1*%
%TF.CreationDate,2022-06-23T00:09:44+02:00*%
%TF.ProjectId,optimizer,6f707469-6d69-47a6-9572-2e6b69636164,rev?*%
%TF.SameCoordinates,Original*%
%TF.FileFunction,Legend,Bot*%
%TF.FilePolarity,Positive*%
%FSLAX46Y46*%
G04 Gerber Fmt 4.6, Leading zero omitted, Abs format (unit mm)*
G04 Created by KiCad (PCBNEW 6.99.0-unknown-c34fb494b1~148~ubuntu20.04.1) date 2022-06-23 00:09:44*
%MOMM*%
%LPD*%
G01*
G04 APERTURE LIST*
%ADD10C,0.150000*%
G04 APERTURE END LIST*
D10*
X167690476Y-121081666D02*
X167214286Y-121081666D01*
X167785714Y-121367380D02*
X167452381Y-120367380D01*
X167452381Y-120367380D02*
X167119048Y-121367380D01*
X166357143Y-121367380D02*
X166357143Y-120367380D01*
X166357143Y-121319761D02*
X166452381Y-121367380D01*
X166452381Y-121367380D02*
X166642857Y-121367380D01*
X166642857Y-121367380D02*
X166738095Y-121319761D01*
X166738095Y-121319761D02*
X166785714Y-121272142D01*
X166785714Y-121272142D02*
X166833333Y-121176904D01*
X166833333Y-121176904D02*
X166833333Y-120891190D01*
X166833333Y-120891190D02*
X166785714Y-120795952D01*
X166785714Y-120795952D02*
X166738095Y-120748333D01*
X166738095Y-120748333D02*
X166642857Y-120700714D01*
X166642857Y-120700714D02*
X166452381Y-120700714D01*
X166452381Y-120700714D02*
X166357143Y-120748333D01*
X165452381Y-121367380D02*
X165452381Y-120367380D01*
X165452381Y-121319761D02*
X165547619Y-121367380D01*
X165547619Y-121367380D02*
X165738095Y-121367380D01*
X165738095Y-121367380D02*
X165833333Y-121319761D01*
X165833333Y-121319761D02*
X165880952Y-121272142D01*
X165880952Y-121272142D02*
X165928571Y-121176904D01*
X165928571Y-121176904D02*
X165928571Y-120891190D01*
X165928571Y-120891190D02*
X165880952Y-120795952D01*
X165880952Y-120795952D02*
X165833333Y-120748333D01*
X165833333Y-120748333D02*
X165738095Y-120700714D01*
X165738095Y-120700714D02*
X165547619Y-120700714D01*
X165547619Y-120700714D02*
X165452381Y-120748333D01*
X164976190Y-121367380D02*
X164976190Y-120700714D01*
X164976190Y-120891190D02*
X164928571Y-120795952D01*
X164928571Y-120795952D02*
X164880952Y-120748333D01*
X164880952Y-120748333D02*
X164785714Y-120700714D01*
X164785714Y-120700714D02*
X164690476Y-120700714D01*
X163976190Y-121319761D02*
X164071428Y-121367380D01*
X164071428Y-121367380D02*
X164261904Y-121367380D01*
X164261904Y-121367380D02*
X164357142Y-121319761D01*
X164357142Y-121319761D02*
X164404761Y-121224523D01*
X164404761Y-121224523D02*
X164404761Y-120843571D01*
X164404761Y-120843571D02*
X164357142Y-120748333D01*
X164357142Y-120748333D02*
X164261904Y-120700714D01*
X164261904Y-120700714D02*
X164071428Y-120700714D01*
X164071428Y-120700714D02*
X163976190Y-120748333D01*
X163976190Y-120748333D02*
X163928571Y-120843571D01*
X163928571Y-120843571D02*
X163928571Y-120938809D01*
X163928571Y-120938809D02*
X164404761Y-121034047D01*
X163547618Y-121319761D02*
X163452380Y-121367380D01*
X163452380Y-121367380D02*
X163261904Y-121367380D01*
X163261904Y-121367380D02*
X163166666Y-121319761D01*
X163166666Y-121319761D02*
X163119047Y-121224523D01*
X163119047Y-121224523D02*
X163119047Y-121176904D01*
X163119047Y-121176904D02*
X163166666Y-121081666D01*
X163166666Y-121081666D02*
X163261904Y-121034047D01*
X163261904Y-121034047D02*
X163404761Y-121034047D01*
X163404761Y-121034047D02*
X163499999Y-120986428D01*
X163499999Y-120986428D02*
X163547618Y-120891190D01*
X163547618Y-120891190D02*
X163547618Y-120843571D01*
X163547618Y-120843571D02*
X163499999Y-120748333D01*
X163499999Y-120748333D02*
X163404761Y-120700714D01*
X163404761Y-120700714D02*
X163261904Y-120700714D01*
X163261904Y-120700714D02*
X163166666Y-120748333D01*
X162738094Y-121319761D02*
X162642856Y-121367380D01*
X162642856Y-121367380D02*
X162452380Y-121367380D01*
X162452380Y-121367380D02*
X162357142Y-121319761D01*
X162357142Y-121319761D02*
X162309523Y-121224523D01*
X162309523Y-121224523D02*
X162309523Y-121176904D01*
X162309523Y-121176904D02*
X162357142Y-121081666D01*
X162357142Y-121081666D02*
X162452380Y-121034047D01*
X162452380Y-121034047D02*
X162595237Y-121034047D01*
X162595237Y-121034047D02*
X162690475Y-120986428D01*
X162690475Y-120986428D02*
X162738094Y-120891190D01*
X162738094Y-120891190D02*
X162738094Y-120843571D01*
X162738094Y-120843571D02*
X162690475Y-120748333D01*
X162690475Y-120748333D02*
X162595237Y-120700714D01*
X162595237Y-120700714D02*
X162452380Y-120700714D01*
X162452380Y-120700714D02*
X162357142Y-120748333D01*
G36*
X168000000Y-131000000D02*
G01*
X144000000Y-131000000D01*
X144000000Y-122000000D01*
X168000000Y-122000000D01*
X168000000Y-131000000D01*
G37*
X168000000Y-131000000D02*
X144000000Y-131000000D01*
X144000000Y-122000000D01*
X168000000Y-122000000D01*
X168000000Y-131000000D01*
M02*
