M48
; DRILL file {KiCad 6.99.0-unknown-484fabf336~148~ubuntu20.04.1} date Mon 02 May 2022 09:27:19 PM CEST
; FORMAT={-:-/ absolute / inch / decimal}
; #@! TF.CreationDate,2022-05-02T21:27:19+02:00
; #@! TF.GenerationSoftware,Kicad,Pcbnew,6.99.0-unknown-484fabf336~148~ubuntu20.04.1
; #@! TF.FileFunction,Plated,1,2,PTH
FMAT,2
INCH
; #@! TA.AperFunction,Plated,PTH,ViaDrill
T1C0.0157
; #@! TA.AperFunction,Plated,PTH,ViaDrill
T2C0.0315
; #@! TA.AperFunction,Plated,PTH,ViaDrill
T3C0.0394
; #@! TA.AperFunction,Plated,PTH,ComponentDrill
T4C0.0394
; #@! TA.AperFunction,Plated,PTH,ComponentDrill
T5C0.0400
; #@! TA.AperFunction,Plated,PTH,ComponentDrill
T6C0.0984
%
G90
G05
T1
X4.4094Y-5.2953
X4.685Y-5.2953
X4.7244Y-5.2953
X4.7638Y-5.2953
X6.1417Y-5.1772
X6.2598Y-4.311
X6.2795Y-5.3937
X6.3976Y-4.6063
X6.4001Y-5.3174
X6.5748Y-5.2953
X6.6324Y-5.6117
X6.7717Y-5.4921
X6.8504Y-4.3701
X6.8725Y-5.3174
X6.9094Y-5.2559
X7.1078Y-5.6117
X7.2441Y-5.5118
X7.3622Y-5.5315
X7.5197Y-5.4724
X7.6181Y-5.5709
X7.6181Y-5.6102
X7.6378Y-5.3937
X7.7953Y-5.315
X7.815Y-5.4528
X8.0315Y-5.4724
X8.0906Y-5.6102
T2
X5.2559Y-5.3346
X5.315Y-5.3346
X6.3386Y-4.5669
X6.3386Y-4.626
T3
X4.4094Y-3.622
X4.4094Y-3.7402
X4.4094Y-3.8583
X4.4094Y-3.9764
X4.4094Y-4.0945
X4.4094Y-4.2126
X4.5276Y-3.622
X4.5276Y-3.7402
X4.5276Y-3.8583
X4.5276Y-3.9764
X4.5276Y-4.0945
X4.5276Y-4.2126
X4.6457Y-3.622
X4.6457Y-3.7402
X4.6457Y-3.8583
X4.6457Y-3.9764
X4.6457Y-4.0945
X4.6457Y-4.2126
X4.7638Y-3.622
X4.7638Y-3.7402
X4.7638Y-3.8583
X4.7638Y-3.9764
X4.7638Y-4.0945
X4.7638Y-4.2126
X4.8819Y-3.622
X4.8819Y-3.7402
X4.8819Y-3.8583
X4.8819Y-3.9764
X4.8819Y-4.0945
X4.8819Y-4.2126
X5.0Y-3.622
X5.0Y-3.7402
X5.0Y-3.8583
X5.0Y-3.9764
X5.0Y-4.0945
X5.0Y-4.2126
X5.1181Y-3.622
X5.1181Y-3.7402
X5.1181Y-3.8583
X5.2362Y-3.622
X5.2362Y-3.7402
X5.2362Y-3.8583
X5.3543Y-3.622
X5.3543Y-3.7402
X5.3543Y-3.8583
X5.4724Y-3.622
X5.4724Y-3.7402
X5.4724Y-3.8583
X5.5906Y-3.622
X5.5906Y-3.7402
X5.5906Y-3.8583
X5.5906Y-3.9764
X5.5906Y-4.0945
X5.5906Y-4.2126
X5.7087Y-3.622
X5.7087Y-3.7402
X5.7087Y-3.8583
X5.7087Y-3.9764
X5.7087Y-4.0945
X5.7087Y-4.2126
X5.8268Y-3.622
X5.8268Y-3.7402
X5.8268Y-3.8583
X5.8268Y-3.9764
X5.8268Y-4.0945
X5.8268Y-4.2126
X5.9449Y-3.622
X5.9449Y-3.7402
X5.9449Y-3.8583
X5.9449Y-3.9764
X5.9449Y-4.0945
X5.9449Y-4.2126
X6.063Y-3.622
X6.063Y-3.7402
X6.063Y-3.8583
X6.063Y-3.9764
X6.063Y-4.0945
X6.063Y-4.2126
X6.1811Y-3.622
X6.1811Y-3.7402
X6.1811Y-3.8583
X6.1811Y-3.9764
X6.1811Y-4.0945
X6.1811Y-4.2126
X6.4173Y-3.622
X6.4173Y-3.7402
X6.4173Y-3.8583
X6.4173Y-3.9764
X6.4173Y-4.0945
X6.5354Y-3.622
X6.5354Y-3.7402
X6.5354Y-3.8583
X6.5354Y-3.9764
X6.5354Y-4.0945
X6.6535Y-3.622
X6.6535Y-3.7402
X6.6535Y-3.8583
X6.6535Y-3.9764
X6.6535Y-4.0945
X6.7717Y-3.622
X6.7717Y-3.7402
X6.7717Y-3.8583
X6.7717Y-3.9764
X6.7717Y-4.0945
X6.8898Y-3.622
X6.8898Y-3.7402
X6.8898Y-3.8583
X6.8898Y-3.9764
X6.8898Y-4.0945
X7.0079Y-3.622
X7.0079Y-3.7402
X7.0079Y-3.8583
X7.0079Y-3.9764
X7.0079Y-4.0945
X7.126Y-3.622
X7.126Y-3.7402
X7.126Y-3.8583
X7.2441Y-3.622
X7.2441Y-3.7402
X7.2441Y-3.8583
X7.3622Y-3.622
X7.3622Y-3.7402
X7.3622Y-3.8583
X7.4803Y-3.622
X7.4803Y-3.7402
X7.4803Y-3.8583
X7.5984Y-3.622
X7.5984Y-3.7402
X7.5984Y-3.8583
X7.5984Y-3.9764
X7.5984Y-4.0945
X7.5984Y-4.2126
X7.7165Y-3.622
X7.7165Y-3.7402
X7.7165Y-3.8583
X7.7165Y-3.9764
X7.7165Y-4.0945
X7.7165Y-4.2126
X7.8346Y-3.622
X7.8346Y-3.7402
X7.8346Y-3.8583
X7.8346Y-3.9764
X7.8346Y-4.0945
X7.8346Y-4.2126
X7.9528Y-3.622
X7.9528Y-3.7402
X7.9528Y-3.8583
X7.9528Y-3.9764
X7.9528Y-4.0945
X7.9528Y-4.2126
X8.0709Y-3.622
X8.0709Y-3.7402
X8.0709Y-3.8583
X8.0709Y-3.9764
X8.0709Y-4.0945
X8.0709Y-4.2126
X8.189Y-3.622
X8.189Y-3.7402
X8.189Y-3.8583
X8.189Y-3.9764
X8.189Y-4.0945
X8.189Y-4.2126
T4
X8.1693Y-5.3024
X8.1693Y-5.4024
X8.1693Y-5.5024
X8.1693Y-5.6024
T5
X7.3606Y-5.315
X7.4606Y-5.315
X7.5606Y-5.315
T6
X4.9213Y-4.5079
X4.9213Y-5.0197
X7.7165Y-4.7539
X7.7165Y-5.0591
T0
M30
