%TF.GenerationSoftware,KiCad,Pcbnew,6.99.0-unknown-c34fb494b1~148~ubuntu20.04.1*%
%TF.CreationDate,2022-06-23T00:09:44+02:00*%
%TF.ProjectId,optimizer,6f707469-6d69-47a6-9572-2e6b69636164,rev?*%
%TF.SameCoordinates,Original*%
%TF.FileFunction,Copper,L2,Bot*%
%TF.FilePolarity,Positive*%
%FSLAX46Y46*%
G04 Gerber Fmt 4.6, Leading zero omitted, Abs format (unit mm)*
G04 Created by KiCad (PCBNEW 6.99.0-unknown-c34fb494b1~148~ubuntu20.04.1) date 2022-06-23 00:09:44*
%MOMM*%
%LPD*%
G01*
G04 APERTURE LIST*
%TA.AperFunction,ComponentPad*%
%ADD10C,5.500000*%
%TD*%
%TA.AperFunction,ComponentPad*%
%ADD11C,1.524000*%
%TD*%
%TA.AperFunction,ComponentPad*%
%ADD12R,1.700000X1.700000*%
%TD*%
%TA.AperFunction,ComponentPad*%
%ADD13O,1.700000X1.700000*%
%TD*%
%TA.AperFunction,ViaPad*%
%ADD14C,1.100000*%
%TD*%
%TA.AperFunction,ViaPad*%
%ADD15C,0.800000*%
%TD*%
%TA.AperFunction,ViaPad*%
%ADD16C,1.200000*%
%TD*%
%TA.AperFunction,Conductor*%
%ADD17C,0.400000*%
%TD*%
%TA.AperFunction,Conductor*%
%ADD18C,1.000000*%
%TD*%
G04 APERTURE END LIST*
D10*
%TO.P,J2,1,Pin_1*%
%TO.N,/PWR_P*%
X120000000Y-115000000D03*
%TD*%
D11*
%TO.P,X1,1,SWDIO*%
%TO.N,Net-(U3-PA31/SWDIO)*%
X178540000Y-135000000D03*
%TO.P,X1,2,GND*%
%TO.N,GND*%
X176000000Y-135000000D03*
%TO.P,X1,3,SWCLK*%
%TO.N,Net-(U3-PA30/SWCLK)*%
X173460000Y-135000000D03*
%TD*%
D10*
%TO.P,J1,1,Pin_1*%
%TO.N,/PWR_P*%
X149000000Y-115000000D03*
%TD*%
%TO.P,J4,1,Pin_1*%
%TO.N,/PWR_GND_OUT*%
X192000000Y-115000000D03*
%TD*%
D12*
%TO.P,J5,1,Pin_1*%
%TO.N,GND*%
X193999999Y-142299999D03*
D13*
%TO.P,J5,2,Pin_2*%
%TO.N,/TELEMETRY_1*%
X193999999Y-139759999D03*
%TO.P,J5,3,Pin_3*%
%TO.N,/TELEMETRY_2*%
X193999999Y-137219999D03*
%TO.P,J5,4,Pin_4*%
%TO.N,+3V3*%
X193999999Y-134679999D03*
%TD*%
D10*
%TO.P,J3,1,Pin_1*%
%TO.N,/PWR_GND*%
X163000000Y-115000000D03*
%TD*%
D14*
%TO.N,/PWR_GND_OUT*%
X187500000Y-117500000D03*
X187500000Y-115000000D03*
X187500000Y-112500000D03*
X187500000Y-110000000D03*
X192500000Y-107500000D03*
X187500000Y-105000000D03*
X190000000Y-110000000D03*
X187500000Y-107500000D03*
X195000000Y-107500000D03*
X190000000Y-107500000D03*
X192500000Y-110000000D03*
X195000000Y-110000000D03*
X195000000Y-105000000D03*
X195000000Y-125000000D03*
X187500000Y-127500000D03*
X190000000Y-127500000D03*
X195000000Y-120000000D03*
X187500000Y-120000000D03*
X195000000Y-127500000D03*
X192500000Y-130000000D03*
X187500000Y-122500000D03*
X187500000Y-130000000D03*
X195000000Y-130000000D03*
X195000000Y-122500000D03*
X190000000Y-125000000D03*
X192500000Y-127500000D03*
X190000000Y-120000000D03*
X187500000Y-125000000D03*
X190000000Y-122500000D03*
X190000000Y-130000000D03*
X185000000Y-127500000D03*
X177500000Y-127500000D03*
X182500000Y-130000000D03*
X182500000Y-127500000D03*
X177500000Y-130000000D03*
X185000000Y-130000000D03*
X180000000Y-127500000D03*
X180000000Y-130000000D03*
X185000000Y-125000000D03*
X180000000Y-125000000D03*
X182500000Y-125000000D03*
X177500000Y-125000000D03*
X185000000Y-105000000D03*
X180000000Y-110000000D03*
X177500000Y-110000000D03*
X177500000Y-105000000D03*
X185000000Y-107500000D03*
X177500000Y-107500000D03*
X182500000Y-105000000D03*
X180000000Y-107500000D03*
X182500000Y-107500000D03*
X180000000Y-105000000D03*
X185000000Y-110000000D03*
X182500000Y-110000000D03*
X182500000Y-97500000D03*
X185000000Y-100000000D03*
X185000000Y-97500000D03*
X177500000Y-100000000D03*
X182500000Y-102500000D03*
X180000000Y-100000000D03*
X182500000Y-100000000D03*
X180000000Y-97500000D03*
X177500000Y-102500000D03*
X180000000Y-102500000D03*
X185000000Y-102500000D03*
X177500000Y-97500000D03*
X175000000Y-100000000D03*
X172500000Y-100000000D03*
X175000000Y-102500000D03*
X170000000Y-97500000D03*
X170000000Y-102500000D03*
X165000000Y-97500000D03*
X170000000Y-100000000D03*
X172500000Y-102500000D03*
X165000000Y-100000000D03*
X167500000Y-100000000D03*
X167500000Y-102500000D03*
X175000000Y-97500000D03*
X167500000Y-97500000D03*
X172500000Y-97500000D03*
X165000000Y-102500000D03*
X160000000Y-100000000D03*
X162500000Y-102500000D03*
X160000000Y-102500000D03*
X160000000Y-97500000D03*
X155000000Y-97500000D03*
X152500000Y-102500000D03*
X162500000Y-100000000D03*
X157500000Y-97500000D03*
X152500000Y-100000000D03*
X157500000Y-102500000D03*
X155000000Y-102500000D03*
X155000000Y-100000000D03*
X162500000Y-97500000D03*
X152500000Y-97500000D03*
X157500000Y-100000000D03*
X150000000Y-100000000D03*
X150000000Y-102500000D03*
X150000000Y-97500000D03*
X147500000Y-97500000D03*
X147500000Y-102500000D03*
X147500000Y-100000000D03*
X145000000Y-97500000D03*
X145000000Y-102500000D03*
X145000000Y-100000000D03*
X142500000Y-102500000D03*
X142500000Y-100000000D03*
X142500000Y-97500000D03*
X140000000Y-102500000D03*
X140000000Y-100000000D03*
X140000000Y-97500000D03*
%TO.N,/PWR_P*%
X117500000Y-122500000D03*
X122500000Y-122500000D03*
X122500000Y-120000000D03*
X117500000Y-120000000D03*
X125000000Y-115000000D03*
X125000000Y-117500000D03*
X125000000Y-122500000D03*
X125000000Y-112500000D03*
X125000000Y-120000000D03*
X125000000Y-105000000D03*
X132500000Y-97500000D03*
X135000000Y-97500000D03*
X127500000Y-97500000D03*
X132500000Y-100000000D03*
X135000000Y-100000000D03*
X127500000Y-100000000D03*
X130000000Y-97500000D03*
X130000000Y-100000000D03*
X132500000Y-102500000D03*
X132500000Y-105000000D03*
X127500000Y-102500000D03*
X135000000Y-105000000D03*
X130000000Y-102500000D03*
X135000000Y-102500000D03*
X127500000Y-105000000D03*
X130000000Y-105000000D03*
X117500000Y-130000000D03*
X127500000Y-130000000D03*
X135000000Y-130000000D03*
X122500000Y-130000000D03*
X130000000Y-130000000D03*
X132500000Y-130000000D03*
X125000000Y-130000000D03*
X120000000Y-130000000D03*
X127500000Y-127500000D03*
X130000000Y-127500000D03*
X135000000Y-127500000D03*
X122500000Y-127500000D03*
X120000000Y-127500000D03*
X125000000Y-127500000D03*
X117500000Y-127500000D03*
X132500000Y-127500000D03*
X117500000Y-125000000D03*
X132500000Y-125000000D03*
X122500000Y-125000000D03*
X135000000Y-125000000D03*
X125000000Y-125000000D03*
X127500000Y-125000000D03*
X130000000Y-125000000D03*
X132500000Y-110000000D03*
X127500000Y-110000000D03*
X122500000Y-110000000D03*
X117500000Y-110000000D03*
X120000000Y-110000000D03*
X130000000Y-110000000D03*
X135000000Y-110000000D03*
X125000000Y-110000000D03*
X135000000Y-107500000D03*
X132500000Y-107500000D03*
X130000000Y-107500000D03*
X127500000Y-107500000D03*
X125000000Y-107500000D03*
X122500000Y-107500000D03*
X120000000Y-107500000D03*
X117500000Y-107500000D03*
X117500000Y-105000000D03*
D15*
%TO.N,GND*%
X161000000Y-134562500D03*
X159000000Y-134562500D03*
X126537500Y-142000000D03*
X160000000Y-134562500D03*
X126537500Y-141000000D03*
X177500000Y-139000000D03*
X166962500Y-142537500D03*
X172500000Y-140750000D03*
X126537500Y-143000000D03*
D16*
%TO.N,+12V*%
X153500000Y-109500000D03*
X153000000Y-134000000D03*
D15*
%TO.N,/V_SCALE*%
X168500000Y-139000000D03*
X180000000Y-141500000D03*
%TO.N,/V_FULL*%
X141000000Y-132000000D03*
X165500000Y-134500000D03*
%TO.N,/GATE_LOG*%
X161000000Y-108500000D03*
X167500000Y-112500000D03*
X185500000Y-142250000D03*
%TO.N,Net-(U3-PA28/~{RST})*%
X190500000Y-139000000D03*
X190500000Y-136000000D03*
%TO.N,Net-(U3-PA30/SWCLK)*%
X185560000Y-134690000D03*
%TD*%
D17*
%TO.N,/GATE_LOG*%
X161000000Y-108500000D02*
X161000000Y-109250000D01*
X161000000Y-109250000D02*
X161750000Y-110000000D01*
X161750000Y-110000000D02*
X165000000Y-110000000D01*
X171500000Y-136000000D02*
X176000000Y-140500000D01*
X165000000Y-110000000D02*
X171500000Y-116500000D01*
X171500000Y-116500000D02*
X171500000Y-136000000D01*
X176000000Y-140500000D02*
X184000000Y-140500000D01*
X184000000Y-140500000D02*
X185500000Y-142000000D01*
X185500000Y-142000000D02*
X185500000Y-142250000D01*
%TO.N,/V_FULL*%
X141000000Y-132000000D02*
X149000000Y-132000000D01*
X149000000Y-132000000D02*
X152000000Y-135000000D01*
X152000000Y-135000000D02*
X154000000Y-135000000D01*
X164500000Y-133500000D02*
X165500000Y-134500000D01*
X154000000Y-135000000D02*
X155500000Y-133500000D01*
X155500000Y-133500000D02*
X164500000Y-133500000D01*
D18*
%TO.N,+12V*%
X153500000Y-133500000D02*
X153500000Y-132500000D01*
X153500000Y-109500000D02*
X153500000Y-132500000D01*
X153000000Y-134000000D02*
X153500000Y-133500000D01*
D17*
%TO.N,/V_SCALE*%
X168500000Y-139000000D02*
X173000000Y-139000000D01*
X175500000Y-141500000D02*
X180000000Y-141500000D01*
X173000000Y-139000000D02*
X175500000Y-141500000D01*
%TO.N,Net-(U3-PA28/~{RST})*%
X190500000Y-139000000D02*
X190500000Y-136000000D01*
%TO.N,Net-(U3-PA30/SWCLK)*%
X184750000Y-133250000D02*
X174250000Y-133250000D01*
X185560000Y-134690000D02*
X185560000Y-134060000D01*
X174250000Y-133250000D02*
X173460000Y-134040000D01*
X173460000Y-134040000D02*
X173460000Y-135000000D01*
X185560000Y-134060000D02*
X184750000Y-133250000D01*
%TD*%
%TA.AperFunction,Conductor*%
%TO.N,GND*%
G36*
X149025274Y-133020002D02*
G01*
X149046248Y-133036905D01*
X151487007Y-135477664D01*
X151492225Y-135483206D01*
X151532071Y-135528183D01*
X151538343Y-135532512D01*
X151538345Y-135532514D01*
X151581518Y-135562314D01*
X151587648Y-135566825D01*
X151628941Y-135599176D01*
X151628947Y-135599180D01*
X151634944Y-135603878D01*
X151644016Y-135607961D01*
X151663878Y-135619163D01*
X151672070Y-135624818D01*
X151695390Y-135633662D01*
X151728249Y-135646124D01*
X151735274Y-135649034D01*
X151790069Y-135673695D01*
X151799862Y-135675489D01*
X151821829Y-135681613D01*
X151831128Y-135685140D01*
X151838696Y-135686059D01*
X151890764Y-135692382D01*
X151898285Y-135693527D01*
X151949894Y-135702984D01*
X151949897Y-135702984D01*
X151957394Y-135704358D01*
X151965000Y-135703898D01*
X151965002Y-135703898D01*
X152017367Y-135700730D01*
X152024975Y-135700500D01*
X153975025Y-135700500D01*
X153982633Y-135700730D01*
X154034999Y-135703898D01*
X154035000Y-135703898D01*
X154042606Y-135704358D01*
X154101730Y-135693523D01*
X154109248Y-135692379D01*
X154168872Y-135685140D01*
X154178174Y-135681613D01*
X154200137Y-135675490D01*
X154209932Y-135673695D01*
X154264749Y-135649024D01*
X154271758Y-135646121D01*
X154320805Y-135627520D01*
X154320804Y-135627520D01*
X154327930Y-135624818D01*
X154334198Y-135620491D01*
X154334201Y-135620490D01*
X154336122Y-135619164D01*
X154355984Y-135607961D01*
X154365057Y-135603878D01*
X154371059Y-135599176D01*
X154371062Y-135599174D01*
X154412349Y-135566828D01*
X154418478Y-135562317D01*
X154461659Y-135532511D01*
X154467929Y-135528183D01*
X154507775Y-135483206D01*
X154512993Y-135477664D01*
X155753252Y-134237405D01*
X155815564Y-134203379D01*
X155842347Y-134200500D01*
X164157652Y-134200500D01*
X164225773Y-134220502D01*
X164246747Y-134237404D01*
X164572995Y-134563651D01*
X164607020Y-134625964D01*
X164609209Y-134639574D01*
X164614326Y-134688256D01*
X164672821Y-134868284D01*
X164676124Y-134874006D01*
X164676125Y-134874007D01*
X164745706Y-134994525D01*
X164767467Y-135032216D01*
X164771885Y-135037123D01*
X164771886Y-135037124D01*
X164867815Y-135143663D01*
X164894129Y-135172888D01*
X165047270Y-135284151D01*
X165220197Y-135361144D01*
X165318212Y-135381978D01*
X165398897Y-135399128D01*
X165398901Y-135399128D01*
X165405354Y-135400500D01*
X165594646Y-135400500D01*
X165601099Y-135399128D01*
X165601103Y-135399128D01*
X165681788Y-135381978D01*
X165779803Y-135361144D01*
X165952730Y-135284151D01*
X166105871Y-135172888D01*
X166132186Y-135143663D01*
X166228114Y-135037124D01*
X166228115Y-135037123D01*
X166232533Y-135032216D01*
X166254294Y-134994525D01*
X166323875Y-134874007D01*
X166323876Y-134874006D01*
X166327179Y-134868284D01*
X166385674Y-134688256D01*
X166398466Y-134566550D01*
X166404770Y-134506565D01*
X166405460Y-134500000D01*
X166404101Y-134487074D01*
X166386364Y-134318307D01*
X166386364Y-134318305D01*
X166385674Y-134311744D01*
X166327179Y-134131716D01*
X166321920Y-134122606D01*
X166235836Y-133973505D01*
X166232533Y-133967784D01*
X166219564Y-133953380D01*
X166110286Y-133832015D01*
X166110284Y-133832014D01*
X166105871Y-133827112D01*
X166052371Y-133788242D01*
X165958072Y-133719730D01*
X165958071Y-133719729D01*
X165952730Y-133715849D01*
X165779803Y-133638856D01*
X165773342Y-133637483D01*
X165773340Y-133637482D01*
X165625452Y-133606048D01*
X165562552Y-133571896D01*
X165205752Y-133215095D01*
X165171727Y-133152783D01*
X165176792Y-133081967D01*
X165219339Y-133025132D01*
X165285859Y-133000321D01*
X165294848Y-133000000D01*
X170673500Y-133000000D01*
X170741621Y-133020002D01*
X170788114Y-133073658D01*
X170799500Y-133126000D01*
X170799500Y-135975025D01*
X170799270Y-135982633D01*
X170798617Y-135993435D01*
X170795642Y-136042606D01*
X170806476Y-136101723D01*
X170807621Y-136109248D01*
X170814860Y-136168872D01*
X170818387Y-136178174D01*
X170824510Y-136200137D01*
X170826305Y-136209932D01*
X170850976Y-136264749D01*
X170853879Y-136271757D01*
X170875182Y-136327930D01*
X170879509Y-136334198D01*
X170879510Y-136334201D01*
X170880836Y-136336122D01*
X170892039Y-136355984D01*
X170896122Y-136365057D01*
X170900824Y-136371059D01*
X170900826Y-136371062D01*
X170933172Y-136412349D01*
X170937683Y-136418478D01*
X170971817Y-136467929D01*
X170977521Y-136472982D01*
X171016794Y-136507775D01*
X171022336Y-136512993D01*
X172593748Y-138084405D01*
X172627774Y-138146717D01*
X172622709Y-138217532D01*
X172580162Y-138274368D01*
X172513642Y-138299179D01*
X172504653Y-138299500D01*
X169108806Y-138299500D01*
X169034745Y-138275436D01*
X168958072Y-138219730D01*
X168958071Y-138219729D01*
X168952730Y-138215849D01*
X168779803Y-138138856D01*
X168681788Y-138118022D01*
X168601103Y-138100872D01*
X168601099Y-138100872D01*
X168594646Y-138099500D01*
X168405354Y-138099500D01*
X168398901Y-138100872D01*
X168398897Y-138100872D01*
X168318212Y-138118022D01*
X168220197Y-138138856D01*
X168047270Y-138215849D01*
X168041929Y-138219729D01*
X168041928Y-138219730D01*
X167966725Y-138274368D01*
X167894129Y-138327112D01*
X167889716Y-138332014D01*
X167889714Y-138332015D01*
X167771886Y-138462876D01*
X167767467Y-138467784D01*
X167764165Y-138473503D01*
X167764164Y-138473505D01*
X167741440Y-138512865D01*
X167672821Y-138631716D01*
X167614326Y-138811744D01*
X167594540Y-139000000D01*
X167614326Y-139188256D01*
X167672821Y-139368284D01*
X167767467Y-139532216D01*
X167894129Y-139672888D01*
X167899468Y-139676767D01*
X168040866Y-139779498D01*
X168047270Y-139784151D01*
X168220197Y-139861144D01*
X168318212Y-139881978D01*
X168398897Y-139899128D01*
X168398901Y-139899128D01*
X168405354Y-139900500D01*
X168594646Y-139900500D01*
X168601099Y-139899128D01*
X168601103Y-139899128D01*
X168681788Y-139881978D01*
X168779803Y-139861144D01*
X168952730Y-139784151D01*
X168958072Y-139780270D01*
X169034745Y-139724564D01*
X169108806Y-139700500D01*
X172657653Y-139700500D01*
X172725774Y-139720502D01*
X172746748Y-139737405D01*
X174987007Y-141977664D01*
X174992225Y-141983206D01*
X175032071Y-142028183D01*
X175038341Y-142032511D01*
X175081522Y-142062317D01*
X175087651Y-142066828D01*
X175128938Y-142099174D01*
X175128941Y-142099176D01*
X175134943Y-142103878D01*
X175144016Y-142107961D01*
X175163878Y-142119164D01*
X175165297Y-142120143D01*
X175172070Y-142124818D01*
X175201587Y-142136012D01*
X175228245Y-142146123D01*
X175235275Y-142149035D01*
X175283120Y-142170568D01*
X175283123Y-142170569D01*
X175290069Y-142173695D01*
X175299862Y-142175489D01*
X175321829Y-142181613D01*
X175331128Y-142185140D01*
X175338696Y-142186059D01*
X175390764Y-142192382D01*
X175398285Y-142193527D01*
X175449894Y-142202984D01*
X175449897Y-142202984D01*
X175457394Y-142204358D01*
X175465000Y-142203898D01*
X175465002Y-142203898D01*
X175517367Y-142200730D01*
X175524975Y-142200500D01*
X179391194Y-142200500D01*
X179465255Y-142224564D01*
X179491229Y-142243435D01*
X179547270Y-142284151D01*
X179720197Y-142361144D01*
X179818212Y-142381978D01*
X179898897Y-142399128D01*
X179898901Y-142399128D01*
X179905354Y-142400500D01*
X180094646Y-142400500D01*
X180101099Y-142399128D01*
X180101103Y-142399128D01*
X180181788Y-142381978D01*
X180279803Y-142361144D01*
X180452730Y-142284151D01*
X180508773Y-142243434D01*
X180600532Y-142176767D01*
X180605871Y-142172888D01*
X180627349Y-142149035D01*
X180728114Y-142037124D01*
X180728115Y-142037123D01*
X180732533Y-142032216D01*
X180764029Y-141977664D01*
X180823875Y-141874007D01*
X180823876Y-141874006D01*
X180827179Y-141868284D01*
X180885674Y-141688256D01*
X180905460Y-141500000D01*
X180888609Y-141339670D01*
X180901381Y-141269832D01*
X180949883Y-141217985D01*
X181013919Y-141200500D01*
X183657653Y-141200500D01*
X183725774Y-141220502D01*
X183746748Y-141237405D01*
X184567717Y-142058374D01*
X184601743Y-142120686D01*
X184603932Y-142160639D01*
X184599385Y-142203898D01*
X184594540Y-142250000D01*
X184595230Y-142256565D01*
X184610214Y-142399128D01*
X184614326Y-142438256D01*
X184672821Y-142618284D01*
X184767467Y-142782216D01*
X184894129Y-142922888D01*
X185047270Y-143034151D01*
X185220197Y-143111144D01*
X185318212Y-143131978D01*
X185398897Y-143149128D01*
X185398901Y-143149128D01*
X185405354Y-143150500D01*
X185594646Y-143150500D01*
X185601099Y-143149128D01*
X185601103Y-143149128D01*
X185681788Y-143131978D01*
X185779803Y-143111144D01*
X185952730Y-143034151D01*
X186105871Y-142922888D01*
X186232533Y-142782216D01*
X186327179Y-142618284D01*
X186385674Y-142438256D01*
X186389787Y-142399128D01*
X186404770Y-142256565D01*
X186405460Y-142250000D01*
X186400282Y-142200730D01*
X186386364Y-142068307D01*
X186386364Y-142068305D01*
X186385674Y-142061744D01*
X186327179Y-141881716D01*
X186315796Y-141861999D01*
X186235836Y-141723505D01*
X186232533Y-141717784D01*
X186205946Y-141688256D01*
X186110286Y-141582015D01*
X186110284Y-141582014D01*
X186105871Y-141577112D01*
X185974557Y-141481707D01*
X185959523Y-141468866D01*
X184512993Y-140022336D01*
X184507775Y-140016794D01*
X184472982Y-139977521D01*
X184467929Y-139971817D01*
X184418478Y-139937683D01*
X184412349Y-139933172D01*
X184371062Y-139900826D01*
X184371059Y-139900824D01*
X184365057Y-139896122D01*
X184355984Y-139892039D01*
X184336122Y-139880836D01*
X184334201Y-139879510D01*
X184334198Y-139879509D01*
X184327930Y-139875182D01*
X184271757Y-139853879D01*
X184264749Y-139850976D01*
X184209932Y-139826305D01*
X184200137Y-139824510D01*
X184178174Y-139818387D01*
X184168872Y-139814860D01*
X184109248Y-139807621D01*
X184101730Y-139806477D01*
X184042606Y-139795642D01*
X184035000Y-139796102D01*
X184034999Y-139796102D01*
X183982633Y-139799270D01*
X183975025Y-139799500D01*
X176342347Y-139799500D01*
X176274226Y-139779498D01*
X176253252Y-139762595D01*
X175490657Y-139000000D01*
X189594540Y-139000000D01*
X189614326Y-139188256D01*
X189672821Y-139368284D01*
X189767467Y-139532216D01*
X189894129Y-139672888D01*
X189899468Y-139676767D01*
X190040866Y-139779498D01*
X190047270Y-139784151D01*
X190220197Y-139861144D01*
X190318212Y-139881978D01*
X190398897Y-139899128D01*
X190398901Y-139899128D01*
X190405354Y-139900500D01*
X190594646Y-139900500D01*
X190601099Y-139899128D01*
X190601103Y-139899128D01*
X190681788Y-139881978D01*
X190779803Y-139861144D01*
X190952730Y-139784151D01*
X190959135Y-139779498D01*
X190985972Y-139760000D01*
X192644341Y-139760000D01*
X192664937Y-139995408D01*
X192726097Y-140223663D01*
X192728419Y-140228644D01*
X192728420Y-140228645D01*
X192823639Y-140432843D01*
X192823642Y-140432848D01*
X192825965Y-140437830D01*
X192961505Y-140631401D01*
X193128599Y-140798495D01*
X193133107Y-140801652D01*
X193133110Y-140801654D01*
X193317661Y-140930878D01*
X193322170Y-140934035D01*
X193327152Y-140936358D01*
X193327157Y-140936361D01*
X193531355Y-141031580D01*
X193536337Y-141033903D01*
X193541645Y-141035325D01*
X193541647Y-141035326D01*
X193759277Y-141093639D01*
X193764592Y-141095063D01*
X194000000Y-141115659D01*
X194235408Y-141095063D01*
X194240723Y-141093639D01*
X194458353Y-141035326D01*
X194458355Y-141035325D01*
X194463663Y-141033903D01*
X194468645Y-141031580D01*
X194672843Y-140936361D01*
X194672848Y-140936358D01*
X194677830Y-140934035D01*
X194682339Y-140930878D01*
X194866890Y-140801654D01*
X194866893Y-140801652D01*
X194871401Y-140798495D01*
X195038495Y-140631401D01*
X195174035Y-140437830D01*
X195176358Y-140432848D01*
X195176361Y-140432843D01*
X195271580Y-140228645D01*
X195271581Y-140228644D01*
X195273903Y-140223663D01*
X195335063Y-139995408D01*
X195355659Y-139760000D01*
X195335063Y-139524592D01*
X195333639Y-139519277D01*
X195275326Y-139301647D01*
X195275325Y-139301645D01*
X195273903Y-139296337D01*
X195174035Y-139082171D01*
X195038495Y-138888599D01*
X194871401Y-138721505D01*
X194866893Y-138718348D01*
X194866890Y-138718346D01*
X194734996Y-138625993D01*
X194688181Y-138593213D01*
X194643853Y-138537756D01*
X194636544Y-138467137D01*
X194668575Y-138403776D01*
X194688181Y-138386787D01*
X194866890Y-138261654D01*
X194866893Y-138261652D01*
X194871401Y-138258495D01*
X195038495Y-138091401D01*
X195174035Y-137897830D01*
X195176358Y-137892848D01*
X195176361Y-137892843D01*
X195271580Y-137688645D01*
X195271581Y-137688644D01*
X195273903Y-137683663D01*
X195335063Y-137455408D01*
X195355659Y-137220000D01*
X195335063Y-136984592D01*
X195273903Y-136756337D01*
X195271580Y-136751355D01*
X195176358Y-136547152D01*
X195176356Y-136547149D01*
X195174035Y-136542171D01*
X195038495Y-136348599D01*
X194871401Y-136181505D01*
X194866893Y-136178348D01*
X194866890Y-136178346D01*
X194739408Y-136089082D01*
X194688181Y-136053213D01*
X194643853Y-135997756D01*
X194636544Y-135927137D01*
X194668575Y-135863776D01*
X194688181Y-135846787D01*
X194866890Y-135721654D01*
X194866893Y-135721652D01*
X194871401Y-135718495D01*
X195038495Y-135551401D01*
X195054753Y-135528183D01*
X195170878Y-135362339D01*
X195170879Y-135362337D01*
X195174035Y-135357830D01*
X195176358Y-135352848D01*
X195176361Y-135352843D01*
X195271580Y-135148645D01*
X195271581Y-135148644D01*
X195273903Y-135143663D01*
X195288438Y-135089419D01*
X195333639Y-134920723D01*
X195333639Y-134920722D01*
X195335063Y-134915408D01*
X195355659Y-134680000D01*
X195335063Y-134444592D01*
X195315430Y-134371320D01*
X195275326Y-134221647D01*
X195275325Y-134221645D01*
X195273903Y-134216337D01*
X195263035Y-134193031D01*
X195176358Y-134007152D01*
X195176356Y-134007149D01*
X195174035Y-134002171D01*
X195038495Y-133808599D01*
X194871401Y-133641505D01*
X194866893Y-133638348D01*
X194866890Y-133638346D01*
X194682339Y-133509122D01*
X194682336Y-133509120D01*
X194677830Y-133505965D01*
X194672848Y-133503642D01*
X194672843Y-133503639D01*
X194468645Y-133408420D01*
X194468644Y-133408419D01*
X194463663Y-133406097D01*
X194458355Y-133404675D01*
X194458353Y-133404674D01*
X194240723Y-133346361D01*
X194240722Y-133346361D01*
X194235408Y-133344937D01*
X194000000Y-133324341D01*
X193764592Y-133344937D01*
X193759278Y-133346361D01*
X193759277Y-133346361D01*
X193541647Y-133404674D01*
X193541645Y-133404675D01*
X193536337Y-133406097D01*
X193531357Y-133408419D01*
X193531355Y-133408420D01*
X193327152Y-133503642D01*
X193327149Y-133503644D01*
X193322171Y-133505965D01*
X193128599Y-133641505D01*
X192961505Y-133808599D01*
X192825965Y-134002171D01*
X192823644Y-134007149D01*
X192823642Y-134007152D01*
X192736965Y-134193031D01*
X192726097Y-134216337D01*
X192724675Y-134221645D01*
X192724674Y-134221647D01*
X192684570Y-134371320D01*
X192664937Y-134444592D01*
X192644341Y-134680000D01*
X192664937Y-134915408D01*
X192666361Y-134920722D01*
X192666361Y-134920723D01*
X192711563Y-135089419D01*
X192726097Y-135143663D01*
X192728419Y-135148644D01*
X192728420Y-135148645D01*
X192823639Y-135352843D01*
X192823642Y-135352848D01*
X192825965Y-135357830D01*
X192829121Y-135362337D01*
X192829122Y-135362339D01*
X192945248Y-135528183D01*
X192961505Y-135551401D01*
X193128599Y-135718495D01*
X193133107Y-135721652D01*
X193133110Y-135721654D01*
X193311820Y-135846788D01*
X193356148Y-135902245D01*
X193363457Y-135972865D01*
X193331426Y-136036225D01*
X193311822Y-136053211D01*
X193128599Y-136181505D01*
X192961505Y-136348599D01*
X192825965Y-136542171D01*
X192823644Y-136547149D01*
X192823642Y-136547152D01*
X192728420Y-136751355D01*
X192726097Y-136756337D01*
X192664937Y-136984592D01*
X192644341Y-137220000D01*
X192664937Y-137455408D01*
X192726097Y-137683663D01*
X192728419Y-137688644D01*
X192728420Y-137688645D01*
X192823639Y-137892843D01*
X192823642Y-137892848D01*
X192825965Y-137897830D01*
X192961505Y-138091401D01*
X193128599Y-138258495D01*
X193133107Y-138261652D01*
X193133110Y-138261654D01*
X193311820Y-138386788D01*
X193356148Y-138442245D01*
X193363457Y-138512865D01*
X193331426Y-138576225D01*
X193311822Y-138593211D01*
X193128599Y-138721505D01*
X192961505Y-138888599D01*
X192825965Y-139082171D01*
X192726097Y-139296337D01*
X192724675Y-139301645D01*
X192724674Y-139301647D01*
X192666361Y-139519277D01*
X192664937Y-139524592D01*
X192644341Y-139760000D01*
X190985972Y-139760000D01*
X191100532Y-139676767D01*
X191105871Y-139672888D01*
X191232533Y-139532216D01*
X191327179Y-139368284D01*
X191385674Y-139188256D01*
X191405460Y-139000000D01*
X191385674Y-138811744D01*
X191327179Y-138631716D01*
X191258561Y-138512865D01*
X191235835Y-138473503D01*
X191235834Y-138473502D01*
X191232533Y-138467784D01*
X191228114Y-138462876D01*
X191224564Y-138457990D01*
X191200500Y-138383929D01*
X191200500Y-136616071D01*
X191224564Y-136542010D01*
X191228115Y-136537123D01*
X191232533Y-136532216D01*
X191235835Y-136526497D01*
X191323875Y-136374007D01*
X191323876Y-136374006D01*
X191327179Y-136368284D01*
X191385674Y-136188256D01*
X191386566Y-136179774D01*
X191404770Y-136006565D01*
X191405460Y-136000000D01*
X191385674Y-135811744D01*
X191327179Y-135631716D01*
X191323197Y-135624818D01*
X191235836Y-135473505D01*
X191232533Y-135467784D01*
X191206104Y-135438432D01*
X191110286Y-135332015D01*
X191110284Y-135332014D01*
X191105871Y-135327112D01*
X190965850Y-135225381D01*
X190958072Y-135219730D01*
X190958071Y-135219729D01*
X190952730Y-135215849D01*
X190779803Y-135138856D01*
X190681788Y-135118022D01*
X190601103Y-135100872D01*
X190601099Y-135100872D01*
X190594646Y-135099500D01*
X190405354Y-135099500D01*
X190398901Y-135100872D01*
X190398897Y-135100872D01*
X190318212Y-135118022D01*
X190220197Y-135138856D01*
X190047270Y-135215849D01*
X190041929Y-135219729D01*
X190041928Y-135219730D01*
X190034150Y-135225381D01*
X189894129Y-135327112D01*
X189889716Y-135332014D01*
X189889714Y-135332015D01*
X189793896Y-135438432D01*
X189767467Y-135467784D01*
X189764164Y-135473505D01*
X189676804Y-135624818D01*
X189672821Y-135631716D01*
X189614326Y-135811744D01*
X189594540Y-136000000D01*
X189595230Y-136006565D01*
X189613435Y-136179774D01*
X189614326Y-136188256D01*
X189672821Y-136368284D01*
X189676124Y-136374006D01*
X189676125Y-136374007D01*
X189764165Y-136526497D01*
X189767467Y-136532216D01*
X189771885Y-136537123D01*
X189775436Y-136542010D01*
X189799500Y-136616071D01*
X189799500Y-138383929D01*
X189775436Y-138457990D01*
X189771886Y-138462876D01*
X189767467Y-138467784D01*
X189764166Y-138473502D01*
X189764165Y-138473503D01*
X189741440Y-138512865D01*
X189672821Y-138631716D01*
X189614326Y-138811744D01*
X189594540Y-139000000D01*
X175490657Y-139000000D01*
X172885205Y-136394548D01*
X172851179Y-136332236D01*
X172856244Y-136261421D01*
X172898791Y-136204585D01*
X172965311Y-136179774D01*
X173017394Y-136187052D01*
X173021572Y-136188573D01*
X173026550Y-136190894D01*
X173031853Y-136192315D01*
X173031856Y-136192316D01*
X173077645Y-136204585D01*
X173239932Y-136248070D01*
X173460000Y-136267323D01*
X173680068Y-136248070D01*
X173858940Y-136200141D01*
X173888140Y-136192317D01*
X173888142Y-136192316D01*
X173893450Y-136190894D01*
X173898432Y-136188571D01*
X174088675Y-136099860D01*
X174088680Y-136099857D01*
X174093662Y-136097534D01*
X174161402Y-136050102D01*
X174270109Y-135973985D01*
X174270112Y-135973983D01*
X174274620Y-135970826D01*
X174430826Y-135814620D01*
X174495922Y-135721654D01*
X174554377Y-135638171D01*
X174554378Y-135638169D01*
X174557534Y-135633662D01*
X174559857Y-135628680D01*
X174559860Y-135628675D01*
X174648571Y-135438432D01*
X174648571Y-135438431D01*
X174650894Y-135433450D01*
X174708070Y-135220068D01*
X174727323Y-135000000D01*
X174708070Y-134779932D01*
X174650894Y-134566550D01*
X174622923Y-134506565D01*
X174559857Y-134371320D01*
X174559855Y-134371317D01*
X174557534Y-134366339D01*
X174439763Y-134198143D01*
X174417075Y-134130869D01*
X174434360Y-134062009D01*
X174453880Y-134036778D01*
X174503252Y-133987405D01*
X174565564Y-133953380D01*
X174592348Y-133950500D01*
X177499864Y-133950500D01*
X177567985Y-133970502D01*
X177614478Y-134024158D01*
X177624582Y-134094432D01*
X177595088Y-134159012D01*
X177588959Y-134165595D01*
X177569174Y-134185380D01*
X177442466Y-134366339D01*
X177440145Y-134371317D01*
X177440143Y-134371320D01*
X177377077Y-134506565D01*
X177349106Y-134566550D01*
X177291930Y-134779932D01*
X177272677Y-135000000D01*
X177291930Y-135220068D01*
X177349106Y-135433450D01*
X177351429Y-135438431D01*
X177351429Y-135438432D01*
X177440140Y-135628675D01*
X177440143Y-135628680D01*
X177442466Y-135633662D01*
X177445622Y-135638169D01*
X177445623Y-135638171D01*
X177504079Y-135721654D01*
X177569174Y-135814620D01*
X177725380Y-135970826D01*
X177729888Y-135973983D01*
X177729891Y-135973985D01*
X177838598Y-136050102D01*
X177906338Y-136097534D01*
X177911320Y-136099857D01*
X177911325Y-136099860D01*
X178101568Y-136188571D01*
X178106550Y-136190894D01*
X178111858Y-136192316D01*
X178111860Y-136192317D01*
X178141060Y-136200141D01*
X178319932Y-136248070D01*
X178540000Y-136267323D01*
X178760068Y-136248070D01*
X178938940Y-136200141D01*
X178968140Y-136192317D01*
X178968142Y-136192316D01*
X178973450Y-136190894D01*
X178978432Y-136188571D01*
X179168675Y-136099860D01*
X179168680Y-136099857D01*
X179173662Y-136097534D01*
X179241402Y-136050102D01*
X179350109Y-135973985D01*
X179350112Y-135973983D01*
X179354620Y-135970826D01*
X179510826Y-135814620D01*
X179575922Y-135721654D01*
X179634377Y-135638171D01*
X179634378Y-135638169D01*
X179637534Y-135633662D01*
X179639857Y-135628680D01*
X179639860Y-135628675D01*
X179728571Y-135438432D01*
X179728571Y-135438431D01*
X179730894Y-135433450D01*
X179788070Y-135220068D01*
X179807323Y-135000000D01*
X179788070Y-134779932D01*
X179730894Y-134566550D01*
X179702923Y-134506565D01*
X179639857Y-134371320D01*
X179639855Y-134371317D01*
X179637534Y-134366339D01*
X179510826Y-134185380D01*
X179491041Y-134165595D01*
X179457015Y-134103283D01*
X179462080Y-134032468D01*
X179504627Y-133975632D01*
X179571147Y-133950821D01*
X179580136Y-133950500D01*
X184407653Y-133950500D01*
X184475774Y-133970502D01*
X184496748Y-133987405D01*
X184702374Y-134193031D01*
X184736400Y-134255343D01*
X184731679Y-134321345D01*
X184732821Y-134321716D01*
X184674326Y-134501744D01*
X184673636Y-134508305D01*
X184673636Y-134508307D01*
X184656166Y-134674525D01*
X184654540Y-134690000D01*
X184655230Y-134696565D01*
X184663434Y-134774619D01*
X184674326Y-134878256D01*
X184732821Y-135058284D01*
X184736124Y-135064006D01*
X184736125Y-135064007D01*
X184801227Y-135176767D01*
X184827467Y-135222216D01*
X184831885Y-135227123D01*
X184831886Y-135227124D01*
X184949575Y-135357830D01*
X184954129Y-135362888D01*
X184959468Y-135366767D01*
X185098507Y-135467784D01*
X185107270Y-135474151D01*
X185280197Y-135551144D01*
X185378212Y-135571978D01*
X185458897Y-135589128D01*
X185458901Y-135589128D01*
X185465354Y-135590500D01*
X185654646Y-135590500D01*
X185661099Y-135589128D01*
X185661103Y-135589128D01*
X185741788Y-135571978D01*
X185839803Y-135551144D01*
X186012730Y-135474151D01*
X186021494Y-135467784D01*
X186160532Y-135366767D01*
X186165871Y-135362888D01*
X186170426Y-135357830D01*
X186288114Y-135227124D01*
X186288115Y-135227123D01*
X186292533Y-135222216D01*
X186318773Y-135176767D01*
X186383875Y-135064007D01*
X186383876Y-135064006D01*
X186387179Y-135058284D01*
X186445674Y-134878256D01*
X186456567Y-134774619D01*
X186464770Y-134696565D01*
X186465460Y-134690000D01*
X186463834Y-134674525D01*
X186446364Y-134508307D01*
X186446364Y-134508305D01*
X186445674Y-134501744D01*
X186387179Y-134321716D01*
X186292533Y-134157784D01*
X186288113Y-134152876D01*
X186285180Y-134148838D01*
X186261322Y-134081970D01*
X186261347Y-134067170D01*
X186263898Y-134025001D01*
X186263898Y-134025000D01*
X186264358Y-134017394D01*
X186253523Y-133958270D01*
X186252379Y-133950750D01*
X186250411Y-133934538D01*
X186245140Y-133891128D01*
X186241613Y-133881826D01*
X186235489Y-133859859D01*
X186233695Y-133850068D01*
X186209024Y-133795251D01*
X186206121Y-133788242D01*
X186187520Y-133739195D01*
X186184818Y-133732070D01*
X186179164Y-133723878D01*
X186167960Y-133704013D01*
X186167900Y-133703878D01*
X186163878Y-133694943D01*
X186159176Y-133688941D01*
X186159174Y-133688938D01*
X186126828Y-133647651D01*
X186122317Y-133641522D01*
X186092511Y-133598341D01*
X186088183Y-133592071D01*
X186043206Y-133552225D01*
X186037664Y-133547007D01*
X185705752Y-133215095D01*
X185671726Y-133152783D01*
X185676791Y-133081968D01*
X185719338Y-133025132D01*
X185785858Y-133000321D01*
X185794847Y-133000000D01*
X195873000Y-133000000D01*
X195941121Y-133020002D01*
X195987614Y-133073658D01*
X195999000Y-133126000D01*
X195999000Y-144873000D01*
X195978998Y-144941121D01*
X195925342Y-144987614D01*
X195873000Y-144999000D01*
X116127000Y-144999000D01*
X116058879Y-144978998D01*
X116012386Y-144925342D01*
X116001000Y-144873000D01*
X116001000Y-133131500D01*
X116021002Y-133063379D01*
X116074658Y-133016886D01*
X116127000Y-133005500D01*
X136874000Y-133005500D01*
X136918443Y-133000722D01*
X136931911Y-133000000D01*
X148957153Y-133000000D01*
X149025274Y-133020002D01*
G37*
%TD.AperFunction*%
%TD*%
%TA.AperFunction,Conductor*%
%TO.N,/PWR_P*%
G36*
X136942121Y-95021002D02*
G01*
X136988614Y-95074658D01*
X137000000Y-95127000D01*
X137000000Y-131874000D01*
X136979998Y-131942121D01*
X136926342Y-131988614D01*
X136874000Y-132000000D01*
X116127000Y-132000000D01*
X116058879Y-131979998D01*
X116012386Y-131926342D01*
X116001000Y-131874000D01*
X116001000Y-99922902D01*
X118595794Y-99922902D01*
X118595923Y-99926931D01*
X118595923Y-99926937D01*
X118600739Y-100077098D01*
X118605673Y-100230978D01*
X118654867Y-100535261D01*
X118742569Y-100830756D01*
X118867337Y-101112609D01*
X119027123Y-101376193D01*
X119219304Y-101617181D01*
X119440724Y-101831614D01*
X119687747Y-102015972D01*
X119956318Y-102167228D01*
X120242025Y-102282899D01*
X120245935Y-102283924D01*
X120245940Y-102283926D01*
X120536261Y-102360057D01*
X120536267Y-102360058D01*
X120540179Y-102361084D01*
X120655399Y-102375940D01*
X120841885Y-102399985D01*
X120841892Y-102399985D01*
X120845883Y-102400500D01*
X121076974Y-102400500D01*
X121078980Y-102400371D01*
X121078986Y-102400371D01*
X121303572Y-102385952D01*
X121303577Y-102385951D01*
X121307601Y-102385693D01*
X121610151Y-102326772D01*
X121613975Y-102325502D01*
X121613980Y-102325501D01*
X121898843Y-102230919D01*
X121902683Y-102229644D01*
X122180393Y-102095907D01*
X122306901Y-102013559D01*
X122435332Y-101929960D01*
X122435339Y-101929955D01*
X122438720Y-101927754D01*
X122673424Y-101727948D01*
X122880650Y-101499769D01*
X122966851Y-101376193D01*
X123054689Y-101250271D01*
X123054692Y-101250265D01*
X123056996Y-101246963D01*
X123127089Y-101112609D01*
X123197696Y-100977270D01*
X123197698Y-100977266D01*
X123199567Y-100973683D01*
X123306020Y-100684415D01*
X123374609Y-100383908D01*
X123404206Y-100077098D01*
X123399262Y-99922902D01*
X123394457Y-99773061D01*
X123394456Y-99773054D01*
X123394327Y-99769022D01*
X123345133Y-99464739D01*
X123257431Y-99169244D01*
X123132663Y-98887391D01*
X122972877Y-98623807D01*
X122780696Y-98382819D01*
X122559276Y-98168386D01*
X122312253Y-97984028D01*
X122043682Y-97832772D01*
X121757975Y-97717101D01*
X121754065Y-97716076D01*
X121754060Y-97716074D01*
X121463739Y-97639943D01*
X121463733Y-97639942D01*
X121459821Y-97638916D01*
X121344601Y-97624060D01*
X121158115Y-97600015D01*
X121158108Y-97600015D01*
X121154117Y-97599500D01*
X120923026Y-97599500D01*
X120921020Y-97599629D01*
X120921014Y-97599629D01*
X120696428Y-97614048D01*
X120696423Y-97614049D01*
X120692399Y-97614307D01*
X120389849Y-97673228D01*
X120386025Y-97674498D01*
X120386020Y-97674499D01*
X120257711Y-97717101D01*
X120097317Y-97770356D01*
X119819607Y-97904093D01*
X119816223Y-97906296D01*
X119564668Y-98070040D01*
X119564661Y-98070045D01*
X119561280Y-98072246D01*
X119326576Y-98272052D01*
X119119350Y-98500231D01*
X119117042Y-98503540D01*
X119117041Y-98503541D01*
X118945311Y-98749729D01*
X118945308Y-98749735D01*
X118943004Y-98753037D01*
X118941136Y-98756618D01*
X118870987Y-98891080D01*
X118800433Y-99026317D01*
X118693980Y-99315585D01*
X118625391Y-99616092D01*
X118595794Y-99922902D01*
X116001000Y-99922902D01*
X116001000Y-95127000D01*
X116021002Y-95058879D01*
X116074658Y-95012386D01*
X116127000Y-95001000D01*
X136874000Y-95001000D01*
X136942121Y-95021002D01*
G37*
%TD.AperFunction*%
%TD*%
%TA.AperFunction,Conductor*%
%TO.N,/PWR_GND_OUT*%
G36*
X195941121Y-95021002D02*
G01*
X195987614Y-95074658D01*
X195999000Y-95127000D01*
X195999000Y-131868500D01*
X195978998Y-131936621D01*
X195925342Y-131983114D01*
X195873000Y-131994500D01*
X185794847Y-131994500D01*
X185786210Y-131994654D01*
X185759497Y-131995131D01*
X185759449Y-131995132D01*
X185758963Y-131995141D01*
X185749974Y-131995462D01*
X185708311Y-131999432D01*
X185696360Y-132000000D01*
X175126000Y-132000000D01*
X175057879Y-131979998D01*
X175011386Y-131926342D01*
X175000000Y-131874000D01*
X175000000Y-99922902D01*
X188595794Y-99922902D01*
X188595923Y-99926931D01*
X188595923Y-99926937D01*
X188600739Y-100077098D01*
X188605673Y-100230978D01*
X188654867Y-100535261D01*
X188742569Y-100830756D01*
X188867337Y-101112609D01*
X189027123Y-101376193D01*
X189219304Y-101617181D01*
X189440724Y-101831614D01*
X189687747Y-102015972D01*
X189956318Y-102167228D01*
X190242025Y-102282899D01*
X190245935Y-102283924D01*
X190245940Y-102283926D01*
X190536261Y-102360057D01*
X190536267Y-102360058D01*
X190540179Y-102361084D01*
X190655399Y-102375940D01*
X190841885Y-102399985D01*
X190841892Y-102399985D01*
X190845883Y-102400500D01*
X191076974Y-102400500D01*
X191078980Y-102400371D01*
X191078986Y-102400371D01*
X191303572Y-102385952D01*
X191303577Y-102385951D01*
X191307601Y-102385693D01*
X191610151Y-102326772D01*
X191613975Y-102325502D01*
X191613980Y-102325501D01*
X191898843Y-102230919D01*
X191902683Y-102229644D01*
X192180393Y-102095907D01*
X192306901Y-102013559D01*
X192435332Y-101929960D01*
X192435339Y-101929955D01*
X192438720Y-101927754D01*
X192673424Y-101727948D01*
X192880650Y-101499769D01*
X192966851Y-101376193D01*
X193054689Y-101250271D01*
X193054692Y-101250265D01*
X193056996Y-101246963D01*
X193127089Y-101112609D01*
X193197696Y-100977270D01*
X193197698Y-100977266D01*
X193199567Y-100973683D01*
X193306020Y-100684415D01*
X193374609Y-100383908D01*
X193404206Y-100077098D01*
X193399262Y-99922902D01*
X193394457Y-99773061D01*
X193394456Y-99773054D01*
X193394327Y-99769022D01*
X193345133Y-99464739D01*
X193257431Y-99169244D01*
X193132663Y-98887391D01*
X192972877Y-98623807D01*
X192780696Y-98382819D01*
X192559276Y-98168386D01*
X192312253Y-97984028D01*
X192043682Y-97832772D01*
X191757975Y-97717101D01*
X191754065Y-97716076D01*
X191754060Y-97716074D01*
X191463739Y-97639943D01*
X191463733Y-97639942D01*
X191459821Y-97638916D01*
X191344601Y-97624060D01*
X191158115Y-97600015D01*
X191158108Y-97600015D01*
X191154117Y-97599500D01*
X190923026Y-97599500D01*
X190921020Y-97599629D01*
X190921014Y-97599629D01*
X190696428Y-97614048D01*
X190696423Y-97614049D01*
X190692399Y-97614307D01*
X190389849Y-97673228D01*
X190386025Y-97674498D01*
X190386020Y-97674499D01*
X190257711Y-97717101D01*
X190097317Y-97770356D01*
X189819607Y-97904093D01*
X189816223Y-97906296D01*
X189564668Y-98070040D01*
X189564661Y-98070045D01*
X189561280Y-98072246D01*
X189326576Y-98272052D01*
X189119350Y-98500231D01*
X189117042Y-98503540D01*
X189117041Y-98503541D01*
X188945311Y-98749729D01*
X188945308Y-98749735D01*
X188943004Y-98753037D01*
X188941136Y-98756618D01*
X188870987Y-98891080D01*
X188800433Y-99026317D01*
X188693980Y-99315585D01*
X188625391Y-99616092D01*
X188595794Y-99922902D01*
X175000000Y-99922902D01*
X175000000Y-95001000D01*
X195873000Y-95001000D01*
X195941121Y-95021002D01*
G37*
%TD.AperFunction*%
%TD*%
%TA.AperFunction,Conductor*%
%TO.N,/PWR_GND_OUT*%
G36*
X175000000Y-105000000D02*
G01*
X138131500Y-105000000D01*
X138063379Y-104979998D01*
X138016886Y-104926342D01*
X138005500Y-104874000D01*
X138005500Y-95127000D01*
X138025502Y-95058879D01*
X138079158Y-95012386D01*
X138131500Y-95001000D01*
X175000000Y-95001000D01*
X175000000Y-105000000D01*
G37*
%TD.AperFunction*%
%TD*%
M02*
