%TF.GenerationSoftware,KiCad,Pcbnew,6.99.0-unknown-484fabf336~148~ubuntu20.04.1*%
%TF.CreationDate,2022-05-02T21:27:03+02:00*%
%TF.ProjectId,optimizer,6f707469-6d69-47a6-9572-2e6b69636164,rev?*%
%TF.SameCoordinates,Original*%
%TF.FileFunction,Copper,L1,Top*%
%TF.FilePolarity,Positive*%
%FSLAX46Y46*%
G04 Gerber Fmt 4.6, Leading zero omitted, Abs format (unit mm)*
G04 Created by KiCad (PCBNEW 6.99.0-unknown-484fabf336~148~ubuntu20.04.1) date 2022-05-02 21:27:03*
%MOMM*%
%LPD*%
G01*
G04 APERTURE LIST*
G04 Aperture macros list*
%AMRoundRect*
0 Rectangle with rounded corners*
0 $1 Rounding radius*
0 $2 $3 $4 $5 $6 $7 $8 $9 X,Y pos of 4 corners*
0 Add a 4 corners polygon primitive as box body*
4,1,4,$2,$3,$4,$5,$6,$7,$8,$9,$2,$3,0*
0 Add four circle primitives for the rounded corners*
1,1,$1+$1,$2,$3*
1,1,$1+$1,$4,$5*
1,1,$1+$1,$6,$7*
1,1,$1+$1,$8,$9*
0 Add four rect primitives between the rounded corners*
20,1,$1+$1,$2,$3,$4,$5,0*
20,1,$1+$1,$4,$5,$6,$7,0*
20,1,$1+$1,$6,$7,$8,$9,0*
20,1,$1+$1,$8,$9,$2,$3,0*%
G04 Aperture macros list end*
%TA.AperFunction,EtchedComponent*%
%ADD10C,0.400000*%
%TD*%
%TA.AperFunction,EtchedComponent*%
%ADD11C,1.000000*%
%TD*%
%TA.AperFunction,SMDPad,CuDef*%
%ADD12RoundRect,0.250000X0.475000X-0.337500X0.475000X0.337500X-0.475000X0.337500X-0.475000X-0.337500X0*%
%TD*%
%TA.AperFunction,SMDPad,CuDef*%
%ADD13RoundRect,0.250000X0.650000X-0.412500X0.650000X0.412500X-0.650000X0.412500X-0.650000X-0.412500X0*%
%TD*%
%TA.AperFunction,SMDPad,CuDef*%
%ADD14R,0.400000X0.400000*%
%TD*%
%TA.AperFunction,SMDPad,CuDef*%
%ADD15RoundRect,0.250000X0.450000X-0.350000X0.450000X0.350000X-0.450000X0.350000X-0.450000X-0.350000X0*%
%TD*%
%TA.AperFunction,SMDPad,CuDef*%
%ADD16RoundRect,0.250000X-0.350000X-0.450000X0.350000X-0.450000X0.350000X0.450000X-0.350000X0.450000X0*%
%TD*%
%TA.AperFunction,SMDPad,CuDef*%
%ADD17R,1.100000X4.600000*%
%TD*%
%TA.AperFunction,SMDPad,CuDef*%
%ADD18R,10.800000X9.400000*%
%TD*%
%TA.AperFunction,SMDPad,CuDef*%
%ADD19RoundRect,0.150000X-0.587500X-0.150000X0.587500X-0.150000X0.587500X0.150000X-0.587500X0.150000X0*%
%TD*%
%TA.AperFunction,SMDPad,CuDef*%
%ADD20C,2.000000*%
%TD*%
%TA.AperFunction,SMDPad,CuDef*%
%ADD21RoundRect,0.250000X0.350000X0.450000X-0.350000X0.450000X-0.350000X-0.450000X0.350000X-0.450000X0*%
%TD*%
%TA.AperFunction,ComponentPad*%
%ADD22C,5.500000*%
%TD*%
%TA.AperFunction,SMDPad,CuDef*%
%ADD23RoundRect,0.250000X-0.475000X0.337500X-0.475000X-0.337500X0.475000X-0.337500X0.475000X0.337500X0*%
%TD*%
%TA.AperFunction,SMDPad,CuDef*%
%ADD24RoundRect,0.250000X-0.325000X-0.450000X0.325000X-0.450000X0.325000X0.450000X-0.325000X0.450000X0*%
%TD*%
%TA.AperFunction,ComponentPad*%
%ADD25C,1.524000*%
%TD*%
%TA.AperFunction,SMDPad,CuDef*%
%ADD26R,1.000000X1.000000*%
%TD*%
%TA.AperFunction,SMDPad,CuDef*%
%ADD27R,2.200000X1.200000*%
%TD*%
%TA.AperFunction,SMDPad,CuDef*%
%ADD28R,6.400000X5.800000*%
%TD*%
%TA.AperFunction,SMDPad,CuDef*%
%ADD29R,5.400000X2.900000*%
%TD*%
%TA.AperFunction,SMDPad,CuDef*%
%ADD30RoundRect,0.250000X-0.450000X0.350000X-0.450000X-0.350000X0.450000X-0.350000X0.450000X0.350000X0*%
%TD*%
%TA.AperFunction,SMDPad,CuDef*%
%ADD31RoundRect,0.150000X0.150000X-0.512500X0.150000X0.512500X-0.150000X0.512500X-0.150000X-0.512500X0*%
%TD*%
%TA.AperFunction,SMDPad,CuDef*%
%ADD32RoundRect,0.150000X0.825000X0.150000X-0.825000X0.150000X-0.825000X-0.150000X0.825000X-0.150000X0*%
%TD*%
%TA.AperFunction,SMDPad,CuDef*%
%ADD33RoundRect,0.250000X0.337500X0.475000X-0.337500X0.475000X-0.337500X-0.475000X0.337500X-0.475000X0*%
%TD*%
%TA.AperFunction,SMDPad,CuDef*%
%ADD34RoundRect,0.250000X0.412500X0.650000X-0.412500X0.650000X-0.412500X-0.650000X0.412500X-0.650000X0*%
%TD*%
%TA.AperFunction,SMDPad,CuDef*%
%ADD35R,1.560000X0.650000*%
%TD*%
%TA.AperFunction,ComponentPad*%
%ADD36R,1.700000X1.700000*%
%TD*%
%TA.AperFunction,ComponentPad*%
%ADD37O,1.700000X1.700000*%
%TD*%
%TA.AperFunction,ViaPad*%
%ADD38C,1.200000*%
%TD*%
%TA.AperFunction,ViaPad*%
%ADD39C,0.800000*%
%TD*%
%TA.AperFunction,Conductor*%
%ADD40C,0.600000*%
%TD*%
%TA.AperFunction,Conductor*%
%ADD41C,1.000000*%
%TD*%
%TA.AperFunction,Conductor*%
%ADD42C,0.400000*%
%TD*%
G04 APERTURE END LIST*
D10*
%TO.C,NT2*%
X121500000Y-133000000D02*
X121500000Y-132000000D01*
%TO.C,NT4*%
X158000000Y-109500000D02*
X159000000Y-109500000D01*
D11*
%TO.C,NT1*%
X161000000Y-120500000D02*
X161000000Y-119500000D01*
D10*
%TO.C,NT3*%
X162500000Y-118000000D02*
X162500000Y-117000000D01*
%TD*%
D12*
%TO.P,C30,1*%
%TO.N,+3V3*%
X192500000Y-140037500D03*
%TO.P,C30,2*%
%TO.N,GND*%
X192500000Y-137962500D03*
%TD*%
D13*
%TO.P,C10,1*%
%TO.N,/PWR_GND*%
X166000000Y-126000000D03*
%TO.P,C10,2*%
%TO.N,/PWR_IN*%
X166000000Y-122875000D03*
%TD*%
D14*
%TO.P,NT2,1,1*%
%TO.N,GND*%
X121499999Y-133199999D03*
%TO.P,NT2,2,2*%
%TO.N,/PWR_GND*%
X121499999Y-131799999D03*
%TD*%
D13*
%TO.P,C18,1*%
%TO.N,/PWR_GND*%
X137000000Y-122562500D03*
%TO.P,C18,2*%
%TO.N,/PWR_OUT*%
X137000000Y-119437500D03*
%TD*%
D15*
%TO.P,R3,1*%
%TO.N,Net-(U2-ADJ)*%
X139500000Y-133500000D03*
%TO.P,R3,2*%
%TO.N,/PWR_GND*%
X139500000Y-131500000D03*
%TD*%
D16*
%TO.P,R6,1*%
%TO.N,/V_OUT_FULL*%
X177000000Y-133500000D03*
%TO.P,R6,2*%
%TO.N,Net-(R6-Pad2)*%
X179000000Y-133500000D03*
%TD*%
D12*
%TO.P,C14,1*%
%TO.N,+12V*%
X142500000Y-133537500D03*
%TO.P,C14,2*%
%TO.N,/PWR_GND*%
X142500000Y-131462500D03*
%TD*%
%TO.P,C31,1*%
%TO.N,+3V3*%
X189500000Y-140037500D03*
%TO.P,C31,2*%
%TO.N,GND*%
X189500000Y-137962500D03*
%TD*%
D17*
%TO.P,D1,1,K*%
%TO.N,/PWR_OUT*%
X132459999Y-114149999D03*
D18*
X134999999Y-104999999D03*
D17*
%TO.P,D1,2,A*%
%TO.N,/PWR_PATH2*%
X137539999Y-114149999D03*
%TD*%
D13*
%TO.P,C24,1*%
%TO.N,/PWR_GND*%
X119000000Y-122562500D03*
%TO.P,C24,2*%
%TO.N,/PWR_OUT*%
X119000000Y-119437500D03*
%TD*%
D19*
%TO.P,D4,1*%
%TO.N,GND*%
X174562500Y-136050000D03*
%TO.P,D4,2*%
%TO.N,+3V3*%
X174562500Y-137950000D03*
%TO.P,D4,3*%
%TO.N,/V_OUT_SCALE*%
X176437500Y-137000000D03*
%TD*%
D13*
%TO.P,C25,1*%
%TO.N,/PWR_GND*%
X116000000Y-122562500D03*
%TO.P,C25,2*%
%TO.N,/PWR_OUT*%
X116000000Y-119437500D03*
%TD*%
D20*
%TO.P,TP4,1,1*%
%TO.N,/V_OUT_SCALE*%
X182000000Y-136000000D03*
%TD*%
D13*
%TO.P,C4,1*%
%TO.N,/PWR_GND*%
X184000000Y-126000000D03*
%TO.P,C4,2*%
%TO.N,/PWR_IN*%
X184000000Y-122875000D03*
%TD*%
%TO.P,C20,1*%
%TO.N,/PWR_GND*%
X131000000Y-122562500D03*
%TO.P,C20,2*%
%TO.N,/PWR_OUT*%
X131000000Y-119437500D03*
%TD*%
D21*
%TO.P,R2,1*%
%TO.N,+12V*%
X142000000Y-136500000D03*
%TO.P,R2,2*%
%TO.N,Net-(U2-ADJ)*%
X140000000Y-136500000D03*
%TD*%
D12*
%TO.P,C29,1*%
%TO.N,GND*%
X204000000Y-142537500D03*
%TO.P,C29,2*%
%TO.N,Net-(U4-PA28/~{RST})*%
X204000000Y-140462500D03*
%TD*%
D14*
%TO.P,NT4,1,1*%
%TO.N,/PWR_OUT*%
X157799999Y-109499999D03*
%TO.P,NT4,2,2*%
%TO.N,/V_OUT_FULL*%
X159199999Y-109499999D03*
%TD*%
D13*
%TO.P,C7,1*%
%TO.N,/PWR_GND*%
X175000000Y-126000000D03*
%TO.P,C7,2*%
%TO.N,/PWR_IN*%
X175000000Y-122875000D03*
%TD*%
D21*
%TO.P,R5,1*%
%TO.N,/LED*%
X192000000Y-142500000D03*
%TO.P,R5,2*%
%TO.N,Net-(D2-A)*%
X190000000Y-142500000D03*
%TD*%
D22*
%TO.P,J5,1,Pin_1*%
%TO.N,/PWR_OUT*%
X125000000Y-114500000D03*
%TD*%
D23*
%TO.P,C32,1*%
%TO.N,/V_IN_SCALE*%
X170000000Y-140462500D03*
%TO.P,C32,2*%
%TO.N,GND*%
X170000000Y-142537500D03*
%TD*%
D24*
%TO.P,D2,1,K*%
%TO.N,GND*%
X185475000Y-142500000D03*
%TO.P,D2,2,A*%
%TO.N,Net-(D2-A)*%
X187525000Y-142500000D03*
%TD*%
D13*
%TO.P,C6,1*%
%TO.N,/PWR_GND*%
X178000000Y-126000000D03*
%TO.P,C6,2*%
%TO.N,/PWR_IN*%
X178000000Y-122875000D03*
%TD*%
D25*
%TO.P,X1,1,SWDIO*%
%TO.N,Net-(U4-PA31/SWDIO)*%
X192040000Y-135000000D03*
%TO.P,X1,2,GND*%
%TO.N,GND*%
X189500000Y-135000000D03*
%TO.P,X1,3,SWCLK*%
%TO.N,Net-(U4-PA30/SWCLK)*%
X186960000Y-135000000D03*
%TD*%
D13*
%TO.P,C26,1*%
%TO.N,/PWR_GND*%
X113000000Y-122562500D03*
%TO.P,C26,2*%
%TO.N,/PWR_OUT*%
X113000000Y-119437500D03*
%TD*%
D12*
%TO.P,C28,1*%
%TO.N,+3V3*%
X112000000Y-138537500D03*
%TO.P,C28,2*%
%TO.N,GND*%
X112000000Y-136462500D03*
%TD*%
D26*
%TO.P,NT1,1,1*%
%TO.N,/PWR_IN*%
X160999999Y-120999999D03*
%TO.P,NT1,2,2*%
%TO.N,/SWITCH_PATH1*%
X160999999Y-118999999D03*
%TD*%
D27*
%TO.P,U2,1,ADJ*%
%TO.N,Net-(U2-ADJ)*%
X133299999Y-138279999D03*
D28*
%TO.P,U2,2,VO*%
%TO.N,+12V*%
X126999999Y-135999999D03*
D27*
%TO.P,U2,3,VI*%
%TO.N,/SWITCH_PATH1*%
X133299999Y-133719999D03*
%TD*%
D13*
%TO.P,C3,1*%
%TO.N,/PWR_GND*%
X187000000Y-126000000D03*
%TO.P,C3,2*%
%TO.N,/PWR_IN*%
X187000000Y-122875000D03*
%TD*%
D23*
%TO.P,C33,1*%
%TO.N,/V_OUT_SCALE*%
X182000000Y-140462500D03*
%TO.P,C33,2*%
%TO.N,GND*%
X182000000Y-142537500D03*
%TD*%
D12*
%TO.P,C1,1*%
%TO.N,/SWITCH_PATH1*%
X136600000Y-133537500D03*
%TO.P,C1,2*%
%TO.N,/PWR_GND*%
X136600000Y-131462500D03*
%TD*%
D29*
%TO.P,L1,1,1*%
%TO.N,/PWR_IN*%
X169999999Y-117949999D03*
%TO.P,L1,2,2*%
%TO.N,/PWR_PATH1*%
X169999999Y-108049999D03*
%TD*%
D13*
%TO.P,C8,1*%
%TO.N,/PWR_GND*%
X172000000Y-126000000D03*
%TO.P,C8,2*%
%TO.N,/PWR_IN*%
X172000000Y-122875000D03*
%TD*%
%TO.P,C23,1*%
%TO.N,/PWR_GND*%
X122000000Y-122562500D03*
%TO.P,C23,2*%
%TO.N,/PWR_OUT*%
X122000000Y-119437500D03*
%TD*%
D22*
%TO.P,J2,1,Pin_1*%
%TO.N,/PWR_IN*%
X196000000Y-120750000D03*
%TD*%
D12*
%TO.P,C13,1*%
%TO.N,+12V*%
X147000000Y-133537500D03*
%TO.P,C13,2*%
%TO.N,/PWR_GND*%
X147000000Y-131462500D03*
%TD*%
D20*
%TO.P,TP3,1,1*%
%TO.N,/SWITCH_PATH2*%
X153000000Y-135500000D03*
%TD*%
D30*
%TO.P,R7,1*%
%TO.N,Net-(R6-Pad2)*%
X179000000Y-136000000D03*
%TO.P,R7,2*%
%TO.N,/V_OUT_SCALE*%
X179000000Y-138000000D03*
%TD*%
D13*
%TO.P,C17,1*%
%TO.N,/PWR_GND*%
X140000000Y-122562500D03*
%TO.P,C17,2*%
%TO.N,/PWR_OUT*%
X140000000Y-119437500D03*
%TD*%
D29*
%TO.P,L2,1,1*%
%TO.N,/PWR_PATH2*%
X149999999Y-113049999D03*
%TO.P,L2,2,2*%
%TO.N,/PWR_GND*%
X149999999Y-122949999D03*
%TD*%
D12*
%TO.P,C15,1*%
%TO.N,+12V*%
X121500000Y-138537500D03*
%TO.P,C15,2*%
%TO.N,GND*%
X121500000Y-136462500D03*
%TD*%
D19*
%TO.P,D3,1*%
%TO.N,GND*%
X162562500Y-136050000D03*
%TO.P,D3,2*%
%TO.N,+3V3*%
X162562500Y-137950000D03*
%TO.P,D3,3*%
%TO.N,/V_IN_SCALE*%
X164437500Y-137000000D03*
%TD*%
D31*
%TO.P,U1,1,NC*%
%TO.N,unconnected-(U1-NC)*%
X156050000Y-136137500D03*
%TO.P,U1,2,Vdd*%
%TO.N,+12V*%
X157000000Y-136137500D03*
%TO.P,U1,3,IN*%
%TO.N,/GATE*%
X157950000Y-136137500D03*
%TO.P,U1,4,GND*%
%TO.N,/PWR_GND*%
X157950000Y-133862500D03*
%TO.P,U1,5,OUT*%
%TO.N,/SWITCH_PATH2*%
X156050000Y-133862500D03*
%TD*%
D13*
%TO.P,C21,1*%
%TO.N,/PWR_GND*%
X128000000Y-122562500D03*
%TO.P,C21,2*%
%TO.N,/PWR_OUT*%
X128000000Y-119437500D03*
%TD*%
%TO.P,C22,1*%
%TO.N,/PWR_GND*%
X125000000Y-122562500D03*
%TO.P,C22,2*%
%TO.N,/PWR_OUT*%
X125000000Y-119437500D03*
%TD*%
D12*
%TO.P,C12,1*%
%TO.N,+12V*%
X150000000Y-133537500D03*
%TO.P,C12,2*%
%TO.N,/PWR_GND*%
X150000000Y-131462500D03*
%TD*%
D20*
%TO.P,TP2,1,1*%
%TO.N,/V_IN_SCALE*%
X170000000Y-137000000D03*
%TD*%
D30*
%TO.P,R8,1*%
%TO.N,/V_OUT_SCALE*%
X179000000Y-140500000D03*
%TO.P,R8,2*%
%TO.N,GND*%
X179000000Y-142500000D03*
%TD*%
D32*
%TO.P,U4,1,PA05*%
%TO.N,unconnected-(U4-PA05)*%
X200975000Y-142310000D03*
%TO.P,U4,2,PA08/XIN*%
%TO.N,/LED*%
X200975000Y-141040000D03*
%TO.P,U4,3,PA09/XOUT*%
%TO.N,unconnected-(U4-PA09/XOUT)*%
X200975000Y-139770000D03*
%TO.P,U4,4,PA14*%
%TO.N,/TELEMETRY_1*%
X200975000Y-138500000D03*
%TO.P,U4,5,PA15*%
%TO.N,/TELEMETRY_2*%
X200975000Y-137230000D03*
%TO.P,U4,6,PA28/~{RST}*%
%TO.N,Net-(U4-PA28/~{RST})*%
X200975000Y-135960000D03*
%TO.P,U4,7,PA30/SWCLK*%
%TO.N,Net-(U4-PA30/SWCLK)*%
X200975000Y-134690000D03*
%TO.P,U4,8,PA31/SWDIO*%
%TO.N,Net-(U4-PA31/SWDIO)*%
X196025000Y-134690000D03*
%TO.P,U4,9,PA24*%
%TO.N,/GATE*%
X196025000Y-135960000D03*
%TO.P,U4,10,PA25*%
%TO.N,unconnected-(U4-PA25)*%
X196025000Y-137230000D03*
%TO.P,U4,11,GND*%
%TO.N,GND*%
X196025000Y-138500000D03*
%TO.P,U4,12,VDD*%
%TO.N,+3V3*%
X196025000Y-139770000D03*
%TO.P,U4,13,PA02*%
%TO.N,/V_IN_SCALE*%
X196025000Y-141040000D03*
%TO.P,U4,14,PA04*%
%TO.N,/V_OUT_SCALE*%
X196025000Y-142310000D03*
%TD*%
D13*
%TO.P,C11,1*%
%TO.N,/PWR_GND*%
X163000000Y-126000000D03*
%TO.P,C11,2*%
%TO.N,/PWR_IN*%
X163000000Y-122875000D03*
%TD*%
%TO.P,C5,1*%
%TO.N,/PWR_GND*%
X181000000Y-126000000D03*
%TO.P,C5,2*%
%TO.N,/PWR_IN*%
X181000000Y-122875000D03*
%TD*%
D33*
%TO.P,C27,1*%
%TO.N,Net-(U3-BP)*%
X115537500Y-134000000D03*
%TO.P,C27,2*%
%TO.N,GND*%
X113462500Y-134000000D03*
%TD*%
D14*
%TO.P,NT3,1,1*%
%TO.N,/PWR_IN*%
X162499999Y-118199999D03*
%TO.P,NT3,2,2*%
%TO.N,/V_IN_FULL*%
X162499999Y-116799999D03*
%TD*%
D17*
%TO.P,Q1,1,G*%
%TO.N,/SWITCH_PATH2*%
X182459999Y-114149999D03*
D18*
%TO.P,Q1,2,D*%
%TO.N,/PWR_PATH1*%
X184999999Y-104999999D03*
D17*
%TO.P,Q1,3,S*%
%TO.N,/PWR_GND*%
X187539999Y-114149999D03*
%TD*%
D34*
%TO.P,C16,1*%
%TO.N,/PWR_PATH1*%
X161562500Y-113000000D03*
%TO.P,C16,2*%
%TO.N,/PWR_PATH2*%
X158437500Y-113000000D03*
%TD*%
D13*
%TO.P,C19,1*%
%TO.N,/PWR_GND*%
X134000000Y-122562500D03*
%TO.P,C19,2*%
%TO.N,/PWR_OUT*%
X134000000Y-119437500D03*
%TD*%
D35*
%TO.P,U3,1,VIN*%
%TO.N,+12V*%
X118024999Y-138449999D03*
%TO.P,U3,2,GND*%
%TO.N,GND*%
X118024999Y-137499999D03*
%TO.P,U3,3,EN*%
X118024999Y-136549999D03*
%TO.P,U3,4,BP*%
%TO.N,Net-(U3-BP)*%
X115324999Y-136549999D03*
%TO.P,U3,5,VOUT*%
%TO.N,+3V3*%
X115324999Y-138449999D03*
%TD*%
D30*
%TO.P,R4,1*%
%TO.N,/V_IN_SCALE*%
X167000000Y-140500000D03*
%TO.P,R4,2*%
%TO.N,GND*%
X167000000Y-142500000D03*
%TD*%
D22*
%TO.P,J4,1,Pin_1*%
%TO.N,/PWR_GND*%
X125000000Y-127500000D03*
%TD*%
D30*
%TO.P,R1,1*%
%TO.N,/V_IN_FULL*%
X167000000Y-136000000D03*
%TO.P,R1,2*%
%TO.N,/V_IN_SCALE*%
X167000000Y-138000000D03*
%TD*%
D36*
%TO.P,J1,1,Pin_1*%
%TO.N,GND*%
X207499999Y-142299999D03*
D37*
%TO.P,J1,2,Pin_2*%
%TO.N,/TELEMETRY_1*%
X207499999Y-139759999D03*
%TO.P,J1,3,Pin_3*%
%TO.N,/TELEMETRY_2*%
X207499999Y-137219999D03*
%TO.P,J1,4,Pin_4*%
%TO.N,+3V3*%
X207499999Y-134679999D03*
%TD*%
D20*
%TO.P,TP1,1,1*%
%TO.N,/GATE*%
X158000000Y-140000000D03*
%TD*%
D13*
%TO.P,C2,1*%
%TO.N,/PWR_GND*%
X190000000Y-126000000D03*
%TO.P,C2,2*%
%TO.N,/PWR_IN*%
X190000000Y-122875000D03*
%TD*%
%TO.P,C9,1*%
%TO.N,/PWR_GND*%
X169000000Y-126000000D03*
%TO.P,C9,2*%
%TO.N,/PWR_IN*%
X169000000Y-122875000D03*
%TD*%
D22*
%TO.P,J3,1,Pin_1*%
%TO.N,/PWR_GND*%
X196000000Y-128500000D03*
%TD*%
D38*
%TO.N,/PWR_PATH1*%
X178000000Y-104000000D03*
X178000000Y-101000000D03*
%TO.N,/PWR_OUT*%
X142000000Y-107000000D03*
X142000000Y-104000000D03*
X142000000Y-101000000D03*
%TO.N,/SWITCH_PATH1*%
X135000000Y-135500000D03*
X161000000Y-117500000D03*
X161000000Y-116000000D03*
X133500000Y-135500000D03*
D39*
%TO.N,GND*%
X162562500Y-135062500D03*
X119000000Y-134500000D03*
X112000000Y-134500000D03*
X121000000Y-134500000D03*
X174562500Y-135062500D03*
X191000000Y-139000000D03*
X168462500Y-142537500D03*
X187000000Y-140500000D03*
X120000000Y-134500000D03*
X180537500Y-142537500D03*
X205500000Y-142500000D03*
%TO.N,Net-(U4-PA28/~{RST})*%
X198500000Y-138500000D03*
X204000000Y-139000000D03*
%TO.N,/V_IN_SCALE*%
X172000000Y-139500000D03*
X193500000Y-141500000D03*
%TO.N,/V_OUT_SCALE*%
X193500000Y-142500000D03*
X184000000Y-140000000D03*
%TO.N,/SWITCH_PATH2*%
X174000000Y-111000000D03*
X156000000Y-131500000D03*
%TO.N,/GATE*%
X159500000Y-137000000D03*
X194000000Y-137000000D03*
%TO.N,Net-(U4-PA30/SWCLK)*%
X198000000Y-135000000D03*
%TO.N,/V_IN_FULL*%
X162500000Y-117000000D03*
X167000000Y-134500000D03*
D38*
%TO.N,/PWR_OUT*%
X118000000Y-92000000D03*
X133000000Y-98000000D03*
X145000000Y-92000000D03*
X121000000Y-98000000D03*
X157000000Y-92000000D03*
X151000000Y-107000000D03*
X118000000Y-101000000D03*
X148000000Y-92000000D03*
X154000000Y-92000000D03*
X127000000Y-101000000D03*
X130000000Y-92000000D03*
X121000000Y-101000000D03*
X124000000Y-98000000D03*
X127000000Y-104000000D03*
X115000000Y-107000000D03*
X121000000Y-92000000D03*
X157000000Y-95000000D03*
X112000000Y-92000000D03*
X157000000Y-104000000D03*
X136000000Y-92000000D03*
X139000000Y-92000000D03*
X142000000Y-95000000D03*
X151000000Y-98000000D03*
X115000000Y-95000000D03*
X154000000Y-98000000D03*
X151000000Y-104000000D03*
X139000000Y-98000000D03*
X112000000Y-95000000D03*
X115000000Y-104000000D03*
X145000000Y-95000000D03*
X124000000Y-107000000D03*
X127000000Y-98000000D03*
X136000000Y-95000000D03*
X124000000Y-92000000D03*
X145000000Y-101000000D03*
X139000000Y-95000000D03*
X157000000Y-98000000D03*
X127000000Y-95000000D03*
X154000000Y-95000000D03*
X118000000Y-95000000D03*
X127000000Y-107000000D03*
X112000000Y-104000000D03*
X121000000Y-107000000D03*
X118000000Y-107000000D03*
X112000000Y-107000000D03*
X118000000Y-98000000D03*
X157000000Y-101000000D03*
X121000000Y-95000000D03*
X112000000Y-98000000D03*
X130000000Y-95000000D03*
X154000000Y-101000000D03*
X115000000Y-92000000D03*
X133000000Y-95000000D03*
X151000000Y-92000000D03*
X142000000Y-98000000D03*
X121000000Y-104000000D03*
X124000000Y-104000000D03*
X133000000Y-92000000D03*
X112000000Y-101000000D03*
X142000000Y-92000000D03*
X148000000Y-98000000D03*
X151000000Y-101000000D03*
X145000000Y-107000000D03*
X148000000Y-101000000D03*
X148000000Y-107000000D03*
X157000000Y-107000000D03*
X154000000Y-107000000D03*
X136000000Y-98000000D03*
X130000000Y-98000000D03*
X124000000Y-101000000D03*
X145000000Y-98000000D03*
X151000000Y-95000000D03*
X115000000Y-98000000D03*
X118000000Y-104000000D03*
X148000000Y-104000000D03*
X124000000Y-95000000D03*
X148000000Y-95000000D03*
X154000000Y-104000000D03*
X145000000Y-104000000D03*
X115000000Y-101000000D03*
X127000000Y-92000000D03*
D39*
%TO.N,/V_OUT_FULL*%
X159000000Y-109500000D03*
X175500000Y-133500000D03*
D38*
%TO.N,/PWR_PATH1*%
X163000000Y-95000000D03*
X205000000Y-98000000D03*
X193000000Y-107000000D03*
X181000000Y-92000000D03*
X175000000Y-95000000D03*
X193000000Y-104000000D03*
X169000000Y-95000000D03*
X208000000Y-104000000D03*
X172000000Y-95000000D03*
X169000000Y-104000000D03*
X184000000Y-95000000D03*
X205000000Y-104000000D03*
X175000000Y-92000000D03*
X166000000Y-101000000D03*
X202000000Y-104000000D03*
X193000000Y-92000000D03*
X202000000Y-107000000D03*
X199000000Y-104000000D03*
X184000000Y-92000000D03*
X196000000Y-95000000D03*
X184000000Y-98000000D03*
X172000000Y-98000000D03*
X163000000Y-92000000D03*
X196000000Y-107000000D03*
X193000000Y-95000000D03*
X187000000Y-92000000D03*
X202000000Y-92000000D03*
X175000000Y-104000000D03*
X187000000Y-95000000D03*
X166000000Y-104000000D03*
X196000000Y-104000000D03*
X208000000Y-98000000D03*
X202000000Y-98000000D03*
X178000000Y-95000000D03*
X199000000Y-107000000D03*
X169000000Y-92000000D03*
X205000000Y-95000000D03*
X163000000Y-101000000D03*
X172000000Y-104000000D03*
X163000000Y-98000000D03*
X181000000Y-98000000D03*
X178000000Y-92000000D03*
X196000000Y-98000000D03*
X208000000Y-92000000D03*
X169000000Y-101000000D03*
X199000000Y-95000000D03*
X196000000Y-101000000D03*
X208000000Y-101000000D03*
X193000000Y-101000000D03*
X169000000Y-98000000D03*
X196000000Y-92000000D03*
X175000000Y-101000000D03*
X166000000Y-95000000D03*
X193000000Y-98000000D03*
X166000000Y-98000000D03*
X181000000Y-95000000D03*
X172000000Y-101000000D03*
X187000000Y-98000000D03*
X208000000Y-95000000D03*
X199000000Y-92000000D03*
X205000000Y-92000000D03*
X199000000Y-98000000D03*
X190000000Y-98000000D03*
X172000000Y-92000000D03*
X190000000Y-95000000D03*
X166000000Y-92000000D03*
X163000000Y-104000000D03*
X175000000Y-98000000D03*
X190000000Y-92000000D03*
X205000000Y-101000000D03*
X208000000Y-107000000D03*
X199000000Y-101000000D03*
X202000000Y-101000000D03*
X205000000Y-107000000D03*
X178000000Y-98000000D03*
X202000000Y-95000000D03*
%TD*%
D40*
%TO.N,/V_OUT_SCALE*%
X182000000Y-140462500D02*
X182000000Y-136000000D01*
D41*
%TO.N,/SWITCH_PATH1*%
X133500000Y-135500000D02*
X135000000Y-135500000D01*
X133300000Y-133720000D02*
X133300000Y-135300000D01*
X161000000Y-119000000D02*
X161000000Y-117500000D01*
X161000000Y-117500000D02*
X161000000Y-116000000D01*
X136417500Y-133720000D02*
X136600000Y-133537500D01*
X133300000Y-135300000D02*
X133500000Y-135500000D01*
X133300000Y-133720000D02*
X136417500Y-133720000D01*
D42*
%TO.N,GND*%
X118500000Y-134500000D02*
X118025000Y-134975000D01*
X112000000Y-134500000D02*
X112000000Y-136462500D01*
D40*
X174562500Y-136050000D02*
X174562500Y-135062500D01*
D42*
X207300000Y-142500000D02*
X207500000Y-142300000D01*
X194000000Y-138500000D02*
X193462500Y-137962500D01*
X191000000Y-139000000D02*
X192037500Y-137962500D01*
X121500000Y-134500000D02*
X121500000Y-133200000D01*
D40*
X162562500Y-136050000D02*
X162562500Y-135062500D01*
D42*
X121500000Y-134500000D02*
X118500000Y-134500000D01*
X196025000Y-138500000D02*
X194000000Y-138500000D01*
X189500000Y-137962500D02*
X189962500Y-137962500D01*
D40*
X179037500Y-142537500D02*
X179000000Y-142500000D01*
D42*
X121500000Y-136462500D02*
X121500000Y-134500000D01*
X118025000Y-134975000D02*
X118025000Y-136550000D01*
X205500000Y-142500000D02*
X207300000Y-142500000D01*
D40*
X167037500Y-142537500D02*
X167000000Y-142500000D01*
D42*
X112500000Y-134000000D02*
X113462500Y-134000000D01*
X112000000Y-134500000D02*
X112500000Y-134000000D01*
D40*
X170000000Y-142537500D02*
X167037500Y-142537500D01*
D42*
X193462500Y-137962500D02*
X192500000Y-137962500D01*
X185475000Y-142500000D02*
X185475000Y-142025000D01*
X205462500Y-142537500D02*
X205500000Y-142500000D01*
X192037500Y-137962500D02*
X192500000Y-137962500D01*
X189962500Y-137962500D02*
X191000000Y-139000000D01*
X204000000Y-142537500D02*
X205462500Y-142537500D01*
D40*
X182000000Y-142537500D02*
X179037500Y-142537500D01*
D42*
X118025000Y-136550000D02*
X118025000Y-137500000D01*
X185475000Y-142025000D02*
X187000000Y-140500000D01*
D41*
%TO.N,+12V*%
X142500000Y-133537500D02*
X142500000Y-136000000D01*
X142500000Y-136000000D02*
X142000000Y-136500000D01*
X150000000Y-133537500D02*
X147000000Y-133537500D01*
X121500000Y-138537500D02*
X121500000Y-140000000D01*
D40*
X118025000Y-138450000D02*
X118025000Y-139975000D01*
D42*
%TO.N,Net-(U3-BP)*%
X115325000Y-136550000D02*
X115325000Y-134212500D01*
X115325000Y-134212500D02*
X115537500Y-134000000D01*
%TO.N,+3V3*%
X112000000Y-138537500D02*
X112000000Y-143500000D01*
X115325000Y-138450000D02*
X112087500Y-138450000D01*
X113000000Y-144500000D02*
X161500000Y-144500000D01*
X112000000Y-143500000D02*
X113000000Y-144500000D01*
X112087500Y-138450000D02*
X112000000Y-138537500D01*
%TO.N,Net-(U4-PA28/~{RST})*%
X204000000Y-140462500D02*
X204000000Y-139000000D01*
X198500000Y-138500000D02*
X198500000Y-136500000D01*
X198500000Y-136500000D02*
X199040000Y-135960000D01*
X199040000Y-135960000D02*
X200975000Y-135960000D01*
%TO.N,Net-(D2-A)*%
X187525000Y-142500000D02*
X190000000Y-142500000D01*
D40*
%TO.N,/V_IN_SCALE*%
X167000000Y-140500000D02*
X167000000Y-138000000D01*
D42*
X172000000Y-139500000D02*
X171037500Y-140462500D01*
D40*
X167000000Y-138000000D02*
X165437500Y-138000000D01*
D42*
X193960000Y-141040000D02*
X193500000Y-141500000D01*
X194460000Y-141040000D02*
X193960000Y-141040000D01*
D40*
X170000000Y-140462500D02*
X167037500Y-140462500D01*
X167037500Y-140462500D02*
X167000000Y-140500000D01*
D42*
X171037500Y-140462500D02*
X170000000Y-140462500D01*
D40*
X165437500Y-138000000D02*
X164437500Y-137000000D01*
X170000000Y-140462500D02*
X170000000Y-137000000D01*
D42*
X196025000Y-141040000D02*
X194460000Y-141040000D01*
D40*
%TO.N,/V_OUT_SCALE*%
X179000000Y-140500000D02*
X179000000Y-138000000D01*
D42*
X193690000Y-142310000D02*
X193500000Y-142500000D01*
D40*
X182000000Y-140462500D02*
X179037500Y-140462500D01*
X179037500Y-140462500D02*
X179000000Y-140500000D01*
X179000000Y-138000000D02*
X177437500Y-138000000D01*
X177437500Y-138000000D02*
X176437500Y-137000000D01*
D42*
X196025000Y-142310000D02*
X193690000Y-142310000D01*
X184000000Y-140000000D02*
X183500000Y-140500000D01*
X182037500Y-140500000D02*
X182000000Y-140462500D01*
X183500000Y-140500000D02*
X182037500Y-140500000D01*
D40*
%TO.N,/SWITCH_PATH2*%
X181460000Y-113960000D02*
X181460000Y-114150000D01*
X156000000Y-133812500D02*
X156000000Y-131500000D01*
X178500000Y-111000000D02*
X181460000Y-113960000D01*
X154637500Y-133862500D02*
X153000000Y-135500000D01*
X156050000Y-133862500D02*
X156000000Y-133812500D01*
X156050000Y-133862500D02*
X154637500Y-133862500D01*
X174000000Y-111000000D02*
X178500000Y-111000000D01*
D42*
%TO.N,/TELEMETRY_1*%
X203000000Y-138500000D02*
X203500000Y-138000000D01*
X205740000Y-138000000D02*
X207500000Y-139760000D01*
X200975000Y-138500000D02*
X203000000Y-138500000D01*
X203500000Y-138000000D02*
X205740000Y-138000000D01*
%TO.N,Net-(U2-ADJ)*%
X139500000Y-136500000D02*
X137000000Y-136500000D01*
X135220000Y-138280000D02*
X133300000Y-138280000D01*
X139500000Y-133500000D02*
X139500000Y-136500000D01*
X137000000Y-136500000D02*
X135220000Y-138280000D01*
X140000000Y-136500000D02*
X139500000Y-136500000D01*
%TO.N,/LED*%
X199460000Y-141040000D02*
X200975000Y-141040000D01*
X199000000Y-141500000D02*
X199460000Y-141040000D01*
X198000000Y-143500000D02*
X199000000Y-142500000D01*
X193000000Y-143500000D02*
X198000000Y-143500000D01*
X199000000Y-142500000D02*
X199000000Y-141500000D01*
X192000000Y-142500000D02*
X193000000Y-143500000D01*
D40*
%TO.N,/GATE*%
X157950000Y-139950000D02*
X158000000Y-140000000D01*
X159500000Y-137000000D02*
X158637500Y-136137500D01*
D42*
X194000000Y-137000000D02*
X195040000Y-135960000D01*
D40*
X157950000Y-136137500D02*
X157950000Y-139950000D01*
X158637500Y-136137500D02*
X157950000Y-136137500D01*
D42*
X195040000Y-135960000D02*
X196025000Y-135960000D01*
%TO.N,Net-(U4-PA30/SWCLK)*%
X200975000Y-134690000D02*
X198310000Y-134690000D01*
X198310000Y-134690000D02*
X198000000Y-135000000D01*
%TO.N,Net-(U4-PA31/SWDIO)*%
X192350000Y-134690000D02*
X192040000Y-135000000D01*
X196025000Y-134690000D02*
X192350000Y-134690000D01*
%TO.N,/TELEMETRY_2*%
X207490000Y-137230000D02*
X207500000Y-137220000D01*
X200975000Y-137230000D02*
X207490000Y-137230000D01*
%TO.N,/V_IN_FULL*%
X167000000Y-134500000D02*
X167000000Y-136000000D01*
X162500000Y-116800000D02*
X162500000Y-117000000D01*
%TO.N,/PWR_IN*%
X162500000Y-119000000D02*
X163500000Y-120000000D01*
X162500000Y-118200000D02*
X162500000Y-119000000D01*
D40*
%TO.N,/PWR_GND*%
X157950000Y-133862500D02*
X157950000Y-131550000D01*
D42*
%TO.N,/PWR_OUT*%
X157800000Y-109500000D02*
X156500000Y-109500000D01*
X156500000Y-109500000D02*
X154000000Y-107000000D01*
%TO.N,/V_OUT_FULL*%
X177000000Y-133500000D02*
X175500000Y-133500000D01*
D40*
%TO.N,Net-(R6-Pad2)*%
X179000000Y-136000000D02*
X179000000Y-133500000D01*
%TD*%
%TA.AperFunction,Conductor*%
%TO.N,+3V3*%
G36*
X174610315Y-133020002D02*
G01*
X174656808Y-133073658D01*
X174666912Y-133143932D01*
X174662027Y-133164936D01*
X174614326Y-133311744D01*
X174594540Y-133500000D01*
X174595230Y-133506565D01*
X174609417Y-133641545D01*
X174614326Y-133688256D01*
X174672821Y-133868284D01*
X174676124Y-133874006D01*
X174676125Y-133874007D01*
X174687783Y-133894199D01*
X174732675Y-133971953D01*
X174733279Y-133973000D01*
X174750017Y-134041995D01*
X174726797Y-134109087D01*
X174670990Y-134152974D01*
X174624160Y-134162000D01*
X174467854Y-134162000D01*
X174461401Y-134163372D01*
X174461397Y-134163372D01*
X174380712Y-134180522D01*
X174282697Y-134201356D01*
X174109770Y-134278349D01*
X174104429Y-134282229D01*
X174104428Y-134282230D01*
X174063472Y-134311986D01*
X173956629Y-134389612D01*
X173952216Y-134394514D01*
X173952214Y-134394515D01*
X173863146Y-134493435D01*
X173829967Y-134530284D01*
X173826664Y-134536005D01*
X173739006Y-134687834D01*
X173735321Y-134694216D01*
X173676826Y-134874244D01*
X173676136Y-134880805D01*
X173676136Y-134880807D01*
X173669645Y-134942569D01*
X173657040Y-135062500D01*
X173670188Y-135187593D01*
X173675282Y-135236063D01*
X173662510Y-135305901D01*
X173614113Y-135357684D01*
X173573135Y-135381919D01*
X173456919Y-135498135D01*
X173452885Y-135504956D01*
X173394785Y-135603199D01*
X173373256Y-135639602D01*
X173371045Y-135647214D01*
X173371044Y-135647215D01*
X173353550Y-135707431D01*
X173327402Y-135797431D01*
X173326897Y-135803850D01*
X173324693Y-135831847D01*
X173324692Y-135831860D01*
X173324500Y-135834306D01*
X173324500Y-136265694D01*
X173324692Y-136268140D01*
X173324693Y-136268153D01*
X173325549Y-136279027D01*
X173327402Y-136302569D01*
X173334757Y-136327885D01*
X173368065Y-136442529D01*
X173373256Y-136460398D01*
X173377291Y-136467220D01*
X173377291Y-136467221D01*
X173412836Y-136527325D01*
X173456919Y-136601865D01*
X173573135Y-136718081D01*
X173579956Y-136722115D01*
X173637823Y-136756337D01*
X173714602Y-136801744D01*
X173722214Y-136803955D01*
X173722215Y-136803956D01*
X173790684Y-136823848D01*
X173872431Y-136847598D01*
X173885584Y-136848633D01*
X173906847Y-136850307D01*
X173906860Y-136850308D01*
X173909306Y-136850500D01*
X174510468Y-136850500D01*
X174524576Y-136851292D01*
X174562500Y-136855565D01*
X174569529Y-136854773D01*
X174600425Y-136851292D01*
X174614532Y-136850500D01*
X175073500Y-136850500D01*
X175141621Y-136870502D01*
X175188114Y-136924158D01*
X175199500Y-136976500D01*
X175199500Y-137215694D01*
X175199692Y-137218140D01*
X175199693Y-137218153D01*
X175201367Y-137239416D01*
X175202402Y-137252569D01*
X175248256Y-137410398D01*
X175252291Y-137417220D01*
X175252291Y-137417221D01*
X175297493Y-137493653D01*
X175331919Y-137551865D01*
X175448135Y-137668081D01*
X175454956Y-137672115D01*
X175561026Y-137734844D01*
X175589602Y-137751744D01*
X175597214Y-137753955D01*
X175597215Y-137753956D01*
X175693278Y-137781865D01*
X175747431Y-137797598D01*
X175760584Y-137798633D01*
X175781847Y-137800307D01*
X175781860Y-137800308D01*
X175784306Y-137800500D01*
X176053732Y-137800500D01*
X176121853Y-137820502D01*
X176142827Y-137837405D01*
X176935238Y-138629816D01*
X176967560Y-138650126D01*
X176979074Y-138658296D01*
X177008914Y-138682092D01*
X177043306Y-138698654D01*
X177055666Y-138705486D01*
X177087978Y-138725789D01*
X177121128Y-138737389D01*
X177123998Y-138738393D01*
X177137049Y-138743798D01*
X177171439Y-138760360D01*
X177178332Y-138761933D01*
X177178334Y-138761934D01*
X177208650Y-138768853D01*
X177222219Y-138772762D01*
X177258245Y-138785368D01*
X177265270Y-138786159D01*
X177265272Y-138786160D01*
X177296169Y-138789641D01*
X177310098Y-138792008D01*
X177340404Y-138798925D01*
X177340407Y-138798925D01*
X177347306Y-138800500D01*
X177886942Y-138800500D01*
X177955063Y-138820502D01*
X177976037Y-138837405D01*
X178081344Y-138942712D01*
X178087593Y-138946566D01*
X178087595Y-138946568D01*
X178139646Y-138978673D01*
X178187125Y-139031458D01*
X178199500Y-139085914D01*
X178199500Y-139414086D01*
X178179498Y-139482207D01*
X178139646Y-139521327D01*
X178087595Y-139553432D01*
X178087593Y-139553434D01*
X178081344Y-139557288D01*
X177957288Y-139681344D01*
X177865186Y-139830666D01*
X177862878Y-139837630D01*
X177862877Y-139837633D01*
X177850824Y-139874007D01*
X177810001Y-139997203D01*
X177806778Y-140028754D01*
X177801727Y-140078196D01*
X177799500Y-140099991D01*
X177799501Y-140900008D01*
X177810001Y-141002797D01*
X177819750Y-141032216D01*
X177860549Y-141155339D01*
X177865186Y-141169334D01*
X177869039Y-141175580D01*
X177869039Y-141175581D01*
X177874935Y-141185140D01*
X177957288Y-141318656D01*
X178049537Y-141410905D01*
X178083563Y-141473217D01*
X178078498Y-141544032D01*
X178049537Y-141589095D01*
X177957288Y-141681344D01*
X177865186Y-141830666D01*
X177862878Y-141837630D01*
X177862877Y-141837633D01*
X177844604Y-141892779D01*
X177810001Y-141997203D01*
X177809303Y-142004040D01*
X177800081Y-142094306D01*
X177799500Y-142099991D01*
X177799501Y-142900008D01*
X177810001Y-143002797D01*
X177812166Y-143009330D01*
X177845303Y-143109330D01*
X177865186Y-143169334D01*
X177957288Y-143318656D01*
X178081344Y-143442712D01*
X178230666Y-143534814D01*
X178237630Y-143537122D01*
X178237633Y-143537123D01*
X178313079Y-143562123D01*
X178397203Y-143589999D01*
X178455499Y-143595955D01*
X178496806Y-143600175D01*
X178496814Y-143600175D01*
X178499991Y-143600500D01*
X178999844Y-143600500D01*
X179500008Y-143600499D01*
X179602797Y-143589999D01*
X179705517Y-143555961D01*
X179762367Y-143537123D01*
X179762370Y-143537122D01*
X179769334Y-143534814D01*
X179918656Y-143442712D01*
X179986463Y-143374905D01*
X180048775Y-143340879D01*
X180075558Y-143338000D01*
X180094709Y-143338000D01*
X180145954Y-143348892D01*
X180257697Y-143398644D01*
X180351847Y-143418656D01*
X180436397Y-143436628D01*
X180436401Y-143436628D01*
X180442854Y-143438000D01*
X180632146Y-143438000D01*
X180638599Y-143436628D01*
X180638603Y-143436628D01*
X180810845Y-143400017D01*
X180810848Y-143400016D01*
X180817303Y-143398644D01*
X180855802Y-143381503D01*
X180926168Y-143372068D01*
X180990465Y-143402173D01*
X180996146Y-143407514D01*
X181056344Y-143467712D01*
X181205666Y-143559814D01*
X181212630Y-143562122D01*
X181212633Y-143562123D01*
X181308217Y-143593796D01*
X181372203Y-143614999D01*
X181430499Y-143620955D01*
X181471806Y-143625175D01*
X181471814Y-143625175D01*
X181474991Y-143625500D01*
X181999836Y-143625500D01*
X182525008Y-143625499D01*
X182627797Y-143614999D01*
X182691783Y-143593796D01*
X182787367Y-143562123D01*
X182787370Y-143562122D01*
X182794334Y-143559814D01*
X182943656Y-143467712D01*
X183067712Y-143343656D01*
X183159814Y-143194334D01*
X183214999Y-143027797D01*
X183222311Y-142956224D01*
X183225175Y-142928194D01*
X183225175Y-142928186D01*
X183225500Y-142925009D01*
X183225499Y-142149992D01*
X183214999Y-142047203D01*
X183199355Y-141999991D01*
X184399500Y-141999991D01*
X184399501Y-143000008D01*
X184410001Y-143102797D01*
X184412166Y-143109330D01*
X184449005Y-143220502D01*
X184465186Y-143269334D01*
X184557288Y-143418656D01*
X184681344Y-143542712D01*
X184754499Y-143587834D01*
X184815566Y-143625500D01*
X184830666Y-143634814D01*
X184837630Y-143637122D01*
X184837633Y-143637123D01*
X184943157Y-143672090D01*
X184997203Y-143689999D01*
X185055499Y-143695955D01*
X185096806Y-143700175D01*
X185096814Y-143700175D01*
X185099991Y-143700500D01*
X185474883Y-143700500D01*
X185850008Y-143700499D01*
X185952797Y-143689999D01*
X186009175Y-143671317D01*
X186112367Y-143637123D01*
X186112370Y-143637122D01*
X186119334Y-143634814D01*
X186134435Y-143625500D01*
X186195501Y-143587834D01*
X186268656Y-143542712D01*
X186392712Y-143418656D01*
X186396566Y-143412407D01*
X186401117Y-143406652D01*
X186403707Y-143408700D01*
X186445678Y-143371037D01*
X186515766Y-143359716D01*
X186580849Y-143388085D01*
X186597728Y-143407565D01*
X186598883Y-143406652D01*
X186603434Y-143412407D01*
X186607288Y-143418656D01*
X186731344Y-143542712D01*
X186804499Y-143587834D01*
X186865566Y-143625500D01*
X186880666Y-143634814D01*
X186887630Y-143637122D01*
X186887633Y-143637123D01*
X186993157Y-143672090D01*
X187047203Y-143689999D01*
X187105499Y-143695955D01*
X187146806Y-143700175D01*
X187146814Y-143700175D01*
X187149991Y-143700500D01*
X187524883Y-143700500D01*
X187900008Y-143700499D01*
X188002797Y-143689999D01*
X188059175Y-143671317D01*
X188162367Y-143637123D01*
X188162370Y-143637122D01*
X188169334Y-143634814D01*
X188184435Y-143625500D01*
X188245501Y-143587834D01*
X188318656Y-143542712D01*
X188442712Y-143418656D01*
X188534814Y-143269334D01*
X188535255Y-143269606D01*
X188578971Y-143219962D01*
X188646243Y-143200500D01*
X188853757Y-143200500D01*
X188921878Y-143220502D01*
X188964762Y-143269596D01*
X188965186Y-143269334D01*
X189057288Y-143418656D01*
X189181344Y-143542712D01*
X189254499Y-143587834D01*
X189315566Y-143625500D01*
X189330666Y-143634814D01*
X189337630Y-143637122D01*
X189337633Y-143637123D01*
X189443157Y-143672090D01*
X189497203Y-143689999D01*
X189555499Y-143695955D01*
X189596806Y-143700175D01*
X189596814Y-143700175D01*
X189599991Y-143700500D01*
X189999875Y-143700500D01*
X190400008Y-143700499D01*
X190502797Y-143689999D01*
X190559175Y-143671317D01*
X190662367Y-143637123D01*
X190662370Y-143637122D01*
X190669334Y-143634814D01*
X190684435Y-143625500D01*
X190745501Y-143587834D01*
X190818656Y-143542712D01*
X190910905Y-143450463D01*
X190973217Y-143416437D01*
X191044032Y-143421502D01*
X191089095Y-143450463D01*
X191181344Y-143542712D01*
X191254499Y-143587834D01*
X191315566Y-143625500D01*
X191330666Y-143634814D01*
X191337630Y-143637122D01*
X191337633Y-143637123D01*
X191443157Y-143672090D01*
X191497203Y-143689999D01*
X191555499Y-143695955D01*
X191596806Y-143700175D01*
X191596814Y-143700175D01*
X191599991Y-143700500D01*
X191635275Y-143700500D01*
X192157653Y-143700499D01*
X192225774Y-143720501D01*
X192246748Y-143737404D01*
X192487000Y-143977656D01*
X192492218Y-143983198D01*
X192532071Y-144028183D01*
X192581531Y-144062323D01*
X192587652Y-144066828D01*
X192628941Y-144099176D01*
X192628947Y-144099180D01*
X192634944Y-144103878D01*
X192644016Y-144107961D01*
X192663878Y-144119163D01*
X192672070Y-144124818D01*
X192728241Y-144146121D01*
X192728249Y-144146124D01*
X192735274Y-144149034D01*
X192790069Y-144173695D01*
X192799862Y-144175489D01*
X192821829Y-144181613D01*
X192831128Y-144185140D01*
X192838696Y-144186059D01*
X192890764Y-144192382D01*
X192898285Y-144193527D01*
X192949894Y-144202984D01*
X192949897Y-144202984D01*
X192957394Y-144204358D01*
X192965000Y-144203898D01*
X192965002Y-144203898D01*
X193017367Y-144200730D01*
X193024975Y-144200500D01*
X197975025Y-144200500D01*
X197982633Y-144200730D01*
X198034999Y-144203898D01*
X198035000Y-144203898D01*
X198042606Y-144204358D01*
X198101730Y-144193523D01*
X198109248Y-144192379D01*
X198168872Y-144185140D01*
X198178174Y-144181613D01*
X198200137Y-144175490D01*
X198209932Y-144173695D01*
X198264749Y-144149024D01*
X198271758Y-144146121D01*
X198320805Y-144127520D01*
X198320804Y-144127520D01*
X198327930Y-144124818D01*
X198334198Y-144120491D01*
X198334201Y-144120490D01*
X198336122Y-144119164D01*
X198355984Y-144107961D01*
X198365057Y-144103878D01*
X198371059Y-144099176D01*
X198371062Y-144099174D01*
X198412349Y-144066828D01*
X198418478Y-144062317D01*
X198461659Y-144032511D01*
X198467929Y-144028183D01*
X198507767Y-143983215D01*
X198512984Y-143977673D01*
X199477664Y-143012992D01*
X199483207Y-143007774D01*
X199528183Y-142967929D01*
X199532513Y-142961655D01*
X199537325Y-142956224D01*
X199597468Y-142918497D01*
X199668460Y-142919275D01*
X199720734Y-142950680D01*
X199748135Y-142978081D01*
X199754956Y-142982115D01*
X199832201Y-143027797D01*
X199889602Y-143061744D01*
X199897214Y-143063955D01*
X199897215Y-143063956D01*
X200001951Y-143094385D01*
X200047431Y-143107598D01*
X200060584Y-143108633D01*
X200081847Y-143110307D01*
X200081860Y-143110308D01*
X200084306Y-143110500D01*
X201865694Y-143110500D01*
X201868140Y-143110308D01*
X201868153Y-143110307D01*
X201889416Y-143108633D01*
X201902569Y-143107598D01*
X201948049Y-143094385D01*
X202052785Y-143063956D01*
X202052786Y-143063955D01*
X202060398Y-143061744D01*
X202117800Y-143027797D01*
X202195044Y-142982115D01*
X202201865Y-142978081D01*
X202318081Y-142861865D01*
X202401744Y-142720398D01*
X202447598Y-142562569D01*
X202448633Y-142549416D01*
X202450307Y-142528153D01*
X202450308Y-142528140D01*
X202450500Y-142525694D01*
X202450500Y-142094306D01*
X202450308Y-142091860D01*
X202450307Y-142091847D01*
X202448103Y-142063850D01*
X202447598Y-142057431D01*
X202401744Y-141899602D01*
X202360976Y-141830666D01*
X202322118Y-141764960D01*
X202322115Y-141764956D01*
X202318081Y-141758135D01*
X202312470Y-141752524D01*
X202312242Y-141752230D01*
X202286293Y-141686146D01*
X202300191Y-141616523D01*
X202312242Y-141597770D01*
X202312470Y-141597476D01*
X202318081Y-141591865D01*
X202322115Y-141585044D01*
X202322118Y-141585040D01*
X202397709Y-141457221D01*
X202397709Y-141457220D01*
X202401744Y-141450398D01*
X202418504Y-141392712D01*
X202438510Y-141323850D01*
X202447598Y-141292569D01*
X202449071Y-141273848D01*
X202450307Y-141258153D01*
X202450308Y-141258140D01*
X202450500Y-141255694D01*
X202450500Y-140824306D01*
X202450308Y-140821860D01*
X202450307Y-140821847D01*
X202448103Y-140793850D01*
X202447598Y-140787431D01*
X202414320Y-140672888D01*
X202403956Y-140637215D01*
X202403955Y-140637214D01*
X202401744Y-140629602D01*
X202367617Y-140571896D01*
X202322118Y-140494960D01*
X202322115Y-140494956D01*
X202318081Y-140488135D01*
X202312470Y-140482524D01*
X202312242Y-140482230D01*
X202286293Y-140416146D01*
X202300191Y-140346523D01*
X202312242Y-140327770D01*
X202312470Y-140327476D01*
X202318081Y-140321865D01*
X202322115Y-140315044D01*
X202322118Y-140315040D01*
X202397709Y-140187221D01*
X202397709Y-140187220D01*
X202401744Y-140180398D01*
X202405351Y-140167985D01*
X202445801Y-140028754D01*
X202447598Y-140022569D01*
X202448633Y-140009416D01*
X202450307Y-139988153D01*
X202450308Y-139988140D01*
X202450500Y-139985694D01*
X202450500Y-139554306D01*
X202450308Y-139551860D01*
X202450307Y-139551847D01*
X202448311Y-139526495D01*
X202447598Y-139517431D01*
X202413626Y-139400500D01*
X202402340Y-139361653D01*
X202402543Y-139290657D01*
X202441097Y-139231040D01*
X202505761Y-139201732D01*
X202523337Y-139200500D01*
X202975025Y-139200500D01*
X202982632Y-139200730D01*
X202991204Y-139201248D01*
X203035405Y-139203922D01*
X203102193Y-139228000D01*
X203147630Y-139290756D01*
X203167163Y-139350872D01*
X203169191Y-139421839D01*
X203132528Y-139482637D01*
X203113477Y-139497049D01*
X203056344Y-139532288D01*
X202932288Y-139656344D01*
X202840186Y-139805666D01*
X202837878Y-139812630D01*
X202837877Y-139812633D01*
X202829593Y-139837633D01*
X202785001Y-139972203D01*
X202781491Y-140006565D01*
X202774826Y-140071804D01*
X202774500Y-140074991D01*
X202774501Y-140850008D01*
X202785001Y-140952797D01*
X202797555Y-140990683D01*
X202833506Y-141099174D01*
X202840186Y-141119334D01*
X202844039Y-141125580D01*
X202844039Y-141125581D01*
X202856708Y-141146121D01*
X202932288Y-141268656D01*
X203056344Y-141392712D01*
X203062592Y-141396566D01*
X203068348Y-141401117D01*
X203066300Y-141403707D01*
X203103963Y-141445678D01*
X203115284Y-141515766D01*
X203086915Y-141580849D01*
X203067435Y-141597728D01*
X203068348Y-141598883D01*
X203062592Y-141603434D01*
X203056344Y-141607288D01*
X202932288Y-141731344D01*
X202840186Y-141880666D01*
X202837878Y-141887630D01*
X202837877Y-141887633D01*
X202803732Y-141990676D01*
X202785001Y-142047203D01*
X202779608Y-142099991D01*
X202774826Y-142146804D01*
X202774500Y-142149991D01*
X202774501Y-142925008D01*
X202785001Y-143027797D01*
X202840186Y-143194334D01*
X202932288Y-143343656D01*
X203056344Y-143467712D01*
X203205666Y-143559814D01*
X203212630Y-143562122D01*
X203212633Y-143562123D01*
X203308217Y-143593796D01*
X203372203Y-143614999D01*
X203430499Y-143620955D01*
X203471806Y-143625175D01*
X203471814Y-143625175D01*
X203474991Y-143625500D01*
X203999836Y-143625500D01*
X204525008Y-143625499D01*
X204627797Y-143614999D01*
X204691783Y-143593796D01*
X204787367Y-143562123D01*
X204787370Y-143562122D01*
X204794334Y-143559814D01*
X204943656Y-143467712D01*
X205041354Y-143370014D01*
X205103666Y-143335988D01*
X205174481Y-143341053D01*
X205181674Y-143343992D01*
X205220197Y-143361144D01*
X205315979Y-143381503D01*
X205398897Y-143399128D01*
X205398901Y-143399128D01*
X205405354Y-143400500D01*
X205594646Y-143400500D01*
X205601099Y-143399128D01*
X205601103Y-143399128D01*
X205684021Y-143381503D01*
X205779803Y-143361144D01*
X205952730Y-143284151D01*
X205964529Y-143275579D01*
X205986252Y-143259796D01*
X206053120Y-143235937D01*
X206122272Y-143252018D01*
X206171752Y-143302932D01*
X206178368Y-143317699D01*
X206206204Y-143392331D01*
X206211603Y-143399543D01*
X206211604Y-143399545D01*
X206262634Y-143467712D01*
X206292454Y-143507546D01*
X206299662Y-143512942D01*
X206400455Y-143588396D01*
X206400457Y-143588397D01*
X206407669Y-143593796D01*
X206542517Y-143644091D01*
X206550351Y-143644933D01*
X206550354Y-143644934D01*
X206594581Y-143649689D01*
X206602127Y-143650500D01*
X207499733Y-143650500D01*
X208397872Y-143650499D01*
X208401218Y-143650139D01*
X208401224Y-143650139D01*
X208429323Y-143647118D01*
X208457483Y-143644091D01*
X208464863Y-143641339D01*
X208464865Y-143641338D01*
X208515999Y-143622266D01*
X208592331Y-143593796D01*
X208599543Y-143588397D01*
X208599545Y-143588396D01*
X208700338Y-143512942D01*
X208707546Y-143507546D01*
X208737366Y-143467712D01*
X208788396Y-143399545D01*
X208788397Y-143399543D01*
X208793796Y-143392331D01*
X208844091Y-143257483D01*
X208850500Y-143197873D01*
X208850499Y-141402128D01*
X208844091Y-141342517D01*
X208835192Y-141318656D01*
X208820586Y-141279498D01*
X208793796Y-141207669D01*
X208782695Y-141192839D01*
X208712942Y-141099662D01*
X208707546Y-141092454D01*
X208694904Y-141082990D01*
X208599545Y-141011604D01*
X208599543Y-141011603D01*
X208592331Y-141006204D01*
X208515811Y-140977664D01*
X208463833Y-140958277D01*
X208406997Y-140915730D01*
X208382186Y-140849210D01*
X208397277Y-140779836D01*
X208418770Y-140751126D01*
X208538495Y-140631401D01*
X208544533Y-140622779D01*
X208670878Y-140442339D01*
X208670879Y-140442337D01*
X208674035Y-140437830D01*
X208676358Y-140432848D01*
X208676361Y-140432843D01*
X208771580Y-140228645D01*
X208771581Y-140228644D01*
X208773903Y-140223663D01*
X208783668Y-140187221D01*
X208833639Y-140000723D01*
X208833639Y-140000722D01*
X208835063Y-139995408D01*
X208855659Y-139760000D01*
X208835063Y-139524592D01*
X208826715Y-139493435D01*
X208775326Y-139301647D01*
X208775325Y-139301645D01*
X208773903Y-139296337D01*
X208771301Y-139290756D01*
X208676358Y-139087152D01*
X208676356Y-139087149D01*
X208674035Y-139082171D01*
X208538495Y-138888599D01*
X208371401Y-138721505D01*
X208366893Y-138718348D01*
X208366890Y-138718346D01*
X208188181Y-138593213D01*
X208143853Y-138537756D01*
X208136544Y-138467137D01*
X208168575Y-138403776D01*
X208188181Y-138386787D01*
X208366890Y-138261654D01*
X208366893Y-138261652D01*
X208371401Y-138258495D01*
X208538495Y-138091401D01*
X208631911Y-137957990D01*
X208670878Y-137902339D01*
X208670879Y-137902337D01*
X208674035Y-137897830D01*
X208676358Y-137892848D01*
X208676361Y-137892843D01*
X208771580Y-137688645D01*
X208771581Y-137688644D01*
X208773903Y-137683663D01*
X208778874Y-137665113D01*
X208833639Y-137460723D01*
X208833639Y-137460722D01*
X208835063Y-137455408D01*
X208855659Y-137220000D01*
X208835063Y-136984592D01*
X208824197Y-136944039D01*
X208775326Y-136761647D01*
X208775325Y-136761645D01*
X208773903Y-136756337D01*
X208757945Y-136722115D01*
X208676358Y-136547152D01*
X208676356Y-136547149D01*
X208674035Y-136542171D01*
X208538495Y-136348599D01*
X208371401Y-136181505D01*
X208366893Y-136178348D01*
X208366890Y-136178346D01*
X208182339Y-136049122D01*
X208182336Y-136049120D01*
X208177830Y-136045965D01*
X208172848Y-136043642D01*
X208172843Y-136043639D01*
X207968645Y-135948420D01*
X207968644Y-135948419D01*
X207963663Y-135946097D01*
X207958355Y-135944675D01*
X207958353Y-135944674D01*
X207740723Y-135886361D01*
X207740722Y-135886361D01*
X207735408Y-135884937D01*
X207500000Y-135864341D01*
X207264592Y-135884937D01*
X207259278Y-135886361D01*
X207259277Y-135886361D01*
X207041647Y-135944674D01*
X207041645Y-135944675D01*
X207036337Y-135946097D01*
X207031357Y-135948419D01*
X207031355Y-135948420D01*
X206827152Y-136043642D01*
X206827149Y-136043644D01*
X206822171Y-136045965D01*
X206628599Y-136181505D01*
X206461505Y-136348599D01*
X206458348Y-136353107D01*
X206458346Y-136353110D01*
X206372458Y-136475771D01*
X206317001Y-136520099D01*
X206269245Y-136529500D01*
X202523337Y-136529500D01*
X202455216Y-136509498D01*
X202408723Y-136455842D01*
X202398619Y-136385568D01*
X202402340Y-136368347D01*
X202431690Y-136267323D01*
X202447598Y-136212569D01*
X202450201Y-136179498D01*
X202450307Y-136178153D01*
X202450308Y-136178140D01*
X202450500Y-136175694D01*
X202450500Y-135744306D01*
X202450308Y-135741860D01*
X202450307Y-135741847D01*
X202448103Y-135713850D01*
X202447598Y-135707431D01*
X202416384Y-135599992D01*
X202403956Y-135557215D01*
X202403955Y-135557214D01*
X202401744Y-135549602D01*
X202381974Y-135516172D01*
X202322118Y-135414960D01*
X202322115Y-135414956D01*
X202318081Y-135408135D01*
X202312470Y-135402524D01*
X202312242Y-135402230D01*
X202286293Y-135336146D01*
X202300191Y-135266523D01*
X202312242Y-135247770D01*
X202312470Y-135247476D01*
X202318081Y-135241865D01*
X202322115Y-135235044D01*
X202322118Y-135235040D01*
X202397709Y-135107221D01*
X202397709Y-135107220D01*
X202401744Y-135100398D01*
X202407792Y-135079583D01*
X202445801Y-134948754D01*
X202447598Y-134942569D01*
X202449840Y-134914086D01*
X202450307Y-134908153D01*
X202450308Y-134908140D01*
X202450500Y-134905694D01*
X202450500Y-134474306D01*
X202450308Y-134471860D01*
X202450307Y-134471847D01*
X202448103Y-134443850D01*
X202447598Y-134437431D01*
X202401744Y-134279602D01*
X202346022Y-134185380D01*
X202322115Y-134144956D01*
X202318081Y-134138135D01*
X202201865Y-134021919D01*
X202141303Y-133986103D01*
X202067221Y-133942291D01*
X202067220Y-133942291D01*
X202060398Y-133938256D01*
X202052786Y-133936045D01*
X202052785Y-133936044D01*
X201908754Y-133894199D01*
X201908755Y-133894199D01*
X201902569Y-133892402D01*
X201889416Y-133891367D01*
X201868153Y-133889693D01*
X201868140Y-133889692D01*
X201865694Y-133889500D01*
X200084306Y-133889500D01*
X200081860Y-133889692D01*
X200081847Y-133889693D01*
X200060584Y-133891367D01*
X200047431Y-133892402D01*
X200041245Y-133894199D01*
X200041246Y-133894199D01*
X199897215Y-133936044D01*
X199897214Y-133936045D01*
X199889602Y-133938256D01*
X199882777Y-133942292D01*
X199882773Y-133942294D01*
X199832622Y-133971953D01*
X199768483Y-133989500D01*
X198334965Y-133989500D01*
X198327358Y-133989270D01*
X198275003Y-133986103D01*
X198275001Y-133986103D01*
X198267394Y-133985643D01*
X198249593Y-133988905D01*
X198208295Y-133996473D01*
X198200771Y-133997618D01*
X198163493Y-134002145D01*
X198141128Y-134004860D01*
X198131828Y-134008387D01*
X198109856Y-134014512D01*
X198108272Y-134014802D01*
X198107559Y-134014933D01*
X198107558Y-134014933D01*
X198100068Y-134016306D01*
X198045272Y-134040968D01*
X198038240Y-134043880D01*
X197982070Y-134065182D01*
X197975799Y-134069510D01*
X197975796Y-134069512D01*
X197973878Y-134070836D01*
X197954016Y-134082039D01*
X197946163Y-134085573D01*
X197944941Y-134086123D01*
X197944693Y-134085573D01*
X197905214Y-134098840D01*
X197905354Y-134099500D01*
X197720197Y-134138856D01*
X197547270Y-134215849D01*
X197546376Y-134213842D01*
X197487310Y-134228180D01*
X197420215Y-134204969D01*
X197384834Y-134166461D01*
X197372119Y-134144961D01*
X197372114Y-134144955D01*
X197368081Y-134138135D01*
X197251865Y-134021919D01*
X197191303Y-133986103D01*
X197117221Y-133942291D01*
X197117220Y-133942291D01*
X197110398Y-133938256D01*
X197102786Y-133936045D01*
X197102785Y-133936044D01*
X196958754Y-133894199D01*
X196958755Y-133894199D01*
X196952569Y-133892402D01*
X196939416Y-133891367D01*
X196918153Y-133889693D01*
X196918140Y-133889692D01*
X196915694Y-133889500D01*
X195134306Y-133889500D01*
X195131860Y-133889692D01*
X195131847Y-133889693D01*
X195110584Y-133891367D01*
X195097431Y-133892402D01*
X195091245Y-133894199D01*
X195091246Y-133894199D01*
X194947215Y-133936044D01*
X194947214Y-133936045D01*
X194939602Y-133938256D01*
X194932777Y-133942292D01*
X194932773Y-133942294D01*
X194882622Y-133971953D01*
X194818483Y-133989500D01*
X192837687Y-133989500D01*
X192765417Y-133966713D01*
X192739125Y-133948303D01*
X192673662Y-133902466D01*
X192668684Y-133900145D01*
X192668681Y-133900143D01*
X192478432Y-133811429D01*
X192478431Y-133811429D01*
X192473450Y-133809106D01*
X192468142Y-133807684D01*
X192468140Y-133807683D01*
X192402748Y-133790161D01*
X192260068Y-133751930D01*
X192040000Y-133732677D01*
X191819932Y-133751930D01*
X191677252Y-133790161D01*
X191611860Y-133807683D01*
X191611858Y-133807684D01*
X191606550Y-133809106D01*
X191601569Y-133811428D01*
X191601568Y-133811429D01*
X191411320Y-133900143D01*
X191411317Y-133900145D01*
X191406339Y-133902466D01*
X191225380Y-134029174D01*
X191069174Y-134185380D01*
X190942466Y-134366339D01*
X190940145Y-134371317D01*
X190940143Y-134371320D01*
X190884195Y-134491301D01*
X190837278Y-134544586D01*
X190769000Y-134564047D01*
X190701040Y-134543505D01*
X190655805Y-134491301D01*
X190599857Y-134371320D01*
X190599855Y-134371317D01*
X190597534Y-134366339D01*
X190470826Y-134185380D01*
X190314620Y-134029174D01*
X190310112Y-134026017D01*
X190310109Y-134026015D01*
X190138171Y-133905623D01*
X190138168Y-133905621D01*
X190133662Y-133902466D01*
X190128680Y-133900143D01*
X190128675Y-133900140D01*
X189938432Y-133811429D01*
X189938431Y-133811429D01*
X189933450Y-133809106D01*
X189928142Y-133807684D01*
X189928140Y-133807683D01*
X189862748Y-133790161D01*
X189720068Y-133751930D01*
X189500000Y-133732677D01*
X189279932Y-133751930D01*
X189137252Y-133790161D01*
X189071860Y-133807683D01*
X189071858Y-133807684D01*
X189066550Y-133809106D01*
X189061569Y-133811428D01*
X189061568Y-133811429D01*
X188871320Y-133900143D01*
X188871317Y-133900145D01*
X188866339Y-133902466D01*
X188685380Y-134029174D01*
X188529174Y-134185380D01*
X188402466Y-134366339D01*
X188400145Y-134371317D01*
X188400143Y-134371320D01*
X188344195Y-134491301D01*
X188297278Y-134544586D01*
X188229000Y-134564047D01*
X188161040Y-134543505D01*
X188115805Y-134491301D01*
X188059857Y-134371320D01*
X188059855Y-134371317D01*
X188057534Y-134366339D01*
X187930826Y-134185380D01*
X187774620Y-134029174D01*
X187770112Y-134026017D01*
X187770109Y-134026015D01*
X187598171Y-133905623D01*
X187598168Y-133905621D01*
X187593662Y-133902466D01*
X187588680Y-133900143D01*
X187588675Y-133900140D01*
X187398432Y-133811429D01*
X187398431Y-133811429D01*
X187393450Y-133809106D01*
X187388142Y-133807684D01*
X187388140Y-133807683D01*
X187322748Y-133790161D01*
X187180068Y-133751930D01*
X186960000Y-133732677D01*
X186739932Y-133751930D01*
X186597252Y-133790161D01*
X186531860Y-133807683D01*
X186531858Y-133807684D01*
X186526550Y-133809106D01*
X186521569Y-133811428D01*
X186521568Y-133811429D01*
X186331320Y-133900143D01*
X186331317Y-133900145D01*
X186326339Y-133902466D01*
X186145380Y-134029174D01*
X185989174Y-134185380D01*
X185862466Y-134366339D01*
X185860145Y-134371317D01*
X185860143Y-134371320D01*
X185781286Y-134540429D01*
X185769106Y-134566550D01*
X185767684Y-134571858D01*
X185767683Y-134571860D01*
X185756644Y-134613058D01*
X185711930Y-134779932D01*
X185692677Y-135000000D01*
X185711930Y-135220068D01*
X185734929Y-135305901D01*
X185764152Y-135414960D01*
X185769106Y-135433450D01*
X185771429Y-135438431D01*
X185771429Y-135438432D01*
X185860140Y-135628675D01*
X185860143Y-135628680D01*
X185862466Y-135633662D01*
X185865622Y-135638169D01*
X185865623Y-135638171D01*
X185981633Y-135803850D01*
X185989174Y-135814620D01*
X186145380Y-135970826D01*
X186149888Y-135973983D01*
X186149891Y-135973985D01*
X186321829Y-136094377D01*
X186326338Y-136097534D01*
X186331320Y-136099857D01*
X186331325Y-136099860D01*
X186501461Y-136179195D01*
X186526550Y-136190894D01*
X186531858Y-136192316D01*
X186531860Y-136192317D01*
X186583486Y-136206150D01*
X186739932Y-136248070D01*
X186960000Y-136267323D01*
X187180068Y-136248070D01*
X187336514Y-136206150D01*
X187388140Y-136192317D01*
X187388142Y-136192316D01*
X187393450Y-136190894D01*
X187418539Y-136179195D01*
X187588675Y-136099860D01*
X187588680Y-136099857D01*
X187593662Y-136097534D01*
X187598171Y-136094377D01*
X187770109Y-135973985D01*
X187770112Y-135973983D01*
X187774620Y-135970826D01*
X187930826Y-135814620D01*
X187938368Y-135803850D01*
X188054377Y-135638171D01*
X188054378Y-135638169D01*
X188057534Y-135633662D01*
X188059857Y-135628680D01*
X188059860Y-135628675D01*
X188115805Y-135508699D01*
X188162722Y-135455414D01*
X188230999Y-135435953D01*
X188298959Y-135456495D01*
X188344195Y-135508699D01*
X188400140Y-135628675D01*
X188400143Y-135628680D01*
X188402466Y-135633662D01*
X188405622Y-135638169D01*
X188405623Y-135638171D01*
X188521633Y-135803850D01*
X188529174Y-135814620D01*
X188685380Y-135970826D01*
X188689888Y-135973983D01*
X188689891Y-135973985D01*
X188861829Y-136094377D01*
X188866338Y-136097534D01*
X188871320Y-136099857D01*
X188871325Y-136099860D01*
X189041461Y-136179195D01*
X189066550Y-136190894D01*
X189071858Y-136192316D01*
X189071860Y-136192317D01*
X189123486Y-136206150D01*
X189279932Y-136248070D01*
X189500000Y-136267323D01*
X189720068Y-136248070D01*
X189876514Y-136206150D01*
X189928140Y-136192317D01*
X189928142Y-136192316D01*
X189933450Y-136190894D01*
X189958539Y-136179195D01*
X190128675Y-136099860D01*
X190128680Y-136099857D01*
X190133662Y-136097534D01*
X190138171Y-136094377D01*
X190310109Y-135973985D01*
X190310112Y-135973983D01*
X190314620Y-135970826D01*
X190470826Y-135814620D01*
X190478368Y-135803850D01*
X190594377Y-135638171D01*
X190594378Y-135638169D01*
X190597534Y-135633662D01*
X190599857Y-135628680D01*
X190599860Y-135628675D01*
X190655805Y-135508699D01*
X190702722Y-135455414D01*
X190770999Y-135435953D01*
X190838959Y-135456495D01*
X190884195Y-135508699D01*
X190940140Y-135628675D01*
X190940143Y-135628680D01*
X190942466Y-135633662D01*
X190945622Y-135638169D01*
X190945623Y-135638171D01*
X191061633Y-135803850D01*
X191069174Y-135814620D01*
X191225380Y-135970826D01*
X191229888Y-135973983D01*
X191229891Y-135973985D01*
X191401829Y-136094377D01*
X191406338Y-136097534D01*
X191411320Y-136099857D01*
X191411325Y-136099860D01*
X191581461Y-136179195D01*
X191606550Y-136190894D01*
X191611858Y-136192316D01*
X191611860Y-136192317D01*
X191663486Y-136206150D01*
X191819932Y-136248070D01*
X192040000Y-136267323D01*
X192260068Y-136248070D01*
X192416514Y-136206150D01*
X192468140Y-136192317D01*
X192468142Y-136192316D01*
X192473450Y-136190894D01*
X192498539Y-136179195D01*
X192668675Y-136099860D01*
X192668680Y-136099857D01*
X192673662Y-136097534D01*
X192678171Y-136094377D01*
X192850109Y-135973985D01*
X192850112Y-135973983D01*
X192854620Y-135970826D01*
X193010826Y-135814620D01*
X193018368Y-135803850D01*
X193134377Y-135638171D01*
X193134378Y-135638169D01*
X193137534Y-135633662D01*
X193139857Y-135628680D01*
X193139860Y-135628675D01*
X193216998Y-135463250D01*
X193263915Y-135409965D01*
X193331193Y-135390500D01*
X194314653Y-135390500D01*
X194382774Y-135410502D01*
X194429267Y-135464158D01*
X194439371Y-135534432D01*
X194409877Y-135599012D01*
X194403748Y-135605595D01*
X193937447Y-136071896D01*
X193874548Y-136106048D01*
X193726660Y-136137482D01*
X193726658Y-136137483D01*
X193720197Y-136138856D01*
X193547270Y-136215849D01*
X193541929Y-136219729D01*
X193541928Y-136219730D01*
X193454682Y-136283118D01*
X193394129Y-136327112D01*
X193389716Y-136332014D01*
X193389714Y-136332015D01*
X193276822Y-136457394D01*
X193267467Y-136467784D01*
X193264164Y-136473505D01*
X193193994Y-136595044D01*
X193172821Y-136631716D01*
X193156969Y-136680502D01*
X193122224Y-136787436D01*
X193082150Y-136846042D01*
X193016754Y-136873679D01*
X193002391Y-136874500D01*
X192105385Y-136874501D01*
X191974992Y-136874501D01*
X191872203Y-136885001D01*
X191815825Y-136903683D01*
X191712633Y-136937877D01*
X191712630Y-136937878D01*
X191705666Y-136940186D01*
X191556344Y-137032288D01*
X191432288Y-137156344D01*
X191340186Y-137305666D01*
X191285001Y-137472203D01*
X191282810Y-137493653D01*
X191274826Y-137571804D01*
X191274500Y-137574991D01*
X191274500Y-137682653D01*
X191254498Y-137750774D01*
X191237595Y-137771748D01*
X191089095Y-137920248D01*
X191026783Y-137954274D01*
X190955968Y-137949209D01*
X190910905Y-137920248D01*
X190762404Y-137771747D01*
X190728378Y-137709435D01*
X190725499Y-137682652D01*
X190725499Y-137574992D01*
X190714999Y-137472203D01*
X190659814Y-137305666D01*
X190567712Y-137156344D01*
X190443656Y-137032288D01*
X190294334Y-136940186D01*
X190287370Y-136937878D01*
X190287367Y-136937877D01*
X190181843Y-136902910D01*
X190127797Y-136885001D01*
X190069501Y-136879045D01*
X190028194Y-136874825D01*
X190028186Y-136874825D01*
X190025009Y-136874500D01*
X189500164Y-136874500D01*
X188974992Y-136874501D01*
X188872203Y-136885001D01*
X188815825Y-136903683D01*
X188712633Y-136937877D01*
X188712630Y-136937878D01*
X188705666Y-136940186D01*
X188556344Y-137032288D01*
X188432288Y-137156344D01*
X188340186Y-137305666D01*
X188285001Y-137472203D01*
X188282810Y-137493653D01*
X188274826Y-137571804D01*
X188274500Y-137574991D01*
X188274501Y-138350008D01*
X188285001Y-138452797D01*
X188287166Y-138459330D01*
X188333614Y-138599500D01*
X188340186Y-138619334D01*
X188432288Y-138768656D01*
X188556344Y-138892712D01*
X188643659Y-138946568D01*
X188698455Y-138980366D01*
X188705666Y-138984814D01*
X188712630Y-138987122D01*
X188712633Y-138987123D01*
X188805190Y-139017793D01*
X188872203Y-139039999D01*
X188930499Y-139045955D01*
X188971806Y-139050175D01*
X188971814Y-139050175D01*
X188974991Y-139050500D01*
X189055468Y-139050500D01*
X189986396Y-139050499D01*
X190054517Y-139070501D01*
X190101010Y-139124157D01*
X190111706Y-139163328D01*
X190113119Y-139176767D01*
X190114326Y-139188256D01*
X190172821Y-139368284D01*
X190176124Y-139374006D01*
X190176125Y-139374007D01*
X190215257Y-139441786D01*
X190267467Y-139532216D01*
X190271885Y-139537123D01*
X190271886Y-139537124D01*
X190379233Y-139656344D01*
X190394129Y-139672888D01*
X190399468Y-139676767D01*
X190521565Y-139765475D01*
X190547270Y-139784151D01*
X190720197Y-139861144D01*
X190818212Y-139881978D01*
X190898897Y-139899128D01*
X190898901Y-139899128D01*
X190905354Y-139900500D01*
X191094646Y-139900500D01*
X191101099Y-139899128D01*
X191101103Y-139899128D01*
X191181788Y-139881978D01*
X191279803Y-139861144D01*
X191452730Y-139784151D01*
X191478436Y-139765475D01*
X191600532Y-139676767D01*
X191605871Y-139672888D01*
X191620768Y-139656344D01*
X191728114Y-139537124D01*
X191728115Y-139537123D01*
X191732533Y-139532216D01*
X191784743Y-139441786D01*
X191823875Y-139374007D01*
X191823876Y-139374006D01*
X191827179Y-139368284D01*
X191885674Y-139188256D01*
X191887205Y-139173695D01*
X191888294Y-139163329D01*
X191915308Y-139097672D01*
X191973530Y-139057043D01*
X192013604Y-139050500D01*
X192944487Y-139050499D01*
X193025008Y-139050499D01*
X193127797Y-139039999D01*
X193194810Y-139017793D01*
X193287367Y-138987123D01*
X193287370Y-138987122D01*
X193294334Y-138984814D01*
X193333034Y-138960944D01*
X193401511Y-138942209D01*
X193469249Y-138963469D01*
X193493489Y-138984634D01*
X193522866Y-139017793D01*
X193532071Y-139028183D01*
X193538343Y-139032512D01*
X193538345Y-139032514D01*
X193581518Y-139062314D01*
X193587648Y-139066825D01*
X193628941Y-139099176D01*
X193628947Y-139099180D01*
X193634944Y-139103878D01*
X193644016Y-139107961D01*
X193663878Y-139119163D01*
X193672070Y-139124818D01*
X193728249Y-139146124D01*
X193735282Y-139149037D01*
X193790069Y-139173695D01*
X193799862Y-139175489D01*
X193821829Y-139181613D01*
X193831128Y-139185140D01*
X193838696Y-139186059D01*
X193890764Y-139192382D01*
X193898285Y-139193527D01*
X193949894Y-139202984D01*
X193949897Y-139202984D01*
X193957394Y-139204358D01*
X193965000Y-139203898D01*
X193965002Y-139203898D01*
X194017367Y-139200730D01*
X194024975Y-139200500D01*
X194818483Y-139200500D01*
X194882622Y-139218047D01*
X194932773Y-139247706D01*
X194932777Y-139247708D01*
X194939602Y-139251744D01*
X194947214Y-139253955D01*
X194947215Y-139253956D01*
X195037788Y-139280270D01*
X195097431Y-139297598D01*
X195110584Y-139298633D01*
X195131847Y-139300307D01*
X195131860Y-139300308D01*
X195134306Y-139300500D01*
X196915694Y-139300500D01*
X196918140Y-139300308D01*
X196918153Y-139300307D01*
X196939416Y-139298633D01*
X196952569Y-139297598D01*
X197012212Y-139280270D01*
X197102785Y-139253956D01*
X197102786Y-139253955D01*
X197110398Y-139251744D01*
X197155688Y-139224960D01*
X197245044Y-139172115D01*
X197251865Y-139168081D01*
X197368081Y-139051865D01*
X197382087Y-139028183D01*
X197447710Y-138917219D01*
X197451744Y-138910398D01*
X197453956Y-138902785D01*
X197456759Y-138896307D01*
X197502169Y-138841732D01*
X197569875Y-138820370D01*
X197638383Y-138839005D01*
X197681516Y-138883345D01*
X197745077Y-138993435D01*
X197767467Y-139032216D01*
X197771885Y-139037123D01*
X197771886Y-139037124D01*
X197870031Y-139146124D01*
X197894129Y-139172888D01*
X197899468Y-139176767D01*
X197997108Y-139247706D01*
X198047270Y-139284151D01*
X198220197Y-139361144D01*
X198318212Y-139381978D01*
X198398897Y-139399128D01*
X198398901Y-139399128D01*
X198405354Y-139400500D01*
X198594646Y-139400500D01*
X198601099Y-139399128D01*
X198601103Y-139399128D01*
X198681788Y-139381978D01*
X198779803Y-139361144D01*
X198952730Y-139284151D01*
X199002893Y-139247706D01*
X199100532Y-139176767D01*
X199105871Y-139172888D01*
X199129970Y-139146124D01*
X199228114Y-139037124D01*
X199228115Y-139037123D01*
X199232533Y-139032216D01*
X199254923Y-138993435D01*
X199318484Y-138883345D01*
X199369867Y-138834352D01*
X199439580Y-138820916D01*
X199505491Y-138847302D01*
X199543241Y-138896307D01*
X199546044Y-138902785D01*
X199548256Y-138910398D01*
X199552290Y-138917219D01*
X199627882Y-139045040D01*
X199627885Y-139045044D01*
X199631919Y-139051865D01*
X199637530Y-139057476D01*
X199637758Y-139057770D01*
X199663707Y-139123854D01*
X199649809Y-139193477D01*
X199637758Y-139212230D01*
X199637530Y-139212524D01*
X199631919Y-139218135D01*
X199627885Y-139224956D01*
X199627882Y-139224960D01*
X199572677Y-139318308D01*
X199548256Y-139359602D01*
X199546045Y-139367214D01*
X199546044Y-139367215D01*
X199536374Y-139400500D01*
X199502402Y-139517431D01*
X199501689Y-139526495D01*
X199499693Y-139551847D01*
X199499692Y-139551860D01*
X199499500Y-139554306D01*
X199499500Y-139985694D01*
X199499692Y-139988140D01*
X199499693Y-139988153D01*
X199501367Y-140009416D01*
X199502402Y-140022569D01*
X199504199Y-140028754D01*
X199546617Y-140174757D01*
X199546414Y-140245753D01*
X199507860Y-140305370D01*
X199443196Y-140334678D01*
X199432577Y-140335104D01*
X199432610Y-140335643D01*
X199425002Y-140336103D01*
X199417394Y-140335643D01*
X199399593Y-140338905D01*
X199358295Y-140346473D01*
X199350771Y-140347618D01*
X199313493Y-140352145D01*
X199291128Y-140354860D01*
X199281828Y-140358387D01*
X199259856Y-140364512D01*
X199258272Y-140364802D01*
X199257559Y-140364933D01*
X199257558Y-140364933D01*
X199250068Y-140366306D01*
X199195272Y-140390968D01*
X199188240Y-140393880D01*
X199132070Y-140415182D01*
X199125799Y-140419510D01*
X199125796Y-140419512D01*
X199123878Y-140420836D01*
X199104016Y-140432039D01*
X199094943Y-140436122D01*
X199088941Y-140440824D01*
X199088938Y-140440826D01*
X199047651Y-140473172D01*
X199041522Y-140477683D01*
X199026380Y-140488135D01*
X198992071Y-140511817D01*
X198973999Y-140532216D01*
X198952225Y-140556794D01*
X198947007Y-140562336D01*
X198522336Y-140987007D01*
X198516794Y-140992225D01*
X198471817Y-141032071D01*
X198467489Y-141038341D01*
X198437683Y-141081522D01*
X198433172Y-141087651D01*
X198400826Y-141128938D01*
X198400824Y-141128941D01*
X198396122Y-141134943D01*
X198392993Y-141141895D01*
X198392040Y-141144013D01*
X198380836Y-141163878D01*
X198375182Y-141172070D01*
X198367046Y-141193524D01*
X198353879Y-141228242D01*
X198350976Y-141235251D01*
X198326305Y-141290068D01*
X198324511Y-141299859D01*
X198318387Y-141321826D01*
X198314860Y-141331128D01*
X198313082Y-141345773D01*
X198307621Y-141390750D01*
X198306477Y-141398270D01*
X198295642Y-141457394D01*
X198296102Y-141465000D01*
X198296102Y-141465001D01*
X198299270Y-141517367D01*
X198299500Y-141524975D01*
X198299500Y-142157653D01*
X198279498Y-142225774D01*
X198262595Y-142246749D01*
X197746747Y-142762596D01*
X197684435Y-142796621D01*
X197657652Y-142799500D01*
X197596579Y-142799500D01*
X197528458Y-142779498D01*
X197481965Y-142725842D01*
X197471861Y-142655568D01*
X197475580Y-142638353D01*
X197497598Y-142562569D01*
X197498633Y-142549416D01*
X197500307Y-142528153D01*
X197500308Y-142528140D01*
X197500500Y-142525694D01*
X197500500Y-142094306D01*
X197500308Y-142091860D01*
X197500307Y-142091847D01*
X197498103Y-142063850D01*
X197497598Y-142057431D01*
X197451744Y-141899602D01*
X197410976Y-141830666D01*
X197372118Y-141764960D01*
X197372115Y-141764956D01*
X197368081Y-141758135D01*
X197362470Y-141752524D01*
X197362242Y-141752230D01*
X197336293Y-141686146D01*
X197350191Y-141616523D01*
X197362242Y-141597770D01*
X197362470Y-141597476D01*
X197368081Y-141591865D01*
X197372115Y-141585044D01*
X197372118Y-141585040D01*
X197447709Y-141457221D01*
X197447709Y-141457220D01*
X197451744Y-141450398D01*
X197468504Y-141392712D01*
X197488510Y-141323850D01*
X197497598Y-141292569D01*
X197499071Y-141273848D01*
X197500307Y-141258153D01*
X197500308Y-141258140D01*
X197500500Y-141255694D01*
X197500500Y-140824306D01*
X197500308Y-140821860D01*
X197500307Y-140821847D01*
X197498103Y-140793850D01*
X197497598Y-140787431D01*
X197464320Y-140672888D01*
X197453956Y-140637215D01*
X197453955Y-140637214D01*
X197451744Y-140629602D01*
X197382087Y-140511817D01*
X197372115Y-140494956D01*
X197368081Y-140488135D01*
X197251865Y-140371919D01*
X197235091Y-140361999D01*
X197117221Y-140292291D01*
X197117220Y-140292291D01*
X197110398Y-140288256D01*
X197102786Y-140286045D01*
X197102785Y-140286044D01*
X196958754Y-140244199D01*
X196958755Y-140244199D01*
X196952569Y-140242402D01*
X196939416Y-140241367D01*
X196918153Y-140239693D01*
X196918140Y-140239692D01*
X196915694Y-140239500D01*
X195134306Y-140239500D01*
X195131860Y-140239692D01*
X195131847Y-140239693D01*
X195110584Y-140241367D01*
X195097431Y-140242402D01*
X195091245Y-140244199D01*
X195091246Y-140244199D01*
X194947215Y-140286044D01*
X194947214Y-140286045D01*
X194939602Y-140288256D01*
X194932777Y-140292292D01*
X194932773Y-140292294D01*
X194882622Y-140321953D01*
X194818483Y-140339500D01*
X193984965Y-140339500D01*
X193977358Y-140339270D01*
X193925003Y-140336103D01*
X193925001Y-140336103D01*
X193917394Y-140335643D01*
X193899593Y-140338905D01*
X193858295Y-140346473D01*
X193850771Y-140347618D01*
X193813493Y-140352145D01*
X193791128Y-140354860D01*
X193781828Y-140358387D01*
X193759856Y-140364512D01*
X193758272Y-140364802D01*
X193757559Y-140364933D01*
X193757558Y-140364933D01*
X193750068Y-140366306D01*
X193695272Y-140390968D01*
X193688240Y-140393880D01*
X193632070Y-140415182D01*
X193625799Y-140419510D01*
X193625796Y-140419512D01*
X193623878Y-140420836D01*
X193604016Y-140432039D01*
X193594943Y-140436122D01*
X193588941Y-140440824D01*
X193588938Y-140440826D01*
X193547651Y-140473172D01*
X193541522Y-140477683D01*
X193526380Y-140488135D01*
X193492071Y-140511817D01*
X193473999Y-140532216D01*
X193452225Y-140556794D01*
X193447007Y-140562336D01*
X193437447Y-140571896D01*
X193374548Y-140606048D01*
X193226660Y-140637482D01*
X193226658Y-140637483D01*
X193220197Y-140638856D01*
X193047270Y-140715849D01*
X192894129Y-140827112D01*
X192889716Y-140832014D01*
X192889714Y-140832015D01*
X192828493Y-140900008D01*
X192767467Y-140967784D01*
X192764164Y-140973505D01*
X192676804Y-141124818D01*
X192672821Y-141131716D01*
X192659709Y-141172070D01*
X192642479Y-141225098D01*
X192602405Y-141283703D01*
X192537008Y-141311340D01*
X192502829Y-141309686D01*
X192502797Y-141310001D01*
X192444501Y-141304045D01*
X192403194Y-141299825D01*
X192403186Y-141299825D01*
X192400009Y-141299500D01*
X192000125Y-141299500D01*
X191599992Y-141299501D01*
X191497203Y-141310001D01*
X191455416Y-141323848D01*
X191337633Y-141362877D01*
X191337630Y-141362878D01*
X191330666Y-141365186D01*
X191181344Y-141457288D01*
X191089095Y-141549537D01*
X191026783Y-141583563D01*
X190955968Y-141578498D01*
X190910905Y-141549537D01*
X190818656Y-141457288D01*
X190669334Y-141365186D01*
X190662370Y-141362878D01*
X190662367Y-141362877D01*
X190544584Y-141323848D01*
X190502797Y-141310001D01*
X190444501Y-141304045D01*
X190403194Y-141299825D01*
X190403186Y-141299825D01*
X190400009Y-141299500D01*
X190000125Y-141299500D01*
X189599992Y-141299501D01*
X189497203Y-141310001D01*
X189455416Y-141323848D01*
X189337633Y-141362877D01*
X189337630Y-141362878D01*
X189330666Y-141365186D01*
X189181344Y-141457288D01*
X189057288Y-141581344D01*
X188965186Y-141730666D01*
X188964745Y-141730394D01*
X188921029Y-141780038D01*
X188853757Y-141799500D01*
X188646243Y-141799500D01*
X188578122Y-141779498D01*
X188535238Y-141730404D01*
X188534814Y-141730666D01*
X188533246Y-141728124D01*
X188442712Y-141581344D01*
X188318656Y-141457288D01*
X188169334Y-141365186D01*
X188162370Y-141362878D01*
X188162367Y-141362877D01*
X188044584Y-141323848D01*
X188002797Y-141310001D01*
X187944501Y-141304045D01*
X187903194Y-141299825D01*
X187903186Y-141299825D01*
X187900009Y-141299500D01*
X187774870Y-141299500D01*
X187706749Y-141279498D01*
X187660256Y-141225842D01*
X187650152Y-141155568D01*
X187681234Y-141089189D01*
X187688138Y-141081522D01*
X187732533Y-141032216D01*
X187776589Y-140955909D01*
X187823875Y-140874007D01*
X187823876Y-140874006D01*
X187827179Y-140868284D01*
X187885674Y-140688256D01*
X187890584Y-140641545D01*
X187904770Y-140506565D01*
X187905460Y-140500000D01*
X187898746Y-140436122D01*
X187886364Y-140318307D01*
X187886364Y-140318305D01*
X187885674Y-140311744D01*
X187827179Y-140131716D01*
X187794430Y-140074992D01*
X187735836Y-139973505D01*
X187732533Y-139967784D01*
X187637750Y-139862517D01*
X187610286Y-139832015D01*
X187610284Y-139832014D01*
X187605871Y-139827112D01*
X187452730Y-139715849D01*
X187279803Y-139638856D01*
X187181788Y-139618022D01*
X187101103Y-139600872D01*
X187101099Y-139600872D01*
X187094646Y-139599500D01*
X186905354Y-139599500D01*
X186898901Y-139600872D01*
X186898897Y-139600872D01*
X186818212Y-139618022D01*
X186720197Y-139638856D01*
X186547270Y-139715849D01*
X186394129Y-139827112D01*
X186389716Y-139832014D01*
X186389714Y-139832015D01*
X186362250Y-139862517D01*
X186267467Y-139967784D01*
X186264164Y-139973505D01*
X186205571Y-140074992D01*
X186172821Y-140131716D01*
X186114326Y-140311744D01*
X186109511Y-140357563D01*
X186109210Y-140360423D01*
X186082197Y-140426080D01*
X186072995Y-140436348D01*
X185246747Y-141262596D01*
X185184435Y-141296622D01*
X185157652Y-141299501D01*
X185099992Y-141299501D01*
X184997203Y-141310001D01*
X184955416Y-141323848D01*
X184837633Y-141362877D01*
X184837630Y-141362878D01*
X184830666Y-141365186D01*
X184681344Y-141457288D01*
X184557288Y-141581344D01*
X184465186Y-141730666D01*
X184462878Y-141737630D01*
X184462877Y-141737633D01*
X184434119Y-141824419D01*
X184410001Y-141897203D01*
X184404045Y-141955499D01*
X184400452Y-141990676D01*
X184399500Y-141999991D01*
X183199355Y-141999991D01*
X183196268Y-141990676D01*
X183162123Y-141887633D01*
X183162122Y-141887630D01*
X183159814Y-141880666D01*
X183067712Y-141731344D01*
X182943656Y-141607288D01*
X182937408Y-141603434D01*
X182931652Y-141598883D01*
X182933700Y-141596293D01*
X182896037Y-141554322D01*
X182884716Y-141484234D01*
X182913085Y-141419151D01*
X182932565Y-141402272D01*
X182931652Y-141401117D01*
X182937408Y-141396566D01*
X182943656Y-141392712D01*
X183067712Y-141268656D01*
X183072832Y-141260355D01*
X183074069Y-141259242D01*
X183076119Y-141256650D01*
X183076562Y-141257000D01*
X183125616Y-141212877D01*
X183180074Y-141200500D01*
X183475025Y-141200500D01*
X183482633Y-141200730D01*
X183534999Y-141203898D01*
X183535000Y-141203898D01*
X183542606Y-141204358D01*
X183601730Y-141193523D01*
X183609248Y-141192379D01*
X183668872Y-141185140D01*
X183678174Y-141181613D01*
X183700137Y-141175490D01*
X183709932Y-141173695D01*
X183764749Y-141149024D01*
X183771758Y-141146121D01*
X183782901Y-141141895D01*
X183827930Y-141124818D01*
X183834198Y-141120491D01*
X183834201Y-141120490D01*
X183836122Y-141119164D01*
X183855984Y-141107961D01*
X183865057Y-141103878D01*
X183871059Y-141099176D01*
X183871062Y-141099174D01*
X183912349Y-141066828D01*
X183918478Y-141062317D01*
X183961659Y-141032511D01*
X183967929Y-141028183D01*
X184007775Y-140983206D01*
X184012993Y-140977664D01*
X184062553Y-140928104D01*
X184125452Y-140893952D01*
X184273340Y-140862518D01*
X184273342Y-140862517D01*
X184279803Y-140861144D01*
X184452730Y-140784151D01*
X184605871Y-140672888D01*
X184634093Y-140641545D01*
X184728114Y-140537124D01*
X184728115Y-140537123D01*
X184732533Y-140532216D01*
X184799546Y-140416146D01*
X184823875Y-140374007D01*
X184823876Y-140374006D01*
X184827179Y-140368284D01*
X184885674Y-140188256D01*
X184891617Y-140131716D01*
X184904770Y-140006565D01*
X184905460Y-140000000D01*
X184902675Y-139973505D01*
X184886364Y-139818307D01*
X184886364Y-139818305D01*
X184885674Y-139811744D01*
X184827179Y-139631716D01*
X184823357Y-139625095D01*
X184735836Y-139473505D01*
X184735835Y-139473504D01*
X184732533Y-139467784D01*
X184716070Y-139449500D01*
X184610286Y-139332015D01*
X184610284Y-139332014D01*
X184605871Y-139327112D01*
X184505180Y-139253956D01*
X184458072Y-139219730D01*
X184458071Y-139219729D01*
X184452730Y-139215849D01*
X184279803Y-139138856D01*
X184181788Y-139118022D01*
X184101103Y-139100872D01*
X184101099Y-139100872D01*
X184094646Y-139099500D01*
X183905354Y-139099500D01*
X183898901Y-139100872D01*
X183898897Y-139100872D01*
X183818212Y-139118022D01*
X183720197Y-139138856D01*
X183547270Y-139215849D01*
X183541929Y-139219729D01*
X183541928Y-139219730D01*
X183494820Y-139253956D01*
X183394129Y-139327112D01*
X183389716Y-139332014D01*
X183389714Y-139332015D01*
X183283930Y-139449500D01*
X183267467Y-139467784D01*
X183264167Y-139473500D01*
X183264164Y-139473504D01*
X183236554Y-139521327D01*
X183218934Y-139551847D01*
X183207437Y-139571760D01*
X183156055Y-139620753D01*
X183086341Y-139634190D01*
X183020430Y-139607803D01*
X183009223Y-139597855D01*
X182943656Y-139532288D01*
X182929976Y-139523850D01*
X182860353Y-139480906D01*
X182812875Y-139428120D01*
X182800500Y-139373665D01*
X182800500Y-137339981D01*
X182820502Y-137271860D01*
X182849109Y-137240549D01*
X183015633Y-137110938D01*
X183015635Y-137110936D01*
X183019744Y-137107738D01*
X183188164Y-136924785D01*
X183214613Y-136884302D01*
X183321321Y-136720973D01*
X183321323Y-136720969D01*
X183324173Y-136716607D01*
X183326268Y-136711831D01*
X183421970Y-136493653D01*
X183421971Y-136493651D01*
X183424063Y-136488881D01*
X183430111Y-136465001D01*
X183483827Y-136252880D01*
X183483827Y-136252879D01*
X183485108Y-136247821D01*
X183486731Y-136228242D01*
X183505213Y-136005189D01*
X183505643Y-136000000D01*
X183501369Y-135948420D01*
X183485539Y-135757375D01*
X183485538Y-135757370D01*
X183485108Y-135752179D01*
X183472210Y-135701246D01*
X183425343Y-135516172D01*
X183425341Y-135516168D01*
X183424063Y-135511119D01*
X183419343Y-135500357D01*
X183326268Y-135288169D01*
X183324173Y-135283393D01*
X183313152Y-135266523D01*
X183191018Y-135079583D01*
X183191016Y-135079581D01*
X183188164Y-135075215D01*
X183019744Y-134892262D01*
X182996595Y-134874244D01*
X182827619Y-134742725D01*
X182823509Y-134739526D01*
X182818930Y-134737048D01*
X182818927Y-134737046D01*
X182609395Y-134623653D01*
X182609392Y-134623652D01*
X182604810Y-134621172D01*
X182369614Y-134540429D01*
X182364480Y-134539572D01*
X182364475Y-134539571D01*
X182129472Y-134500357D01*
X182129470Y-134500357D01*
X182124335Y-134499500D01*
X181875665Y-134499500D01*
X181870530Y-134500357D01*
X181870528Y-134500357D01*
X181635525Y-134539571D01*
X181635520Y-134539572D01*
X181630386Y-134540429D01*
X181395190Y-134621172D01*
X181390608Y-134623652D01*
X181390605Y-134623653D01*
X181181073Y-134737046D01*
X181181070Y-134737048D01*
X181176491Y-134739526D01*
X181172381Y-134742725D01*
X181003406Y-134874244D01*
X180980256Y-134892262D01*
X180811836Y-135075215D01*
X180808984Y-135079581D01*
X180808982Y-135079583D01*
X180686849Y-135266523D01*
X180675827Y-135283393D01*
X180673732Y-135288169D01*
X180580658Y-135500357D01*
X180575937Y-135511119D01*
X180574659Y-135516168D01*
X180574657Y-135516172D01*
X180527790Y-135701246D01*
X180514892Y-135752179D01*
X180514462Y-135757370D01*
X180514461Y-135757375D01*
X180498631Y-135948420D01*
X180494357Y-136000000D01*
X180494787Y-136005189D01*
X180513270Y-136228242D01*
X180514892Y-136247821D01*
X180516173Y-136252879D01*
X180516173Y-136252880D01*
X180569890Y-136465001D01*
X180575937Y-136488881D01*
X180578029Y-136493651D01*
X180578030Y-136493653D01*
X180673732Y-136711831D01*
X180675827Y-136716607D01*
X180678677Y-136720969D01*
X180678679Y-136720973D01*
X180785387Y-136884302D01*
X180811836Y-136924785D01*
X180980256Y-137107738D01*
X180984365Y-137110936D01*
X180984367Y-137110938D01*
X181150891Y-137240549D01*
X181192362Y-137298175D01*
X181199500Y-137339981D01*
X181199500Y-139373665D01*
X181179498Y-139441786D01*
X181139647Y-139480906D01*
X181070024Y-139523850D01*
X181056344Y-139532288D01*
X180963537Y-139625095D01*
X180901225Y-139659121D01*
X180874442Y-139662000D01*
X180075558Y-139662000D01*
X180007437Y-139641998D01*
X179986463Y-139625095D01*
X179918656Y-139557288D01*
X179912407Y-139553434D01*
X179912405Y-139553432D01*
X179860354Y-139521327D01*
X179812875Y-139468542D01*
X179800500Y-139414086D01*
X179800500Y-139085914D01*
X179820502Y-139017793D01*
X179860354Y-138978673D01*
X179912405Y-138946568D01*
X179912407Y-138946566D01*
X179918656Y-138942712D01*
X180042712Y-138818656D01*
X180134814Y-138669334D01*
X180138471Y-138658300D01*
X180187836Y-138509324D01*
X180189999Y-138502797D01*
X180195955Y-138444501D01*
X180200175Y-138403194D01*
X180200175Y-138403186D01*
X180200500Y-138400009D01*
X180200499Y-137599992D01*
X180189999Y-137497203D01*
X180158712Y-137402785D01*
X180137123Y-137337633D01*
X180137122Y-137337630D01*
X180134814Y-137330666D01*
X180042712Y-137181344D01*
X179950463Y-137089095D01*
X179916437Y-137026783D01*
X179921502Y-136955968D01*
X179950463Y-136910905D01*
X180042712Y-136818656D01*
X180125176Y-136684960D01*
X180130961Y-136675581D01*
X180130961Y-136675580D01*
X180134814Y-136669334D01*
X180137742Y-136660500D01*
X180176952Y-136542171D01*
X180189999Y-136502797D01*
X180196156Y-136442529D01*
X180200175Y-136403194D01*
X180200175Y-136403186D01*
X180200500Y-136400009D01*
X180200499Y-135599992D01*
X180189999Y-135497203D01*
X180134814Y-135330666D01*
X180121660Y-135309339D01*
X180102963Y-135279027D01*
X180042712Y-135181344D01*
X179918656Y-135057288D01*
X179912407Y-135053434D01*
X179912405Y-135053432D01*
X179860354Y-135021327D01*
X179812875Y-134968542D01*
X179800500Y-134914086D01*
X179800500Y-134613058D01*
X179820502Y-134544937D01*
X179837405Y-134523963D01*
X179942712Y-134418656D01*
X180034814Y-134269334D01*
X180056143Y-134204969D01*
X180078289Y-134138135D01*
X180089999Y-134102797D01*
X180097210Y-134032216D01*
X180100175Y-134003194D01*
X180100175Y-134003186D01*
X180100500Y-134000009D01*
X180100499Y-133126000D01*
X180120501Y-133057879D01*
X180174157Y-133011386D01*
X180226499Y-133000000D01*
X209873000Y-133000000D01*
X209941121Y-133020002D01*
X209987614Y-133073658D01*
X209999000Y-133126000D01*
X209999000Y-144873000D01*
X209978998Y-144941121D01*
X209925342Y-144987614D01*
X209873000Y-144999000D01*
X160626000Y-144999000D01*
X160557879Y-144978998D01*
X160511386Y-144925342D01*
X160500000Y-144873000D01*
X160500000Y-136265694D01*
X161324500Y-136265694D01*
X161324692Y-136268140D01*
X161324693Y-136268153D01*
X161325549Y-136279027D01*
X161327402Y-136302569D01*
X161334757Y-136327885D01*
X161368065Y-136442529D01*
X161373256Y-136460398D01*
X161377291Y-136467220D01*
X161377291Y-136467221D01*
X161412836Y-136527325D01*
X161456919Y-136601865D01*
X161573135Y-136718081D01*
X161579956Y-136722115D01*
X161637823Y-136756337D01*
X161714602Y-136801744D01*
X161722214Y-136803955D01*
X161722215Y-136803956D01*
X161790684Y-136823848D01*
X161872431Y-136847598D01*
X161885584Y-136848633D01*
X161906847Y-136850307D01*
X161906860Y-136850308D01*
X161909306Y-136850500D01*
X162510468Y-136850500D01*
X162524576Y-136851292D01*
X162562500Y-136855565D01*
X162569529Y-136854773D01*
X162600425Y-136851292D01*
X162614532Y-136850500D01*
X163073500Y-136850500D01*
X163141621Y-136870502D01*
X163188114Y-136924158D01*
X163199500Y-136976500D01*
X163199500Y-137215694D01*
X163199692Y-137218140D01*
X163199693Y-137218153D01*
X163201367Y-137239416D01*
X163202402Y-137252569D01*
X163248256Y-137410398D01*
X163252291Y-137417220D01*
X163252291Y-137417221D01*
X163297493Y-137493653D01*
X163331919Y-137551865D01*
X163448135Y-137668081D01*
X163454956Y-137672115D01*
X163561026Y-137734844D01*
X163589602Y-137751744D01*
X163597214Y-137753955D01*
X163597215Y-137753956D01*
X163693278Y-137781865D01*
X163747431Y-137797598D01*
X163760584Y-137798633D01*
X163781847Y-137800307D01*
X163781860Y-137800308D01*
X163784306Y-137800500D01*
X164053732Y-137800500D01*
X164121853Y-137820502D01*
X164142827Y-137837405D01*
X164935238Y-138629816D01*
X164967560Y-138650126D01*
X164979074Y-138658296D01*
X165008914Y-138682092D01*
X165043306Y-138698654D01*
X165055666Y-138705486D01*
X165087978Y-138725789D01*
X165121128Y-138737389D01*
X165123998Y-138738393D01*
X165137049Y-138743798D01*
X165171439Y-138760360D01*
X165178332Y-138761933D01*
X165178334Y-138761934D01*
X165208650Y-138768853D01*
X165222219Y-138772762D01*
X165258245Y-138785368D01*
X165265270Y-138786159D01*
X165265272Y-138786160D01*
X165296169Y-138789641D01*
X165310098Y-138792008D01*
X165340404Y-138798925D01*
X165340407Y-138798925D01*
X165347306Y-138800500D01*
X165886942Y-138800500D01*
X165955063Y-138820502D01*
X165976037Y-138837405D01*
X166081344Y-138942712D01*
X166087593Y-138946566D01*
X166087595Y-138946568D01*
X166139646Y-138978673D01*
X166187125Y-139031458D01*
X166199500Y-139085914D01*
X166199500Y-139414086D01*
X166179498Y-139482207D01*
X166139646Y-139521327D01*
X166087595Y-139553432D01*
X166087593Y-139553434D01*
X166081344Y-139557288D01*
X165957288Y-139681344D01*
X165865186Y-139830666D01*
X165862878Y-139837630D01*
X165862877Y-139837633D01*
X165850824Y-139874007D01*
X165810001Y-139997203D01*
X165806778Y-140028754D01*
X165801727Y-140078196D01*
X165799500Y-140099991D01*
X165799501Y-140900008D01*
X165810001Y-141002797D01*
X165819750Y-141032216D01*
X165860549Y-141155339D01*
X165865186Y-141169334D01*
X165869039Y-141175580D01*
X165869039Y-141175581D01*
X165874935Y-141185140D01*
X165957288Y-141318656D01*
X166049537Y-141410905D01*
X166083563Y-141473217D01*
X166078498Y-141544032D01*
X166049537Y-141589095D01*
X165957288Y-141681344D01*
X165865186Y-141830666D01*
X165862878Y-141837630D01*
X165862877Y-141837633D01*
X165844604Y-141892779D01*
X165810001Y-141997203D01*
X165809303Y-142004040D01*
X165800081Y-142094306D01*
X165799500Y-142099991D01*
X165799501Y-142900008D01*
X165810001Y-143002797D01*
X165812166Y-143009330D01*
X165845303Y-143109330D01*
X165865186Y-143169334D01*
X165957288Y-143318656D01*
X166081344Y-143442712D01*
X166230666Y-143534814D01*
X166237630Y-143537122D01*
X166237633Y-143537123D01*
X166313079Y-143562123D01*
X166397203Y-143589999D01*
X166455499Y-143595955D01*
X166496806Y-143600175D01*
X166496814Y-143600175D01*
X166499991Y-143600500D01*
X166999844Y-143600500D01*
X167500008Y-143600499D01*
X167602797Y-143589999D01*
X167705517Y-143555961D01*
X167762367Y-143537123D01*
X167762370Y-143537122D01*
X167769334Y-143534814D01*
X167918656Y-143442712D01*
X167969258Y-143392110D01*
X168031570Y-143358084D01*
X168102385Y-143363149D01*
X168109574Y-143366087D01*
X168182697Y-143398644D01*
X168276847Y-143418656D01*
X168361397Y-143436628D01*
X168361401Y-143436628D01*
X168367854Y-143438000D01*
X168557146Y-143438000D01*
X168563599Y-143436628D01*
X168563603Y-143436628D01*
X168648153Y-143418656D01*
X168742303Y-143398644D01*
X168832699Y-143358397D01*
X168903064Y-143348963D01*
X168967361Y-143379069D01*
X168973041Y-143384409D01*
X169056344Y-143467712D01*
X169205666Y-143559814D01*
X169212630Y-143562122D01*
X169212633Y-143562123D01*
X169308217Y-143593796D01*
X169372203Y-143614999D01*
X169430499Y-143620955D01*
X169471806Y-143625175D01*
X169471814Y-143625175D01*
X169474991Y-143625500D01*
X169999836Y-143625500D01*
X170525008Y-143625499D01*
X170627797Y-143614999D01*
X170691783Y-143593796D01*
X170787367Y-143562123D01*
X170787370Y-143562122D01*
X170794334Y-143559814D01*
X170943656Y-143467712D01*
X171067712Y-143343656D01*
X171159814Y-143194334D01*
X171214999Y-143027797D01*
X171222311Y-142956224D01*
X171225175Y-142928194D01*
X171225175Y-142928186D01*
X171225500Y-142925009D01*
X171225499Y-142149992D01*
X171214999Y-142047203D01*
X171196268Y-141990676D01*
X171162123Y-141887633D01*
X171162122Y-141887630D01*
X171159814Y-141880666D01*
X171067712Y-141731344D01*
X170943656Y-141607288D01*
X170937408Y-141603434D01*
X170931652Y-141598883D01*
X170933700Y-141596293D01*
X170896037Y-141554322D01*
X170884716Y-141484234D01*
X170913085Y-141419151D01*
X170932565Y-141402272D01*
X170931652Y-141401117D01*
X170937408Y-141396566D01*
X170943656Y-141392712D01*
X171067712Y-141268656D01*
X171105333Y-141207663D01*
X171158115Y-141160188D01*
X171191430Y-141150468D01*
X171191409Y-141150381D01*
X171193470Y-141149873D01*
X171197383Y-141148731D01*
X171206372Y-141147640D01*
X171215674Y-141144113D01*
X171237637Y-141137990D01*
X171247432Y-141136195D01*
X171302249Y-141111524D01*
X171309258Y-141108621D01*
X171358305Y-141090020D01*
X171358304Y-141090020D01*
X171365430Y-141087318D01*
X171371698Y-141082991D01*
X171371701Y-141082990D01*
X171373622Y-141081664D01*
X171393484Y-141070461D01*
X171402557Y-141066378D01*
X171408559Y-141061676D01*
X171408562Y-141061674D01*
X171449849Y-141029328D01*
X171455978Y-141024817D01*
X171499159Y-140995011D01*
X171505429Y-140990683D01*
X171545267Y-140945715D01*
X171550484Y-140940173D01*
X171802401Y-140688256D01*
X172062552Y-140428104D01*
X172125452Y-140393952D01*
X172273340Y-140362518D01*
X172273342Y-140362517D01*
X172279803Y-140361144D01*
X172452730Y-140284151D01*
X172507720Y-140244199D01*
X172600532Y-140176767D01*
X172605871Y-140172888D01*
X172637284Y-140138001D01*
X172728114Y-140037124D01*
X172728115Y-140037123D01*
X172732533Y-140032216D01*
X172766430Y-139973505D01*
X172823875Y-139874007D01*
X172823876Y-139874006D01*
X172827179Y-139868284D01*
X172885674Y-139688256D01*
X172886401Y-139681344D01*
X172904770Y-139506565D01*
X172905460Y-139500000D01*
X172899342Y-139441786D01*
X172886364Y-139318307D01*
X172886364Y-139318305D01*
X172885674Y-139311744D01*
X172827179Y-139131716D01*
X172823197Y-139124818D01*
X172735836Y-138973505D01*
X172732533Y-138967784D01*
X172687004Y-138917219D01*
X172610286Y-138832015D01*
X172610284Y-138832014D01*
X172605871Y-138827112D01*
X172557554Y-138792008D01*
X172458072Y-138719730D01*
X172458071Y-138719729D01*
X172452730Y-138715849D01*
X172279803Y-138638856D01*
X172181788Y-138618022D01*
X172101103Y-138600872D01*
X172101099Y-138600872D01*
X172094646Y-138599500D01*
X171905354Y-138599500D01*
X171898901Y-138600872D01*
X171898897Y-138600872D01*
X171818212Y-138618022D01*
X171720197Y-138638856D01*
X171547270Y-138715849D01*
X171541929Y-138719729D01*
X171541928Y-138719730D01*
X171442446Y-138792008D01*
X171394129Y-138827112D01*
X171389716Y-138832014D01*
X171389714Y-138832015D01*
X171312996Y-138917219D01*
X171267467Y-138967784D01*
X171264164Y-138973505D01*
X171176804Y-139124818D01*
X171172821Y-139131716D01*
X171114326Y-139311744D01*
X171113636Y-139318307D01*
X171113636Y-139318308D01*
X171109210Y-139360423D01*
X171082197Y-139426080D01*
X171072995Y-139436349D01*
X171034762Y-139474582D01*
X170972450Y-139508608D01*
X170901635Y-139503543D01*
X170879521Y-139492729D01*
X170860354Y-139480907D01*
X170812876Y-139428121D01*
X170800500Y-139373665D01*
X170800500Y-138339981D01*
X170820502Y-138271860D01*
X170849109Y-138240549D01*
X171015633Y-138110938D01*
X171015635Y-138110936D01*
X171019744Y-138107738D01*
X171188164Y-137924785D01*
X171209033Y-137892843D01*
X171321321Y-137720973D01*
X171321323Y-137720969D01*
X171324173Y-137716607D01*
X171354609Y-137647221D01*
X171421970Y-137493653D01*
X171421971Y-137493651D01*
X171424063Y-137488881D01*
X171425662Y-137482569D01*
X171483827Y-137252880D01*
X171483827Y-137252879D01*
X171485108Y-137247821D01*
X171487414Y-137220000D01*
X171505213Y-137005189D01*
X171505643Y-137000000D01*
X171499049Y-136920417D01*
X171485539Y-136757375D01*
X171485538Y-136757370D01*
X171485108Y-136752179D01*
X171481511Y-136737973D01*
X171425343Y-136516172D01*
X171425341Y-136516168D01*
X171424063Y-136511119D01*
X171414309Y-136488881D01*
X171326268Y-136288169D01*
X171324173Y-136283393D01*
X171314217Y-136268153D01*
X171191018Y-136079583D01*
X171191016Y-136079581D01*
X171188164Y-136075215D01*
X171161238Y-136045965D01*
X171088480Y-135966929D01*
X171019744Y-135892262D01*
X171012163Y-135886361D01*
X170827619Y-135742725D01*
X170823509Y-135739526D01*
X170818930Y-135737048D01*
X170818927Y-135737046D01*
X170609395Y-135623653D01*
X170609392Y-135623652D01*
X170604810Y-135621172D01*
X170369614Y-135540429D01*
X170364480Y-135539572D01*
X170364475Y-135539571D01*
X170129472Y-135500357D01*
X170129470Y-135500357D01*
X170124335Y-135499500D01*
X169875665Y-135499500D01*
X169870530Y-135500357D01*
X169870528Y-135500357D01*
X169635525Y-135539571D01*
X169635520Y-135539572D01*
X169630386Y-135540429D01*
X169395190Y-135621172D01*
X169390608Y-135623652D01*
X169390605Y-135623653D01*
X169181073Y-135737046D01*
X169181070Y-135737048D01*
X169176491Y-135739526D01*
X169172381Y-135742725D01*
X168987838Y-135886361D01*
X168980256Y-135892262D01*
X168911520Y-135966929D01*
X168838763Y-136045965D01*
X168811836Y-136075215D01*
X168808984Y-136079581D01*
X168808982Y-136079583D01*
X168685784Y-136268153D01*
X168675827Y-136283393D01*
X168673732Y-136288169D01*
X168585692Y-136488881D01*
X168575937Y-136511119D01*
X168574659Y-136516168D01*
X168574657Y-136516172D01*
X168518489Y-136737973D01*
X168514892Y-136752179D01*
X168514462Y-136757370D01*
X168514461Y-136757375D01*
X168500951Y-136920417D01*
X168494357Y-137000000D01*
X168494787Y-137005189D01*
X168512587Y-137220000D01*
X168514892Y-137247821D01*
X168516173Y-137252879D01*
X168516173Y-137252880D01*
X168574339Y-137482569D01*
X168575937Y-137488881D01*
X168578029Y-137493651D01*
X168578030Y-137493653D01*
X168645391Y-137647221D01*
X168675827Y-137716607D01*
X168678677Y-137720969D01*
X168678679Y-137720973D01*
X168790967Y-137892843D01*
X168811836Y-137924785D01*
X168980256Y-138107738D01*
X168984365Y-138110936D01*
X168984367Y-138110938D01*
X169150891Y-138240549D01*
X169192362Y-138298175D01*
X169199500Y-138339981D01*
X169199500Y-139373665D01*
X169179498Y-139441786D01*
X169139647Y-139480906D01*
X169070024Y-139523850D01*
X169056344Y-139532288D01*
X168963537Y-139625095D01*
X168901225Y-139659121D01*
X168874442Y-139662000D01*
X168075558Y-139662000D01*
X168007437Y-139641998D01*
X167986463Y-139625095D01*
X167918656Y-139557288D01*
X167912407Y-139553434D01*
X167912405Y-139553432D01*
X167860354Y-139521327D01*
X167812875Y-139468542D01*
X167800500Y-139414086D01*
X167800500Y-139085914D01*
X167820502Y-139017793D01*
X167860354Y-138978673D01*
X167912405Y-138946568D01*
X167912407Y-138946566D01*
X167918656Y-138942712D01*
X168042712Y-138818656D01*
X168134814Y-138669334D01*
X168138471Y-138658300D01*
X168187836Y-138509324D01*
X168189999Y-138502797D01*
X168195955Y-138444501D01*
X168200175Y-138403194D01*
X168200175Y-138403186D01*
X168200500Y-138400009D01*
X168200499Y-137599992D01*
X168189999Y-137497203D01*
X168158712Y-137402785D01*
X168137123Y-137337633D01*
X168137122Y-137337630D01*
X168134814Y-137330666D01*
X168042712Y-137181344D01*
X167950463Y-137089095D01*
X167916437Y-137026783D01*
X167921502Y-136955968D01*
X167950463Y-136910905D01*
X168042712Y-136818656D01*
X168125176Y-136684960D01*
X168130961Y-136675581D01*
X168130961Y-136675580D01*
X168134814Y-136669334D01*
X168137742Y-136660500D01*
X168176952Y-136542171D01*
X168189999Y-136502797D01*
X168196156Y-136442529D01*
X168200175Y-136403194D01*
X168200175Y-136403186D01*
X168200500Y-136400009D01*
X168200499Y-135599992D01*
X168189999Y-135497203D01*
X168134814Y-135330666D01*
X168121660Y-135309339D01*
X168102963Y-135279027D01*
X168042712Y-135181344D01*
X167918656Y-135057288D01*
X167912405Y-135053432D01*
X167874048Y-135029774D01*
X167826569Y-134976989D01*
X167815166Y-134906914D01*
X167824753Y-134872486D01*
X167827179Y-134868284D01*
X167885674Y-134688256D01*
X167893578Y-134613058D01*
X167904770Y-134506565D01*
X167905460Y-134500000D01*
X167895951Y-134409526D01*
X167886364Y-134318307D01*
X167886364Y-134318305D01*
X167885674Y-134311744D01*
X167827179Y-134131716D01*
X167795785Y-134077339D01*
X167735836Y-133973505D01*
X167732533Y-133967784D01*
X167664204Y-133891897D01*
X167610286Y-133832015D01*
X167610284Y-133832014D01*
X167605871Y-133827112D01*
X167579129Y-133807683D01*
X167458072Y-133719730D01*
X167458071Y-133719729D01*
X167452730Y-133715849D01*
X167279803Y-133638856D01*
X167181788Y-133618022D01*
X167101103Y-133600872D01*
X167101099Y-133600872D01*
X167094646Y-133599500D01*
X166905354Y-133599500D01*
X166898901Y-133600872D01*
X166898897Y-133600872D01*
X166818212Y-133618022D01*
X166720197Y-133638856D01*
X166547270Y-133715849D01*
X166541929Y-133719729D01*
X166541928Y-133719730D01*
X166420871Y-133807683D01*
X166394129Y-133827112D01*
X166389716Y-133832014D01*
X166389714Y-133832015D01*
X166335796Y-133891897D01*
X166267467Y-133967784D01*
X166264164Y-133973505D01*
X166204216Y-134077339D01*
X166172821Y-134131716D01*
X166114326Y-134311744D01*
X166113636Y-134318305D01*
X166113636Y-134318307D01*
X166104049Y-134409526D01*
X166094540Y-134500000D01*
X166095230Y-134506565D01*
X166106423Y-134613058D01*
X166114326Y-134688256D01*
X166172821Y-134868284D01*
X166175021Y-134872094D01*
X166184347Y-134941650D01*
X166154242Y-135005947D01*
X166125952Y-135029774D01*
X166087596Y-135053432D01*
X166081344Y-135057288D01*
X165957288Y-135181344D01*
X165897037Y-135279027D01*
X165878341Y-135309339D01*
X165865186Y-135330666D01*
X165810001Y-135497203D01*
X165808063Y-135516172D01*
X165799826Y-135596804D01*
X165799500Y-135599991D01*
X165799501Y-136400008D01*
X165799827Y-136403196D01*
X165799827Y-136403203D01*
X165800665Y-136411409D01*
X165787687Y-136481209D01*
X165739033Y-136532913D01*
X165670149Y-136550104D01*
X165602906Y-136527325D01*
X165566863Y-136488348D01*
X165547117Y-136454958D01*
X165547113Y-136454953D01*
X165543081Y-136448135D01*
X165426865Y-136331919D01*
X165418737Y-136327112D01*
X165292221Y-136252291D01*
X165292220Y-136252291D01*
X165285398Y-136248256D01*
X165277786Y-136246045D01*
X165277785Y-136246044D01*
X165162564Y-136212569D01*
X165127569Y-136202402D01*
X165114416Y-136201367D01*
X165093153Y-136199693D01*
X165093140Y-136199692D01*
X165090694Y-136199500D01*
X163926500Y-136199500D01*
X163858379Y-136179498D01*
X163811886Y-136125842D01*
X163800500Y-136073500D01*
X163800500Y-135834306D01*
X163800308Y-135831860D01*
X163800307Y-135831847D01*
X163798103Y-135803850D01*
X163797598Y-135797431D01*
X163771450Y-135707431D01*
X163753956Y-135647215D01*
X163753955Y-135647214D01*
X163751744Y-135639602D01*
X163730216Y-135603199D01*
X163672115Y-135504956D01*
X163668081Y-135498135D01*
X163551865Y-135381919D01*
X163510887Y-135357684D01*
X163462436Y-135305794D01*
X163449718Y-135236063D01*
X163454813Y-135187593D01*
X163467960Y-135062500D01*
X163455355Y-134942569D01*
X163448864Y-134880807D01*
X163448864Y-134880805D01*
X163448174Y-134874244D01*
X163389679Y-134694216D01*
X163385995Y-134687834D01*
X163298336Y-134536005D01*
X163295033Y-134530284D01*
X163261854Y-134493435D01*
X163172786Y-134394515D01*
X163172784Y-134394514D01*
X163168371Y-134389612D01*
X163061528Y-134311986D01*
X163020572Y-134282230D01*
X163020571Y-134282229D01*
X163015230Y-134278349D01*
X162842303Y-134201356D01*
X162744288Y-134180522D01*
X162663603Y-134163372D01*
X162663599Y-134163372D01*
X162657146Y-134162000D01*
X162467854Y-134162000D01*
X162461401Y-134163372D01*
X162461397Y-134163372D01*
X162380712Y-134180522D01*
X162282697Y-134201356D01*
X162109770Y-134278349D01*
X162104429Y-134282229D01*
X162104428Y-134282230D01*
X162063472Y-134311986D01*
X161956629Y-134389612D01*
X161952216Y-134394514D01*
X161952214Y-134394515D01*
X161863146Y-134493435D01*
X161829967Y-134530284D01*
X161826664Y-134536005D01*
X161739006Y-134687834D01*
X161735321Y-134694216D01*
X161676826Y-134874244D01*
X161676136Y-134880805D01*
X161676136Y-134880807D01*
X161669645Y-134942569D01*
X161657040Y-135062500D01*
X161670188Y-135187593D01*
X161675282Y-135236063D01*
X161662510Y-135305901D01*
X161614113Y-135357684D01*
X161573135Y-135381919D01*
X161456919Y-135498135D01*
X161452885Y-135504956D01*
X161394785Y-135603199D01*
X161373256Y-135639602D01*
X161371045Y-135647214D01*
X161371044Y-135647215D01*
X161353550Y-135707431D01*
X161327402Y-135797431D01*
X161326897Y-135803850D01*
X161324693Y-135831847D01*
X161324692Y-135831860D01*
X161324500Y-135834306D01*
X161324500Y-136265694D01*
X160500000Y-136265694D01*
X160500000Y-133126000D01*
X160520002Y-133057879D01*
X160573658Y-133011386D01*
X160626000Y-133000000D01*
X174542194Y-133000000D01*
X174610315Y-133020002D01*
G37*
%TD.AperFunction*%
%TD*%
%TA.AperFunction,Conductor*%
%TO.N,/PWR_IN*%
G36*
X177942121Y-115520002D02*
G01*
X177988614Y-115573658D01*
X178000000Y-115626000D01*
X178000000Y-120500000D01*
X161563650Y-120500000D01*
X161579825Y-120498562D01*
X161677418Y-120489886D01*
X161684638Y-120487820D01*
X161866903Y-120435668D01*
X161866907Y-120435667D01*
X161873049Y-120433909D01*
X162053407Y-120339698D01*
X162211109Y-120211109D01*
X162339698Y-120053407D01*
X162433909Y-119873049D01*
X162435668Y-119866903D01*
X162488239Y-119683176D01*
X162488240Y-119683170D01*
X162489886Y-119677418D01*
X162500500Y-119558037D01*
X162500500Y-118525634D01*
X162520502Y-118457513D01*
X162574158Y-118411020D01*
X162614432Y-118400500D01*
X162616049Y-118400500D01*
X162621185Y-118399643D01*
X162839842Y-118363156D01*
X162839847Y-118363155D01*
X162844981Y-118362298D01*
X163064503Y-118286936D01*
X163069085Y-118284456D01*
X163069088Y-118284455D01*
X163264043Y-118178950D01*
X163268626Y-118176470D01*
X163451784Y-118033913D01*
X163608979Y-117863153D01*
X163611833Y-117858785D01*
X163733072Y-117673215D01*
X163733074Y-117673211D01*
X163735924Y-117668849D01*
X163829157Y-117456300D01*
X163881691Y-117248852D01*
X163884853Y-117236364D01*
X163884853Y-117236363D01*
X163886134Y-117231305D01*
X163905300Y-117000000D01*
X163886134Y-116768695D01*
X163884853Y-116763636D01*
X163830437Y-116548753D01*
X163830435Y-116548749D01*
X163829157Y-116543700D01*
X163808283Y-116496111D01*
X163738019Y-116335927D01*
X163735924Y-116331151D01*
X163683656Y-116251148D01*
X163611833Y-116141215D01*
X163611831Y-116141213D01*
X163608979Y-116136847D01*
X163569079Y-116093503D01*
X163550101Y-116066508D01*
X163539698Y-116046593D01*
X163411109Y-115888891D01*
X163253407Y-115760302D01*
X163210098Y-115737680D01*
X163158982Y-115688413D01*
X163142615Y-115619329D01*
X163166195Y-115552363D01*
X163222237Y-115508776D01*
X163268438Y-115500000D01*
X177874000Y-115500000D01*
X177942121Y-115520002D01*
G37*
%TD.AperFunction*%
%TD*%
%TA.AperFunction,Conductor*%
%TO.N,/PWR_PATH2*%
G36*
X142000000Y-116500000D02*
G01*
X136126000Y-116500000D01*
X136057879Y-116479998D01*
X136011386Y-116426342D01*
X136000000Y-116374000D01*
X136000000Y-111126000D01*
X136020002Y-111057879D01*
X136073658Y-111011386D01*
X136126000Y-111000000D01*
X142000000Y-111000000D01*
X142000000Y-116500000D01*
G37*
%TD.AperFunction*%
%TD*%
%TA.AperFunction,Conductor*%
%TO.N,/PWR_GND*%
G36*
X209941121Y-111020002D02*
G01*
X209987614Y-111073658D01*
X209999000Y-111126000D01*
X209999000Y-125000000D01*
X200500000Y-125000000D01*
X200500000Y-111000000D01*
X209873000Y-111000000D01*
X209941121Y-111020002D01*
G37*
%TD.AperFunction*%
%TD*%
%TA.AperFunction,Conductor*%
%TO.N,+12V*%
G36*
X131641621Y-133020002D02*
G01*
X131688114Y-133073658D01*
X131699500Y-133126000D01*
X131699501Y-133750193D01*
X131699501Y-134367872D01*
X131705909Y-134427483D01*
X131708661Y-134434863D01*
X131708662Y-134434865D01*
X131718977Y-134462520D01*
X131756204Y-134562331D01*
X131761603Y-134569543D01*
X131761604Y-134569545D01*
X131837058Y-134670338D01*
X131842454Y-134677546D01*
X131849662Y-134682942D01*
X131950455Y-134758396D01*
X131950457Y-134758397D01*
X131957669Y-134763796D01*
X132092517Y-134814091D01*
X132100351Y-134814933D01*
X132100354Y-134814934D01*
X132144581Y-134819689D01*
X132152127Y-134820500D01*
X132173500Y-134820500D01*
X132241621Y-134840502D01*
X132288114Y-134894158D01*
X132299500Y-134946500D01*
X132299500Y-135285672D01*
X132299460Y-135288862D01*
X132297243Y-135376363D01*
X132298369Y-135382647D01*
X132298370Y-135382656D01*
X132307636Y-135434351D01*
X132308966Y-135443831D01*
X132314926Y-135502438D01*
X132323997Y-135531350D01*
X132327797Y-135546832D01*
X132333142Y-135576653D01*
X132335512Y-135582586D01*
X132354992Y-135631353D01*
X132358203Y-135640371D01*
X132375841Y-135696588D01*
X132379316Y-135702848D01*
X132390544Y-135723078D01*
X132397386Y-135737486D01*
X132408623Y-135765617D01*
X132412139Y-135770952D01*
X132438022Y-135810225D01*
X132454005Y-135845080D01*
X132467824Y-135893649D01*
X132467825Y-135893652D01*
X132469418Y-135899250D01*
X132560327Y-136081821D01*
X132683236Y-136244579D01*
X132833959Y-136381981D01*
X132838910Y-136385047D01*
X132838912Y-136385048D01*
X132857166Y-136396350D01*
X133007363Y-136489348D01*
X133097242Y-136524167D01*
X133192117Y-136560922D01*
X133192121Y-136560923D01*
X133197544Y-136563024D01*
X133398024Y-136600500D01*
X133601976Y-136600500D01*
X133802456Y-136563024D01*
X133807879Y-136560923D01*
X133807883Y-136560922D01*
X133941888Y-136509008D01*
X133987404Y-136500500D01*
X134512596Y-136500500D01*
X134558112Y-136509008D01*
X134692117Y-136560922D01*
X134692121Y-136560923D01*
X134697544Y-136563024D01*
X134898024Y-136600500D01*
X135101976Y-136600500D01*
X135302456Y-136563024D01*
X135307879Y-136560923D01*
X135307883Y-136560922D01*
X135402758Y-136524167D01*
X135492637Y-136489348D01*
X135642834Y-136396350D01*
X135661088Y-136385048D01*
X135661090Y-136385047D01*
X135666041Y-136381981D01*
X135816764Y-136244579D01*
X135939673Y-136081821D01*
X136030582Y-135899250D01*
X136070293Y-135759681D01*
X136084804Y-135708683D01*
X136084805Y-135708679D01*
X136086397Y-135703083D01*
X136105215Y-135500000D01*
X136089163Y-135326763D01*
X136086934Y-135302712D01*
X136086397Y-135296917D01*
X136084106Y-135288863D01*
X136049782Y-135168229D01*
X136030582Y-135100750D01*
X135982904Y-135005000D01*
X135942271Y-134923396D01*
X135942270Y-134923394D01*
X135939673Y-134918179D01*
X135936157Y-134913524D01*
X135935731Y-134912835D01*
X135916874Y-134844389D01*
X135938014Y-134776613D01*
X135992442Y-134731025D01*
X136042856Y-134720500D01*
X136403172Y-134720500D01*
X136406362Y-134720540D01*
X136493863Y-134722757D01*
X136500147Y-134721631D01*
X136500156Y-134721630D01*
X136551851Y-134712364D01*
X136561331Y-134711034D01*
X136619938Y-134705074D01*
X136648850Y-134696003D01*
X136664332Y-134692203D01*
X136694153Y-134686858D01*
X136748856Y-134665007D01*
X136757874Y-134661796D01*
X136768813Y-134658364D01*
X136814088Y-134644159D01*
X136819674Y-134641059D01*
X136825548Y-134638538D01*
X136825990Y-134639569D01*
X136880331Y-134625499D01*
X137125008Y-134625499D01*
X137227797Y-134614999D01*
X137284175Y-134596317D01*
X137387367Y-134562123D01*
X137387370Y-134562122D01*
X137394334Y-134559814D01*
X137543656Y-134467712D01*
X137667712Y-134343656D01*
X137759814Y-134194334D01*
X137769031Y-134166521D01*
X137812836Y-134034324D01*
X137814999Y-134027797D01*
X137824426Y-133935520D01*
X137825175Y-133928194D01*
X137825175Y-133928186D01*
X137825500Y-133925009D01*
X137825499Y-133149992D01*
X137824356Y-133138805D01*
X137837332Y-133069005D01*
X137885984Y-133017300D01*
X137949704Y-133000000D01*
X138173500Y-133000000D01*
X138241621Y-133020002D01*
X138288114Y-133073658D01*
X138299500Y-133126000D01*
X138299501Y-133522271D01*
X138299501Y-133900008D01*
X138310001Y-134002797D01*
X138312166Y-134009330D01*
X138349227Y-134121172D01*
X138365186Y-134169334D01*
X138457288Y-134318656D01*
X138581344Y-134442712D01*
X138728088Y-134533224D01*
X138730666Y-134534814D01*
X138730394Y-134535255D01*
X138780038Y-134578971D01*
X138799500Y-134646243D01*
X138799500Y-135673500D01*
X138779498Y-135741621D01*
X138725842Y-135788114D01*
X138673500Y-135799500D01*
X137024965Y-135799500D01*
X137017358Y-135799270D01*
X136965003Y-135796103D01*
X136965001Y-135796103D01*
X136957394Y-135795643D01*
X136939593Y-135798905D01*
X136898295Y-135806473D01*
X136890771Y-135807618D01*
X136853493Y-135812145D01*
X136831128Y-135814860D01*
X136821828Y-135818387D01*
X136799856Y-135824512D01*
X136798272Y-135824802D01*
X136797559Y-135824933D01*
X136797558Y-135824933D01*
X136790068Y-135826306D01*
X136735272Y-135850968D01*
X136728240Y-135853880D01*
X136672070Y-135875182D01*
X136665799Y-135879510D01*
X136665796Y-135879512D01*
X136663878Y-135880836D01*
X136644016Y-135892039D01*
X136634943Y-135896122D01*
X136628943Y-135900823D01*
X136587658Y-135933168D01*
X136581532Y-135937676D01*
X136532071Y-135971817D01*
X136527018Y-135977521D01*
X136492225Y-136016794D01*
X136487007Y-136022336D01*
X135042352Y-137466991D01*
X134980040Y-137501017D01*
X134909225Y-137495952D01*
X134852389Y-137453405D01*
X134845898Y-137443306D01*
X134843796Y-137437669D01*
X134757546Y-137322454D01*
X134728219Y-137300500D01*
X134649545Y-137241604D01*
X134649543Y-137241603D01*
X134642331Y-137236204D01*
X134507483Y-137185909D01*
X134499649Y-137185067D01*
X134499646Y-137185066D01*
X134455419Y-137180311D01*
X134447873Y-137179500D01*
X133300341Y-137179500D01*
X132152128Y-137179501D01*
X132148782Y-137179861D01*
X132148776Y-137179861D01*
X132120677Y-137182882D01*
X132092517Y-137185909D01*
X132085137Y-137188661D01*
X132085135Y-137188662D01*
X132061263Y-137197566D01*
X131957669Y-137236204D01*
X131950457Y-137241603D01*
X131950455Y-137241604D01*
X131871781Y-137300500D01*
X131842454Y-137322454D01*
X131837058Y-137329662D01*
X131761604Y-137430455D01*
X131761603Y-137430457D01*
X131756204Y-137437669D01*
X131705909Y-137572517D01*
X131705067Y-137580351D01*
X131705066Y-137580354D01*
X131701612Y-137612480D01*
X131699500Y-137632127D01*
X131699501Y-138927872D01*
X131705909Y-138987483D01*
X131708661Y-138994863D01*
X131708662Y-138994865D01*
X131719732Y-139024545D01*
X131756204Y-139122331D01*
X131761603Y-139129543D01*
X131761604Y-139129545D01*
X131812409Y-139197411D01*
X131842454Y-139237546D01*
X131849662Y-139242942D01*
X131950455Y-139318396D01*
X131950457Y-139318397D01*
X131957669Y-139323796D01*
X132092517Y-139374091D01*
X132100351Y-139374933D01*
X132100354Y-139374934D01*
X132144581Y-139379689D01*
X132152127Y-139380500D01*
X133299659Y-139380500D01*
X134447872Y-139380499D01*
X134451218Y-139380139D01*
X134451224Y-139380139D01*
X134479323Y-139377118D01*
X134507483Y-139374091D01*
X134514863Y-139371339D01*
X134514865Y-139371338D01*
X134588255Y-139343965D01*
X134642331Y-139323796D01*
X134649543Y-139318397D01*
X134649545Y-139318396D01*
X134750338Y-139242942D01*
X134757546Y-139237546D01*
X134787591Y-139197411D01*
X134838396Y-139129545D01*
X134838397Y-139129543D01*
X134843796Y-139122331D01*
X134866123Y-139062469D01*
X134908669Y-139005633D01*
X134975189Y-138980821D01*
X134984179Y-138980500D01*
X135195025Y-138980500D01*
X135202633Y-138980730D01*
X135254999Y-138983898D01*
X135255000Y-138983898D01*
X135262606Y-138984358D01*
X135321730Y-138973523D01*
X135329248Y-138972379D01*
X135388872Y-138965140D01*
X135398174Y-138961613D01*
X135420137Y-138955490D01*
X135429932Y-138953695D01*
X135484749Y-138929024D01*
X135491758Y-138926121D01*
X135496024Y-138924503D01*
X135547930Y-138904818D01*
X135554198Y-138900491D01*
X135554201Y-138900490D01*
X135556122Y-138899164D01*
X135575984Y-138887961D01*
X135585057Y-138883878D01*
X135591059Y-138879176D01*
X135591062Y-138879174D01*
X135632349Y-138846828D01*
X135638478Y-138842317D01*
X135681659Y-138812511D01*
X135687929Y-138808183D01*
X135727775Y-138763206D01*
X135732993Y-138757664D01*
X137253252Y-137237405D01*
X137315564Y-137203379D01*
X137342347Y-137200500D01*
X138853757Y-137200500D01*
X138921878Y-137220502D01*
X138964762Y-137269596D01*
X138965186Y-137269334D01*
X139057288Y-137418656D01*
X139181344Y-137542712D01*
X139239616Y-137578654D01*
X139320882Y-137628779D01*
X139330666Y-137634814D01*
X139337630Y-137637122D01*
X139337633Y-137637123D01*
X139434116Y-137669094D01*
X139497203Y-137689999D01*
X139555499Y-137695955D01*
X139596806Y-137700175D01*
X139596814Y-137700175D01*
X139599991Y-137700500D01*
X139999875Y-137700500D01*
X140400008Y-137700499D01*
X140502797Y-137689999D01*
X140565884Y-137669094D01*
X140662367Y-137637123D01*
X140662370Y-137637122D01*
X140669334Y-137634814D01*
X140679119Y-137628779D01*
X140760384Y-137578654D01*
X140818656Y-137542712D01*
X140942712Y-137418656D01*
X141034814Y-137269334D01*
X141045217Y-137237942D01*
X141087836Y-137109324D01*
X141089999Y-137102797D01*
X141100500Y-137000009D01*
X141100499Y-135999992D01*
X141089999Y-135897203D01*
X141060775Y-135809012D01*
X141037123Y-135737633D01*
X141037122Y-135737630D01*
X141034814Y-135730666D01*
X141024575Y-135714065D01*
X140973866Y-135631853D01*
X140942712Y-135581344D01*
X140818656Y-135457288D01*
X140693697Y-135380213D01*
X140675581Y-135369039D01*
X140675580Y-135369039D01*
X140669334Y-135365186D01*
X140662370Y-135362878D01*
X140662367Y-135362877D01*
X140556843Y-135327910D01*
X140502797Y-135310001D01*
X140444501Y-135304045D01*
X140403194Y-135299825D01*
X140403186Y-135299825D01*
X140400009Y-135299500D01*
X140326500Y-135299500D01*
X140258379Y-135279498D01*
X140211886Y-135225842D01*
X140200500Y-135173500D01*
X140200500Y-134646243D01*
X140220502Y-134578122D01*
X140269596Y-134535238D01*
X140269334Y-134534814D01*
X140271876Y-134533246D01*
X140418656Y-134442712D01*
X140542712Y-134318656D01*
X140634814Y-134169334D01*
X140650774Y-134121172D01*
X140687836Y-134009324D01*
X140689999Y-134002797D01*
X140698203Y-133922491D01*
X140700175Y-133903194D01*
X140700175Y-133903186D01*
X140700500Y-133900009D01*
X140700499Y-133126000D01*
X140720501Y-133057879D01*
X140774157Y-133011386D01*
X140826499Y-133000000D01*
X154068198Y-133000000D01*
X154136319Y-133020002D01*
X154182812Y-133073658D01*
X154192916Y-133143932D01*
X154163422Y-133208512D01*
X154146760Y-133224509D01*
X154141232Y-133228918D01*
X154135238Y-133232684D01*
X154007684Y-133360238D01*
X154007682Y-133360241D01*
X153379379Y-133988544D01*
X153317067Y-134022570D01*
X153269545Y-134023731D01*
X153129472Y-134000357D01*
X153129470Y-134000357D01*
X153124335Y-133999500D01*
X152875665Y-133999500D01*
X152870530Y-134000357D01*
X152870528Y-134000357D01*
X152635525Y-134039571D01*
X152635520Y-134039572D01*
X152630386Y-134040429D01*
X152395190Y-134121172D01*
X152390608Y-134123652D01*
X152390605Y-134123653D01*
X152181073Y-134237046D01*
X152181070Y-134237048D01*
X152176491Y-134239526D01*
X152172381Y-134242725D01*
X151994988Y-134380796D01*
X151980256Y-134392262D01*
X151811836Y-134575215D01*
X151808984Y-134579581D01*
X151808982Y-134579583D01*
X151680257Y-134776613D01*
X151675827Y-134783393D01*
X151673732Y-134788169D01*
X151580876Y-134999860D01*
X151575937Y-135011119D01*
X151574659Y-135016168D01*
X151574657Y-135016172D01*
X151516173Y-135247120D01*
X151514892Y-135252179D01*
X151514462Y-135257370D01*
X151514461Y-135257375D01*
X151497896Y-135457288D01*
X151494357Y-135500000D01*
X151494787Y-135505189D01*
X151514394Y-135741805D01*
X151514892Y-135747821D01*
X151516173Y-135752879D01*
X151516173Y-135752880D01*
X151573447Y-135979047D01*
X151575937Y-135988881D01*
X151578029Y-135993651D01*
X151578030Y-135993653D01*
X151657041Y-136173779D01*
X151675827Y-136216607D01*
X151678677Y-136220969D01*
X151678679Y-136220973D01*
X151808982Y-136420417D01*
X151811836Y-136424785D01*
X151815370Y-136428624D01*
X151832312Y-136447028D01*
X151980256Y-136607738D01*
X151984365Y-136610936D01*
X151984367Y-136610938D01*
X152098707Y-136699932D01*
X152176491Y-136760474D01*
X152181070Y-136762952D01*
X152181073Y-136762954D01*
X152390605Y-136876347D01*
X152390608Y-136876348D01*
X152395190Y-136878828D01*
X152630386Y-136959571D01*
X152635520Y-136960428D01*
X152635525Y-136960429D01*
X152870528Y-136999643D01*
X152870530Y-136999643D01*
X152875665Y-137000500D01*
X153124335Y-137000500D01*
X153129470Y-136999643D01*
X153129472Y-136999643D01*
X153364475Y-136960429D01*
X153364480Y-136960428D01*
X153369614Y-136959571D01*
X153604810Y-136878828D01*
X153609392Y-136876348D01*
X153609395Y-136876347D01*
X153818927Y-136762954D01*
X153818930Y-136762952D01*
X153823509Y-136760474D01*
X153901293Y-136699932D01*
X154015633Y-136610938D01*
X154015635Y-136610936D01*
X154019744Y-136607738D01*
X154167688Y-136447028D01*
X154184630Y-136428624D01*
X154188164Y-136424785D01*
X154191018Y-136420417D01*
X154321321Y-136220973D01*
X154321323Y-136220969D01*
X154324173Y-136216607D01*
X154342959Y-136173779D01*
X154421970Y-135993653D01*
X154421971Y-135993651D01*
X154424063Y-135988881D01*
X154426554Y-135979047D01*
X154483827Y-135752880D01*
X154483827Y-135752879D01*
X154485108Y-135747821D01*
X154485607Y-135741805D01*
X154505213Y-135505189D01*
X154505643Y-135500000D01*
X154502104Y-135457288D01*
X154485539Y-135257375D01*
X154485538Y-135257370D01*
X154485108Y-135252179D01*
X154481424Y-135237632D01*
X154484090Y-135166687D01*
X154514472Y-135117606D01*
X154932172Y-134699905D01*
X154994485Y-134665880D01*
X155021268Y-134663000D01*
X155242710Y-134663000D01*
X155310831Y-134683002D01*
X155351164Y-134724861D01*
X155374190Y-134763796D01*
X155381919Y-134776865D01*
X155498135Y-134893081D01*
X155504959Y-134897117D01*
X155509247Y-134900443D01*
X155550811Y-134958001D01*
X155554660Y-135028893D01*
X155519570Y-135090612D01*
X155509247Y-135099557D01*
X155504959Y-135102883D01*
X155498135Y-135106919D01*
X155381919Y-135223135D01*
X155377885Y-135229956D01*
X155303019Y-135356549D01*
X155298256Y-135364602D01*
X155296045Y-135372214D01*
X155296044Y-135372215D01*
X155285330Y-135409092D01*
X155252402Y-135522431D01*
X155251897Y-135528850D01*
X155249693Y-135556847D01*
X155249692Y-135556860D01*
X155249500Y-135559306D01*
X155249500Y-136715694D01*
X155249692Y-136718140D01*
X155249693Y-136718153D01*
X155250985Y-136734559D01*
X155252402Y-136752569D01*
X155254199Y-136758754D01*
X155286703Y-136870631D01*
X155298256Y-136910398D01*
X155302291Y-136917220D01*
X155302291Y-136917221D01*
X155366031Y-137025000D01*
X155381919Y-137051865D01*
X155498135Y-137168081D01*
X155504956Y-137172115D01*
X155585926Y-137220000D01*
X155639602Y-137251744D01*
X155647214Y-137253955D01*
X155647215Y-137253956D01*
X155701048Y-137269596D01*
X155797431Y-137297598D01*
X155810584Y-137298633D01*
X155831847Y-137300307D01*
X155831860Y-137300308D01*
X155834306Y-137300500D01*
X156265694Y-137300500D01*
X156268140Y-137300308D01*
X156268153Y-137300307D01*
X156289416Y-137298633D01*
X156302569Y-137297598D01*
X156398952Y-137269596D01*
X156452785Y-137253956D01*
X156452786Y-137253955D01*
X156460398Y-137251744D01*
X156514075Y-137220000D01*
X156595044Y-137172115D01*
X156601865Y-137168081D01*
X156718081Y-137051865D01*
X156733969Y-137025000D01*
X156797709Y-136917221D01*
X156797709Y-136917220D01*
X156801744Y-136910398D01*
X156813298Y-136870631D01*
X156845801Y-136758754D01*
X156847598Y-136752569D01*
X156849015Y-136734559D01*
X156850307Y-136718153D01*
X156850308Y-136718140D01*
X156850500Y-136715694D01*
X156850500Y-135559306D01*
X156850308Y-135556860D01*
X156850307Y-135556847D01*
X156848103Y-135528850D01*
X156847598Y-135522431D01*
X156814670Y-135409092D01*
X156803956Y-135372215D01*
X156803955Y-135372214D01*
X156801744Y-135364602D01*
X156796982Y-135356549D01*
X156722115Y-135229956D01*
X156718081Y-135223135D01*
X156601865Y-135106919D01*
X156595041Y-135102883D01*
X156590753Y-135099557D01*
X156549189Y-135041999D01*
X156545340Y-134971107D01*
X156580430Y-134909388D01*
X156590753Y-134900443D01*
X156595041Y-134897117D01*
X156601865Y-134893081D01*
X156718081Y-134776865D01*
X156725810Y-134763796D01*
X156797709Y-134642221D01*
X156797709Y-134642220D01*
X156801744Y-134635398D01*
X156806505Y-134619013D01*
X156845801Y-134483754D01*
X156847598Y-134477569D01*
X156850038Y-134446566D01*
X156850307Y-134443153D01*
X156850308Y-134443140D01*
X156850500Y-134440694D01*
X156850500Y-133914532D01*
X156851292Y-133900425D01*
X156854773Y-133869529D01*
X156855565Y-133862500D01*
X156851292Y-133824575D01*
X156850500Y-133810468D01*
X156850500Y-133284306D01*
X156850308Y-133281860D01*
X156850307Y-133281847D01*
X156848633Y-133260584D01*
X156847598Y-133247431D01*
X156822532Y-133161153D01*
X156822735Y-133090156D01*
X156861289Y-133030540D01*
X156925954Y-133001232D01*
X156943529Y-133000000D01*
X157023500Y-133000000D01*
X157091621Y-133020002D01*
X157138114Y-133073658D01*
X157149500Y-133126000D01*
X157149500Y-134440694D01*
X157149692Y-134443140D01*
X157149693Y-134443153D01*
X157149962Y-134446566D01*
X157152402Y-134477569D01*
X157154199Y-134483754D01*
X157193496Y-134619013D01*
X157198256Y-134635398D01*
X157202291Y-134642220D01*
X157202291Y-134642221D01*
X157274190Y-134763796D01*
X157281919Y-134776865D01*
X157398135Y-134893081D01*
X157404959Y-134897117D01*
X157409247Y-134900443D01*
X157450811Y-134958001D01*
X157454660Y-135028893D01*
X157419570Y-135090612D01*
X157409247Y-135099557D01*
X157404959Y-135102883D01*
X157398135Y-135106919D01*
X157281919Y-135223135D01*
X157277885Y-135229956D01*
X157203019Y-135356549D01*
X157198256Y-135364602D01*
X157196045Y-135372214D01*
X157196044Y-135372215D01*
X157185330Y-135409092D01*
X157152402Y-135522431D01*
X157151897Y-135528850D01*
X157149693Y-135556847D01*
X157149692Y-135556860D01*
X157149500Y-135559306D01*
X157149500Y-136085468D01*
X157148708Y-136099575D01*
X157144435Y-136137500D01*
X157145227Y-136144529D01*
X157148708Y-136175425D01*
X157149500Y-136189532D01*
X157149500Y-138698936D01*
X157129498Y-138767057D01*
X157100891Y-138798368D01*
X156987008Y-138887007D01*
X156980256Y-138892262D01*
X156913167Y-138965140D01*
X156820557Y-139065742D01*
X156811836Y-139075215D01*
X156808984Y-139079581D01*
X156808982Y-139079583D01*
X156680984Y-139275500D01*
X156675827Y-139283393D01*
X156673732Y-139288169D01*
X156579797Y-139502320D01*
X156575937Y-139511119D01*
X156574659Y-139516168D01*
X156574657Y-139516172D01*
X156539239Y-139656034D01*
X156514892Y-139752179D01*
X156514462Y-139757370D01*
X156514461Y-139757375D01*
X156496677Y-139972004D01*
X156494357Y-140000000D01*
X156494787Y-140005189D01*
X156513702Y-140233455D01*
X156514892Y-140247821D01*
X156516173Y-140252879D01*
X156516173Y-140252880D01*
X156568841Y-140460859D01*
X156575937Y-140488881D01*
X156578029Y-140493651D01*
X156578030Y-140493653D01*
X156648891Y-140655199D01*
X156675827Y-140716607D01*
X156678677Y-140720969D01*
X156678679Y-140720973D01*
X156803761Y-140912425D01*
X156811836Y-140924785D01*
X156980256Y-141107738D01*
X156984365Y-141110936D01*
X156984367Y-141110938D01*
X157076527Y-141182669D01*
X157176491Y-141260474D01*
X157181070Y-141262952D01*
X157181073Y-141262954D01*
X157390605Y-141376347D01*
X157390608Y-141376348D01*
X157395190Y-141378828D01*
X157630386Y-141459571D01*
X157635520Y-141460428D01*
X157635525Y-141460429D01*
X157870528Y-141499643D01*
X157870530Y-141499643D01*
X157875665Y-141500500D01*
X158124335Y-141500500D01*
X158129470Y-141499643D01*
X158129472Y-141499643D01*
X158364475Y-141460429D01*
X158364480Y-141460428D01*
X158369614Y-141459571D01*
X158604810Y-141378828D01*
X158609392Y-141376348D01*
X158609395Y-141376347D01*
X158818927Y-141262954D01*
X158818930Y-141262952D01*
X158823509Y-141260474D01*
X158923473Y-141182669D01*
X159015633Y-141110938D01*
X159015635Y-141110936D01*
X159019744Y-141107738D01*
X159188164Y-140924785D01*
X159197031Y-140911214D01*
X159268517Y-140801795D01*
X159322520Y-140755706D01*
X159392868Y-140746131D01*
X159457226Y-140776108D01*
X159495159Y-140836121D01*
X159500000Y-140870710D01*
X159500000Y-143673500D01*
X159479998Y-143741621D01*
X159426342Y-143788114D01*
X159374000Y-143799500D01*
X113342347Y-143799500D01*
X113274226Y-143779498D01*
X113253251Y-143762595D01*
X112737404Y-143246747D01*
X112703379Y-143184435D01*
X112700500Y-143157652D01*
X112700500Y-139681893D01*
X112720502Y-139613772D01*
X112774158Y-139567279D01*
X112786862Y-139562290D01*
X112787370Y-139562122D01*
X112787372Y-139562121D01*
X112794334Y-139559814D01*
X112943656Y-139467712D01*
X113067712Y-139343656D01*
X113149934Y-139210352D01*
X113202719Y-139162875D01*
X113257174Y-139150500D01*
X114169500Y-139150500D01*
X114237621Y-139170502D01*
X114245009Y-139175632D01*
X114295455Y-139213396D01*
X114295457Y-139213397D01*
X114302669Y-139218796D01*
X114311109Y-139221944D01*
X114311111Y-139221945D01*
X114369987Y-139243904D01*
X114437517Y-139269091D01*
X114445351Y-139269933D01*
X114445354Y-139269934D01*
X114489581Y-139274689D01*
X114497127Y-139275500D01*
X115324754Y-139275500D01*
X116152872Y-139275499D01*
X116156218Y-139275139D01*
X116156224Y-139275139D01*
X116184323Y-139272118D01*
X116212483Y-139269091D01*
X116219863Y-139266339D01*
X116219865Y-139266338D01*
X116282592Y-139242942D01*
X116347331Y-139218796D01*
X116354543Y-139213397D01*
X116354545Y-139213396D01*
X116455338Y-139137942D01*
X116462546Y-139132546D01*
X116537780Y-139032047D01*
X116543396Y-139024545D01*
X116543397Y-139024543D01*
X116548796Y-139017331D01*
X116599091Y-138882483D01*
X116600110Y-138873010D01*
X116605140Y-138826221D01*
X116605500Y-138822873D01*
X116605499Y-138184470D01*
X116625501Y-138116349D01*
X116679157Y-138069856D01*
X116749430Y-138059752D01*
X116814011Y-138089245D01*
X116832366Y-138108960D01*
X116882054Y-138175334D01*
X116882058Y-138175338D01*
X116887454Y-138182546D01*
X116894662Y-138187942D01*
X116995455Y-138263396D01*
X116995457Y-138263397D01*
X117002669Y-138268796D01*
X117137517Y-138319091D01*
X117145351Y-138319933D01*
X117145354Y-138319934D01*
X117185566Y-138324257D01*
X117197127Y-138325500D01*
X118024754Y-138325500D01*
X118852872Y-138325499D01*
X118856218Y-138325139D01*
X118856224Y-138325139D01*
X118884323Y-138322118D01*
X118912483Y-138319091D01*
X118919863Y-138316339D01*
X118919865Y-138316338D01*
X118977074Y-138295000D01*
X119047331Y-138268796D01*
X119054543Y-138263397D01*
X119054545Y-138263396D01*
X119155338Y-138187942D01*
X119162546Y-138182546D01*
X119180858Y-138158084D01*
X119243396Y-138074545D01*
X119243397Y-138074543D01*
X119248796Y-138067331D01*
X119299091Y-137932483D01*
X119305500Y-137872873D01*
X119305499Y-137127128D01*
X119304348Y-137116414D01*
X119299933Y-137075352D01*
X119299091Y-137067517D01*
X119296338Y-137060135D01*
X119294882Y-137053974D01*
X119294882Y-136996024D01*
X119296337Y-136989866D01*
X119299091Y-136982483D01*
X119299933Y-136974649D01*
X119299934Y-136974646D01*
X119305140Y-136926221D01*
X119305500Y-136922873D01*
X119305499Y-136177128D01*
X119299091Y-136117517D01*
X119289778Y-136092546D01*
X119263591Y-136022336D01*
X119248796Y-135982669D01*
X119240962Y-135972203D01*
X119167942Y-135874662D01*
X119162546Y-135867454D01*
X119155338Y-135862058D01*
X119054545Y-135786604D01*
X119054543Y-135786603D01*
X119047331Y-135781204D01*
X118912483Y-135730909D01*
X118904649Y-135730067D01*
X118904646Y-135730066D01*
X118860419Y-135725311D01*
X118852873Y-135724500D01*
X118849505Y-135724500D01*
X118846129Y-135724319D01*
X118846203Y-135722945D01*
X118783379Y-135704498D01*
X118736886Y-135650842D01*
X118725500Y-135598500D01*
X118725500Y-135517868D01*
X118745502Y-135449747D01*
X118799158Y-135403254D01*
X118869432Y-135393150D01*
X118877698Y-135394622D01*
X118898891Y-135399127D01*
X118898898Y-135399128D01*
X118905354Y-135400500D01*
X119094646Y-135400500D01*
X119101099Y-135399128D01*
X119101103Y-135399128D01*
X119187050Y-135380859D01*
X119279803Y-135361144D01*
X119448753Y-135285922D01*
X119519118Y-135276488D01*
X119551245Y-135285921D01*
X119720197Y-135361144D01*
X119812950Y-135380859D01*
X119898897Y-135399128D01*
X119898901Y-135399128D01*
X119905354Y-135400500D01*
X120094646Y-135400500D01*
X120101099Y-135399128D01*
X120101103Y-135399128D01*
X120187050Y-135380859D01*
X120279803Y-135361144D01*
X120448753Y-135285922D01*
X120519118Y-135276488D01*
X120551245Y-135285921D01*
X120554307Y-135287284D01*
X120568169Y-135293456D01*
X120622266Y-135339433D01*
X120642917Y-135407360D01*
X120623567Y-135475668D01*
X120583069Y-135515804D01*
X120556344Y-135532288D01*
X120432288Y-135656344D01*
X120368550Y-135759681D01*
X120357217Y-135778055D01*
X120340186Y-135805666D01*
X120337878Y-135812630D01*
X120337877Y-135812633D01*
X120302910Y-135918157D01*
X120285001Y-135972203D01*
X120281700Y-136004515D01*
X120274826Y-136071804D01*
X120274500Y-136074991D01*
X120274501Y-136850008D01*
X120285001Y-136952797D01*
X120298827Y-136994522D01*
X120332441Y-137095960D01*
X120340186Y-137119334D01*
X120432288Y-137268656D01*
X120556344Y-137392712D01*
X120629841Y-137438045D01*
X120684898Y-137472004D01*
X120705666Y-137484814D01*
X120712630Y-137487122D01*
X120712633Y-137487123D01*
X120781995Y-137510107D01*
X120872203Y-137539999D01*
X120928506Y-137545751D01*
X120971806Y-137550175D01*
X120971814Y-137550175D01*
X120974991Y-137550500D01*
X121499836Y-137550500D01*
X122025008Y-137550499D01*
X122127797Y-137539999D01*
X122218005Y-137510107D01*
X122287367Y-137487123D01*
X122287370Y-137487122D01*
X122294334Y-137484814D01*
X122315103Y-137472004D01*
X122370159Y-137438045D01*
X122443656Y-137392712D01*
X122567712Y-137268656D01*
X122659814Y-137119334D01*
X122667560Y-137095960D01*
X122701173Y-136994522D01*
X122714999Y-136952797D01*
X122724787Y-136856990D01*
X122725175Y-136853194D01*
X122725175Y-136853186D01*
X122725500Y-136850009D01*
X122725499Y-136074992D01*
X122714999Y-135972203D01*
X122696317Y-135915825D01*
X122662123Y-135812633D01*
X122662122Y-135812630D01*
X122659814Y-135805666D01*
X122642784Y-135778055D01*
X122631450Y-135759681D01*
X122567712Y-135656344D01*
X122443656Y-135532288D01*
X122294334Y-135440186D01*
X122287372Y-135437879D01*
X122287370Y-135437878D01*
X122286862Y-135437710D01*
X122286559Y-135437500D01*
X122280717Y-135434776D01*
X122281183Y-135433777D01*
X122228492Y-135397293D01*
X122201239Y-135331736D01*
X122200500Y-135318107D01*
X122200500Y-133157628D01*
X122200499Y-133157623D01*
X122200499Y-133126000D01*
X122220501Y-133057879D01*
X122274157Y-133011386D01*
X122326499Y-133000000D01*
X131573500Y-133000000D01*
X131641621Y-133020002D01*
G37*
%TD.AperFunction*%
%TD*%
%TA.AperFunction,Conductor*%
%TO.N,/PWR_OUT*%
G36*
X159442121Y-90021002D02*
G01*
X159488614Y-90074658D01*
X159500000Y-90127000D01*
X159500000Y-108015517D01*
X159479998Y-108083638D01*
X159426342Y-108130131D01*
X159356068Y-108140235D01*
X159347307Y-108138501D01*
X159344981Y-108137702D01*
X159339847Y-108136845D01*
X159339842Y-108136844D01*
X159121186Y-108100357D01*
X159121183Y-108100357D01*
X159116049Y-108099500D01*
X158883951Y-108099500D01*
X158878817Y-108100357D01*
X158878814Y-108100357D01*
X158660158Y-108136844D01*
X158660153Y-108136845D01*
X158655019Y-108137702D01*
X158435497Y-108213064D01*
X158430915Y-108215544D01*
X158430912Y-108215545D01*
X158316730Y-108277338D01*
X158231374Y-108323530D01*
X158227263Y-108326729D01*
X158227264Y-108326729D01*
X158055649Y-108460302D01*
X158048216Y-108466087D01*
X157891021Y-108636847D01*
X157764076Y-108831151D01*
X157670843Y-109043700D01*
X157613866Y-109268695D01*
X157594700Y-109500000D01*
X157613866Y-109731305D01*
X157642169Y-109843070D01*
X157639502Y-109914015D01*
X157598902Y-109972257D01*
X157533259Y-109999303D01*
X157520025Y-110000000D01*
X142060479Y-110000000D01*
X142047734Y-109999354D01*
X142017568Y-109996287D01*
X142003177Y-109994823D01*
X142003176Y-109994823D01*
X142000000Y-109994500D01*
X136126000Y-109994500D01*
X136122652Y-109994860D01*
X136122651Y-109994860D01*
X136081558Y-109999278D01*
X136068089Y-110000000D01*
X110001000Y-110000000D01*
X110001000Y-90127000D01*
X110021002Y-90058879D01*
X110074658Y-90012386D01*
X110127000Y-90001000D01*
X159374000Y-90001000D01*
X159442121Y-90021002D01*
G37*
%TD.AperFunction*%
%TD*%
%TA.AperFunction,Conductor*%
%TO.N,/PWR_GND*%
G36*
X159442121Y-121520002D02*
G01*
X159488614Y-121573658D01*
X159500000Y-121626000D01*
X159500000Y-132000000D01*
X159434479Y-132000000D01*
X159421734Y-131999354D01*
X159390530Y-131996181D01*
X159377177Y-131994823D01*
X159377176Y-131994823D01*
X159374000Y-131994500D01*
X158876500Y-131994500D01*
X158873152Y-131994860D01*
X158873151Y-131994860D01*
X158832058Y-131999278D01*
X158818589Y-132000000D01*
X157479975Y-132000000D01*
X157411854Y-131979998D01*
X157365361Y-131926342D01*
X157355257Y-131856068D01*
X157357829Y-131843077D01*
X157386134Y-131731305D01*
X157405300Y-131500000D01*
X157386134Y-131268695D01*
X157329157Y-131043700D01*
X157235924Y-130831151D01*
X157108979Y-130636847D01*
X156951784Y-130466087D01*
X156768626Y-130323530D01*
X156683270Y-130277338D01*
X156569088Y-130215545D01*
X156569085Y-130215544D01*
X156564503Y-130213064D01*
X156344981Y-130137702D01*
X156339847Y-130136845D01*
X156339842Y-130136844D01*
X156121186Y-130100357D01*
X156121183Y-130100357D01*
X156116049Y-130099500D01*
X155883951Y-130099500D01*
X155878817Y-130100357D01*
X155878814Y-130100357D01*
X155660158Y-130136844D01*
X155660153Y-130136845D01*
X155655019Y-130137702D01*
X155435497Y-130213064D01*
X155430915Y-130215544D01*
X155430912Y-130215545D01*
X155316730Y-130277338D01*
X155231374Y-130323530D01*
X155048216Y-130466087D01*
X154891021Y-130636847D01*
X154764076Y-130831151D01*
X154670843Y-131043700D01*
X154613866Y-131268695D01*
X154594700Y-131500000D01*
X154613866Y-131731305D01*
X154642169Y-131843070D01*
X154639502Y-131914015D01*
X154598902Y-131972257D01*
X154533259Y-131999303D01*
X154520025Y-132000000D01*
X154128677Y-132000000D01*
X154115932Y-131999354D01*
X154084728Y-131996181D01*
X154071375Y-131994823D01*
X154071374Y-131994823D01*
X154068198Y-131994500D01*
X150824339Y-131994500D01*
X150793552Y-131990681D01*
X150751156Y-131979998D01*
X150671412Y-131959904D01*
X150666130Y-131959488D01*
X150666128Y-131959488D01*
X150541674Y-131949693D01*
X150541665Y-131949693D01*
X150539217Y-131949500D01*
X150000219Y-131949500D01*
X149460784Y-131949501D01*
X149458338Y-131949693D01*
X149458325Y-131949694D01*
X149333871Y-131959488D01*
X149333868Y-131959489D01*
X149328588Y-131959904D01*
X149323450Y-131961199D01*
X149323448Y-131961199D01*
X149206448Y-131990681D01*
X149175661Y-131994500D01*
X147824339Y-131994500D01*
X147793552Y-131990681D01*
X147751156Y-131979998D01*
X147671412Y-131959904D01*
X147666130Y-131959488D01*
X147666128Y-131959488D01*
X147541674Y-131949693D01*
X147541665Y-131949693D01*
X147539217Y-131949500D01*
X147000219Y-131949500D01*
X146460784Y-131949501D01*
X146458338Y-131949693D01*
X146458325Y-131949694D01*
X146333871Y-131959488D01*
X146333868Y-131959489D01*
X146328588Y-131959904D01*
X146323450Y-131961199D01*
X146323448Y-131961199D01*
X146206448Y-131990681D01*
X146175661Y-131994500D01*
X143324339Y-131994500D01*
X143293552Y-131990681D01*
X143251156Y-131979998D01*
X143171412Y-131959904D01*
X143166130Y-131959488D01*
X143166128Y-131959488D01*
X143041674Y-131949693D01*
X143041665Y-131949693D01*
X143039217Y-131949500D01*
X142500219Y-131949500D01*
X141960784Y-131949501D01*
X141958338Y-131949693D01*
X141958325Y-131949694D01*
X141833871Y-131959488D01*
X141833868Y-131959489D01*
X141828588Y-131959904D01*
X141823450Y-131961199D01*
X141823448Y-131961199D01*
X141706448Y-131990681D01*
X141675661Y-131994500D01*
X140826499Y-131994500D01*
X140823151Y-131994860D01*
X140823150Y-131994860D01*
X140782057Y-131999278D01*
X140768588Y-132000000D01*
X140469224Y-132000000D01*
X140417116Y-131988720D01*
X140364683Y-131964904D01*
X140146412Y-131909904D01*
X140141130Y-131909488D01*
X140141128Y-131909488D01*
X140016674Y-131899693D01*
X140016665Y-131899693D01*
X140014217Y-131899500D01*
X139500209Y-131899500D01*
X138985784Y-131899501D01*
X138983338Y-131899693D01*
X138983325Y-131899694D01*
X138858871Y-131909488D01*
X138858868Y-131909489D01*
X138853588Y-131909904D01*
X138848450Y-131911199D01*
X138848448Y-131911199D01*
X138837273Y-131914015D01*
X138635317Y-131964904D01*
X138582884Y-131988720D01*
X138530776Y-132000000D01*
X138233979Y-132000000D01*
X138221234Y-131999354D01*
X138190030Y-131996181D01*
X138176677Y-131994823D01*
X138176676Y-131994823D01*
X138173500Y-131994500D01*
X137949704Y-131994500D01*
X137948756Y-131994530D01*
X137948730Y-131994530D01*
X137905103Y-131995893D01*
X137886975Y-131996459D01*
X137876169Y-131998245D01*
X137875749Y-131998314D01*
X137855207Y-132000000D01*
X137446167Y-132000000D01*
X137415380Y-131996181D01*
X137351156Y-131979998D01*
X137271412Y-131959904D01*
X137266130Y-131959488D01*
X137266128Y-131959488D01*
X137141674Y-131949693D01*
X137141665Y-131949693D01*
X137139217Y-131949500D01*
X136600219Y-131949500D01*
X136060784Y-131949501D01*
X136058338Y-131949693D01*
X136058325Y-131949694D01*
X135933871Y-131959488D01*
X135933868Y-131959489D01*
X135928588Y-131959904D01*
X135923450Y-131961199D01*
X135923448Y-131961199D01*
X135784620Y-131996181D01*
X135753833Y-132000000D01*
X131633979Y-132000000D01*
X131621234Y-131999354D01*
X131590030Y-131996181D01*
X131576677Y-131994823D01*
X131576676Y-131994823D01*
X131573500Y-131994500D01*
X122326499Y-131994500D01*
X122323151Y-131994860D01*
X122323150Y-131994860D01*
X122282057Y-131999278D01*
X122268588Y-132000000D01*
X121769251Y-132000000D01*
X121763616Y-131999749D01*
X121763611Y-131999871D01*
X121760814Y-131999747D01*
X121758037Y-131999500D01*
X121388757Y-131999500D01*
X121388754Y-131999501D01*
X121241964Y-131999501D01*
X121239184Y-131999748D01*
X121236392Y-131999872D01*
X121236387Y-131999750D01*
X121230762Y-132000000D01*
X120733979Y-132000000D01*
X120721234Y-131999354D01*
X120690030Y-131996181D01*
X120676677Y-131994823D01*
X120676676Y-131994823D01*
X120673500Y-131994500D01*
X116658716Y-131994500D01*
X116655499Y-131994831D01*
X116655495Y-131994831D01*
X116611656Y-131999339D01*
X116598768Y-132000000D01*
X110127000Y-132000000D01*
X110058879Y-131979998D01*
X110012386Y-131926342D01*
X110001000Y-131874000D01*
X110001000Y-121626000D01*
X110021002Y-121557879D01*
X110074658Y-121511386D01*
X110127000Y-121500000D01*
X159374000Y-121500000D01*
X159442121Y-121520002D01*
G37*
%TD.AperFunction*%
%TD*%
%TA.AperFunction,Conductor*%
%TO.N,/SWITCH_PATH2*%
G36*
X184442121Y-111020002D02*
G01*
X184488614Y-111073658D01*
X184500000Y-111126000D01*
X184500000Y-116374000D01*
X184479998Y-116442121D01*
X184426342Y-116488614D01*
X184374000Y-116500000D01*
X179131500Y-116500000D01*
X179063379Y-116479998D01*
X179016886Y-116426342D01*
X179005500Y-116374000D01*
X179005500Y-115626000D01*
X179000722Y-115581557D01*
X179000000Y-115568089D01*
X179000000Y-111126000D01*
X179020002Y-111057879D01*
X179073658Y-111011386D01*
X179126000Y-111000000D01*
X184374000Y-111000000D01*
X184442121Y-111020002D01*
G37*
%TD.AperFunction*%
%TD*%
%TA.AperFunction,Conductor*%
%TO.N,/PWR_IN*%
G36*
X199494500Y-123874000D02*
G01*
X199474498Y-123942121D01*
X199420842Y-123988614D01*
X199368500Y-124000000D01*
X160631500Y-124000000D01*
X160563379Y-123979998D01*
X160516886Y-123926342D01*
X160505500Y-123874000D01*
X160505500Y-121626000D01*
X160500722Y-121581557D01*
X160500000Y-121568089D01*
X160500000Y-120626500D01*
X160520002Y-120558379D01*
X160573658Y-120511886D01*
X160626000Y-120500500D01*
X161124335Y-120500500D01*
X161124338Y-120500499D01*
X161558036Y-120500499D01*
X161560813Y-120500252D01*
X161560816Y-120500252D01*
X161563650Y-120500000D01*
X199494500Y-120500000D01*
X199494500Y-123874000D01*
G37*
%TD.AperFunction*%
%TD*%
%TA.AperFunction,Conductor*%
%TO.N,/PWR_PATH1*%
G36*
X209941121Y-90021002D02*
G01*
X209987614Y-90074658D01*
X209999000Y-90127000D01*
X209999000Y-109868500D01*
X209978998Y-109936621D01*
X209925342Y-109983114D01*
X209873000Y-109994500D01*
X200500000Y-109994500D01*
X200497616Y-109994682D01*
X200497604Y-109994682D01*
X200432556Y-109999636D01*
X200422989Y-110000000D01*
X184434479Y-110000000D01*
X184421734Y-109999354D01*
X184391568Y-109996287D01*
X184377177Y-109994823D01*
X184377176Y-109994823D01*
X184374000Y-109994500D01*
X179371078Y-109994500D01*
X179298808Y-109971713D01*
X179296953Y-109970415D01*
X179288239Y-109963728D01*
X179253003Y-109934161D01*
X179252999Y-109934158D01*
X179248786Y-109930623D01*
X179204170Y-109904864D01*
X179194924Y-109898973D01*
X179152734Y-109869432D01*
X179106054Y-109847664D01*
X179096323Y-109842598D01*
X179056484Y-109819597D01*
X179056481Y-109819596D01*
X179051715Y-109816844D01*
X179046539Y-109814960D01*
X179003327Y-109799232D01*
X178993171Y-109795026D01*
X178946496Y-109773261D01*
X178941186Y-109771838D01*
X178941180Y-109771836D01*
X178896752Y-109759932D01*
X178886267Y-109756626D01*
X178843053Y-109740897D01*
X178843045Y-109740895D01*
X178837880Y-109739015D01*
X178787165Y-109730072D01*
X178776433Y-109727693D01*
X178726692Y-109714365D01*
X178721210Y-109713885D01*
X178721202Y-109713884D01*
X178675396Y-109709876D01*
X178664499Y-109708442D01*
X178625280Y-109701527D01*
X178613779Y-109699499D01*
X178386221Y-109699499D01*
X178386217Y-109699500D01*
X174546018Y-109699500D01*
X174505106Y-109692673D01*
X174446066Y-109672405D01*
X174344981Y-109637702D01*
X174339847Y-109636845D01*
X174339842Y-109636844D01*
X174121186Y-109600357D01*
X174121183Y-109600357D01*
X174116049Y-109599500D01*
X173883951Y-109599500D01*
X173878817Y-109600357D01*
X173878814Y-109600357D01*
X173660158Y-109636844D01*
X173660153Y-109636845D01*
X173655019Y-109637702D01*
X173435497Y-109713064D01*
X173430915Y-109715544D01*
X173430912Y-109715545D01*
X173326896Y-109771836D01*
X173231374Y-109823530D01*
X173227263Y-109826729D01*
X173227264Y-109826729D01*
X173089235Y-109934161D01*
X173048216Y-109966087D01*
X173016997Y-110000000D01*
X160500000Y-110000000D01*
X160500000Y-108075996D01*
X160500646Y-108063248D01*
X160505177Y-108018694D01*
X160505177Y-108018693D01*
X160505500Y-108015517D01*
X160505500Y-90127000D01*
X160525502Y-90058879D01*
X160579158Y-90012386D01*
X160631500Y-90001000D01*
X209873000Y-90001000D01*
X209941121Y-90021002D01*
G37*
%TD.AperFunction*%
%TD*%
%TA.AperFunction,Conductor*%
%TO.N,/PWR_PATH1*%
G36*
X172891021Y-110136847D02*
G01*
X172888169Y-110141213D01*
X172888167Y-110141215D01*
X172880287Y-110153277D01*
X172764076Y-110331151D01*
X172670843Y-110543700D01*
X172669565Y-110548749D01*
X172669563Y-110548753D01*
X172630873Y-110701535D01*
X172613866Y-110768695D01*
X172613436Y-110773886D01*
X172613435Y-110773891D01*
X172606306Y-110859929D01*
X172594700Y-111000000D01*
X172613866Y-111231305D01*
X172670843Y-111456300D01*
X172764076Y-111668849D01*
X172891021Y-111863153D01*
X173048216Y-112033913D01*
X173231374Y-112176470D01*
X173235957Y-112178950D01*
X173430912Y-112284455D01*
X173430915Y-112284456D01*
X173435497Y-112286936D01*
X173655019Y-112362298D01*
X173660153Y-112363155D01*
X173660158Y-112363156D01*
X173878814Y-112399643D01*
X173878817Y-112399643D01*
X173883951Y-112400500D01*
X174116049Y-112400500D01*
X174121183Y-112399643D01*
X174121186Y-112399643D01*
X174339842Y-112363156D01*
X174339847Y-112363155D01*
X174344981Y-112362298D01*
X174505105Y-112307327D01*
X174546018Y-112300500D01*
X177868500Y-112300500D01*
X177936621Y-112320502D01*
X177983114Y-112374158D01*
X177994500Y-112426500D01*
X177994500Y-114368500D01*
X177974498Y-114436621D01*
X177920842Y-114483114D01*
X177868500Y-114494500D01*
X163268438Y-114494500D01*
X163216063Y-114499430D01*
X163215908Y-114499445D01*
X163204099Y-114500000D01*
X161586051Y-114500000D01*
X161537835Y-114490410D01*
X161496111Y-114473127D01*
X161411711Y-114452865D01*
X161255961Y-114415472D01*
X161255955Y-114415471D01*
X161251148Y-114414317D01*
X161000000Y-114394551D01*
X160748852Y-114414317D01*
X160744045Y-114415471D01*
X160744039Y-114415472D01*
X160655414Y-114436749D01*
X160584506Y-114433201D01*
X160526772Y-114391882D01*
X160500542Y-114325908D01*
X160500000Y-114314230D01*
X160500000Y-110000000D01*
X173016997Y-110000000D01*
X172891021Y-110136847D01*
G37*
%TD.AperFunction*%
%TD*%
%TA.AperFunction,Conductor*%
%TO.N,/PWR_PATH2*%
G36*
X159436621Y-111020002D02*
G01*
X159483114Y-111073658D01*
X159494500Y-111126000D01*
X159494500Y-114314230D01*
X159495581Y-114360847D01*
X159496123Y-114372525D01*
X159496348Y-114374546D01*
X159496349Y-114374554D01*
X159499224Y-114400332D01*
X159500000Y-114414297D01*
X159500000Y-115413949D01*
X159490410Y-115462165D01*
X159473127Y-115503889D01*
X159414317Y-115748852D01*
X159394551Y-116000000D01*
X159414317Y-116251148D01*
X159473127Y-116496111D01*
X159475020Y-116500682D01*
X159475021Y-116500684D01*
X159489909Y-116536626D01*
X159499500Y-116584844D01*
X159499500Y-116915156D01*
X159489909Y-116963373D01*
X159473127Y-117003889D01*
X159471972Y-117008701D01*
X159415615Y-117243446D01*
X159414317Y-117248852D01*
X159394551Y-117500000D01*
X159414317Y-117751148D01*
X159473127Y-117996111D01*
X159475020Y-118000682D01*
X159475021Y-118000684D01*
X159489909Y-118036626D01*
X159499500Y-118084844D01*
X159499500Y-119062067D01*
X159499501Y-119062074D01*
X159499501Y-119437922D01*
X159499500Y-119437933D01*
X159499500Y-120368500D01*
X159479498Y-120436621D01*
X159425842Y-120483114D01*
X159373500Y-120494500D01*
X142126000Y-120494500D01*
X142057879Y-120474498D01*
X142011386Y-120420842D01*
X142000000Y-120368500D01*
X142000000Y-111003725D01*
X142007547Y-111004108D01*
X142008749Y-111004169D01*
X142008755Y-111004169D01*
X142009579Y-111004211D01*
X142023779Y-111004571D01*
X142059712Y-111005481D01*
X142059744Y-111005481D01*
X142060479Y-111005500D01*
X157520025Y-111005500D01*
X157572909Y-111004108D01*
X157578463Y-111003815D01*
X157584024Y-111003523D01*
X157584036Y-111003522D01*
X157586143Y-111003411D01*
X157606803Y-111000912D01*
X157621933Y-111000000D01*
X159368500Y-111000000D01*
X159436621Y-111020002D01*
G37*
%TD.AperFunction*%
%TD*%
%TA.AperFunction,Conductor*%
%TO.N,/PWR_GND*%
G36*
X200500000Y-116500000D02*
G01*
X185631500Y-116500000D01*
X185563379Y-116479998D01*
X185516886Y-116426342D01*
X185505500Y-116374000D01*
X185505500Y-111131500D01*
X185525502Y-111063379D01*
X185579158Y-111016886D01*
X185631500Y-111005500D01*
X200422989Y-111005500D01*
X200423551Y-111005489D01*
X200423584Y-111005489D01*
X200448002Y-111005024D01*
X200461218Y-111004773D01*
X200468660Y-111004490D01*
X200470156Y-111004433D01*
X200470163Y-111004433D01*
X200470785Y-111004409D01*
X200471410Y-111004373D01*
X200471438Y-111004372D01*
X200500000Y-111002742D01*
X200500000Y-116500000D01*
G37*
%TD.AperFunction*%
%TD*%
%TA.AperFunction,Conductor*%
%TO.N,/PWR_OUT*%
G36*
X136078266Y-117500646D02*
G01*
X136108432Y-117503713D01*
X136122823Y-117505177D01*
X136122824Y-117505177D01*
X136126000Y-117505500D01*
X140868500Y-117505500D01*
X140936621Y-117525502D01*
X140983114Y-117579158D01*
X140994500Y-117631500D01*
X140994500Y-120368500D01*
X140974498Y-120436621D01*
X140920842Y-120483114D01*
X140868500Y-120494500D01*
X110127000Y-120494500D01*
X110058879Y-120474498D01*
X110012386Y-120420842D01*
X110001000Y-120368500D01*
X110001000Y-117500000D01*
X136065521Y-117500000D01*
X136078266Y-117500646D01*
G37*
%TD.AperFunction*%
%TD*%
%TA.AperFunction,Conductor*%
%TO.N,/PWR_GND*%
G36*
X160583766Y-125000646D02*
G01*
X160613932Y-125003713D01*
X160628323Y-125005177D01*
X160628324Y-125005177D01*
X160631500Y-125005500D01*
X199368500Y-125005500D01*
X199412943Y-125000722D01*
X199426411Y-125000000D01*
X209999000Y-125000000D01*
X209999000Y-131868500D01*
X209978998Y-131936621D01*
X209925342Y-131983114D01*
X209873000Y-131994500D01*
X180226499Y-131994500D01*
X180223152Y-131994860D01*
X180223149Y-131994860D01*
X180182056Y-131999278D01*
X180168588Y-132000000D01*
X180069643Y-132000000D01*
X179997888Y-131977572D01*
X179974280Y-131961216D01*
X179974270Y-131961210D01*
X179969626Y-131957993D01*
X179964478Y-131955655D01*
X179964475Y-131955653D01*
X179896508Y-131924781D01*
X179764683Y-131864904D01*
X179546412Y-131809904D01*
X179541130Y-131809488D01*
X179541128Y-131809488D01*
X179416674Y-131799693D01*
X179416665Y-131799693D01*
X179414217Y-131799500D01*
X179000168Y-131799500D01*
X178585784Y-131799501D01*
X178583338Y-131799693D01*
X178583325Y-131799694D01*
X178458871Y-131809488D01*
X178458868Y-131809489D01*
X178453588Y-131809904D01*
X178448450Y-131811199D01*
X178448448Y-131811199D01*
X178381017Y-131828191D01*
X178235317Y-131864904D01*
X178077426Y-131936621D01*
X178052108Y-131948121D01*
X177981814Y-131958082D01*
X177947892Y-131948121D01*
X177922574Y-131936621D01*
X177764683Y-131864904D01*
X177546412Y-131809904D01*
X177541130Y-131809488D01*
X177541128Y-131809488D01*
X177416674Y-131799693D01*
X177416665Y-131799693D01*
X177414217Y-131799500D01*
X177000168Y-131799500D01*
X176585784Y-131799501D01*
X176583338Y-131799693D01*
X176583325Y-131799694D01*
X176458871Y-131809488D01*
X176458868Y-131809489D01*
X176453588Y-131809904D01*
X176448450Y-131811199D01*
X176448448Y-131811199D01*
X176381017Y-131828191D01*
X176235317Y-131864904D01*
X176089956Y-131930930D01*
X176035534Y-131955649D01*
X176035532Y-131955650D01*
X176030374Y-131957993D01*
X176002112Y-131977573D01*
X175930359Y-132000000D01*
X174602673Y-132000000D01*
X174589928Y-131999354D01*
X174559762Y-131996287D01*
X174545371Y-131994823D01*
X174545370Y-131994823D01*
X174542194Y-131994500D01*
X160626000Y-131994500D01*
X160622652Y-131994860D01*
X160622651Y-131994860D01*
X160581558Y-131999278D01*
X160568089Y-132000000D01*
X159500000Y-132000000D01*
X159500000Y-125000000D01*
X160571021Y-125000000D01*
X160583766Y-125000646D01*
G37*
%TD.AperFunction*%
%TD*%
%TA.AperFunction,Conductor*%
%TO.N,/PWR_OUT*%
G36*
X134500000Y-117500000D02*
G01*
X110001000Y-117500000D01*
X110001000Y-110000000D01*
X134500000Y-110000000D01*
X134500000Y-117500000D01*
G37*
%TD.AperFunction*%
%TD*%
%TA.AperFunction,Conductor*%
%TO.N,/PWR_IN*%
G36*
X179083766Y-117500646D02*
G01*
X179113932Y-117503713D01*
X179128323Y-117505177D01*
X179128324Y-117505177D01*
X179131500Y-117505500D01*
X184374000Y-117505500D01*
X184418443Y-117500722D01*
X184431911Y-117500000D01*
X185571021Y-117500000D01*
X185583766Y-117500646D01*
X185613932Y-117503713D01*
X185628323Y-117505177D01*
X185628324Y-117505177D01*
X185631500Y-117505500D01*
X199368500Y-117505500D01*
X199436621Y-117525502D01*
X199483114Y-117579158D01*
X199494500Y-117631500D01*
X199494500Y-120500000D01*
X178000000Y-120500000D01*
X178000000Y-117500000D01*
X179071021Y-117500000D01*
X179083766Y-117500646D01*
G37*
%TD.AperFunction*%
%TD*%
M02*
