%TF.GenerationSoftware,KiCad,Pcbnew,6.99.0-unknown-c34fb494b1~148~ubuntu20.04.1*%
%TF.CreationDate,2022-06-23T00:09:45+02:00*%
%TF.ProjectId,optimizer,6f707469-6d69-47a6-9572-2e6b69636164,rev?*%
%TF.SameCoordinates,Original*%
%TF.FileFunction,Soldermask,Top*%
%TF.FilePolarity,Negative*%
%FSLAX46Y46*%
G04 Gerber Fmt 4.6, Leading zero omitted, Abs format (unit mm)*
G04 Created by KiCad (PCBNEW 6.99.0-unknown-c34fb494b1~148~ubuntu20.04.1) date 2022-06-23 00:09:45*
%MOMM*%
%LPD*%
G01*
G04 APERTURE LIST*
G04 Aperture macros list*
%AMRoundRect*
0 Rectangle with rounded corners*
0 $1 Rounding radius*
0 $2 $3 $4 $5 $6 $7 $8 $9 X,Y pos of 4 corners*
0 Add a 4 corners polygon primitive as box body*
4,1,4,$2,$3,$4,$5,$6,$7,$8,$9,$2,$3,0*
0 Add four circle primitives for the rounded corners*
1,1,$1+$1,$2,$3*
1,1,$1+$1,$4,$5*
1,1,$1+$1,$6,$7*
1,1,$1+$1,$8,$9*
0 Add four rect primitives between the rounded corners*
20,1,$1+$1,$2,$3,$4,$5,0*
20,1,$1+$1,$4,$5,$6,$7,0*
20,1,$1+$1,$6,$7,$8,$9,0*
20,1,$1+$1,$8,$9,$2,$3,0*%
G04 Aperture macros list end*
%ADD10C,0.150000*%
%ADD11RoundRect,0.150000X-0.512500X-0.150000X0.512500X-0.150000X0.512500X0.150000X-0.512500X0.150000X0*%
%ADD12C,4.300000*%
%ADD13RoundRect,0.250000X0.412500X0.650000X-0.412500X0.650000X-0.412500X-0.650000X0.412500X-0.650000X0*%
%ADD14RoundRect,0.250000X0.475000X-0.337500X0.475000X0.337500X-0.475000X0.337500X-0.475000X-0.337500X0*%
%ADD15RoundRect,0.250000X0.450000X-0.350000X0.450000X0.350000X-0.450000X0.350000X-0.450000X-0.350000X0*%
%ADD16R,4.600000X1.100000*%
%ADD17R,9.400000X10.800000*%
%ADD18RoundRect,0.250000X0.350000X0.450000X-0.350000X0.450000X-0.350000X-0.450000X0.350000X-0.450000X0*%
%ADD19C,5.500000*%
%ADD20RoundRect,0.250000X-0.475000X0.337500X-0.475000X-0.337500X0.475000X-0.337500X0.475000X0.337500X0*%
%ADD21RoundRect,0.250000X-0.325000X-0.450000X0.325000X-0.450000X0.325000X0.450000X-0.325000X0.450000X0*%
%ADD22C,1.524000*%
%ADD23RoundRect,0.250000X-0.337500X-0.475000X0.337500X-0.475000X0.337500X0.475000X-0.337500X0.475000X0*%
%ADD24R,2.200000X1.200000*%
%ADD25R,6.400000X5.800000*%
%ADD26C,2.000000*%
%ADD27RoundRect,0.250000X0.337500X0.475000X-0.337500X0.475000X-0.337500X-0.475000X0.337500X-0.475000X0*%
%ADD28RoundRect,0.150000X-0.587500X-0.150000X0.587500X-0.150000X0.587500X0.150000X-0.587500X0.150000X0*%
%ADD29RoundRect,0.150000X0.825000X0.150000X-0.825000X0.150000X-0.825000X-0.150000X0.825000X-0.150000X0*%
%ADD30R,2.000000X1.500000*%
%ADD31R,2.000000X3.800000*%
%ADD32RoundRect,0.250000X-0.450000X0.350000X-0.450000X-0.350000X0.450000X-0.350000X0.450000X0.350000X0*%
%ADD33R,1.700000X1.700000*%
%ADD34O,1.700000X1.700000*%
G04 APERTURE END LIST*
D10*
G36*
X185500000Y-132000000D02*
G01*
X175000000Y-132000000D01*
X175000000Y-124000000D01*
X185500000Y-124000000D01*
X185500000Y-132000000D01*
G37*
X185500000Y-132000000D02*
X175000000Y-132000000D01*
X175000000Y-124000000D01*
X185500000Y-124000000D01*
X185500000Y-132000000D01*
G36*
X185500000Y-112000000D02*
G01*
X175000000Y-112000000D01*
X175000000Y-96000000D01*
X185500000Y-96000000D01*
X185500000Y-112000000D01*
G37*
X185500000Y-112000000D02*
X175000000Y-112000000D01*
X175000000Y-96000000D01*
X185500000Y-96000000D01*
X185500000Y-112000000D01*
G36*
X137000000Y-132000000D02*
G01*
X126500000Y-132000000D01*
X126500000Y-124000000D01*
X137000000Y-124000000D01*
X137000000Y-132000000D01*
G37*
X137000000Y-132000000D02*
X126500000Y-132000000D01*
X126500000Y-124000000D01*
X137000000Y-124000000D01*
X137000000Y-132000000D01*
G36*
X137000000Y-112000000D02*
G01*
X126500000Y-112000000D01*
X126500000Y-96000000D01*
X137000000Y-96000000D01*
X137000000Y-112000000D01*
G37*
X137000000Y-112000000D02*
X126500000Y-112000000D01*
X126500000Y-96000000D01*
X137000000Y-96000000D01*
X137000000Y-112000000D01*
D11*
%TO.C,U4*%
X162862500Y-107050000D03*
X162862500Y-108000000D03*
X162862500Y-108950000D03*
X165137500Y-108950000D03*
X165137500Y-108000000D03*
X165137500Y-107050000D03*
%TD*%
D12*
%TO.C,H1*%
X121000000Y-100000000D03*
%TD*%
D13*
%TO.C,C8*%
X157562500Y-112000000D03*
X154437500Y-112000000D03*
%TD*%
D12*
%TO.C,H2*%
X191000000Y-100000000D03*
%TD*%
D14*
%TO.C,C1*%
X179000000Y-140037500D03*
X179000000Y-137962500D03*
%TD*%
D13*
%TO.C,C10*%
X157562500Y-118000000D03*
X154437500Y-118000000D03*
%TD*%
D15*
%TO.C,R3*%
X145537500Y-133500000D03*
X145537500Y-131500000D03*
%TD*%
D14*
%TO.C,C3*%
X148537500Y-133537500D03*
X148537500Y-131462500D03*
%TD*%
%TO.C,C4*%
X176000000Y-140037500D03*
X176000000Y-137962500D03*
%TD*%
D16*
%TO.C,D2*%
X141149999Y-115459999D03*
D17*
X131999999Y-117999999D03*
D16*
X141149999Y-120539999D03*
%TD*%
D13*
%TO.C,C12*%
X157562500Y-124000000D03*
X154437500Y-124000000D03*
%TD*%
D18*
%TO.C,R2*%
X148037500Y-136500000D03*
X146037500Y-136500000D03*
%TD*%
D14*
%TO.C,C7*%
X190500000Y-142537500D03*
X190500000Y-140462500D03*
%TD*%
D18*
%TO.C,R1*%
X178500000Y-142500000D03*
X176500000Y-142500000D03*
%TD*%
D19*
%TO.C,J2*%
X120000000Y-115000000D03*
%TD*%
D20*
%TO.C,C16*%
X168500000Y-140462500D03*
X168500000Y-142537500D03*
%TD*%
D21*
%TO.C,D1*%
X171975000Y-142500000D03*
X174025000Y-142500000D03*
%TD*%
D22*
%TO.C,X1*%
X178540000Y-135000000D03*
X176000000Y-135000000D03*
X173460000Y-135000000D03*
%TD*%
D23*
%TO.C,C6*%
X123000000Y-141000000D03*
X125075000Y-141000000D03*
%TD*%
D24*
%TO.C,U1*%
X139337499Y-138279999D03*
D25*
X133037499Y-135999999D03*
D24*
X139337499Y-133719999D03*
%TD*%
D14*
%TO.C,C2*%
X142637500Y-133537500D03*
X142637500Y-131462500D03*
%TD*%
D19*
%TO.C,J1*%
X149000000Y-115000000D03*
%TD*%
D20*
%TO.C,C15*%
X156000000Y-106962500D03*
X156000000Y-109037500D03*
%TD*%
D26*
%TO.C,TP2*%
X173000000Y-110500000D03*
%TD*%
D13*
%TO.C,C9*%
X157562500Y-115000000D03*
X154437500Y-115000000D03*
%TD*%
D27*
%TO.C,C5*%
X130075000Y-141000000D03*
X128000000Y-141000000D03*
%TD*%
D28*
%TO.C,D3*%
X161062500Y-136050000D03*
X161062500Y-137950000D03*
X162937500Y-137000000D03*
%TD*%
D13*
%TO.C,C13*%
X157562500Y-127000000D03*
X154437500Y-127000000D03*
%TD*%
D20*
%TO.C,C14*%
X159000000Y-106962500D03*
X159000000Y-109037500D03*
%TD*%
D26*
%TO.C,TP3*%
X168500000Y-137000000D03*
%TD*%
D29*
%TO.C,U3*%
X187475000Y-142310000D03*
X187475000Y-141040000D03*
X187475000Y-139770000D03*
X187475000Y-138500000D03*
X187475000Y-137230000D03*
X187475000Y-135960000D03*
X187475000Y-134690000D03*
X182525000Y-134690000D03*
X182525000Y-135960000D03*
X182525000Y-137230000D03*
X182525000Y-138500000D03*
X182525000Y-139770000D03*
X182525000Y-141040000D03*
X182525000Y-142310000D03*
%TD*%
D16*
%TO.C,Q1*%
X170849999Y-115459999D03*
D17*
X179999999Y-117999999D03*
D16*
X170849999Y-120539999D03*
%TD*%
D13*
%TO.C,C11*%
X157562500Y-121000000D03*
X154437500Y-121000000D03*
%TD*%
D30*
%TO.C,U2*%
X126687499Y-138299999D03*
X126687499Y-135999999D03*
D31*
X120387499Y-135999999D03*
D30*
X126687499Y-133699999D03*
%TD*%
D32*
%TO.C,R5*%
X165500000Y-140500000D03*
X165500000Y-142500000D03*
%TD*%
D19*
%TO.C,J4*%
X192000000Y-115000000D03*
%TD*%
D32*
%TO.C,R4*%
X165500000Y-136000000D03*
X165500000Y-138000000D03*
%TD*%
D33*
%TO.C,J5*%
X193999999Y-142299999D03*
D34*
X193999999Y-139759999D03*
X193999999Y-137219999D03*
X193999999Y-134679999D03*
%TD*%
D26*
%TO.C,TP1*%
X168000000Y-110500000D03*
%TD*%
D19*
%TO.C,J3*%
X163000000Y-115000000D03*
%TD*%
M02*
