%TF.GenerationSoftware,KiCad,Pcbnew,6.99.0-unknown-484fabf336~148~ubuntu20.04.1*%
%TF.CreationDate,2022-05-02T21:27:03+02:00*%
%TF.ProjectId,optimizer,6f707469-6d69-47a6-9572-2e6b69636164,rev?*%
%TF.SameCoordinates,Original*%
%TF.FileFunction,Legend,Top*%
%TF.FilePolarity,Positive*%
%FSLAX46Y46*%
G04 Gerber Fmt 4.6, Leading zero omitted, Abs format (unit mm)*
G04 Created by KiCad (PCBNEW 6.99.0-unknown-484fabf336~148~ubuntu20.04.1) date 2022-05-02 21:27:03*
%MOMM*%
%LPD*%
G01*
G04 APERTURE LIST*
%ADD10C,0.150000*%
%ADD11C,0.400000*%
%ADD12C,0.120000*%
%ADD13C,1.524000*%
G04 APERTURE END LIST*
D10*
X195247619Y-111367380D02*
X195438095Y-111367380D01*
X195438095Y-111367380D02*
X195533333Y-111415000D01*
X195533333Y-111415000D02*
X195628571Y-111510238D01*
X195628571Y-111510238D02*
X195676190Y-111700714D01*
X195676190Y-111700714D02*
X195676190Y-112034047D01*
X195676190Y-112034047D02*
X195628571Y-112224523D01*
X195628571Y-112224523D02*
X195533333Y-112319761D01*
X195533333Y-112319761D02*
X195438095Y-112367380D01*
X195438095Y-112367380D02*
X195247619Y-112367380D01*
X195247619Y-112367380D02*
X195152381Y-112319761D01*
X195152381Y-112319761D02*
X195057143Y-112224523D01*
X195057143Y-112224523D02*
X195009524Y-112034047D01*
X195009524Y-112034047D02*
X195009524Y-111700714D01*
X195009524Y-111700714D02*
X195057143Y-111510238D01*
X195057143Y-111510238D02*
X195152381Y-111415000D01*
X195152381Y-111415000D02*
X195247619Y-111367380D01*
X196104762Y-112367380D02*
X196104762Y-111367380D01*
X196104762Y-111367380D02*
X196485714Y-111367380D01*
X196485714Y-111367380D02*
X196580952Y-111415000D01*
X196580952Y-111415000D02*
X196628571Y-111462619D01*
X196628571Y-111462619D02*
X196676190Y-111557857D01*
X196676190Y-111557857D02*
X196676190Y-111700714D01*
X196676190Y-111700714D02*
X196628571Y-111795952D01*
X196628571Y-111795952D02*
X196580952Y-111843571D01*
X196580952Y-111843571D02*
X196485714Y-111891190D01*
X196485714Y-111891190D02*
X196104762Y-111891190D01*
X196961905Y-111367380D02*
X197533333Y-111367380D01*
X197247619Y-112367380D02*
X197247619Y-111367380D01*
X197866667Y-112367380D02*
X197866667Y-111367380D01*
X198342857Y-112367380D02*
X198342857Y-111367380D01*
X198342857Y-111367380D02*
X198676190Y-112081666D01*
X198676190Y-112081666D02*
X199009523Y-111367380D01*
X199009523Y-111367380D02*
X199009523Y-112367380D01*
X199485714Y-112367380D02*
X199485714Y-111367380D01*
X199914285Y-112319761D02*
X200057142Y-112367380D01*
X200057142Y-112367380D02*
X200295237Y-112367380D01*
X200295237Y-112367380D02*
X200390475Y-112319761D01*
X200390475Y-112319761D02*
X200438094Y-112272142D01*
X200438094Y-112272142D02*
X200485713Y-112176904D01*
X200485713Y-112176904D02*
X200485713Y-112081666D01*
X200485713Y-112081666D02*
X200438094Y-111986428D01*
X200438094Y-111986428D02*
X200390475Y-111938809D01*
X200390475Y-111938809D02*
X200295237Y-111891190D01*
X200295237Y-111891190D02*
X200104761Y-111843571D01*
X200104761Y-111843571D02*
X200009523Y-111795952D01*
X200009523Y-111795952D02*
X199961904Y-111748333D01*
X199961904Y-111748333D02*
X199914285Y-111653095D01*
X199914285Y-111653095D02*
X199914285Y-111557857D01*
X199914285Y-111557857D02*
X199961904Y-111462619D01*
X199961904Y-111462619D02*
X200009523Y-111415000D01*
X200009523Y-111415000D02*
X200104761Y-111367380D01*
X200104761Y-111367380D02*
X200342856Y-111367380D01*
X200342856Y-111367380D02*
X200485713Y-111415000D01*
X200771428Y-111367380D02*
X201342856Y-111367380D01*
X201057142Y-112367380D02*
X201057142Y-111367380D01*
X202180952Y-111700714D02*
X202419047Y-112367380D01*
X202419047Y-112367380D02*
X202657142Y-111700714D01*
X203561904Y-112367380D02*
X202990476Y-112367380D01*
X203276190Y-112367380D02*
X203276190Y-111367380D01*
X203276190Y-111367380D02*
X203180952Y-111510238D01*
X203180952Y-111510238D02*
X203085714Y-111605476D01*
X203085714Y-111605476D02*
X202990476Y-111653095D01*
X203990476Y-112272142D02*
X204038095Y-112319761D01*
X204038095Y-112319761D02*
X203990476Y-112367380D01*
X203990476Y-112367380D02*
X203942857Y-112319761D01*
X203942857Y-112319761D02*
X203990476Y-112272142D01*
X203990476Y-112272142D02*
X203990476Y-112367380D01*
X204657142Y-111367380D02*
X204752380Y-111367380D01*
X204752380Y-111367380D02*
X204847618Y-111415000D01*
X204847618Y-111415000D02*
X204895237Y-111462619D01*
X204895237Y-111462619D02*
X204942856Y-111557857D01*
X204942856Y-111557857D02*
X204990475Y-111748333D01*
X204990475Y-111748333D02*
X204990475Y-111986428D01*
X204990475Y-111986428D02*
X204942856Y-112176904D01*
X204942856Y-112176904D02*
X204895237Y-112272142D01*
X204895237Y-112272142D02*
X204847618Y-112319761D01*
X204847618Y-112319761D02*
X204752380Y-112367380D01*
X204752380Y-112367380D02*
X204657142Y-112367380D01*
X204657142Y-112367380D02*
X204561904Y-112319761D01*
X204561904Y-112319761D02*
X204514285Y-112272142D01*
X204514285Y-112272142D02*
X204466666Y-112176904D01*
X204466666Y-112176904D02*
X204419047Y-111986428D01*
X204419047Y-111986428D02*
X204419047Y-111748333D01*
X204419047Y-111748333D02*
X204466666Y-111557857D01*
X204466666Y-111557857D02*
X204514285Y-111462619D01*
X204514285Y-111462619D02*
X204561904Y-111415000D01*
X204561904Y-111415000D02*
X204657142Y-111367380D01*
X164250000Y-128000000D02*
X164750000Y-128000000D01*
X161500000Y-121750000D02*
X191250000Y-121750000D01*
X191250000Y-121750000D02*
X191250000Y-127250000D01*
X191250000Y-127250000D02*
X161500000Y-127250000D01*
X161500000Y-127250000D02*
X161500000Y-121750000D01*
X111500000Y-118250000D02*
X141250000Y-118250000D01*
X141250000Y-118250000D02*
X141250000Y-123750000D01*
X141250000Y-123750000D02*
X111500000Y-123750000D01*
X111500000Y-123750000D02*
X111500000Y-118250000D01*
X136750000Y-124500000D02*
X137250000Y-124500000D01*
X185000000Y-136750000D02*
X191500000Y-136750000D01*
X191500000Y-136750000D02*
X191750000Y-137000000D01*
X188250000Y-136750000D02*
X188500000Y-137000000D01*
%TO.C,C30*%
X187522142Y-138892857D02*
X187569761Y-138940476D01*
X187569761Y-138940476D02*
X187617380Y-139083333D01*
X187617380Y-139083333D02*
X187617380Y-139178571D01*
X187617380Y-139178571D02*
X187569761Y-139321428D01*
X187569761Y-139321428D02*
X187474523Y-139416666D01*
X187474523Y-139416666D02*
X187379285Y-139464285D01*
X187379285Y-139464285D02*
X187188809Y-139511904D01*
X187188809Y-139511904D02*
X187045952Y-139511904D01*
X187045952Y-139511904D02*
X186855476Y-139464285D01*
X186855476Y-139464285D02*
X186760238Y-139416666D01*
X186760238Y-139416666D02*
X186665000Y-139321428D01*
X186665000Y-139321428D02*
X186617380Y-139178571D01*
X186617380Y-139178571D02*
X186617380Y-139083333D01*
X186617380Y-139083333D02*
X186665000Y-138940476D01*
X186665000Y-138940476D02*
X186712619Y-138892857D01*
X186617380Y-138559523D02*
X186617380Y-137940476D01*
X186617380Y-137940476D02*
X186998333Y-138273809D01*
X186998333Y-138273809D02*
X186998333Y-138130952D01*
X186998333Y-138130952D02*
X187045952Y-138035714D01*
X187045952Y-138035714D02*
X187093571Y-137988095D01*
X187093571Y-137988095D02*
X187188809Y-137940476D01*
X187188809Y-137940476D02*
X187426904Y-137940476D01*
X187426904Y-137940476D02*
X187522142Y-137988095D01*
X187522142Y-137988095D02*
X187569761Y-138035714D01*
X187569761Y-138035714D02*
X187617380Y-138130952D01*
X187617380Y-138130952D02*
X187617380Y-138416666D01*
X187617380Y-138416666D02*
X187569761Y-138511904D01*
X187569761Y-138511904D02*
X187522142Y-138559523D01*
X186617380Y-137321428D02*
X186617380Y-137226190D01*
X186617380Y-137226190D02*
X186665000Y-137130952D01*
X186665000Y-137130952D02*
X186712619Y-137083333D01*
X186712619Y-137083333D02*
X186807857Y-137035714D01*
X186807857Y-137035714D02*
X186998333Y-136988095D01*
X186998333Y-136988095D02*
X187236428Y-136988095D01*
X187236428Y-136988095D02*
X187426904Y-137035714D01*
X187426904Y-137035714D02*
X187522142Y-137083333D01*
X187522142Y-137083333D02*
X187569761Y-137130952D01*
X187569761Y-137130952D02*
X187617380Y-137226190D01*
X187617380Y-137226190D02*
X187617380Y-137321428D01*
X187617380Y-137321428D02*
X187569761Y-137416666D01*
X187569761Y-137416666D02*
X187522142Y-137464285D01*
X187522142Y-137464285D02*
X187426904Y-137511904D01*
X187426904Y-137511904D02*
X187236428Y-137559523D01*
X187236428Y-137559523D02*
X186998333Y-137559523D01*
X186998333Y-137559523D02*
X186807857Y-137511904D01*
X186807857Y-137511904D02*
X186712619Y-137464285D01*
X186712619Y-137464285D02*
X186665000Y-137416666D01*
X186665000Y-137416666D02*
X186617380Y-137321428D01*
%TO.C,R3*%
X139867380Y-129666666D02*
X139391190Y-129999999D01*
X139867380Y-130238094D02*
X138867380Y-130238094D01*
X138867380Y-130238094D02*
X138867380Y-129857142D01*
X138867380Y-129857142D02*
X138915000Y-129761904D01*
X138915000Y-129761904D02*
X138962619Y-129714285D01*
X138962619Y-129714285D02*
X139057857Y-129666666D01*
X139057857Y-129666666D02*
X139200714Y-129666666D01*
X139200714Y-129666666D02*
X139295952Y-129714285D01*
X139295952Y-129714285D02*
X139343571Y-129761904D01*
X139343571Y-129761904D02*
X139391190Y-129857142D01*
X139391190Y-129857142D02*
X139391190Y-130238094D01*
X138867380Y-129333332D02*
X138867380Y-128714285D01*
X138867380Y-128714285D02*
X139248333Y-129047618D01*
X139248333Y-129047618D02*
X139248333Y-128904761D01*
X139248333Y-128904761D02*
X139295952Y-128809523D01*
X139295952Y-128809523D02*
X139343571Y-128761904D01*
X139343571Y-128761904D02*
X139438809Y-128714285D01*
X139438809Y-128714285D02*
X139676904Y-128714285D01*
X139676904Y-128714285D02*
X139772142Y-128761904D01*
X139772142Y-128761904D02*
X139819761Y-128809523D01*
X139819761Y-128809523D02*
X139867380Y-128904761D01*
X139867380Y-128904761D02*
X139867380Y-129190475D01*
X139867380Y-129190475D02*
X139819761Y-129285713D01*
X139819761Y-129285713D02*
X139772142Y-129333332D01*
%TO.C,R6*%
X177833333Y-132217380D02*
X177500000Y-131741190D01*
X177261905Y-132217380D02*
X177261905Y-131217380D01*
X177261905Y-131217380D02*
X177642857Y-131217380D01*
X177642857Y-131217380D02*
X177738095Y-131265000D01*
X177738095Y-131265000D02*
X177785714Y-131312619D01*
X177785714Y-131312619D02*
X177833333Y-131407857D01*
X177833333Y-131407857D02*
X177833333Y-131550714D01*
X177833333Y-131550714D02*
X177785714Y-131645952D01*
X177785714Y-131645952D02*
X177738095Y-131693571D01*
X177738095Y-131693571D02*
X177642857Y-131741190D01*
X177642857Y-131741190D02*
X177261905Y-131741190D01*
X178690476Y-131217380D02*
X178500000Y-131217380D01*
X178500000Y-131217380D02*
X178404762Y-131265000D01*
X178404762Y-131265000D02*
X178357143Y-131312619D01*
X178357143Y-131312619D02*
X178261905Y-131455476D01*
X178261905Y-131455476D02*
X178214286Y-131645952D01*
X178214286Y-131645952D02*
X178214286Y-132026904D01*
X178214286Y-132026904D02*
X178261905Y-132122142D01*
X178261905Y-132122142D02*
X178309524Y-132169761D01*
X178309524Y-132169761D02*
X178404762Y-132217380D01*
X178404762Y-132217380D02*
X178595238Y-132217380D01*
X178595238Y-132217380D02*
X178690476Y-132169761D01*
X178690476Y-132169761D02*
X178738095Y-132122142D01*
X178738095Y-132122142D02*
X178785714Y-132026904D01*
X178785714Y-132026904D02*
X178785714Y-131788809D01*
X178785714Y-131788809D02*
X178738095Y-131693571D01*
X178738095Y-131693571D02*
X178690476Y-131645952D01*
X178690476Y-131645952D02*
X178595238Y-131598333D01*
X178595238Y-131598333D02*
X178404762Y-131598333D01*
X178404762Y-131598333D02*
X178309524Y-131645952D01*
X178309524Y-131645952D02*
X178261905Y-131693571D01*
X178261905Y-131693571D02*
X178214286Y-131788809D01*
%TO.C,C14*%
X142772142Y-129642857D02*
X142819761Y-129690476D01*
X142819761Y-129690476D02*
X142867380Y-129833333D01*
X142867380Y-129833333D02*
X142867380Y-129928571D01*
X142867380Y-129928571D02*
X142819761Y-130071428D01*
X142819761Y-130071428D02*
X142724523Y-130166666D01*
X142724523Y-130166666D02*
X142629285Y-130214285D01*
X142629285Y-130214285D02*
X142438809Y-130261904D01*
X142438809Y-130261904D02*
X142295952Y-130261904D01*
X142295952Y-130261904D02*
X142105476Y-130214285D01*
X142105476Y-130214285D02*
X142010238Y-130166666D01*
X142010238Y-130166666D02*
X141915000Y-130071428D01*
X141915000Y-130071428D02*
X141867380Y-129928571D01*
X141867380Y-129928571D02*
X141867380Y-129833333D01*
X141867380Y-129833333D02*
X141915000Y-129690476D01*
X141915000Y-129690476D02*
X141962619Y-129642857D01*
X142867380Y-128690476D02*
X142867380Y-129261904D01*
X142867380Y-128976190D02*
X141867380Y-128976190D01*
X141867380Y-128976190D02*
X142010238Y-129071428D01*
X142010238Y-129071428D02*
X142105476Y-129166666D01*
X142105476Y-129166666D02*
X142153095Y-129261904D01*
X142200714Y-127833333D02*
X142867380Y-127833333D01*
X141819761Y-128071428D02*
X142534047Y-128309523D01*
X142534047Y-128309523D02*
X142534047Y-127690476D01*
%TO.C,C31*%
X186022142Y-138892857D02*
X186069761Y-138940476D01*
X186069761Y-138940476D02*
X186117380Y-139083333D01*
X186117380Y-139083333D02*
X186117380Y-139178571D01*
X186117380Y-139178571D02*
X186069761Y-139321428D01*
X186069761Y-139321428D02*
X185974523Y-139416666D01*
X185974523Y-139416666D02*
X185879285Y-139464285D01*
X185879285Y-139464285D02*
X185688809Y-139511904D01*
X185688809Y-139511904D02*
X185545952Y-139511904D01*
X185545952Y-139511904D02*
X185355476Y-139464285D01*
X185355476Y-139464285D02*
X185260238Y-139416666D01*
X185260238Y-139416666D02*
X185165000Y-139321428D01*
X185165000Y-139321428D02*
X185117380Y-139178571D01*
X185117380Y-139178571D02*
X185117380Y-139083333D01*
X185117380Y-139083333D02*
X185165000Y-138940476D01*
X185165000Y-138940476D02*
X185212619Y-138892857D01*
X185117380Y-138559523D02*
X185117380Y-137940476D01*
X185117380Y-137940476D02*
X185498333Y-138273809D01*
X185498333Y-138273809D02*
X185498333Y-138130952D01*
X185498333Y-138130952D02*
X185545952Y-138035714D01*
X185545952Y-138035714D02*
X185593571Y-137988095D01*
X185593571Y-137988095D02*
X185688809Y-137940476D01*
X185688809Y-137940476D02*
X185926904Y-137940476D01*
X185926904Y-137940476D02*
X186022142Y-137988095D01*
X186022142Y-137988095D02*
X186069761Y-138035714D01*
X186069761Y-138035714D02*
X186117380Y-138130952D01*
X186117380Y-138130952D02*
X186117380Y-138416666D01*
X186117380Y-138416666D02*
X186069761Y-138511904D01*
X186069761Y-138511904D02*
X186022142Y-138559523D01*
X186117380Y-136988095D02*
X186117380Y-137559523D01*
X186117380Y-137273809D02*
X185117380Y-137273809D01*
X185117380Y-137273809D02*
X185260238Y-137369047D01*
X185260238Y-137369047D02*
X185355476Y-137464285D01*
X185355476Y-137464285D02*
X185403095Y-137559523D01*
%TO.C,D1*%
X129761905Y-112867380D02*
X129761905Y-111867380D01*
X129761905Y-111867380D02*
X130000000Y-111867380D01*
X130000000Y-111867380D02*
X130142857Y-111915000D01*
X130142857Y-111915000D02*
X130238095Y-112010238D01*
X130238095Y-112010238D02*
X130285714Y-112105476D01*
X130285714Y-112105476D02*
X130333333Y-112295952D01*
X130333333Y-112295952D02*
X130333333Y-112438809D01*
X130333333Y-112438809D02*
X130285714Y-112629285D01*
X130285714Y-112629285D02*
X130238095Y-112724523D01*
X130238095Y-112724523D02*
X130142857Y-112819761D01*
X130142857Y-112819761D02*
X130000000Y-112867380D01*
X130000000Y-112867380D02*
X129761905Y-112867380D01*
X131285714Y-112867380D02*
X130714286Y-112867380D01*
X131000000Y-112867380D02*
X131000000Y-111867380D01*
X131000000Y-111867380D02*
X130904762Y-112010238D01*
X130904762Y-112010238D02*
X130809524Y-112105476D01*
X130809524Y-112105476D02*
X130714286Y-112153095D01*
%TO.C,D4*%
X174761905Y-140117380D02*
X174761905Y-139117380D01*
X174761905Y-139117380D02*
X175000000Y-139117380D01*
X175000000Y-139117380D02*
X175142857Y-139165000D01*
X175142857Y-139165000D02*
X175238095Y-139260238D01*
X175238095Y-139260238D02*
X175285714Y-139355476D01*
X175285714Y-139355476D02*
X175333333Y-139545952D01*
X175333333Y-139545952D02*
X175333333Y-139688809D01*
X175333333Y-139688809D02*
X175285714Y-139879285D01*
X175285714Y-139879285D02*
X175238095Y-139974523D01*
X175238095Y-139974523D02*
X175142857Y-140069761D01*
X175142857Y-140069761D02*
X175000000Y-140117380D01*
X175000000Y-140117380D02*
X174761905Y-140117380D01*
X176190476Y-139450714D02*
X176190476Y-140117380D01*
X175952381Y-139069761D02*
X175714286Y-139784047D01*
X175714286Y-139784047D02*
X176333333Y-139784047D01*
%TO.C,TP4*%
X182576916Y-134528424D02*
X183519725Y-134999829D01*
X183519725Y-134999829D02*
X183048321Y-134057020D01*
X183418710Y-133686630D02*
X183553397Y-133551943D01*
X183553397Y-133551943D02*
X183654413Y-133518272D01*
X183654413Y-133518272D02*
X183789100Y-133518272D01*
X183789100Y-133518272D02*
X183957458Y-133619287D01*
X183957458Y-133619287D02*
X184193161Y-133854989D01*
X184193161Y-133854989D02*
X184294176Y-134023348D01*
X184294176Y-134023348D02*
X184294176Y-134158035D01*
X184294176Y-134158035D02*
X184260504Y-134259050D01*
X184260504Y-134259050D02*
X184125817Y-134393737D01*
X184125817Y-134393737D02*
X184024802Y-134427409D01*
X184024802Y-134427409D02*
X183890115Y-134427409D01*
X183890115Y-134427409D02*
X183721756Y-134326394D01*
X183721756Y-134326394D02*
X183486054Y-134090691D01*
X183486054Y-134090691D02*
X183385039Y-133922333D01*
X183385039Y-133922333D02*
X183385039Y-133787646D01*
X183385039Y-133787646D02*
X183418710Y-133686630D01*
X184024802Y-133080539D02*
X184597222Y-133652959D01*
X184597222Y-133652959D02*
X184698237Y-133686630D01*
X184698237Y-133686630D02*
X184765580Y-133686630D01*
X184765580Y-133686630D02*
X184866596Y-133652959D01*
X184866596Y-133652959D02*
X185001283Y-133518272D01*
X185001283Y-133518272D02*
X185034954Y-133417256D01*
X185034954Y-133417256D02*
X185034954Y-133349913D01*
X185034954Y-133349913D02*
X185001283Y-133248898D01*
X185001283Y-133248898D02*
X184428863Y-132676478D01*
X184664565Y-132440776D02*
X185068626Y-132036715D01*
X185573702Y-132945852D02*
X184866596Y-132238745D01*
X186368356Y-132083855D02*
X186503043Y-132016511D01*
X186503043Y-132016511D02*
X186671402Y-131848153D01*
X186671402Y-131848153D02*
X186705073Y-131747137D01*
X186705073Y-131747137D02*
X186705073Y-131679794D01*
X186705073Y-131679794D02*
X186671402Y-131578779D01*
X186671402Y-131578779D02*
X186604058Y-131511435D01*
X186604058Y-131511435D02*
X186503043Y-131477763D01*
X186503043Y-131477763D02*
X186435699Y-131477763D01*
X186435699Y-131477763D02*
X186334684Y-131511435D01*
X186334684Y-131511435D02*
X186166325Y-131612450D01*
X186166325Y-131612450D02*
X186065310Y-131646122D01*
X186065310Y-131646122D02*
X185997967Y-131646122D01*
X185997967Y-131646122D02*
X185896951Y-131612450D01*
X185896951Y-131612450D02*
X185829608Y-131545107D01*
X185829608Y-131545107D02*
X185795936Y-131444092D01*
X185795936Y-131444092D02*
X185795936Y-131376748D01*
X185795936Y-131376748D02*
X185829608Y-131275733D01*
X185829608Y-131275733D02*
X185997967Y-131107374D01*
X185997967Y-131107374D02*
X186132654Y-131040031D01*
X187378508Y-131073702D02*
X187344837Y-131174717D01*
X187344837Y-131174717D02*
X187210150Y-131309404D01*
X187210150Y-131309404D02*
X187109134Y-131343076D01*
X187109134Y-131343076D02*
X187041791Y-131343076D01*
X187041791Y-131343076D02*
X186940776Y-131309404D01*
X186940776Y-131309404D02*
X186738745Y-131107374D01*
X186738745Y-131107374D02*
X186705073Y-131006359D01*
X186705073Y-131006359D02*
X186705073Y-130939015D01*
X186705073Y-130939015D02*
X186738745Y-130838000D01*
X186738745Y-130838000D02*
X186873432Y-130703313D01*
X186873432Y-130703313D02*
X186974447Y-130669641D01*
X188018272Y-130501282D02*
X187647882Y-130130893D01*
X187647882Y-130130893D02*
X187546867Y-130097221D01*
X187546867Y-130097221D02*
X187445852Y-130130893D01*
X187445852Y-130130893D02*
X187311165Y-130265580D01*
X187311165Y-130265580D02*
X187277493Y-130366595D01*
X187984600Y-130467611D02*
X187950928Y-130568626D01*
X187950928Y-130568626D02*
X187782570Y-130736985D01*
X187782570Y-130736985D02*
X187681554Y-130770656D01*
X187681554Y-130770656D02*
X187580539Y-130736985D01*
X187580539Y-130736985D02*
X187513195Y-130669641D01*
X187513195Y-130669641D02*
X187479524Y-130568626D01*
X187479524Y-130568626D02*
X187513195Y-130467611D01*
X187513195Y-130467611D02*
X187681554Y-130299252D01*
X187681554Y-130299252D02*
X187715226Y-130198237D01*
X188456005Y-130063550D02*
X188354989Y-130097221D01*
X188354989Y-130097221D02*
X188253974Y-130063550D01*
X188253974Y-130063550D02*
X187647883Y-129457458D01*
X188961081Y-129491129D02*
X188927409Y-129592145D01*
X188927409Y-129592145D02*
X188792722Y-129726832D01*
X188792722Y-129726832D02*
X188691707Y-129760503D01*
X188691707Y-129760503D02*
X188590692Y-129726832D01*
X188590692Y-129726832D02*
X188321318Y-129457458D01*
X188321318Y-129457458D02*
X188287646Y-129356442D01*
X188287646Y-129356442D02*
X188321318Y-129255427D01*
X188321318Y-129255427D02*
X188456005Y-129120740D01*
X188456005Y-129120740D02*
X188557020Y-129087068D01*
X188557020Y-129087068D02*
X188658035Y-129120740D01*
X188658035Y-129120740D02*
X188725379Y-129188084D01*
X188725379Y-129188084D02*
X188456005Y-129592145D01*
X189634516Y-128885038D02*
X188927410Y-128177931D01*
X189600845Y-128851366D02*
X189567173Y-128952381D01*
X189567173Y-128952381D02*
X189432486Y-129087068D01*
X189432486Y-129087068D02*
X189331471Y-129120740D01*
X189331471Y-129120740D02*
X189264127Y-129120740D01*
X189264127Y-129120740D02*
X189163112Y-129087068D01*
X189163112Y-129087068D02*
X188961081Y-128885038D01*
X188961081Y-128885038D02*
X188927410Y-128784023D01*
X188927410Y-128784023D02*
X188927410Y-128716679D01*
X188927410Y-128716679D02*
X188961081Y-128615664D01*
X188961081Y-128615664D02*
X189095768Y-128480977D01*
X189095768Y-128480977D02*
X189196784Y-128447305D01*
%TO.C,R2*%
X140833333Y-138517380D02*
X140500000Y-138041190D01*
X140261905Y-138517380D02*
X140261905Y-137517380D01*
X140261905Y-137517380D02*
X140642857Y-137517380D01*
X140642857Y-137517380D02*
X140738095Y-137565000D01*
X140738095Y-137565000D02*
X140785714Y-137612619D01*
X140785714Y-137612619D02*
X140833333Y-137707857D01*
X140833333Y-137707857D02*
X140833333Y-137850714D01*
X140833333Y-137850714D02*
X140785714Y-137945952D01*
X140785714Y-137945952D02*
X140738095Y-137993571D01*
X140738095Y-137993571D02*
X140642857Y-138041190D01*
X140642857Y-138041190D02*
X140261905Y-138041190D01*
X141214286Y-137612619D02*
X141261905Y-137565000D01*
X141261905Y-137565000D02*
X141357143Y-137517380D01*
X141357143Y-137517380D02*
X141595238Y-137517380D01*
X141595238Y-137517380D02*
X141690476Y-137565000D01*
X141690476Y-137565000D02*
X141738095Y-137612619D01*
X141738095Y-137612619D02*
X141785714Y-137707857D01*
X141785714Y-137707857D02*
X141785714Y-137803095D01*
X141785714Y-137803095D02*
X141738095Y-137945952D01*
X141738095Y-137945952D02*
X141166667Y-138517380D01*
X141166667Y-138517380D02*
X141785714Y-138517380D01*
%TO.C,C29*%
X204272142Y-137392857D02*
X204319761Y-137440476D01*
X204319761Y-137440476D02*
X204367380Y-137583333D01*
X204367380Y-137583333D02*
X204367380Y-137678571D01*
X204367380Y-137678571D02*
X204319761Y-137821428D01*
X204319761Y-137821428D02*
X204224523Y-137916666D01*
X204224523Y-137916666D02*
X204129285Y-137964285D01*
X204129285Y-137964285D02*
X203938809Y-138011904D01*
X203938809Y-138011904D02*
X203795952Y-138011904D01*
X203795952Y-138011904D02*
X203605476Y-137964285D01*
X203605476Y-137964285D02*
X203510238Y-137916666D01*
X203510238Y-137916666D02*
X203415000Y-137821428D01*
X203415000Y-137821428D02*
X203367380Y-137678571D01*
X203367380Y-137678571D02*
X203367380Y-137583333D01*
X203367380Y-137583333D02*
X203415000Y-137440476D01*
X203415000Y-137440476D02*
X203462619Y-137392857D01*
X203462619Y-137011904D02*
X203415000Y-136964285D01*
X203415000Y-136964285D02*
X203367380Y-136869047D01*
X203367380Y-136869047D02*
X203367380Y-136630952D01*
X203367380Y-136630952D02*
X203415000Y-136535714D01*
X203415000Y-136535714D02*
X203462619Y-136488095D01*
X203462619Y-136488095D02*
X203557857Y-136440476D01*
X203557857Y-136440476D02*
X203653095Y-136440476D01*
X203653095Y-136440476D02*
X203795952Y-136488095D01*
X203795952Y-136488095D02*
X204367380Y-137059523D01*
X204367380Y-137059523D02*
X204367380Y-136440476D01*
X204367380Y-135964285D02*
X204367380Y-135773809D01*
X204367380Y-135773809D02*
X204319761Y-135678571D01*
X204319761Y-135678571D02*
X204272142Y-135630952D01*
X204272142Y-135630952D02*
X204129285Y-135535714D01*
X204129285Y-135535714D02*
X203938809Y-135488095D01*
X203938809Y-135488095D02*
X203557857Y-135488095D01*
X203557857Y-135488095D02*
X203462619Y-135535714D01*
X203462619Y-135535714D02*
X203415000Y-135583333D01*
X203415000Y-135583333D02*
X203367380Y-135678571D01*
X203367380Y-135678571D02*
X203367380Y-135869047D01*
X203367380Y-135869047D02*
X203415000Y-135964285D01*
X203415000Y-135964285D02*
X203462619Y-136011904D01*
X203462619Y-136011904D02*
X203557857Y-136059523D01*
X203557857Y-136059523D02*
X203795952Y-136059523D01*
X203795952Y-136059523D02*
X203891190Y-136011904D01*
X203891190Y-136011904D02*
X203938809Y-135964285D01*
X203938809Y-135964285D02*
X203986428Y-135869047D01*
X203986428Y-135869047D02*
X203986428Y-135678571D01*
X203986428Y-135678571D02*
X203938809Y-135583333D01*
X203938809Y-135583333D02*
X203891190Y-135535714D01*
X203891190Y-135535714D02*
X203795952Y-135488095D01*
%TO.C,R5*%
X190833333Y-144617380D02*
X190500000Y-144141190D01*
X190261905Y-144617380D02*
X190261905Y-143617380D01*
X190261905Y-143617380D02*
X190642857Y-143617380D01*
X190642857Y-143617380D02*
X190738095Y-143665000D01*
X190738095Y-143665000D02*
X190785714Y-143712619D01*
X190785714Y-143712619D02*
X190833333Y-143807857D01*
X190833333Y-143807857D02*
X190833333Y-143950714D01*
X190833333Y-143950714D02*
X190785714Y-144045952D01*
X190785714Y-144045952D02*
X190738095Y-144093571D01*
X190738095Y-144093571D02*
X190642857Y-144141190D01*
X190642857Y-144141190D02*
X190261905Y-144141190D01*
X191738095Y-143617380D02*
X191261905Y-143617380D01*
X191261905Y-143617380D02*
X191214286Y-144093571D01*
X191214286Y-144093571D02*
X191261905Y-144045952D01*
X191261905Y-144045952D02*
X191357143Y-143998333D01*
X191357143Y-143998333D02*
X191595238Y-143998333D01*
X191595238Y-143998333D02*
X191690476Y-144045952D01*
X191690476Y-144045952D02*
X191738095Y-144093571D01*
X191738095Y-144093571D02*
X191785714Y-144188809D01*
X191785714Y-144188809D02*
X191785714Y-144426904D01*
X191785714Y-144426904D02*
X191738095Y-144522142D01*
X191738095Y-144522142D02*
X191690476Y-144569761D01*
X191690476Y-144569761D02*
X191595238Y-144617380D01*
X191595238Y-144617380D02*
X191357143Y-144617380D01*
X191357143Y-144617380D02*
X191261905Y-144569761D01*
X191261905Y-144569761D02*
X191214286Y-144522142D01*
D11*
%TO.C,J5*%
X113856666Y-113234761D02*
X114237619Y-113234761D01*
X114237619Y-113234761D02*
X114428095Y-113330000D01*
X114428095Y-113330000D02*
X114618571Y-113520476D01*
X114618571Y-113520476D02*
X114713809Y-113901428D01*
X114713809Y-113901428D02*
X114713809Y-114568095D01*
X114713809Y-114568095D02*
X114618571Y-114949047D01*
X114618571Y-114949047D02*
X114428095Y-115139523D01*
X114428095Y-115139523D02*
X114237619Y-115234761D01*
X114237619Y-115234761D02*
X113856666Y-115234761D01*
X113856666Y-115234761D02*
X113666190Y-115139523D01*
X113666190Y-115139523D02*
X113475714Y-114949047D01*
X113475714Y-114949047D02*
X113380476Y-114568095D01*
X113380476Y-114568095D02*
X113380476Y-113901428D01*
X113380476Y-113901428D02*
X113475714Y-113520476D01*
X113475714Y-113520476D02*
X113666190Y-113330000D01*
X113666190Y-113330000D02*
X113856666Y-113234761D01*
X115570952Y-113234761D02*
X115570952Y-114853809D01*
X115570952Y-114853809D02*
X115666190Y-115044285D01*
X115666190Y-115044285D02*
X115761428Y-115139523D01*
X115761428Y-115139523D02*
X115951904Y-115234761D01*
X115951904Y-115234761D02*
X116332857Y-115234761D01*
X116332857Y-115234761D02*
X116523333Y-115139523D01*
X116523333Y-115139523D02*
X116618571Y-115044285D01*
X116618571Y-115044285D02*
X116713809Y-114853809D01*
X116713809Y-114853809D02*
X116713809Y-113234761D01*
X117380476Y-113234761D02*
X118523333Y-113234761D01*
X117951904Y-115234761D02*
X117951904Y-113234761D01*
X119190000Y-114472857D02*
X120713810Y-114472857D01*
X119951905Y-115234761D02*
X119951905Y-113710952D01*
D10*
%TO.C,C32*%
X171952142Y-142142857D02*
X171999761Y-142190476D01*
X171999761Y-142190476D02*
X172047380Y-142333333D01*
X172047380Y-142333333D02*
X172047380Y-142428571D01*
X172047380Y-142428571D02*
X171999761Y-142571428D01*
X171999761Y-142571428D02*
X171904523Y-142666666D01*
X171904523Y-142666666D02*
X171809285Y-142714285D01*
X171809285Y-142714285D02*
X171618809Y-142761904D01*
X171618809Y-142761904D02*
X171475952Y-142761904D01*
X171475952Y-142761904D02*
X171285476Y-142714285D01*
X171285476Y-142714285D02*
X171190238Y-142666666D01*
X171190238Y-142666666D02*
X171095000Y-142571428D01*
X171095000Y-142571428D02*
X171047380Y-142428571D01*
X171047380Y-142428571D02*
X171047380Y-142333333D01*
X171047380Y-142333333D02*
X171095000Y-142190476D01*
X171095000Y-142190476D02*
X171142619Y-142142857D01*
X171047380Y-141809523D02*
X171047380Y-141190476D01*
X171047380Y-141190476D02*
X171428333Y-141523809D01*
X171428333Y-141523809D02*
X171428333Y-141380952D01*
X171428333Y-141380952D02*
X171475952Y-141285714D01*
X171475952Y-141285714D02*
X171523571Y-141238095D01*
X171523571Y-141238095D02*
X171618809Y-141190476D01*
X171618809Y-141190476D02*
X171856904Y-141190476D01*
X171856904Y-141190476D02*
X171952142Y-141238095D01*
X171952142Y-141238095D02*
X171999761Y-141285714D01*
X171999761Y-141285714D02*
X172047380Y-141380952D01*
X172047380Y-141380952D02*
X172047380Y-141666666D01*
X172047380Y-141666666D02*
X171999761Y-141761904D01*
X171999761Y-141761904D02*
X171952142Y-141809523D01*
X171142619Y-140809523D02*
X171095000Y-140761904D01*
X171095000Y-140761904D02*
X171047380Y-140666666D01*
X171047380Y-140666666D02*
X171047380Y-140428571D01*
X171047380Y-140428571D02*
X171095000Y-140333333D01*
X171095000Y-140333333D02*
X171142619Y-140285714D01*
X171142619Y-140285714D02*
X171237857Y-140238095D01*
X171237857Y-140238095D02*
X171333095Y-140238095D01*
X171333095Y-140238095D02*
X171475952Y-140285714D01*
X171475952Y-140285714D02*
X172047380Y-140857142D01*
X172047380Y-140857142D02*
X172047380Y-140238095D01*
%TO.C,D2*%
X185761905Y-144617380D02*
X185761905Y-143617380D01*
X185761905Y-143617380D02*
X186000000Y-143617380D01*
X186000000Y-143617380D02*
X186142857Y-143665000D01*
X186142857Y-143665000D02*
X186238095Y-143760238D01*
X186238095Y-143760238D02*
X186285714Y-143855476D01*
X186285714Y-143855476D02*
X186333333Y-144045952D01*
X186333333Y-144045952D02*
X186333333Y-144188809D01*
X186333333Y-144188809D02*
X186285714Y-144379285D01*
X186285714Y-144379285D02*
X186238095Y-144474523D01*
X186238095Y-144474523D02*
X186142857Y-144569761D01*
X186142857Y-144569761D02*
X186000000Y-144617380D01*
X186000000Y-144617380D02*
X185761905Y-144617380D01*
X186714286Y-143712619D02*
X186761905Y-143665000D01*
X186761905Y-143665000D02*
X186857143Y-143617380D01*
X186857143Y-143617380D02*
X187095238Y-143617380D01*
X187095238Y-143617380D02*
X187190476Y-143665000D01*
X187190476Y-143665000D02*
X187238095Y-143712619D01*
X187238095Y-143712619D02*
X187285714Y-143807857D01*
X187285714Y-143807857D02*
X187285714Y-143903095D01*
X187285714Y-143903095D02*
X187238095Y-144045952D01*
X187238095Y-144045952D02*
X186666667Y-144617380D01*
X186666667Y-144617380D02*
X187285714Y-144617380D01*
%TO.C,X1*%
X190642857Y-133319761D02*
X190785714Y-133367380D01*
X190785714Y-133367380D02*
X191023809Y-133367380D01*
X191023809Y-133367380D02*
X191119047Y-133319761D01*
X191119047Y-133319761D02*
X191166666Y-133272142D01*
X191166666Y-133272142D02*
X191214285Y-133176904D01*
X191214285Y-133176904D02*
X191214285Y-133081666D01*
X191214285Y-133081666D02*
X191166666Y-132986428D01*
X191166666Y-132986428D02*
X191119047Y-132938809D01*
X191119047Y-132938809D02*
X191023809Y-132891190D01*
X191023809Y-132891190D02*
X190833333Y-132843571D01*
X190833333Y-132843571D02*
X190738095Y-132795952D01*
X190738095Y-132795952D02*
X190690476Y-132748333D01*
X190690476Y-132748333D02*
X190642857Y-132653095D01*
X190642857Y-132653095D02*
X190642857Y-132557857D01*
X190642857Y-132557857D02*
X190690476Y-132462619D01*
X190690476Y-132462619D02*
X190738095Y-132415000D01*
X190738095Y-132415000D02*
X190833333Y-132367380D01*
X190833333Y-132367380D02*
X191071428Y-132367380D01*
X191071428Y-132367380D02*
X191214285Y-132415000D01*
X191547619Y-132367380D02*
X191785714Y-133367380D01*
X191785714Y-133367380D02*
X191976190Y-132653095D01*
X191976190Y-132653095D02*
X192166666Y-133367380D01*
X192166666Y-133367380D02*
X192404762Y-132367380D01*
X192785714Y-133367380D02*
X192785714Y-132367380D01*
X192785714Y-132367380D02*
X193023809Y-132367380D01*
X193023809Y-132367380D02*
X193166666Y-132415000D01*
X193166666Y-132415000D02*
X193261904Y-132510238D01*
X193261904Y-132510238D02*
X193309523Y-132605476D01*
X193309523Y-132605476D02*
X193357142Y-132795952D01*
X193357142Y-132795952D02*
X193357142Y-132938809D01*
X193357142Y-132938809D02*
X193309523Y-133129285D01*
X193309523Y-133129285D02*
X193261904Y-133224523D01*
X193261904Y-133224523D02*
X193166666Y-133319761D01*
X193166666Y-133319761D02*
X193023809Y-133367380D01*
X193023809Y-133367380D02*
X192785714Y-133367380D01*
%TO.C,C26*%
X138357142Y-125022142D02*
X138309523Y-125069761D01*
X138309523Y-125069761D02*
X138166666Y-125117380D01*
X138166666Y-125117380D02*
X138071428Y-125117380D01*
X138071428Y-125117380D02*
X137928571Y-125069761D01*
X137928571Y-125069761D02*
X137833333Y-124974523D01*
X137833333Y-124974523D02*
X137785714Y-124879285D01*
X137785714Y-124879285D02*
X137738095Y-124688809D01*
X137738095Y-124688809D02*
X137738095Y-124545952D01*
X137738095Y-124545952D02*
X137785714Y-124355476D01*
X137785714Y-124355476D02*
X137833333Y-124260238D01*
X137833333Y-124260238D02*
X137928571Y-124165000D01*
X137928571Y-124165000D02*
X138071428Y-124117380D01*
X138071428Y-124117380D02*
X138166666Y-124117380D01*
X138166666Y-124117380D02*
X138309523Y-124165000D01*
X138309523Y-124165000D02*
X138357142Y-124212619D01*
X138738095Y-124212619D02*
X138785714Y-124165000D01*
X138785714Y-124165000D02*
X138880952Y-124117380D01*
X138880952Y-124117380D02*
X139119047Y-124117380D01*
X139119047Y-124117380D02*
X139214285Y-124165000D01*
X139214285Y-124165000D02*
X139261904Y-124212619D01*
X139261904Y-124212619D02*
X139309523Y-124307857D01*
X139309523Y-124307857D02*
X139309523Y-124403095D01*
X139309523Y-124403095D02*
X139261904Y-124545952D01*
X139261904Y-124545952D02*
X138690476Y-125117380D01*
X138690476Y-125117380D02*
X139309523Y-125117380D01*
X140166666Y-124117380D02*
X139976190Y-124117380D01*
X139976190Y-124117380D02*
X139880952Y-124165000D01*
X139880952Y-124165000D02*
X139833333Y-124212619D01*
X139833333Y-124212619D02*
X139738095Y-124355476D01*
X139738095Y-124355476D02*
X139690476Y-124545952D01*
X139690476Y-124545952D02*
X139690476Y-124926904D01*
X139690476Y-124926904D02*
X139738095Y-125022142D01*
X139738095Y-125022142D02*
X139785714Y-125069761D01*
X139785714Y-125069761D02*
X139880952Y-125117380D01*
X139880952Y-125117380D02*
X140071428Y-125117380D01*
X140071428Y-125117380D02*
X140166666Y-125069761D01*
X140166666Y-125069761D02*
X140214285Y-125022142D01*
X140214285Y-125022142D02*
X140261904Y-124926904D01*
X140261904Y-124926904D02*
X140261904Y-124688809D01*
X140261904Y-124688809D02*
X140214285Y-124593571D01*
X140214285Y-124593571D02*
X140166666Y-124545952D01*
X140166666Y-124545952D02*
X140071428Y-124498333D01*
X140071428Y-124498333D02*
X139880952Y-124498333D01*
X139880952Y-124498333D02*
X139785714Y-124545952D01*
X139785714Y-124545952D02*
X139738095Y-124593571D01*
X139738095Y-124593571D02*
X139690476Y-124688809D01*
%TO.C,C28*%
X114022142Y-138392857D02*
X114069761Y-138440476D01*
X114069761Y-138440476D02*
X114117380Y-138583333D01*
X114117380Y-138583333D02*
X114117380Y-138678571D01*
X114117380Y-138678571D02*
X114069761Y-138821428D01*
X114069761Y-138821428D02*
X113974523Y-138916666D01*
X113974523Y-138916666D02*
X113879285Y-138964285D01*
X113879285Y-138964285D02*
X113688809Y-139011904D01*
X113688809Y-139011904D02*
X113545952Y-139011904D01*
X113545952Y-139011904D02*
X113355476Y-138964285D01*
X113355476Y-138964285D02*
X113260238Y-138916666D01*
X113260238Y-138916666D02*
X113165000Y-138821428D01*
X113165000Y-138821428D02*
X113117380Y-138678571D01*
X113117380Y-138678571D02*
X113117380Y-138583333D01*
X113117380Y-138583333D02*
X113165000Y-138440476D01*
X113165000Y-138440476D02*
X113212619Y-138392857D01*
X113212619Y-138011904D02*
X113165000Y-137964285D01*
X113165000Y-137964285D02*
X113117380Y-137869047D01*
X113117380Y-137869047D02*
X113117380Y-137630952D01*
X113117380Y-137630952D02*
X113165000Y-137535714D01*
X113165000Y-137535714D02*
X113212619Y-137488095D01*
X113212619Y-137488095D02*
X113307857Y-137440476D01*
X113307857Y-137440476D02*
X113403095Y-137440476D01*
X113403095Y-137440476D02*
X113545952Y-137488095D01*
X113545952Y-137488095D02*
X114117380Y-138059523D01*
X114117380Y-138059523D02*
X114117380Y-137440476D01*
X113545952Y-136869047D02*
X113498333Y-136964285D01*
X113498333Y-136964285D02*
X113450714Y-137011904D01*
X113450714Y-137011904D02*
X113355476Y-137059523D01*
X113355476Y-137059523D02*
X113307857Y-137059523D01*
X113307857Y-137059523D02*
X113212619Y-137011904D01*
X113212619Y-137011904D02*
X113165000Y-136964285D01*
X113165000Y-136964285D02*
X113117380Y-136869047D01*
X113117380Y-136869047D02*
X113117380Y-136678571D01*
X113117380Y-136678571D02*
X113165000Y-136583333D01*
X113165000Y-136583333D02*
X113212619Y-136535714D01*
X113212619Y-136535714D02*
X113307857Y-136488095D01*
X113307857Y-136488095D02*
X113355476Y-136488095D01*
X113355476Y-136488095D02*
X113450714Y-136535714D01*
X113450714Y-136535714D02*
X113498333Y-136583333D01*
X113498333Y-136583333D02*
X113545952Y-136678571D01*
X113545952Y-136678571D02*
X113545952Y-136869047D01*
X113545952Y-136869047D02*
X113593571Y-136964285D01*
X113593571Y-136964285D02*
X113641190Y-137011904D01*
X113641190Y-137011904D02*
X113736428Y-137059523D01*
X113736428Y-137059523D02*
X113926904Y-137059523D01*
X113926904Y-137059523D02*
X114022142Y-137011904D01*
X114022142Y-137011904D02*
X114069761Y-136964285D01*
X114069761Y-136964285D02*
X114117380Y-136869047D01*
X114117380Y-136869047D02*
X114117380Y-136678571D01*
X114117380Y-136678571D02*
X114069761Y-136583333D01*
X114069761Y-136583333D02*
X114022142Y-136535714D01*
X114022142Y-136535714D02*
X113926904Y-136488095D01*
X113926904Y-136488095D02*
X113736428Y-136488095D01*
X113736428Y-136488095D02*
X113641190Y-136535714D01*
X113641190Y-136535714D02*
X113593571Y-136583333D01*
X113593571Y-136583333D02*
X113545952Y-136678571D01*
%TO.C,U2*%
X128338095Y-139867380D02*
X128338095Y-140676904D01*
X128338095Y-140676904D02*
X128385714Y-140772142D01*
X128385714Y-140772142D02*
X128433333Y-140819761D01*
X128433333Y-140819761D02*
X128528571Y-140867380D01*
X128528571Y-140867380D02*
X128719047Y-140867380D01*
X128719047Y-140867380D02*
X128814285Y-140819761D01*
X128814285Y-140819761D02*
X128861904Y-140772142D01*
X128861904Y-140772142D02*
X128909523Y-140676904D01*
X128909523Y-140676904D02*
X128909523Y-139867380D01*
X129338095Y-139962619D02*
X129385714Y-139915000D01*
X129385714Y-139915000D02*
X129480952Y-139867380D01*
X129480952Y-139867380D02*
X129719047Y-139867380D01*
X129719047Y-139867380D02*
X129814285Y-139915000D01*
X129814285Y-139915000D02*
X129861904Y-139962619D01*
X129861904Y-139962619D02*
X129909523Y-140057857D01*
X129909523Y-140057857D02*
X129909523Y-140153095D01*
X129909523Y-140153095D02*
X129861904Y-140295952D01*
X129861904Y-140295952D02*
X129290476Y-140867380D01*
X129290476Y-140867380D02*
X129909523Y-140867380D01*
%TO.C,C33*%
X183952142Y-142142857D02*
X183999761Y-142190476D01*
X183999761Y-142190476D02*
X184047380Y-142333333D01*
X184047380Y-142333333D02*
X184047380Y-142428571D01*
X184047380Y-142428571D02*
X183999761Y-142571428D01*
X183999761Y-142571428D02*
X183904523Y-142666666D01*
X183904523Y-142666666D02*
X183809285Y-142714285D01*
X183809285Y-142714285D02*
X183618809Y-142761904D01*
X183618809Y-142761904D02*
X183475952Y-142761904D01*
X183475952Y-142761904D02*
X183285476Y-142714285D01*
X183285476Y-142714285D02*
X183190238Y-142666666D01*
X183190238Y-142666666D02*
X183095000Y-142571428D01*
X183095000Y-142571428D02*
X183047380Y-142428571D01*
X183047380Y-142428571D02*
X183047380Y-142333333D01*
X183047380Y-142333333D02*
X183095000Y-142190476D01*
X183095000Y-142190476D02*
X183142619Y-142142857D01*
X183047380Y-141809523D02*
X183047380Y-141190476D01*
X183047380Y-141190476D02*
X183428333Y-141523809D01*
X183428333Y-141523809D02*
X183428333Y-141380952D01*
X183428333Y-141380952D02*
X183475952Y-141285714D01*
X183475952Y-141285714D02*
X183523571Y-141238095D01*
X183523571Y-141238095D02*
X183618809Y-141190476D01*
X183618809Y-141190476D02*
X183856904Y-141190476D01*
X183856904Y-141190476D02*
X183952142Y-141238095D01*
X183952142Y-141238095D02*
X183999761Y-141285714D01*
X183999761Y-141285714D02*
X184047380Y-141380952D01*
X184047380Y-141380952D02*
X184047380Y-141666666D01*
X184047380Y-141666666D02*
X183999761Y-141761904D01*
X183999761Y-141761904D02*
X183952142Y-141809523D01*
X183047380Y-140857142D02*
X183047380Y-140238095D01*
X183047380Y-140238095D02*
X183428333Y-140571428D01*
X183428333Y-140571428D02*
X183428333Y-140428571D01*
X183428333Y-140428571D02*
X183475952Y-140333333D01*
X183475952Y-140333333D02*
X183523571Y-140285714D01*
X183523571Y-140285714D02*
X183618809Y-140238095D01*
X183618809Y-140238095D02*
X183856904Y-140238095D01*
X183856904Y-140238095D02*
X183952142Y-140285714D01*
X183952142Y-140285714D02*
X183999761Y-140333333D01*
X183999761Y-140333333D02*
X184047380Y-140428571D01*
X184047380Y-140428571D02*
X184047380Y-140714285D01*
X184047380Y-140714285D02*
X183999761Y-140809523D01*
X183999761Y-140809523D02*
X183952142Y-140857142D01*
%TO.C,C1*%
X136772142Y-129666666D02*
X136819761Y-129714285D01*
X136819761Y-129714285D02*
X136867380Y-129857142D01*
X136867380Y-129857142D02*
X136867380Y-129952380D01*
X136867380Y-129952380D02*
X136819761Y-130095237D01*
X136819761Y-130095237D02*
X136724523Y-130190475D01*
X136724523Y-130190475D02*
X136629285Y-130238094D01*
X136629285Y-130238094D02*
X136438809Y-130285713D01*
X136438809Y-130285713D02*
X136295952Y-130285713D01*
X136295952Y-130285713D02*
X136105476Y-130238094D01*
X136105476Y-130238094D02*
X136010238Y-130190475D01*
X136010238Y-130190475D02*
X135915000Y-130095237D01*
X135915000Y-130095237D02*
X135867380Y-129952380D01*
X135867380Y-129952380D02*
X135867380Y-129857142D01*
X135867380Y-129857142D02*
X135915000Y-129714285D01*
X135915000Y-129714285D02*
X135962619Y-129666666D01*
X136867380Y-128714285D02*
X136867380Y-129285713D01*
X136867380Y-128999999D02*
X135867380Y-128999999D01*
X135867380Y-128999999D02*
X136010238Y-129095237D01*
X136010238Y-129095237D02*
X136105476Y-129190475D01*
X136105476Y-129190475D02*
X136153095Y-129285713D01*
%TO.C,L1*%
X174833333Y-120867380D02*
X174357143Y-120867380D01*
X174357143Y-120867380D02*
X174357143Y-119867380D01*
X175690476Y-120867380D02*
X175119048Y-120867380D01*
X175404762Y-120867380D02*
X175404762Y-119867380D01*
X175404762Y-119867380D02*
X175309524Y-120010238D01*
X175309524Y-120010238D02*
X175214286Y-120105476D01*
X175214286Y-120105476D02*
X175119048Y-120153095D01*
D11*
%TO.C,J2*%
X201476190Y-121484761D02*
X201476190Y-119484761D01*
X202428571Y-121484761D02*
X202428571Y-119484761D01*
X202428571Y-119484761D02*
X203571428Y-121484761D01*
X203571428Y-121484761D02*
X203571428Y-119484761D01*
X204523809Y-120722857D02*
X206047619Y-120722857D01*
X205285714Y-121484761D02*
X205285714Y-119960952D01*
D10*
%TO.C,C13*%
X147272142Y-129642857D02*
X147319761Y-129690476D01*
X147319761Y-129690476D02*
X147367380Y-129833333D01*
X147367380Y-129833333D02*
X147367380Y-129928571D01*
X147367380Y-129928571D02*
X147319761Y-130071428D01*
X147319761Y-130071428D02*
X147224523Y-130166666D01*
X147224523Y-130166666D02*
X147129285Y-130214285D01*
X147129285Y-130214285D02*
X146938809Y-130261904D01*
X146938809Y-130261904D02*
X146795952Y-130261904D01*
X146795952Y-130261904D02*
X146605476Y-130214285D01*
X146605476Y-130214285D02*
X146510238Y-130166666D01*
X146510238Y-130166666D02*
X146415000Y-130071428D01*
X146415000Y-130071428D02*
X146367380Y-129928571D01*
X146367380Y-129928571D02*
X146367380Y-129833333D01*
X146367380Y-129833333D02*
X146415000Y-129690476D01*
X146415000Y-129690476D02*
X146462619Y-129642857D01*
X147367380Y-128690476D02*
X147367380Y-129261904D01*
X147367380Y-128976190D02*
X146367380Y-128976190D01*
X146367380Y-128976190D02*
X146510238Y-129071428D01*
X146510238Y-129071428D02*
X146605476Y-129166666D01*
X146605476Y-129166666D02*
X146653095Y-129261904D01*
X146367380Y-128357142D02*
X146367380Y-127738095D01*
X146367380Y-127738095D02*
X146748333Y-128071428D01*
X146748333Y-128071428D02*
X146748333Y-127928571D01*
X146748333Y-127928571D02*
X146795952Y-127833333D01*
X146795952Y-127833333D02*
X146843571Y-127785714D01*
X146843571Y-127785714D02*
X146938809Y-127738095D01*
X146938809Y-127738095D02*
X147176904Y-127738095D01*
X147176904Y-127738095D02*
X147272142Y-127785714D01*
X147272142Y-127785714D02*
X147319761Y-127833333D01*
X147319761Y-127833333D02*
X147367380Y-127928571D01*
X147367380Y-127928571D02*
X147367380Y-128214285D01*
X147367380Y-128214285D02*
X147319761Y-128309523D01*
X147319761Y-128309523D02*
X147272142Y-128357142D01*
%TO.C,TP3*%
X149291638Y-135881046D02*
X149190622Y-135914718D01*
X149190622Y-135914718D02*
X149089607Y-136015733D01*
X149089607Y-136015733D02*
X149022264Y-136150420D01*
X149022264Y-136150420D02*
X149022264Y-136285107D01*
X149022264Y-136285107D02*
X149055935Y-136386123D01*
X149055935Y-136386123D02*
X149156951Y-136554481D01*
X149156951Y-136554481D02*
X149257966Y-136655497D01*
X149257966Y-136655497D02*
X149426325Y-136756512D01*
X149426325Y-136756512D02*
X149527340Y-136790184D01*
X149527340Y-136790184D02*
X149662027Y-136790184D01*
X149662027Y-136790184D02*
X149796714Y-136722840D01*
X149796714Y-136722840D02*
X149864057Y-136655497D01*
X149864057Y-136655497D02*
X149931401Y-136520810D01*
X149931401Y-136520810D02*
X149931401Y-136453466D01*
X149931401Y-136453466D02*
X149695699Y-136217764D01*
X149695699Y-136217764D02*
X149561012Y-136352451D01*
X150604836Y-135914718D02*
X150234447Y-135544329D01*
X150234447Y-135544329D02*
X150133431Y-135510657D01*
X150133431Y-135510657D02*
X150032416Y-135544329D01*
X150032416Y-135544329D02*
X149897729Y-135679016D01*
X149897729Y-135679016D02*
X149864057Y-135780031D01*
X150571164Y-135881046D02*
X150537492Y-135982062D01*
X150537492Y-135982062D02*
X150369134Y-136150420D01*
X150369134Y-136150420D02*
X150268118Y-136184092D01*
X150268118Y-136184092D02*
X150167103Y-136150420D01*
X150167103Y-136150420D02*
X150099760Y-136083077D01*
X150099760Y-136083077D02*
X150066088Y-135982062D01*
X150066088Y-135982062D02*
X150099760Y-135881046D01*
X150099760Y-135881046D02*
X150268118Y-135712688D01*
X150268118Y-135712688D02*
X150301790Y-135611672D01*
X150369134Y-135207611D02*
X150638508Y-134938237D01*
X150234447Y-134870894D02*
X150840538Y-135476985D01*
X150840538Y-135476985D02*
X150941554Y-135510657D01*
X150941554Y-135510657D02*
X151042569Y-135476985D01*
X151042569Y-135476985D02*
X151109912Y-135409642D01*
X151581317Y-134870893D02*
X151547645Y-134971909D01*
X151547645Y-134971909D02*
X151412958Y-135106596D01*
X151412958Y-135106596D02*
X151311943Y-135140267D01*
X151311943Y-135140267D02*
X151210928Y-135106596D01*
X151210928Y-135106596D02*
X150941554Y-134837222D01*
X150941554Y-134837222D02*
X150907882Y-134736206D01*
X150907882Y-134736206D02*
X150941554Y-134635191D01*
X150941554Y-134635191D02*
X151076241Y-134500504D01*
X151076241Y-134500504D02*
X151177256Y-134466832D01*
X151177256Y-134466832D02*
X151278271Y-134500504D01*
X151278271Y-134500504D02*
X151345615Y-134567848D01*
X151345615Y-134567848D02*
X151076241Y-134971909D01*
X152375971Y-134143584D02*
X151668864Y-133436477D01*
X151668864Y-133436477D02*
X151938238Y-133167103D01*
X151938238Y-133167103D02*
X152039253Y-133133431D01*
X152039253Y-133133431D02*
X152106597Y-133133431D01*
X152106597Y-133133431D02*
X152207612Y-133167103D01*
X152207612Y-133167103D02*
X152308627Y-133268118D01*
X152308627Y-133268118D02*
X152342299Y-133369133D01*
X152342299Y-133369133D02*
X152342299Y-133436477D01*
X152342299Y-133436477D02*
X152308627Y-133537492D01*
X152308627Y-133537492D02*
X152039253Y-133806866D01*
X152544329Y-133032416D02*
X153150421Y-133369133D01*
X153150421Y-133369133D02*
X152948390Y-132897729D01*
X152948390Y-132897729D02*
X153419795Y-133099759D01*
X153419795Y-133099759D02*
X153083077Y-132493668D01*
X153823856Y-132695698D02*
X153352451Y-132224294D01*
X153487138Y-132358981D02*
X153453467Y-132257965D01*
X153453467Y-132257965D02*
X153453467Y-132190622D01*
X153453467Y-132190622D02*
X153487138Y-132089607D01*
X153487138Y-132089607D02*
X153554482Y-132022263D01*
%TO.C,R7*%
X181367380Y-133166666D02*
X180891190Y-133499999D01*
X181367380Y-133738094D02*
X180367380Y-133738094D01*
X180367380Y-133738094D02*
X180367380Y-133357142D01*
X180367380Y-133357142D02*
X180415000Y-133261904D01*
X180415000Y-133261904D02*
X180462619Y-133214285D01*
X180462619Y-133214285D02*
X180557857Y-133166666D01*
X180557857Y-133166666D02*
X180700714Y-133166666D01*
X180700714Y-133166666D02*
X180795952Y-133214285D01*
X180795952Y-133214285D02*
X180843571Y-133261904D01*
X180843571Y-133261904D02*
X180891190Y-133357142D01*
X180891190Y-133357142D02*
X180891190Y-133738094D01*
X180367380Y-132833332D02*
X180367380Y-132166666D01*
X180367380Y-132166666D02*
X181367380Y-132595237D01*
%TO.C,C17*%
X134357142Y-125022142D02*
X134309523Y-125069761D01*
X134309523Y-125069761D02*
X134166666Y-125117380D01*
X134166666Y-125117380D02*
X134071428Y-125117380D01*
X134071428Y-125117380D02*
X133928571Y-125069761D01*
X133928571Y-125069761D02*
X133833333Y-124974523D01*
X133833333Y-124974523D02*
X133785714Y-124879285D01*
X133785714Y-124879285D02*
X133738095Y-124688809D01*
X133738095Y-124688809D02*
X133738095Y-124545952D01*
X133738095Y-124545952D02*
X133785714Y-124355476D01*
X133785714Y-124355476D02*
X133833333Y-124260238D01*
X133833333Y-124260238D02*
X133928571Y-124165000D01*
X133928571Y-124165000D02*
X134071428Y-124117380D01*
X134071428Y-124117380D02*
X134166666Y-124117380D01*
X134166666Y-124117380D02*
X134309523Y-124165000D01*
X134309523Y-124165000D02*
X134357142Y-124212619D01*
X135309523Y-125117380D02*
X134738095Y-125117380D01*
X135023809Y-125117380D02*
X135023809Y-124117380D01*
X135023809Y-124117380D02*
X134928571Y-124260238D01*
X134928571Y-124260238D02*
X134833333Y-124355476D01*
X134833333Y-124355476D02*
X134738095Y-124403095D01*
X135642857Y-124117380D02*
X136309523Y-124117380D01*
X136309523Y-124117380D02*
X135880952Y-125117380D01*
%TO.C,L2*%
X154833333Y-125867380D02*
X154357143Y-125867380D01*
X154357143Y-125867380D02*
X154357143Y-124867380D01*
X155119048Y-124962619D02*
X155166667Y-124915000D01*
X155166667Y-124915000D02*
X155261905Y-124867380D01*
X155261905Y-124867380D02*
X155500000Y-124867380D01*
X155500000Y-124867380D02*
X155595238Y-124915000D01*
X155595238Y-124915000D02*
X155642857Y-124962619D01*
X155642857Y-124962619D02*
X155690476Y-125057857D01*
X155690476Y-125057857D02*
X155690476Y-125153095D01*
X155690476Y-125153095D02*
X155642857Y-125295952D01*
X155642857Y-125295952D02*
X155071429Y-125867380D01*
X155071429Y-125867380D02*
X155690476Y-125867380D01*
%TO.C,C15*%
X120092142Y-138142857D02*
X120139761Y-138190476D01*
X120139761Y-138190476D02*
X120187380Y-138333333D01*
X120187380Y-138333333D02*
X120187380Y-138428571D01*
X120187380Y-138428571D02*
X120139761Y-138571428D01*
X120139761Y-138571428D02*
X120044523Y-138666666D01*
X120044523Y-138666666D02*
X119949285Y-138714285D01*
X119949285Y-138714285D02*
X119758809Y-138761904D01*
X119758809Y-138761904D02*
X119615952Y-138761904D01*
X119615952Y-138761904D02*
X119425476Y-138714285D01*
X119425476Y-138714285D02*
X119330238Y-138666666D01*
X119330238Y-138666666D02*
X119235000Y-138571428D01*
X119235000Y-138571428D02*
X119187380Y-138428571D01*
X119187380Y-138428571D02*
X119187380Y-138333333D01*
X119187380Y-138333333D02*
X119235000Y-138190476D01*
X119235000Y-138190476D02*
X119282619Y-138142857D01*
X120187380Y-137190476D02*
X120187380Y-137761904D01*
X120187380Y-137476190D02*
X119187380Y-137476190D01*
X119187380Y-137476190D02*
X119330238Y-137571428D01*
X119330238Y-137571428D02*
X119425476Y-137666666D01*
X119425476Y-137666666D02*
X119473095Y-137761904D01*
X119187380Y-136285714D02*
X119187380Y-136761904D01*
X119187380Y-136761904D02*
X119663571Y-136809523D01*
X119663571Y-136809523D02*
X119615952Y-136761904D01*
X119615952Y-136761904D02*
X119568333Y-136666666D01*
X119568333Y-136666666D02*
X119568333Y-136428571D01*
X119568333Y-136428571D02*
X119615952Y-136333333D01*
X119615952Y-136333333D02*
X119663571Y-136285714D01*
X119663571Y-136285714D02*
X119758809Y-136238095D01*
X119758809Y-136238095D02*
X119996904Y-136238095D01*
X119996904Y-136238095D02*
X120092142Y-136285714D01*
X120092142Y-136285714D02*
X120139761Y-136333333D01*
X120139761Y-136333333D02*
X120187380Y-136428571D01*
X120187380Y-136428571D02*
X120187380Y-136666666D01*
X120187380Y-136666666D02*
X120139761Y-136761904D01*
X120139761Y-136761904D02*
X120092142Y-136809523D01*
%TO.C,D3*%
X162761905Y-140117380D02*
X162761905Y-139117380D01*
X162761905Y-139117380D02*
X163000000Y-139117380D01*
X163000000Y-139117380D02*
X163142857Y-139165000D01*
X163142857Y-139165000D02*
X163238095Y-139260238D01*
X163238095Y-139260238D02*
X163285714Y-139355476D01*
X163285714Y-139355476D02*
X163333333Y-139545952D01*
X163333333Y-139545952D02*
X163333333Y-139688809D01*
X163333333Y-139688809D02*
X163285714Y-139879285D01*
X163285714Y-139879285D02*
X163238095Y-139974523D01*
X163238095Y-139974523D02*
X163142857Y-140069761D01*
X163142857Y-140069761D02*
X163000000Y-140117380D01*
X163000000Y-140117380D02*
X162761905Y-140117380D01*
X163666667Y-139117380D02*
X164285714Y-139117380D01*
X164285714Y-139117380D02*
X163952381Y-139498333D01*
X163952381Y-139498333D02*
X164095238Y-139498333D01*
X164095238Y-139498333D02*
X164190476Y-139545952D01*
X164190476Y-139545952D02*
X164238095Y-139593571D01*
X164238095Y-139593571D02*
X164285714Y-139688809D01*
X164285714Y-139688809D02*
X164285714Y-139926904D01*
X164285714Y-139926904D02*
X164238095Y-140022142D01*
X164238095Y-140022142D02*
X164190476Y-140069761D01*
X164190476Y-140069761D02*
X164095238Y-140117380D01*
X164095238Y-140117380D02*
X163809524Y-140117380D01*
X163809524Y-140117380D02*
X163714286Y-140069761D01*
X163714286Y-140069761D02*
X163666667Y-140022142D01*
%TO.C,U1*%
X154117380Y-138761904D02*
X154926904Y-138761904D01*
X154926904Y-138761904D02*
X155022142Y-138714285D01*
X155022142Y-138714285D02*
X155069761Y-138666666D01*
X155069761Y-138666666D02*
X155117380Y-138571428D01*
X155117380Y-138571428D02*
X155117380Y-138380952D01*
X155117380Y-138380952D02*
X155069761Y-138285714D01*
X155069761Y-138285714D02*
X155022142Y-138238095D01*
X155022142Y-138238095D02*
X154926904Y-138190476D01*
X154926904Y-138190476D02*
X154117380Y-138190476D01*
X155117380Y-137190476D02*
X155117380Y-137761904D01*
X155117380Y-137476190D02*
X154117380Y-137476190D01*
X154117380Y-137476190D02*
X154260238Y-137571428D01*
X154260238Y-137571428D02*
X154355476Y-137666666D01*
X154355476Y-137666666D02*
X154403095Y-137761904D01*
%TO.C,C12*%
X150272142Y-129642857D02*
X150319761Y-129690476D01*
X150319761Y-129690476D02*
X150367380Y-129833333D01*
X150367380Y-129833333D02*
X150367380Y-129928571D01*
X150367380Y-129928571D02*
X150319761Y-130071428D01*
X150319761Y-130071428D02*
X150224523Y-130166666D01*
X150224523Y-130166666D02*
X150129285Y-130214285D01*
X150129285Y-130214285D02*
X149938809Y-130261904D01*
X149938809Y-130261904D02*
X149795952Y-130261904D01*
X149795952Y-130261904D02*
X149605476Y-130214285D01*
X149605476Y-130214285D02*
X149510238Y-130166666D01*
X149510238Y-130166666D02*
X149415000Y-130071428D01*
X149415000Y-130071428D02*
X149367380Y-129928571D01*
X149367380Y-129928571D02*
X149367380Y-129833333D01*
X149367380Y-129833333D02*
X149415000Y-129690476D01*
X149415000Y-129690476D02*
X149462619Y-129642857D01*
X150367380Y-128690476D02*
X150367380Y-129261904D01*
X150367380Y-128976190D02*
X149367380Y-128976190D01*
X149367380Y-128976190D02*
X149510238Y-129071428D01*
X149510238Y-129071428D02*
X149605476Y-129166666D01*
X149605476Y-129166666D02*
X149653095Y-129261904D01*
X149462619Y-128309523D02*
X149415000Y-128261904D01*
X149415000Y-128261904D02*
X149367380Y-128166666D01*
X149367380Y-128166666D02*
X149367380Y-127928571D01*
X149367380Y-127928571D02*
X149415000Y-127833333D01*
X149415000Y-127833333D02*
X149462619Y-127785714D01*
X149462619Y-127785714D02*
X149557857Y-127738095D01*
X149557857Y-127738095D02*
X149653095Y-127738095D01*
X149653095Y-127738095D02*
X149795952Y-127785714D01*
X149795952Y-127785714D02*
X150367380Y-128357142D01*
X150367380Y-128357142D02*
X150367380Y-127738095D01*
%TO.C,TP2*%
X170548321Y-135557019D02*
X171491130Y-136028424D01*
X171491130Y-136028424D02*
X171019726Y-135085615D01*
X171962535Y-135557019D02*
X171255428Y-134849913D01*
X172299252Y-135220302D02*
X171592145Y-134513195D01*
X171592145Y-134513195D02*
X172703313Y-134816241D01*
X172703313Y-134816241D02*
X171996206Y-134109134D01*
X173396951Y-134055260D02*
X173531638Y-133987916D01*
X173531638Y-133987916D02*
X173699997Y-133819557D01*
X173699997Y-133819557D02*
X173733669Y-133718542D01*
X173733669Y-133718542D02*
X173733669Y-133651199D01*
X173733669Y-133651199D02*
X173699997Y-133550183D01*
X173699997Y-133550183D02*
X173632653Y-133482840D01*
X173632653Y-133482840D02*
X173531638Y-133449168D01*
X173531638Y-133449168D02*
X173464295Y-133449168D01*
X173464295Y-133449168D02*
X173363279Y-133482840D01*
X173363279Y-133482840D02*
X173194921Y-133583855D01*
X173194921Y-133583855D02*
X173093905Y-133617527D01*
X173093905Y-133617527D02*
X173026562Y-133617527D01*
X173026562Y-133617527D02*
X172925547Y-133583855D01*
X172925547Y-133583855D02*
X172858203Y-133516512D01*
X172858203Y-133516512D02*
X172824531Y-133415496D01*
X172824531Y-133415496D02*
X172824531Y-133348153D01*
X172824531Y-133348153D02*
X172858203Y-133247138D01*
X172858203Y-133247138D02*
X173026562Y-133078779D01*
X173026562Y-133078779D02*
X173161249Y-133011435D01*
X174407104Y-133045107D02*
X174373432Y-133146122D01*
X174373432Y-133146122D02*
X174238745Y-133280809D01*
X174238745Y-133280809D02*
X174137730Y-133314481D01*
X174137730Y-133314481D02*
X174070386Y-133314481D01*
X174070386Y-133314481D02*
X173969371Y-133280809D01*
X173969371Y-133280809D02*
X173767340Y-133078779D01*
X173767340Y-133078779D02*
X173733669Y-132977763D01*
X173733669Y-132977763D02*
X173733669Y-132910420D01*
X173733669Y-132910420D02*
X173767340Y-132809405D01*
X173767340Y-132809405D02*
X173902027Y-132674718D01*
X173902027Y-132674718D02*
X174003043Y-132641046D01*
X175046867Y-132472687D02*
X174676478Y-132102298D01*
X174676478Y-132102298D02*
X174575462Y-132068626D01*
X174575462Y-132068626D02*
X174474447Y-132102298D01*
X174474447Y-132102298D02*
X174339760Y-132236985D01*
X174339760Y-132236985D02*
X174306088Y-132338000D01*
X175013195Y-132439015D02*
X174979524Y-132540031D01*
X174979524Y-132540031D02*
X174811165Y-132708389D01*
X174811165Y-132708389D02*
X174710149Y-132742061D01*
X174710149Y-132742061D02*
X174609134Y-132708389D01*
X174609134Y-132708389D02*
X174541791Y-132641046D01*
X174541791Y-132641046D02*
X174508119Y-132540031D01*
X174508119Y-132540031D02*
X174541791Y-132439015D01*
X174541791Y-132439015D02*
X174710149Y-132270657D01*
X174710149Y-132270657D02*
X174743821Y-132169641D01*
X175484600Y-132034954D02*
X175383585Y-132068626D01*
X175383585Y-132068626D02*
X175282569Y-132034954D01*
X175282569Y-132034954D02*
X174676478Y-131428863D01*
X175989676Y-131462534D02*
X175956005Y-131563549D01*
X175956005Y-131563549D02*
X175821318Y-131698236D01*
X175821318Y-131698236D02*
X175720302Y-131731908D01*
X175720302Y-131731908D02*
X175619287Y-131698236D01*
X175619287Y-131698236D02*
X175349913Y-131428862D01*
X175349913Y-131428862D02*
X175316241Y-131327847D01*
X175316241Y-131327847D02*
X175349913Y-131226832D01*
X175349913Y-131226832D02*
X175484600Y-131092145D01*
X175484600Y-131092145D02*
X175585615Y-131058473D01*
X175585615Y-131058473D02*
X175686631Y-131092145D01*
X175686631Y-131092145D02*
X175753974Y-131159488D01*
X175753974Y-131159488D02*
X175484600Y-131563549D01*
X176663112Y-130856443D02*
X175956005Y-130149336D01*
X176629440Y-130822771D02*
X176595768Y-130923786D01*
X176595768Y-130923786D02*
X176461081Y-131058473D01*
X176461081Y-131058473D02*
X176360066Y-131092145D01*
X176360066Y-131092145D02*
X176292722Y-131092145D01*
X176292722Y-131092145D02*
X176191707Y-131058473D01*
X176191707Y-131058473D02*
X175989677Y-130856443D01*
X175989677Y-130856443D02*
X175956005Y-130755427D01*
X175956005Y-130755427D02*
X175956005Y-130688084D01*
X175956005Y-130688084D02*
X175989677Y-130587069D01*
X175989677Y-130587069D02*
X176124364Y-130452382D01*
X176124364Y-130452382D02*
X176225379Y-130418710D01*
%TO.C,R8*%
X177617380Y-141666666D02*
X177141190Y-141999999D01*
X177617380Y-142238094D02*
X176617380Y-142238094D01*
X176617380Y-142238094D02*
X176617380Y-141857142D01*
X176617380Y-141857142D02*
X176665000Y-141761904D01*
X176665000Y-141761904D02*
X176712619Y-141714285D01*
X176712619Y-141714285D02*
X176807857Y-141666666D01*
X176807857Y-141666666D02*
X176950714Y-141666666D01*
X176950714Y-141666666D02*
X177045952Y-141714285D01*
X177045952Y-141714285D02*
X177093571Y-141761904D01*
X177093571Y-141761904D02*
X177141190Y-141857142D01*
X177141190Y-141857142D02*
X177141190Y-142238094D01*
X177045952Y-141095237D02*
X176998333Y-141190475D01*
X176998333Y-141190475D02*
X176950714Y-141238094D01*
X176950714Y-141238094D02*
X176855476Y-141285713D01*
X176855476Y-141285713D02*
X176807857Y-141285713D01*
X176807857Y-141285713D02*
X176712619Y-141238094D01*
X176712619Y-141238094D02*
X176665000Y-141190475D01*
X176665000Y-141190475D02*
X176617380Y-141095237D01*
X176617380Y-141095237D02*
X176617380Y-140904761D01*
X176617380Y-140904761D02*
X176665000Y-140809523D01*
X176665000Y-140809523D02*
X176712619Y-140761904D01*
X176712619Y-140761904D02*
X176807857Y-140714285D01*
X176807857Y-140714285D02*
X176855476Y-140714285D01*
X176855476Y-140714285D02*
X176950714Y-140761904D01*
X176950714Y-140761904D02*
X176998333Y-140809523D01*
X176998333Y-140809523D02*
X177045952Y-140904761D01*
X177045952Y-140904761D02*
X177045952Y-141095237D01*
X177045952Y-141095237D02*
X177093571Y-141190475D01*
X177093571Y-141190475D02*
X177141190Y-141238094D01*
X177141190Y-141238094D02*
X177236428Y-141285713D01*
X177236428Y-141285713D02*
X177426904Y-141285713D01*
X177426904Y-141285713D02*
X177522142Y-141238094D01*
X177522142Y-141238094D02*
X177569761Y-141190475D01*
X177569761Y-141190475D02*
X177617380Y-141095237D01*
X177617380Y-141095237D02*
X177617380Y-140904761D01*
X177617380Y-140904761D02*
X177569761Y-140809523D01*
X177569761Y-140809523D02*
X177522142Y-140761904D01*
X177522142Y-140761904D02*
X177426904Y-140714285D01*
X177426904Y-140714285D02*
X177236428Y-140714285D01*
X177236428Y-140714285D02*
X177141190Y-140761904D01*
X177141190Y-140761904D02*
X177093571Y-140809523D01*
X177093571Y-140809523D02*
X177045952Y-140904761D01*
%TO.C,U4*%
X200488095Y-143367380D02*
X200488095Y-144176904D01*
X200488095Y-144176904D02*
X200535714Y-144272142D01*
X200535714Y-144272142D02*
X200583333Y-144319761D01*
X200583333Y-144319761D02*
X200678571Y-144367380D01*
X200678571Y-144367380D02*
X200869047Y-144367380D01*
X200869047Y-144367380D02*
X200964285Y-144319761D01*
X200964285Y-144319761D02*
X201011904Y-144272142D01*
X201011904Y-144272142D02*
X201059523Y-144176904D01*
X201059523Y-144176904D02*
X201059523Y-143367380D01*
X201964285Y-143700714D02*
X201964285Y-144367380D01*
X201726190Y-143319761D02*
X201488095Y-144034047D01*
X201488095Y-144034047D02*
X202107142Y-144034047D01*
%TO.C,C11*%
X165857142Y-128522142D02*
X165809523Y-128569761D01*
X165809523Y-128569761D02*
X165666666Y-128617380D01*
X165666666Y-128617380D02*
X165571428Y-128617380D01*
X165571428Y-128617380D02*
X165428571Y-128569761D01*
X165428571Y-128569761D02*
X165333333Y-128474523D01*
X165333333Y-128474523D02*
X165285714Y-128379285D01*
X165285714Y-128379285D02*
X165238095Y-128188809D01*
X165238095Y-128188809D02*
X165238095Y-128045952D01*
X165238095Y-128045952D02*
X165285714Y-127855476D01*
X165285714Y-127855476D02*
X165333333Y-127760238D01*
X165333333Y-127760238D02*
X165428571Y-127665000D01*
X165428571Y-127665000D02*
X165571428Y-127617380D01*
X165571428Y-127617380D02*
X165666666Y-127617380D01*
X165666666Y-127617380D02*
X165809523Y-127665000D01*
X165809523Y-127665000D02*
X165857142Y-127712619D01*
X166809523Y-128617380D02*
X166238095Y-128617380D01*
X166523809Y-128617380D02*
X166523809Y-127617380D01*
X166523809Y-127617380D02*
X166428571Y-127760238D01*
X166428571Y-127760238D02*
X166333333Y-127855476D01*
X166333333Y-127855476D02*
X166238095Y-127903095D01*
X167761904Y-128617380D02*
X167190476Y-128617380D01*
X167476190Y-128617380D02*
X167476190Y-127617380D01*
X167476190Y-127617380D02*
X167380952Y-127760238D01*
X167380952Y-127760238D02*
X167285714Y-127855476D01*
X167285714Y-127855476D02*
X167190476Y-127903095D01*
%TO.C,C27*%
X113857142Y-132772142D02*
X113809523Y-132819761D01*
X113809523Y-132819761D02*
X113666666Y-132867380D01*
X113666666Y-132867380D02*
X113571428Y-132867380D01*
X113571428Y-132867380D02*
X113428571Y-132819761D01*
X113428571Y-132819761D02*
X113333333Y-132724523D01*
X113333333Y-132724523D02*
X113285714Y-132629285D01*
X113285714Y-132629285D02*
X113238095Y-132438809D01*
X113238095Y-132438809D02*
X113238095Y-132295952D01*
X113238095Y-132295952D02*
X113285714Y-132105476D01*
X113285714Y-132105476D02*
X113333333Y-132010238D01*
X113333333Y-132010238D02*
X113428571Y-131915000D01*
X113428571Y-131915000D02*
X113571428Y-131867380D01*
X113571428Y-131867380D02*
X113666666Y-131867380D01*
X113666666Y-131867380D02*
X113809523Y-131915000D01*
X113809523Y-131915000D02*
X113857142Y-131962619D01*
X114238095Y-131962619D02*
X114285714Y-131915000D01*
X114285714Y-131915000D02*
X114380952Y-131867380D01*
X114380952Y-131867380D02*
X114619047Y-131867380D01*
X114619047Y-131867380D02*
X114714285Y-131915000D01*
X114714285Y-131915000D02*
X114761904Y-131962619D01*
X114761904Y-131962619D02*
X114809523Y-132057857D01*
X114809523Y-132057857D02*
X114809523Y-132153095D01*
X114809523Y-132153095D02*
X114761904Y-132295952D01*
X114761904Y-132295952D02*
X114190476Y-132867380D01*
X114190476Y-132867380D02*
X114809523Y-132867380D01*
X115142857Y-131867380D02*
X115809523Y-131867380D01*
X115809523Y-131867380D02*
X115380952Y-132867380D01*
%TO.C,Q1*%
X180404761Y-112962619D02*
X180309523Y-112915000D01*
X180309523Y-112915000D02*
X180214285Y-112819761D01*
X180214285Y-112819761D02*
X180071428Y-112676904D01*
X180071428Y-112676904D02*
X179976190Y-112629285D01*
X179976190Y-112629285D02*
X179880952Y-112629285D01*
X179928571Y-112867380D02*
X179833333Y-112819761D01*
X179833333Y-112819761D02*
X179738095Y-112724523D01*
X179738095Y-112724523D02*
X179690476Y-112534047D01*
X179690476Y-112534047D02*
X179690476Y-112200714D01*
X179690476Y-112200714D02*
X179738095Y-112010238D01*
X179738095Y-112010238D02*
X179833333Y-111915000D01*
X179833333Y-111915000D02*
X179928571Y-111867380D01*
X179928571Y-111867380D02*
X180119047Y-111867380D01*
X180119047Y-111867380D02*
X180214285Y-111915000D01*
X180214285Y-111915000D02*
X180309523Y-112010238D01*
X180309523Y-112010238D02*
X180357142Y-112200714D01*
X180357142Y-112200714D02*
X180357142Y-112534047D01*
X180357142Y-112534047D02*
X180309523Y-112724523D01*
X180309523Y-112724523D02*
X180214285Y-112819761D01*
X180214285Y-112819761D02*
X180119047Y-112867380D01*
X180119047Y-112867380D02*
X179928571Y-112867380D01*
X181309523Y-112867380D02*
X180738095Y-112867380D01*
X181023809Y-112867380D02*
X181023809Y-111867380D01*
X181023809Y-111867380D02*
X180928571Y-112010238D01*
X180928571Y-112010238D02*
X180833333Y-112105476D01*
X180833333Y-112105476D02*
X180738095Y-112153095D01*
%TO.C,C16*%
X159357142Y-115122142D02*
X159309523Y-115169761D01*
X159309523Y-115169761D02*
X159166666Y-115217380D01*
X159166666Y-115217380D02*
X159071428Y-115217380D01*
X159071428Y-115217380D02*
X158928571Y-115169761D01*
X158928571Y-115169761D02*
X158833333Y-115074523D01*
X158833333Y-115074523D02*
X158785714Y-114979285D01*
X158785714Y-114979285D02*
X158738095Y-114788809D01*
X158738095Y-114788809D02*
X158738095Y-114645952D01*
X158738095Y-114645952D02*
X158785714Y-114455476D01*
X158785714Y-114455476D02*
X158833333Y-114360238D01*
X158833333Y-114360238D02*
X158928571Y-114265000D01*
X158928571Y-114265000D02*
X159071428Y-114217380D01*
X159071428Y-114217380D02*
X159166666Y-114217380D01*
X159166666Y-114217380D02*
X159309523Y-114265000D01*
X159309523Y-114265000D02*
X159357142Y-114312619D01*
X160309523Y-115217380D02*
X159738095Y-115217380D01*
X160023809Y-115217380D02*
X160023809Y-114217380D01*
X160023809Y-114217380D02*
X159928571Y-114360238D01*
X159928571Y-114360238D02*
X159833333Y-114455476D01*
X159833333Y-114455476D02*
X159738095Y-114503095D01*
X161166666Y-114217380D02*
X160976190Y-114217380D01*
X160976190Y-114217380D02*
X160880952Y-114265000D01*
X160880952Y-114265000D02*
X160833333Y-114312619D01*
X160833333Y-114312619D02*
X160738095Y-114455476D01*
X160738095Y-114455476D02*
X160690476Y-114645952D01*
X160690476Y-114645952D02*
X160690476Y-115026904D01*
X160690476Y-115026904D02*
X160738095Y-115122142D01*
X160738095Y-115122142D02*
X160785714Y-115169761D01*
X160785714Y-115169761D02*
X160880952Y-115217380D01*
X160880952Y-115217380D02*
X161071428Y-115217380D01*
X161071428Y-115217380D02*
X161166666Y-115169761D01*
X161166666Y-115169761D02*
X161214285Y-115122142D01*
X161214285Y-115122142D02*
X161261904Y-115026904D01*
X161261904Y-115026904D02*
X161261904Y-114788809D01*
X161261904Y-114788809D02*
X161214285Y-114693571D01*
X161214285Y-114693571D02*
X161166666Y-114645952D01*
X161166666Y-114645952D02*
X161071428Y-114598333D01*
X161071428Y-114598333D02*
X160880952Y-114598333D01*
X160880952Y-114598333D02*
X160785714Y-114645952D01*
X160785714Y-114645952D02*
X160738095Y-114693571D01*
X160738095Y-114693571D02*
X160690476Y-114788809D01*
%TO.C,U3*%
X115913095Y-139767380D02*
X115913095Y-140576904D01*
X115913095Y-140576904D02*
X115960714Y-140672142D01*
X115960714Y-140672142D02*
X116008333Y-140719761D01*
X116008333Y-140719761D02*
X116103571Y-140767380D01*
X116103571Y-140767380D02*
X116294047Y-140767380D01*
X116294047Y-140767380D02*
X116389285Y-140719761D01*
X116389285Y-140719761D02*
X116436904Y-140672142D01*
X116436904Y-140672142D02*
X116484523Y-140576904D01*
X116484523Y-140576904D02*
X116484523Y-139767380D01*
X116865476Y-139767380D02*
X117484523Y-139767380D01*
X117484523Y-139767380D02*
X117151190Y-140148333D01*
X117151190Y-140148333D02*
X117294047Y-140148333D01*
X117294047Y-140148333D02*
X117389285Y-140195952D01*
X117389285Y-140195952D02*
X117436904Y-140243571D01*
X117436904Y-140243571D02*
X117484523Y-140338809D01*
X117484523Y-140338809D02*
X117484523Y-140576904D01*
X117484523Y-140576904D02*
X117436904Y-140672142D01*
X117436904Y-140672142D02*
X117389285Y-140719761D01*
X117389285Y-140719761D02*
X117294047Y-140767380D01*
X117294047Y-140767380D02*
X117008333Y-140767380D01*
X117008333Y-140767380D02*
X116913095Y-140719761D01*
X116913095Y-140719761D02*
X116865476Y-140672142D01*
%TO.C,R4*%
X165617380Y-141666666D02*
X165141190Y-141999999D01*
X165617380Y-142238094D02*
X164617380Y-142238094D01*
X164617380Y-142238094D02*
X164617380Y-141857142D01*
X164617380Y-141857142D02*
X164665000Y-141761904D01*
X164665000Y-141761904D02*
X164712619Y-141714285D01*
X164712619Y-141714285D02*
X164807857Y-141666666D01*
X164807857Y-141666666D02*
X164950714Y-141666666D01*
X164950714Y-141666666D02*
X165045952Y-141714285D01*
X165045952Y-141714285D02*
X165093571Y-141761904D01*
X165093571Y-141761904D02*
X165141190Y-141857142D01*
X165141190Y-141857142D02*
X165141190Y-142238094D01*
X164950714Y-140809523D02*
X165617380Y-140809523D01*
X164569761Y-141047618D02*
X165284047Y-141285713D01*
X165284047Y-141285713D02*
X165284047Y-140666666D01*
D11*
%TO.C,J4*%
X113856666Y-126234761D02*
X114237619Y-126234761D01*
X114237619Y-126234761D02*
X114428095Y-126330000D01*
X114428095Y-126330000D02*
X114618571Y-126520476D01*
X114618571Y-126520476D02*
X114713809Y-126901428D01*
X114713809Y-126901428D02*
X114713809Y-127568095D01*
X114713809Y-127568095D02*
X114618571Y-127949047D01*
X114618571Y-127949047D02*
X114428095Y-128139523D01*
X114428095Y-128139523D02*
X114237619Y-128234761D01*
X114237619Y-128234761D02*
X113856666Y-128234761D01*
X113856666Y-128234761D02*
X113666190Y-128139523D01*
X113666190Y-128139523D02*
X113475714Y-127949047D01*
X113475714Y-127949047D02*
X113380476Y-127568095D01*
X113380476Y-127568095D02*
X113380476Y-126901428D01*
X113380476Y-126901428D02*
X113475714Y-126520476D01*
X113475714Y-126520476D02*
X113666190Y-126330000D01*
X113666190Y-126330000D02*
X113856666Y-126234761D01*
X115570952Y-126234761D02*
X115570952Y-127853809D01*
X115570952Y-127853809D02*
X115666190Y-128044285D01*
X115666190Y-128044285D02*
X115761428Y-128139523D01*
X115761428Y-128139523D02*
X115951904Y-128234761D01*
X115951904Y-128234761D02*
X116332857Y-128234761D01*
X116332857Y-128234761D02*
X116523333Y-128139523D01*
X116523333Y-128139523D02*
X116618571Y-128044285D01*
X116618571Y-128044285D02*
X116713809Y-127853809D01*
X116713809Y-127853809D02*
X116713809Y-126234761D01*
X117380476Y-126234761D02*
X118523333Y-126234761D01*
X117951904Y-128234761D02*
X117951904Y-126234761D01*
X119190000Y-127472857D02*
X120713810Y-127472857D01*
D10*
%TO.C,R1*%
X167367380Y-133166666D02*
X166891190Y-133499999D01*
X167367380Y-133738094D02*
X166367380Y-133738094D01*
X166367380Y-133738094D02*
X166367380Y-133357142D01*
X166367380Y-133357142D02*
X166415000Y-133261904D01*
X166415000Y-133261904D02*
X166462619Y-133214285D01*
X166462619Y-133214285D02*
X166557857Y-133166666D01*
X166557857Y-133166666D02*
X166700714Y-133166666D01*
X166700714Y-133166666D02*
X166795952Y-133214285D01*
X166795952Y-133214285D02*
X166843571Y-133261904D01*
X166843571Y-133261904D02*
X166891190Y-133357142D01*
X166891190Y-133357142D02*
X166891190Y-133738094D01*
X167367380Y-132214285D02*
X167367380Y-132785713D01*
X167367380Y-132499999D02*
X166367380Y-132499999D01*
X166367380Y-132499999D02*
X166510238Y-132595237D01*
X166510238Y-132595237D02*
X166605476Y-132690475D01*
X166605476Y-132690475D02*
X166653095Y-132785713D01*
%TO.C,J1*%
X204867380Y-139476190D02*
X204867380Y-138904762D01*
X205867380Y-139190476D02*
X204867380Y-139190476D01*
X205819761Y-138190476D02*
X205867380Y-138285714D01*
X205867380Y-138285714D02*
X205867380Y-138476190D01*
X205867380Y-138476190D02*
X205819761Y-138571428D01*
X205819761Y-138571428D02*
X205724523Y-138619047D01*
X205724523Y-138619047D02*
X205343571Y-138619047D01*
X205343571Y-138619047D02*
X205248333Y-138571428D01*
X205248333Y-138571428D02*
X205200714Y-138476190D01*
X205200714Y-138476190D02*
X205200714Y-138285714D01*
X205200714Y-138285714D02*
X205248333Y-138190476D01*
X205248333Y-138190476D02*
X205343571Y-138142857D01*
X205343571Y-138142857D02*
X205438809Y-138142857D01*
X205438809Y-138142857D02*
X205534047Y-138619047D01*
X205867380Y-137571428D02*
X205819761Y-137666666D01*
X205819761Y-137666666D02*
X205724523Y-137714285D01*
X205724523Y-137714285D02*
X204867380Y-137714285D01*
X205819761Y-136809523D02*
X205867380Y-136904761D01*
X205867380Y-136904761D02*
X205867380Y-137095237D01*
X205867380Y-137095237D02*
X205819761Y-137190475D01*
X205819761Y-137190475D02*
X205724523Y-137238094D01*
X205724523Y-137238094D02*
X205343571Y-137238094D01*
X205343571Y-137238094D02*
X205248333Y-137190475D01*
X205248333Y-137190475D02*
X205200714Y-137095237D01*
X205200714Y-137095237D02*
X205200714Y-136904761D01*
X205200714Y-136904761D02*
X205248333Y-136809523D01*
X205248333Y-136809523D02*
X205343571Y-136761904D01*
X205343571Y-136761904D02*
X205438809Y-136761904D01*
X205438809Y-136761904D02*
X205534047Y-137238094D01*
X205867380Y-136333332D02*
X205200714Y-136333332D01*
X205295952Y-136333332D02*
X205248333Y-136285713D01*
X205248333Y-136285713D02*
X205200714Y-136190475D01*
X205200714Y-136190475D02*
X205200714Y-136047618D01*
X205200714Y-136047618D02*
X205248333Y-135952380D01*
X205248333Y-135952380D02*
X205343571Y-135904761D01*
X205343571Y-135904761D02*
X205867380Y-135904761D01*
X205343571Y-135904761D02*
X205248333Y-135857142D01*
X205248333Y-135857142D02*
X205200714Y-135761904D01*
X205200714Y-135761904D02*
X205200714Y-135619047D01*
X205200714Y-135619047D02*
X205248333Y-135523808D01*
X205248333Y-135523808D02*
X205343571Y-135476189D01*
X205343571Y-135476189D02*
X205867380Y-135476189D01*
X205819761Y-134619047D02*
X205867380Y-134714285D01*
X205867380Y-134714285D02*
X205867380Y-134904761D01*
X205867380Y-134904761D02*
X205819761Y-134999999D01*
X205819761Y-134999999D02*
X205724523Y-135047618D01*
X205724523Y-135047618D02*
X205343571Y-135047618D01*
X205343571Y-135047618D02*
X205248333Y-134999999D01*
X205248333Y-134999999D02*
X205200714Y-134904761D01*
X205200714Y-134904761D02*
X205200714Y-134714285D01*
X205200714Y-134714285D02*
X205248333Y-134619047D01*
X205248333Y-134619047D02*
X205343571Y-134571428D01*
X205343571Y-134571428D02*
X205438809Y-134571428D01*
X205438809Y-134571428D02*
X205534047Y-135047618D01*
X205200714Y-134285713D02*
X205200714Y-133904761D01*
X204867380Y-134142856D02*
X205724523Y-134142856D01*
X205724523Y-134142856D02*
X205819761Y-134095237D01*
X205819761Y-134095237D02*
X205867380Y-133999999D01*
X205867380Y-133999999D02*
X205867380Y-133904761D01*
X205867380Y-133571427D02*
X205200714Y-133571427D01*
X205391190Y-133571427D02*
X205295952Y-133523808D01*
X205295952Y-133523808D02*
X205248333Y-133476189D01*
X205248333Y-133476189D02*
X205200714Y-133380951D01*
X205200714Y-133380951D02*
X205200714Y-133285713D01*
X205200714Y-133047617D02*
X205867380Y-132809522D01*
X205200714Y-132571427D02*
X205867380Y-132809522D01*
X205867380Y-132809522D02*
X206105476Y-132904760D01*
X206105476Y-132904760D02*
X206153095Y-132952379D01*
X206153095Y-132952379D02*
X206200714Y-133047617D01*
%TO.C,TP1*%
X157308473Y-142864211D02*
X157207458Y-142897883D01*
X157207458Y-142897883D02*
X157106443Y-142998898D01*
X157106443Y-142998898D02*
X157039099Y-143133585D01*
X157039099Y-143133585D02*
X157039099Y-143268272D01*
X157039099Y-143268272D02*
X157072771Y-143369287D01*
X157072771Y-143369287D02*
X157173786Y-143537646D01*
X157173786Y-143537646D02*
X157274801Y-143638661D01*
X157274801Y-143638661D02*
X157443160Y-143739676D01*
X157443160Y-143739676D02*
X157544175Y-143773348D01*
X157544175Y-143773348D02*
X157678862Y-143773348D01*
X157678862Y-143773348D02*
X157813549Y-143706005D01*
X157813549Y-143706005D02*
X157880893Y-143638661D01*
X157880893Y-143638661D02*
X157948236Y-143503974D01*
X157948236Y-143503974D02*
X157948236Y-143436631D01*
X157948236Y-143436631D02*
X157712534Y-143200928D01*
X157712534Y-143200928D02*
X157577847Y-143335615D01*
X158621671Y-142897883D02*
X158251282Y-142527493D01*
X158251282Y-142527493D02*
X158150267Y-142493822D01*
X158150267Y-142493822D02*
X158049252Y-142527493D01*
X158049252Y-142527493D02*
X157914565Y-142662180D01*
X157914565Y-142662180D02*
X157880893Y-142763196D01*
X158588000Y-142864211D02*
X158554328Y-142965226D01*
X158554328Y-142965226D02*
X158385969Y-143133585D01*
X158385969Y-143133585D02*
X158284954Y-143167257D01*
X158284954Y-143167257D02*
X158183939Y-143133585D01*
X158183939Y-143133585D02*
X158116595Y-143066241D01*
X158116595Y-143066241D02*
X158082923Y-142965226D01*
X158082923Y-142965226D02*
X158116595Y-142864211D01*
X158116595Y-142864211D02*
X158284954Y-142695852D01*
X158284954Y-142695852D02*
X158318626Y-142594837D01*
X158385969Y-142190776D02*
X158655343Y-141921402D01*
X158251282Y-141854058D02*
X158857374Y-142460150D01*
X158857374Y-142460150D02*
X158958389Y-142493822D01*
X158958389Y-142493822D02*
X159059404Y-142460150D01*
X159059404Y-142460150D02*
X159126748Y-142392806D01*
X159598153Y-141854058D02*
X159564481Y-141955073D01*
X159564481Y-141955073D02*
X159429794Y-142089760D01*
X159429794Y-142089760D02*
X159328779Y-142123432D01*
X159328779Y-142123432D02*
X159227763Y-142089760D01*
X159227763Y-142089760D02*
X158958389Y-141820386D01*
X158958389Y-141820386D02*
X158924718Y-141719371D01*
X158924718Y-141719371D02*
X158958389Y-141618356D01*
X158958389Y-141618356D02*
X159093076Y-141483669D01*
X159093076Y-141483669D02*
X159194092Y-141449997D01*
X159194092Y-141449997D02*
X159295107Y-141483669D01*
X159295107Y-141483669D02*
X159362450Y-141551012D01*
X159362450Y-141551012D02*
X159093076Y-141955073D01*
X160729524Y-140790031D02*
X160392806Y-141126748D01*
X160392806Y-141126748D02*
X159685699Y-140419641D01*
X161066241Y-140453313D02*
X160965226Y-140486985D01*
X160965226Y-140486985D02*
X160897882Y-140486985D01*
X160897882Y-140486985D02*
X160796867Y-140453313D01*
X160796867Y-140453313D02*
X160594837Y-140251282D01*
X160594837Y-140251282D02*
X160561165Y-140150267D01*
X160561165Y-140150267D02*
X160561165Y-140082924D01*
X160561165Y-140082924D02*
X160594837Y-139981908D01*
X160594837Y-139981908D02*
X160695852Y-139880893D01*
X160695852Y-139880893D02*
X160796867Y-139847221D01*
X160796867Y-139847221D02*
X160864211Y-139847221D01*
X160864211Y-139847221D02*
X160965226Y-139880893D01*
X160965226Y-139880893D02*
X161167257Y-140082924D01*
X161167257Y-140082924D02*
X161200928Y-140183939D01*
X161200928Y-140183939D02*
X161200928Y-140251282D01*
X161200928Y-140251282D02*
X161167257Y-140352298D01*
X161167257Y-140352298D02*
X161066241Y-140453313D01*
X161436631Y-139140114D02*
X162009050Y-139712534D01*
X162009050Y-139712534D02*
X162042722Y-139813550D01*
X162042722Y-139813550D02*
X162042722Y-139880893D01*
X162042722Y-139880893D02*
X162009050Y-139981908D01*
X162009050Y-139981908D02*
X161908035Y-140082924D01*
X161908035Y-140082924D02*
X161807020Y-140116595D01*
X161874363Y-139577847D02*
X161840692Y-139678863D01*
X161840692Y-139678863D02*
X161706005Y-139813550D01*
X161706005Y-139813550D02*
X161604989Y-139847221D01*
X161604989Y-139847221D02*
X161537646Y-139847221D01*
X161537646Y-139847221D02*
X161436631Y-139813550D01*
X161436631Y-139813550D02*
X161234600Y-139611519D01*
X161234600Y-139611519D02*
X161200928Y-139510504D01*
X161200928Y-139510504D02*
X161200928Y-139443160D01*
X161200928Y-139443160D02*
X161234600Y-139342145D01*
X161234600Y-139342145D02*
X161369287Y-139207458D01*
X161369287Y-139207458D02*
X161470302Y-139173786D01*
%TO.C,C2*%
X162833333Y-128522142D02*
X162785714Y-128569761D01*
X162785714Y-128569761D02*
X162642857Y-128617380D01*
X162642857Y-128617380D02*
X162547619Y-128617380D01*
X162547619Y-128617380D02*
X162404762Y-128569761D01*
X162404762Y-128569761D02*
X162309524Y-128474523D01*
X162309524Y-128474523D02*
X162261905Y-128379285D01*
X162261905Y-128379285D02*
X162214286Y-128188809D01*
X162214286Y-128188809D02*
X162214286Y-128045952D01*
X162214286Y-128045952D02*
X162261905Y-127855476D01*
X162261905Y-127855476D02*
X162309524Y-127760238D01*
X162309524Y-127760238D02*
X162404762Y-127665000D01*
X162404762Y-127665000D02*
X162547619Y-127617380D01*
X162547619Y-127617380D02*
X162642857Y-127617380D01*
X162642857Y-127617380D02*
X162785714Y-127665000D01*
X162785714Y-127665000D02*
X162833333Y-127712619D01*
X163214286Y-127712619D02*
X163261905Y-127665000D01*
X163261905Y-127665000D02*
X163357143Y-127617380D01*
X163357143Y-127617380D02*
X163595238Y-127617380D01*
X163595238Y-127617380D02*
X163690476Y-127665000D01*
X163690476Y-127665000D02*
X163738095Y-127712619D01*
X163738095Y-127712619D02*
X163785714Y-127807857D01*
X163785714Y-127807857D02*
X163785714Y-127903095D01*
X163785714Y-127903095D02*
X163738095Y-128045952D01*
X163738095Y-128045952D02*
X163166667Y-128617380D01*
X163166667Y-128617380D02*
X163785714Y-128617380D01*
D11*
%TO.C,J3*%
X201476190Y-129234761D02*
X201476190Y-127234761D01*
X202428571Y-129234761D02*
X202428571Y-127234761D01*
X202428571Y-127234761D02*
X203571428Y-129234761D01*
X203571428Y-129234761D02*
X203571428Y-127234761D01*
X204523809Y-128472857D02*
X206047619Y-128472857D01*
D12*
%TO.C,C30*%
X191765000Y-139261252D02*
X191765000Y-138738748D01*
X193235000Y-139261252D02*
X193235000Y-138738748D01*
%TO.C,C10*%
X165090000Y-125148752D02*
X165090000Y-123726248D01*
X166910000Y-125148752D02*
X166910000Y-123726248D01*
%TO.C,C18*%
X136090000Y-121711252D02*
X136090000Y-120288748D01*
X137910000Y-121711252D02*
X137910000Y-120288748D01*
%TO.C,R3*%
X138765000Y-132727064D02*
X138765000Y-132272936D01*
X140235000Y-132727064D02*
X140235000Y-132272936D01*
%TO.C,R6*%
X177772936Y-132765000D02*
X178227064Y-132765000D01*
X177772936Y-134235000D02*
X178227064Y-134235000D01*
%TO.C,C14*%
X141765000Y-132761252D02*
X141765000Y-132238748D01*
X143235000Y-132761252D02*
X143235000Y-132238748D01*
%TO.C,C31*%
X188765000Y-139261252D02*
X188765000Y-138738748D01*
X190235000Y-139261252D02*
X190235000Y-138738748D01*
%TO.C,D1*%
X129800000Y-111325000D02*
X131610000Y-111325000D01*
X131610000Y-111325000D02*
X131610000Y-116450000D01*
X138390000Y-111325000D02*
X138390000Y-112425000D01*
X140200000Y-111325000D02*
X138390000Y-111325000D01*
X129800000Y-109825000D02*
X129800000Y-111325000D01*
X140200000Y-109825000D02*
X140200000Y-111325000D01*
%TO.C,C24*%
X118090000Y-121711252D02*
X118090000Y-120288748D01*
X119910000Y-121711252D02*
X119910000Y-120288748D01*
%TO.C,D4*%
X175500000Y-135440000D02*
X173825000Y-135440000D01*
X175500000Y-135440000D02*
X176150000Y-135440000D01*
X175500000Y-138560000D02*
X174850000Y-138560000D01*
X175500000Y-138560000D02*
X176150000Y-138560000D01*
%TO.C,C25*%
X115090000Y-121711252D02*
X115090000Y-120288748D01*
X116910000Y-121711252D02*
X116910000Y-120288748D01*
%TO.C,TP4*%
X183200000Y-136000000D02*
G75*
G03*
X183200000Y-136000000I-1200000J0D01*
G01*
%TO.C,C4*%
X183090000Y-125148752D02*
X183090000Y-123726248D01*
X184910000Y-125148752D02*
X184910000Y-123726248D01*
%TO.C,C20*%
X130090000Y-121711252D02*
X130090000Y-120288748D01*
X131910000Y-121711252D02*
X131910000Y-120288748D01*
%TO.C,R2*%
X141227064Y-137235000D02*
X140772936Y-137235000D01*
X141227064Y-135765000D02*
X140772936Y-135765000D01*
%TO.C,C29*%
X203265000Y-141761252D02*
X203265000Y-141238748D01*
X204735000Y-141761252D02*
X204735000Y-141238748D01*
%TO.C,C7*%
X174090000Y-125148752D02*
X174090000Y-123726248D01*
X175910000Y-125148752D02*
X175910000Y-123726248D01*
%TO.C,R5*%
X191227064Y-143235000D02*
X190772936Y-143235000D01*
X191227064Y-141765000D02*
X190772936Y-141765000D01*
%TO.C,J5*%
X128175000Y-114500000D02*
G75*
G03*
X128175000Y-114500000I-3175000J0D01*
G01*
%TO.C,C32*%
X170735000Y-141238748D02*
X170735000Y-141761252D01*
X169265000Y-141238748D02*
X169265000Y-141761252D01*
%TO.C,D2*%
X184640000Y-141540000D02*
X184640000Y-143460000D01*
X184640000Y-143460000D02*
X187500000Y-143460000D01*
X187500000Y-141540000D02*
X184640000Y-141540000D01*
%TO.C,C6*%
X177090000Y-125148752D02*
X177090000Y-123726248D01*
X178910000Y-125148752D02*
X178910000Y-123726248D01*
D10*
%TO.C,X1*%
X193310000Y-136270000D02*
X185690000Y-136270000D01*
X193310000Y-133730000D02*
X193310000Y-136270000D01*
X190770000Y-136270000D02*
X190770000Y-133730000D01*
X185690000Y-136270000D02*
X185690000Y-133730000D01*
X185690000Y-133730000D02*
X193310000Y-133730000D01*
D12*
%TO.C,C26*%
X112090000Y-121711252D02*
X112090000Y-120288748D01*
X113910000Y-121711252D02*
X113910000Y-120288748D01*
%TO.C,C28*%
X111265000Y-137761252D02*
X111265000Y-137238748D01*
X112735000Y-137761252D02*
X112735000Y-137238748D01*
%TO.C,U2*%
X131570000Y-139450000D02*
X131570000Y-139180000D01*
X131570000Y-139180000D02*
X134400000Y-139180000D01*
X131570000Y-132820000D02*
X132670000Y-132820000D01*
X131570000Y-132550000D02*
X131570000Y-132820000D01*
X130070000Y-139450000D02*
X131570000Y-139450000D01*
X130070000Y-132550000D02*
X131570000Y-132550000D01*
%TO.C,C3*%
X186090000Y-125148752D02*
X186090000Y-123726248D01*
X187910000Y-125148752D02*
X187910000Y-123726248D01*
%TO.C,C33*%
X182735000Y-141238748D02*
X182735000Y-141761252D01*
X181265000Y-141238748D02*
X181265000Y-141761252D01*
%TO.C,C1*%
X135865000Y-132761252D02*
X135865000Y-132238748D01*
X137335000Y-132761252D02*
X137335000Y-132238748D01*
%TO.C,L1*%
X163700000Y-119300000D02*
X163700000Y-106700000D01*
X166700000Y-119300000D02*
X163700000Y-119300000D01*
X176300000Y-119300000D02*
X173300000Y-119300000D01*
X163700000Y-106700000D02*
X166700000Y-106700000D01*
X173300000Y-106700000D02*
X176300000Y-106700000D01*
X176300000Y-106700000D02*
X176300000Y-119300000D01*
%TO.C,C8*%
X171090000Y-125148752D02*
X171090000Y-123726248D01*
X172910000Y-125148752D02*
X172910000Y-123726248D01*
%TO.C,C23*%
X121090000Y-121711252D02*
X121090000Y-120288748D01*
X122910000Y-121711252D02*
X122910000Y-120288748D01*
%TO.C,J2*%
X199175000Y-120750000D02*
G75*
G03*
X199175000Y-120750000I-3175000J0D01*
G01*
%TO.C,C13*%
X146265000Y-132761252D02*
X146265000Y-132238748D01*
X147735000Y-132761252D02*
X147735000Y-132238748D01*
%TO.C,TP3*%
X154200000Y-135500000D02*
G75*
G03*
X154200000Y-135500000I-1200000J0D01*
G01*
%TO.C,R7*%
X179735000Y-136772936D02*
X179735000Y-137227064D01*
X178265000Y-136772936D02*
X178265000Y-137227064D01*
%TO.C,C17*%
X139090000Y-121711252D02*
X139090000Y-120288748D01*
X140910000Y-121711252D02*
X140910000Y-120288748D01*
%TO.C,L2*%
X156300000Y-111700000D02*
X156300000Y-124300000D01*
X153300000Y-111700000D02*
X156300000Y-111700000D01*
X143700000Y-111700000D02*
X146700000Y-111700000D01*
X156300000Y-124300000D02*
X153300000Y-124300000D01*
X146700000Y-124300000D02*
X143700000Y-124300000D01*
X143700000Y-124300000D02*
X143700000Y-111700000D01*
%TO.C,C15*%
X120765000Y-137761252D02*
X120765000Y-137238748D01*
X122235000Y-137761252D02*
X122235000Y-137238748D01*
%TO.C,D3*%
X163500000Y-135440000D02*
X161825000Y-135440000D01*
X163500000Y-135440000D02*
X164150000Y-135440000D01*
X163500000Y-138560000D02*
X162850000Y-138560000D01*
X163500000Y-138560000D02*
X164150000Y-138560000D01*
%TO.C,U1*%
X155440000Y-135000000D02*
X155440000Y-136800000D01*
X155440000Y-135000000D02*
X155440000Y-134200000D01*
X158560000Y-135000000D02*
X158560000Y-135800000D01*
X158560000Y-135000000D02*
X158560000Y-134200000D01*
%TO.C,C21*%
X127090000Y-121711252D02*
X127090000Y-120288748D01*
X128910000Y-121711252D02*
X128910000Y-120288748D01*
%TO.C,C22*%
X124090000Y-121711252D02*
X124090000Y-120288748D01*
X125910000Y-121711252D02*
X125910000Y-120288748D01*
%TO.C,C12*%
X149265000Y-132761252D02*
X149265000Y-132238748D01*
X150735000Y-132761252D02*
X150735000Y-132238748D01*
%TO.C,TP2*%
X171200000Y-137000000D02*
G75*
G03*
X171200000Y-137000000I-1200000J0D01*
G01*
%TO.C,R8*%
X179735000Y-141272936D02*
X179735000Y-141727064D01*
X178265000Y-141272936D02*
X178265000Y-141727064D01*
%TO.C,U4*%
X198500000Y-142935000D02*
X201950000Y-142935000D01*
X198500000Y-142935000D02*
X196550000Y-142935000D01*
X198500000Y-134065000D02*
X200450000Y-134065000D01*
X198500000Y-134065000D02*
X196550000Y-134065000D01*
%TO.C,C11*%
X162090000Y-125148752D02*
X162090000Y-123726248D01*
X163910000Y-125148752D02*
X163910000Y-123726248D01*
%TO.C,C5*%
X180090000Y-125148752D02*
X180090000Y-123726248D01*
X181910000Y-125148752D02*
X181910000Y-123726248D01*
%TO.C,C27*%
X114761252Y-134735000D02*
X114238748Y-134735000D01*
X114761252Y-133265000D02*
X114238748Y-133265000D01*
%TO.C,Q1*%
X179800000Y-111325000D02*
X181610000Y-111325000D01*
X181610000Y-111325000D02*
X181610000Y-116450000D01*
X188390000Y-111325000D02*
X188390000Y-112425000D01*
X190200000Y-111325000D02*
X188390000Y-111325000D01*
X179800000Y-109825000D02*
X179800000Y-111325000D01*
X190200000Y-109825000D02*
X190200000Y-111325000D01*
%TO.C,C16*%
X160711252Y-113910000D02*
X159288748Y-113910000D01*
X160711252Y-112090000D02*
X159288748Y-112090000D01*
%TO.C,C19*%
X133090000Y-121711252D02*
X133090000Y-120288748D01*
X134910000Y-121711252D02*
X134910000Y-120288748D01*
%TO.C,U3*%
X117575000Y-135890000D02*
X115775000Y-135890000D01*
X115775000Y-139110000D02*
X118225000Y-139110000D01*
%TO.C,R4*%
X167735000Y-141272936D02*
X167735000Y-141727064D01*
X166265000Y-141272936D02*
X166265000Y-141727064D01*
%TO.C,J4*%
X128175000Y-127500000D02*
G75*
G03*
X128175000Y-127500000I-3175000J0D01*
G01*
%TO.C,R1*%
X167735000Y-136772936D02*
X167735000Y-137227064D01*
X166265000Y-136772936D02*
X166265000Y-137227064D01*
%TO.C,J1*%
X208830000Y-143630000D02*
X207500000Y-143630000D01*
X208830000Y-142300000D02*
X208830000Y-143630000D01*
X208830000Y-141030000D02*
X208830000Y-133350000D01*
X208830000Y-141030000D02*
X206170000Y-141030000D01*
X208830000Y-133350000D02*
X206170000Y-133350000D01*
X206170000Y-141030000D02*
X206170000Y-133350000D01*
%TO.C,TP1*%
X159200000Y-140000000D02*
G75*
G03*
X159200000Y-140000000I-1200000J0D01*
G01*
%TO.C,C2*%
X189090000Y-125148752D02*
X189090000Y-123726248D01*
X190910000Y-125148752D02*
X190910000Y-123726248D01*
%TO.C,C9*%
X168090000Y-125148752D02*
X168090000Y-123726248D01*
X169910000Y-125148752D02*
X169910000Y-123726248D01*
%TO.C,J3*%
X199175000Y-128500000D02*
G75*
G03*
X199175000Y-128500000I-3175000J0D01*
G01*
%TD*%
D13*
%TO.C,X1*%
X192040000Y-135000000D03*
X189500000Y-135000000D03*
X186960000Y-135000000D03*
%TD*%
M02*
